<svg xmlns="http://www.w3.org/2000/svg" width="40.967" height="48.977" viewBox="0 0 40.967 48.977">
  <g id="agri" transform="translate(-41.25)">
    <g id="Group_10153" data-name="Group 10153" transform="translate(41.25)">
      <g id="Group_10144" data-name="Group 10144" transform="translate(2.196)">
        <path id="Path_2408" data-name="Path 2408" d="M305.78,182.89q-.124.073-.25.142c-5.589,3.048-10.476-5.185-5.1-8.593q.121-.076.245-.149c4.625-2.724,10.928-.631,10.928-.631S310.405,180.166,305.78,182.89Z" transform="translate(-275.365 -156.105)" fill="#8fd03d"/>
        <path id="Path_2409" data-name="Path 2409" d="M332.993,173.009a17.464,17.464,0,0,1,3.16.648s-1.2,6.509-5.822,9.233q-.124.073-.25.142c-.163.089-.325.167-.486.237a4.716,4.716,0,0,0,4.369-.237q.126-.068.25-.142c4.625-2.724,5.822-9.233,5.822-9.233A17.757,17.757,0,0,0,332.993,173.009Z" transform="translate(-303.799 -156.105)" fill="#059762"/>
        <path id="Path_2410" data-name="Path 2410" d="M67.929,16.394q.112.131.228.259C74.8,24.02,86.2,14.339,79.943,6.64q-.108-.133-.22-.264C74.336.088,64.073,0,64.073,0S62.542,10.106,67.929,16.394Z" transform="translate(-63.872 0)" fill="#8fd03d"/>
        <path id="Path_2411" data-name="Path 2411" d="M81.336,6.64q-.108-.133-.22-.264C75.729.088,65.465,0,65.465,0s-.022.146-.051.411c3.477.614,8.547,2.146,11.818,5.965q.112.131.22.264c4.138,5.09.558,11.047-4.265,12.37,6.335,1.82,13.358-5.962,8.148-12.37Z" transform="translate(-65.264)" fill="#059762"/>
      </g>
      <g id="Group_10146" data-name="Group 10146" transform="translate(9.475 5.603)">
        <g id="Group_10145" data-name="Group 10145" transform="translate(9.598 0)">
          <path id="Path_2412" data-name="Path 2412" d="M245.438,65.64q-.03.1-.064.2c-1.5,4.43-8.711,2.356-7.524-2.165q.027-.1.057-.2c1.134-3.776,5.82-5.754,5.82-5.754S246.573,61.864,245.438,65.64Z" transform="translate(-237.719 -57.719)" fill="#8fd03d"/>
        </g>
        <path id="Path_2413" data-name="Path 2413" d="M263.747,57.719a13.806,13.806,0,0,0-2.913,1.791,9.091,9.091,0,0,1,.741,6.13q-.03.1-.064.2a3.478,3.478,0,0,1-1.619,1.994c1.951.94,4.648.524,5.5-1.994q.034-.1.064-.2C266.593,61.864,263.747,57.719,263.747,57.719Z" transform="translate(-248.141 -57.719)" fill="#059762"/>
        <path id="Path_2414" data-name="Path 2414" d="M162.659,92.88a.728.728,0,0,0-.96-.372,32.129,32.129,0,0,0-3.613,1.856.733.733,0,0,0-.1.063,19.149,19.149,0,0,0-5.009,4.271,15.9,15.9,0,0,0-2.535,4.386c-.1-1.472-.247-2.834-.429-4.1,0-.021,0-.042,0-.063a40.545,40.545,0,0,1,3.106-14.3A.728.728,0,0,0,151.8,84a39.741,39.741,0,0,0-2.814,10.085c-.228-.792-.48-1.547-.758-2.272a26.089,26.089,0,0,0-4.34-7.317l.385-3.225a.728.728,0,0,0-1.446-.173L142.6,83c-.774-.863-1.608-1.733-2.5-2.635a.728.728,0,1,0-1.033,1.027c3.622,3.642,6.191,6.744,7.805,10.947,1.641,4.272,2.341,9.664,2.341,18.029v2.586a.728.728,0,1,0,1.456,0v-2.586A16.345,16.345,0,0,1,154.1,99.617a17.52,17.52,0,0,1,4.362-3.775l1.548.7a.728.728,0,1,0,.6-1.327l-.6-.269q1.061-.568,2.273-1.1A.728.728,0,0,0,162.659,92.88Z" transform="translate(-138.851 -77.971)" fill="#086b24"/>
      </g>
      <g id="Group_10152" data-name="Group 10152" transform="translate(0 38.002)">
        <path id="Path_2415" data-name="Path 2415" d="M122.2,396.121H120.28v-1.1a3.567,3.567,0,0,0-3.567-3.567H104.355a3.567,3.567,0,0,0-3.567,3.567v1.1H98.864a3.567,3.567,0,0,0-3.567,3.567V401.7h30.474v-2.012A3.567,3.567,0,0,0,122.2,396.121Z" transform="translate(-90.05 -391.454)" fill="#3a5"/>
        <path id="Path_2416" data-name="Path 2416" d="M285.275,396.121h-1.924v-1.1a3.567,3.567,0,0,0-3.567-3.567H275.9a3.567,3.567,0,0,1,3.567,3.567v1.1h1.924a3.567,3.567,0,0,1,3.567,3.567V401.7h3.883v-2.012A3.567,3.567,0,0,0,285.275,396.121Z" transform="translate(-253.121 -391.454)" fill="#059762"/>
        <g id="Group_10147" data-name="Group 10147" transform="translate(14.496 2.683)">
          <path id="Path_2417" data-name="Path 2417" d="M191.273,420.552a.729.729,0,0,0,0-1.456A.729.729,0,0,0,191.273,420.552Z" transform="translate(-190.57 -419.096)" fill="#e5f4ef"/>
        </g>
        <g id="Group_10148" data-name="Group 10148" transform="translate(19.859 5.108)">
          <path id="Path_2418" data-name="Path 2418" d="M246.513,445.527a.729.729,0,0,0,0-1.456A.729.729,0,0,0,246.513,445.527Z" transform="translate(-245.81 -444.071)" fill="#e5f4ef"/>
        </g>
        <g id="Group_10149" data-name="Group 10149" transform="translate(8.172 6.975)">
          <path id="Path_2419" data-name="Path 2419" d="M126.127,464.761a.729.729,0,0,0,0-1.456A.729.729,0,0,0,126.127,464.761Z" transform="translate(-125.424 -463.305)" fill="#e5f4ef"/>
        </g>
        <g id="Group_10150" data-name="Group 10150" transform="translate(31.914 6.975)">
          <path id="Path_2420" data-name="Path 2420" d="M370.694,464.761a.729.729,0,0,0,0-1.456A.729.729,0,0,0,370.694,464.761Z" transform="translate(-369.991 -463.305)" fill="#e5f4ef"/>
        </g>
        <g id="Group_10151" data-name="Group 10151" transform="translate(0 9.518)">
          <path id="Path_2421" data-name="Path 2421" d="M81.489,490.956H41.978a.728.728,0,0,1,0-1.456H81.489a.728.728,0,0,1,0,1.456Z" transform="translate(-41.25 -489.5)" fill="#8fd03d"/>
        </g>
      </g>
    </g>
  </g>
</svg>
