<svg id="alert" xmlns="http://www.w3.org/2000/svg" width="39.723" height="39.723" viewBox="0 0 39.723 39.723">
  <path id="Path_1791" data-name="Path 1791" d="M18.655,9.7a1.655,1.655,0,0,1-1.17-2.825L21,3.364a1.655,1.655,0,0,1,2.34,2.34L19.825,9.215a1.651,1.651,0,0,1-1.17.485Z" transform="translate(11.137 1.886)" fill="#3a5"/>
  <path id="Path_1792" data-name="Path 1792" d="M24.474,14.31H22.405a1.655,1.655,0,1,1,0-3.31h2.069a1.655,1.655,0,0,1,0,3.31Z" transform="translate(13.594 7.206)" fill="#3a5"/>
  <path id="Path_1793" data-name="Path 1793" d="M26.93,27.689H6.241A1.242,1.242,0,0,1,5,26.448V18.586a11.586,11.586,0,0,1,23.172,0v7.862A1.242,1.242,0,0,1,26.93,27.689Z" transform="translate(3.276 4.586)" fill="#059762"/>
  <path id="Path_1794" data-name="Path 1794" d="M8.655,18.931A1.655,1.655,0,0,1,7,17.276,8.285,8.285,0,0,1,15.276,9a1.655,1.655,0,0,1,0,3.31,4.971,4.971,0,0,0-4.965,4.965A1.655,1.655,0,0,1,8.655,18.931Z" transform="translate(4.586 5.896)" fill="#fff"/>
  <g id="Group_9794" data-name="Group 9794">
    <path id="Path_1795" data-name="Path 1795" d="M12.655,8.276A1.655,1.655,0,0,1,11,6.621V1.655a1.655,1.655,0,0,1,3.31,0V6.621A1.655,1.655,0,0,1,12.655,8.276Z" transform="translate(7.206)" fill="#3a5"/>
    <path id="Path_1796" data-name="Path 1796" d="M8.045,9.7a1.651,1.651,0,0,1-1.17-.485L3.364,5.7A1.655,1.655,0,1,1,5.7,3.364L9.215,6.875A1.655,1.655,0,0,1,8.045,9.7Z" transform="translate(1.886 1.886)" fill="#3a5"/>
    <path id="Path_1797" data-name="Path 1797" d="M3.31,14.31H1.655a1.655,1.655,0,1,1,0-3.31H3.31a1.655,1.655,0,1,1,0,3.31Z" transform="translate(0 7.206)" fill="#3a5"/>
  </g>
  <path id="Path_1798" data-name="Path 1798" d="M36.827,27.931H2.9a2.9,2.9,0,0,1-2.9-2.9V20.9A2.9,2.9,0,0,1,2.9,18h33.93a2.9,2.9,0,0,1,2.9,2.9v4.138A2.9,2.9,0,0,1,36.827,27.931Z" transform="translate(0 11.792)" fill="#8fd03d"/>
  <path id="Path_1799" data-name="Path 1799" d="M16.586,7A11.6,11.6,0,0,0,5,18.586v6.621H16.586V13.621a4.971,4.971,0,0,0-4.965,4.965,1.655,1.655,0,1,1-3.31,0,8.285,8.285,0,0,1,8.276-8.276Z" transform="translate(3.276 4.586)" fill="#059762"/>
  <path id="Path_1800" data-name="Path 1800" d="M15.276,9A8.285,8.285,0,0,0,7,17.276a1.655,1.655,0,0,0,3.31,0,4.971,4.971,0,0,1,4.965-4.965Z" transform="translate(4.586 5.896)" fill="#dedede"/>
  <path id="Path_1801" data-name="Path 1801" d="M12.655,0A1.655,1.655,0,0,0,11,1.655V6.621a1.655,1.655,0,0,0,1.655,1.655Z" transform="translate(7.206)" fill="#3a5"/>
  <path id="Path_1802" data-name="Path 1802" d="M4.534,2.879A1.655,1.655,0,0,0,3.364,5.7L6.875,9.215a1.655,1.655,0,0,0,2.34-2.34L5.7,3.364a1.651,1.651,0,0,0-1.17-.485Z" transform="translate(1.886 1.886)" fill="#3a5"/>
  <path id="Path_1803" data-name="Path 1803" d="M3.31,11H1.655a1.655,1.655,0,1,0,0,3.31H3.31a1.655,1.655,0,1,0,0-3.31Z" transform="translate(0 7.206)" fill="#3a5"/>
  <path id="Path_1804" data-name="Path 1804" d="M19.862,18H2.9A2.9,2.9,0,0,0,0,20.9v4.138a2.9,2.9,0,0,0,2.9,2.9H19.862Z" transform="translate(0 11.792)" fill="#8fd03d"/>
</svg>
