<svg id="astro" xmlns="http://www.w3.org/2000/svg" width="50.459" height="50.459" viewBox="0 0 50.459 50.459">
  <g id="Group_10154" data-name="Group 10154" transform="translate(0 0)">
    <path id="Path_2422" data-name="Path 2422" d="M50.459,25.229A25.229,25.229,0,1,1,25.229,0,25.229,25.229,0,0,1,50.459,25.229Z" transform="translate(0 0)" fill="#059762"/>
    <path id="Path_2423" data-name="Path 2423" d="M79.074,57.357A21.717,21.717,0,1,1,57.357,35.64,21.717,21.717,0,0,1,79.074,57.357Z" transform="translate(-32.128 -32.128)" fill="#3a5"/>
    <path id="Path_2424" data-name="Path 2424" d="M113.577,96.095A17.482,17.482,0,1,1,96.095,78.613,17.482,17.482,0,0,1,113.577,96.095Z" transform="translate(-70.865 -70.865)" fill="#8fd03d" opacity="0.44"/>
    <path id="Path_2425" data-name="Path 2425" d="M158.85,146.925A11.925,11.925,0,1,1,146.925,135,11.925,11.925,0,0,1,158.85,146.925Z" transform="translate(-121.695 -121.695)" fill="#3a5"/>
    <path id="Path_2426" data-name="Path 2426" d="M198.925,204.243a6.9,6.9,0,1,1-9.387-9.387,6.9,6.9,0,0,0,9.387,9.387Z" transform="translate(-167.669 -175.652)" fill="#3a5"/>
    <path id="Path_2427" data-name="Path 2427" d="M50.454,25.722q0-.246,0-.493t0-.493H37.637a12.33,12.33,0,0,0-1.417-5.284l11.105-6.412q-.239-.432-.494-.853L35.726,18.6a12.515,12.515,0,0,0-3.867-3.867L38.27,3.628q-.421-.255-.853-.494L31.006,14.239a12.333,12.333,0,0,0-5.284-1.417V0q-.246,0-.493,0t-.493,0V12.822a12.33,12.33,0,0,0-5.284,1.417L13.042,3.134q-.432.239-.853.494L18.6,14.733A12.517,12.517,0,0,0,14.733,18.6L3.627,12.188q-.255.421-.494.853l11.105,6.412a12.333,12.333,0,0,0-1.417,5.284H0q0,.246,0,.493t0,.493H12.822a12.33,12.33,0,0,0,1.417,5.284L3.134,37.417q.239.432.494.853l11.106-6.412A12.515,12.515,0,0,0,18.6,35.726L12.188,46.831q.421.255.853.494L19.453,36.22a12.333,12.333,0,0,0,5.284,1.417V50.454q.246,0,.493,0t.493,0V37.637a12.333,12.333,0,0,0,5.284-1.417l6.412,11.105q.432-.239.853-.494L31.859,35.726a12.517,12.517,0,0,0,3.867-3.867L46.832,38.27q.255-.421.494-.853L36.22,31.006a12.333,12.333,0,0,0,1.417-5.284ZM25.229,36.662A11.432,11.432,0,1,1,36.662,25.229,11.445,11.445,0,0,1,25.229,36.662Zm0-18.824a7.391,7.391,0,1,0,7.391,7.391A7.4,7.4,0,0,0,25.229,17.838Zm0,13.8a6.406,6.406,0,1,1,6.406-6.406A6.413,6.413,0,0,1,25.229,31.635Z" transform="translate(0 0)" fill="#8fd03d"/>
    <path id="Path_2428" data-name="Path 2428" d="M214.947,208.116l.746,1.109a.266.266,0,0,0,.312.1l1.255-.459a.266.266,0,0,1,.357.259l-.048,1.335a.266.266,0,0,0,.193.265l1.285.367a.266.266,0,0,1,.136.42l-.824,1.052a.266.266,0,0,0,0,.328l.824,1.052a.266.266,0,0,1-.136.42l-1.285.367a.266.266,0,0,0-.193.265l.048,1.335a.266.266,0,0,1-.357.259L216,216.132a.266.266,0,0,0-.312.1l-.746,1.109a.266.266,0,0,1-.441,0l-.746-1.109a.266.266,0,0,0-.312-.1l-1.255.459a.266.266,0,0,1-.357-.259l.048-1.335a.266.266,0,0,0-.193-.265l-1.285-.367a.266.266,0,0,1-.136-.42l.824-1.052a.266.266,0,0,0,0-.328l-.824-1.052a.266.266,0,0,1,.136-.42l1.285-.367a.266.266,0,0,0,.193-.265l-.048-1.335a.266.266,0,0,1,.357-.259l1.255.459a.266.266,0,0,0,.312-.1l.746-1.109A.266.266,0,0,1,214.947,208.116Z" transform="translate(-189.497 -187.499)" fill="#8fd03d"/>
    <path id="Path_2429" data-name="Path 2429" d="M234.859,236.719l-.662-.384a.2.2,0,0,0-.15-.02l-.74.2a.2.2,0,0,1-.241-.14l-.2-.74a.2.2,0,0,0-.092-.12l-.662-.384a.2.2,0,0,1-.072-.269l.384-.662a.2.2,0,0,0,.02-.149l-.2-.74a.2.2,0,0,1,.14-.241l.74-.2a.2.2,0,0,0,.12-.092l.384-.662a.2.2,0,0,1,.269-.072l.662.384a.2.2,0,0,0,.15.02l.74-.2a.2.2,0,0,1,.241.14l.2.74a.2.2,0,0,0,.092.12l.662.384a.2.2,0,0,1,.072.269l-.384.662a.2.2,0,0,0-.02.15l.2.74a.2.2,0,0,1-.14.241l-.74.2a.2.2,0,0,0-.12.092l-.384.662a.2.2,0,0,1-.269.072Z" transform="translate(-209.152 -209.152)" fill="#3a5"/>
    <path id="Path_2430" data-name="Path 2430" d="M243.37,233.9l-.384.662a.2.2,0,0,0-.02.15l.2.74a.2.2,0,0,1-.14.241l-.74.2a.2.2,0,0,0-.039.015,7.392,7.392,0,0,1-2.847-2.936l.386-.1a.2.2,0,0,0,.12-.092l.384-.662a.2.2,0,0,1,.269-.072l.662.384a.2.2,0,0,0,.15.02l.74-.2a.2.2,0,0,1,.241.14l.2.74a.2.2,0,0,0,.092.12l.662.384A.2.2,0,0,1,243.37,233.9Z" transform="translate(-215.804 -209.152)" fill="#3c8852"/>
    <path id="Path_2431" data-name="Path 2431" d="M29.83,47.546a1.6,1.6,0,0,0-1.385.8,1.371,1.371,0,0,0-1.309,1.368.466.466,0,0,1-.465.465.394.394,0,0,0,0,.788,1.255,1.255,0,0,0,1.253-1.253.582.582,0,0,1,.31-.514,1.6,1.6,0,1,0,1.595-1.657Zm0,2.4a.808.808,0,1,1,.808-.808A.808.808,0,0,1,29.83,49.95ZM32.357,65.92v2.714a.394.394,0,0,1-.788,0V65.92a.394.394,0,0,1,.788,0Zm1.2-25.434a.393.393,0,0,1-.255-.094l-.835-.708-.835.708a.394.394,0,0,1-.514,0l-.831-.7-.835.708a.394.394,0,1,1-.51-.6l1.09-.924a.394.394,0,0,1,.51,0l.835.708.835-.708a.394.394,0,0,1,.51,0l1.09.924a.394.394,0,0,1-.255.695Zm-2.238,24.3a.394.394,0,0,1-.394.394.677.677,0,0,0-.585.74.4.4,0,0,1-.006.07v2.644a.394.394,0,0,1-.788,0V65.353a.33.33,0,0,0-.329-.329.394.394,0,1,1,0-.788,1.117,1.117,0,0,1,.9.452,1.276,1.276,0,0,1,.811-.3A.394.394,0,0,1,31.316,64.786Zm8.225-31.149a.394.394,0,0,1,.394-.394h.557a4.981,4.981,0,0,0-.708-2.333.394.394,0,1,1,.664-.424,5.79,5.79,0,0,1,.835,2.757h3.2a.394.394,0,0,1,0,.788h-3.2a5.787,5.787,0,0,1-.835,2.757.394.394,0,0,1-.664-.424,4.982,4.982,0,0,0,.708-2.333h-.557a.4.4,0,0,1-.394-.394ZM59.03,39.271a2.71,2.71,0,1,0,2.1-2.642l-.039,0a1.182,1.182,0,0,1-1.181-1.181.394.394,0,1,0-.788,0,1.97,1.97,0,0,0,.955,1.687,2.709,2.709,0,0,0-1.045,2.137Zm2.712-1.923a1.923,1.923,0,1,1-1.923,1.923A1.926,1.926,0,0,1,61.742,37.348ZM28.43,59.5a.394.394,0,0,1-.557.558l-.419-.419-1.079,1.079a.394.394,0,0,1-.557-.558L26.9,59.078l-.419-.419a.394.394,0,1,1,.557-.558l.419.419,3.088-3.088a.394.394,0,0,1,.557.558l-3.088,3.088Zm-2.641-9.744a.394.394,0,0,1-.394-.394V45.5a.386.386,0,0,0-.386-.386.394.394,0,1,1,0-.788,1.174,1.174,0,0,1,1,.563,1.792,1.792,0,0,1,1.1-.394h.247c.218,0,.175.177.175.394s.065.394-.152.394h-.264a.888.888,0,0,0-.918.828.394.394,0,0,1-.017.115v3.134A.394.394,0,0,1,25.789,49.753Zm3.1-12.064a.394.394,0,0,1,.046-.556l1.09-.924a.394.394,0,0,1,.51,0l1.09.924a.394.394,0,0,1-.51.6l-.835-.708-.835.708a.394.394,0,0,1-.556-.046Zm35.74,31.751a.394.394,0,0,1-.394.394,1.175,1.175,0,0,1-1.174-1.174.394.394,0,0,1,.788,0,.386.386,0,0,0,.386.386A.394.394,0,0,1,64.634,69.441Zm-9.371,4.571a.383.383,0,0,0,.076.008.394.394,0,0,1,0,.788,1.171,1.171,0,0,1-.851-.366,2.664,2.664,0,0,1-.891.152.394.394,0,0,1,0-.788,1.881,1.881,0,0,0,.571-.088q0-.035,0-.071s0-.007,0-.011V70.709a.394.394,0,1,1,.788,0v2.521a1.881,1.881,0,0,0,.531-1.312.394.394,0,0,1,.788,0A2.672,2.672,0,0,1,55.263,74.012ZM36,70.094a.394.394,0,0,1-.2.466l-1.039.521a.394.394,0,0,1-.353-.7l.239-.12a1.929,1.929,0,0,1-1.055-1.718.394.394,0,0,1,.788,0,1.14,1.14,0,0,0,.636,1.021l-.106-.352a.394.394,0,0,1,.755-.228Zm31.3-12.53a1.6,1.6,0,0,0,.36,2.528,3.436,3.436,0,0,1-3.514-.828.394.394,0,1,0-.557.558,4.225,4.225,0,0,0,5.969,0A1.6,1.6,0,0,0,67.3,57.563Zm1.7,1.7a.808.808,0,1,1,.237-.571.809.809,0,0,1-.237.571Zm1.158-8.821a.394.394,0,0,1-.533.164,4.887,4.887,0,0,0-4.026,0,.394.394,0,0,1-.369-.7,4.066,4.066,0,0,1,.66-.275V45.671a.394.394,0,0,1,.788,0v3.778a6.134,6.134,0,0,1,1.867,0V47.864a.394.394,0,0,1,.788,0v1.769a4.05,4.05,0,0,1,.66.275A.394.394,0,0,1,70.157,50.442ZM62.145,63.673h-.228A1.683,1.683,0,0,0,60.2,65.217c0,.023-.007,1.729-.007,1.729a1.6,1.6,0,1,0,.788,1.376c0-.079,0-3.011,0-3.033a.888.888,0,0,1,.918-.828h.2c.218,0,.216-.177.216-.394s.038-.394-.18-.394ZM59.389,69.13a.808.808,0,1,1,.808-.808A.808.808,0,0,1,59.389,69.13ZM45.441,73.144a.394.394,0,0,1-.394.394H43.4a.394.394,0,0,1-.279-.673,1.7,1.7,0,1,0-2.411,0,.394.394,0,0,1-.308.672H38.776a.394.394,0,0,1,0-.788h.893a2.493,2.493,0,1,1,4.485,0h.893A.394.394,0,0,1,45.441,73.144Zm0,1.636a.394.394,0,0,1-.394.394H38.776a.394.394,0,0,1,0-.788h6.271A.394.394,0,0,1,45.441,74.78Zm7.33-4.071v2.926a.394.394,0,0,1-.788,0V70.709a.394.394,0,0,1,.788,0Zm-1.122-1.223a.394.394,0,0,1-.394.394.76.76,0,0,0-.661.828.4.4,0,0,1-.007.072v2.854a.394.394,0,0,1-.788,0V70.1a.386.386,0,0,0-.386-.386.394.394,0,1,1,0-.788,1.174,1.174,0,0,1,.962.5,1.349,1.349,0,0,1,.88-.333.394.394,0,0,1,.394.394Zm.533-37.2a11.649,11.649,0,0,1,.836,4.561.394.394,0,0,1-.788,0c0-3.436-1.237-5.83-2.346-5.83a.394.394,0,0,1,0-.788C50.782,30.229,51.6,30.96,52.182,32.286Z" transform="translate(-22.189 -27.25)" fill="#fff"/>
    <path id="Path_2432" data-name="Path 2432" d="M165.73,186.816a.493.493,0,0,1-.039-.984,9,9,0,0,0,1.264-.194.493.493,0,0,1,.219.961,9.99,9.99,0,0,1-1.4.216Zm-2.875-.2a.5.5,0,0,1-.109-.012,9.926,9.926,0,0,1-1.36-.413.493.493,0,0,1,.353-.92,8.936,8.936,0,0,0,1.225.372.493.493,0,0,1-.109.973Zm6.889-1.066a.493.493,0,0,1-.25-.918,9.022,9.022,0,0,0,1.054-.725.493.493,0,1,1,.615.77,10.011,10.011,0,0,1-1.169.8A.492.492,0,0,1,169.745,185.547Zm-10.684-.76a.49.49,0,0,1-.307-.108,10.064,10.064,0,0,1-1.044-.961.493.493,0,0,1,.717-.676,9.081,9.081,0,0,0,.942.867.493.493,0,0,1-.307.878Zm-2.628-3.288a.493.493,0,0,1-.444-.278,9.952,9.952,0,0,1-.525-1.32.493.493,0,1,1,.939-.3,8.951,8.951,0,0,0,.473,1.188.493.493,0,0,1-.443.707Zm-.939-4.1A.493.493,0,0,1,155,176.9h.493l-.493,0a10.089,10.089,0,0,1,.1-1.413.493.493,0,0,1,.976.138,9.087,9.087,0,0,0-.089,1.267v.01a.493.493,0,0,1-.493.493Zm.929-4.105a.493.493,0,0,1-.444-.706,9.977,9.977,0,0,1,.706-1.233.493.493,0,1,1,.818.549,9.007,9.007,0,0,0-.636,1.111A.493.493,0,0,1,156.423,173.291ZM159.046,170a.493.493,0,0,1-.308-.877,10,10,0,0,1,1.168-.806.493.493,0,1,1,.5.849,9.019,9.019,0,0,0-1.053.727A.492.492,0,0,1,159.046,170Z" transform="translate(-139.725 -151.664)" fill="#059762"/>
    <path id="Path_2433" data-name="Path 2433" d="M312.214,177.735a.491.491,0,0,1-.358-.154,9.073,9.073,0,0,0-.942-.866.493.493,0,0,1,.614-.771,10.047,10.047,0,0,1,1.045.96.493.493,0,0,1-.358.831Zm2.138,3.626a.493.493,0,0,1-.47-.344,8.911,8.911,0,0,0-.474-1.188.493.493,0,1,1,.887-.43,9.917,9.917,0,0,1,.526,1.319.493.493,0,0,1-.47.642Z" transform="translate(-280.104 -158.507)" fill="#059762"/>
    <path id="Path_2434" data-name="Path 2434" d="M279.974,168.911a.493.493,0,0,1-.488-.562,9.1,9.1,0,0,0,.09-1.277v-.02a.493.493,0,1,1,.986,0v.013a10.087,10.087,0,0,1-.1,1.423A.493.493,0,0,1,279.974,168.911Zm-5.984-10.184a.492.492,0,0,1-.176-.033,8.925,8.925,0,0,0-1.225-.371.493.493,0,1,1,.217-.961,9.913,9.913,0,0,1,1.361.412.493.493,0,0,1-.176.953Z" transform="translate(-245.378 -141.843)" fill="#2a8a46"/>
    <path id="Path_2435" data-name="Path 2435" d="M239.957,171.016a.493.493,0,0,1-.408-.768,8.982,8.982,0,0,0,.637-1.11.493.493,0,0,1,.888.428,9.978,9.978,0,0,1-.707,1.232A.492.492,0,0,1,239.957,171.016Zm-9.975-14.5a.493.493,0,0,1-.109-.973,9.977,9.977,0,0,1,1.4-.217.493.493,0,1,1,.081.982,8.974,8.974,0,0,0-1.264.2A.5.5,0,0,1,229.982,156.518Z" transform="translate(-206.873 -140.018)" fill="#8fd03d"/>
    <path id="Path_2436" data-name="Path 2436" d="M91.268,45.477a4.066,4.066,0,0,1-.66.275V48.24a.394.394,0,1,1-.788,0v-2.3a6.077,6.077,0,0,1-.934.071,5.2,5.2,0,0,1-2.382-.531.394.394,0,0,1,.369-.7,4.887,4.887,0,0,0,4.026,0,.394.394,0,0,1,.369.7Zm-16.976-8.63c0-3.436,1.237-5.83,2.346-5.83a.394.394,0,1,0,0-.788c-.9,0-1.715.731-2.3,2.057a11.649,11.649,0,0,0-.836,4.561.394.394,0,0,0,.788,0Zm-8.139-3.211a.394.394,0,0,0-.394-.394H65.2a4.982,4.982,0,0,1,.708-2.333.394.394,0,1,0-.664-.424,5.79,5.79,0,0,0-.835,2.757h-.952a.394.394,0,1,0,0,.788h.953a5.787,5.787,0,0,0,.835,2.757.394.394,0,1,0,.664-.424,4.982,4.982,0,0,1-.708-2.333h.558A.4.4,0,0,0,66.153,33.637Zm-8.89,6.155-1.09-.924a.394.394,0,0,0-.51,0l-1.09.924a.394.394,0,1,0,.51.6l.835-.708.835.708a.394.394,0,1,0,.51-.6Zm-2.694-2.06-.83-.7-.835.708a.394.394,0,0,1-.51-.6l1.09-.924a.394.394,0,0,1,.51,0l.835.708.835-.708a.394.394,0,0,1,.51,0l1.09.924a.394.394,0,0,1-.51.6l-.835-.708-.835.708A.394.394,0,0,1,54.569,37.731ZM83.4,63.673a.394.394,0,0,0,0,.788.891.891,0,0,1,.941.828v3.371a.394.394,0,0,0,.788,0V65.29A1.678,1.678,0,0,0,83.4,63.673Zm4.072-5.548a1.6,1.6,0,0,0-.363-2.529,3.438,3.438,0,0,1,3.518.83.394.394,0,1,0,.557-.558,4.218,4.218,0,0,0-5.969,0h0a1.6,1.6,0,0,0,2.258,2.256Zm-.558-1.7a.809.809,0,1,1-.571-.236A.809.809,0,0,1,86.914,56.425Zm-1.2-17.41a2.71,2.71,0,0,0-1.034-1.88,1.97,1.97,0,0,0,.955-1.688.394.394,0,0,0-.788,0,1.182,1.182,0,0,1-1.181,1.181l-.038,0a2.646,2.646,0,0,0-.358-.058,2.705,2.705,0,0,0-2.177.786.394.394,0,0,0,.564.551,1.922,1.922,0,0,1,2.719,2.719.394.394,0,0,0,.551.564A2.705,2.705,0,0,0,85.716,39.015ZM76.211,70.491a1.515,1.515,0,0,0-1.437-1.4h-.062a1.382,1.382,0,0,0-1.06.515,1.382,1.382,0,0,0-1.06-.515.394.394,0,0,0,0,.788.76.76,0,0,1,.661.828.394.394,0,0,0,.394.394h.01a.394.394,0,0,0,.394-.394.76.76,0,0,1,.661-.828h.062a.729.729,0,0,1,.653.7c.006.043.01.169.012.187v1.374a.394.394,0,0,0,.788,0V70.709c0-.021-.011-.167-.017-.218ZM64.971,74.78a.394.394,0,0,0-.394-.394H61.929a.394.394,0,0,0,0,.788h2.648A.394.394,0,0,0,64.971,74.78Zm-.022-1.358a.394.394,0,0,1-.546.011.414.414,0,0,1,.007-.587A1.7,1.7,0,0,0,62.76,70.01a.394.394,0,1,1-.2-.763,2.493,2.493,0,0,1,2.388,4.176Zm-9.308-7.7a1.435,1.435,0,0,0-1.362-1.329h-.058a1.306,1.306,0,0,0-.983.463,1.306,1.306,0,0,0-.984-.463.394.394,0,1,0,0,.788.677.677,0,0,1,.585.74.394.394,0,0,0,.394.394h.009a.394.394,0,0,0,.394-.394.677.677,0,0,1,.585-.74h.058a.648.648,0,0,1,.578.625c0,.038.008.151.011.168v2.662a.394.394,0,0,0,.788,0V65.92c0-.021-.01-.154-.015-.2ZM52.253,55.158H49.559a.394.394,0,1,0,0,.788H51.3L49.42,57.827a.394.394,0,0,0,.557.558L51.859,56.5v1.742a.394.394,0,0,0,.788,0V55.552A.394.394,0,0,0,52.253,55.158Zm-1.936-9.3a1.7,1.7,0,0,0-1.708-1.361.394.394,0,1,0,0,.788.927.927,0,0,1,.913.629,2.424,2.424,0,0,1,.032.262v2.622a.394.394,0,0,0,.788,0V46.109C50.343,46.085,50.327,45.914,50.317,45.853Z" transform="translate(-43.463 -27.25)" fill="#fff"/>
  </g>
</svg>
