<svg xmlns="http://www.w3.org/2000/svg" width="49.532" height="37.823" viewBox="0 0 49.532 37.823">
  <g id="Group_9775" data-name="Group 9775" transform="translate(-2 -1025.526)">
    <path id="Path_1568" data-name="Path 1568" d="M31.563,1044.15v3.432a2.13,2.13,0,0,1-2.151,2.128l-2.788-.017a2.144,2.144,0,0,1-2.151-2.141v-3.147" transform="translate(17.358 13.639)" fill="#2b4255"/>
    <path id="Path_1569" data-name="Path 1569" d="M8.156,1034.2v-3c0-.462,0-1.232-.893-1.2l-2.643.1c-1.781.066-2.62,2.6-2.62,3.583,0,.754.839.721.845.723Z" transform="translate(0 3.272)" fill="#34485c" fill-rule="evenodd"/>
    <path id="Path_1570" data-name="Path 1570" d="M45.618,1031.131a.894.894,0,0,0-.609.26l-1.772,1.729a.854.854,0,0,0-.27.854.876.876,0,0,0,.646.633.9.9,0,0,0,.874-.262l1.772-1.726a.852.852,0,0,0,.2-.958.887.887,0,0,0-.841-.53Zm-40.765-.121a.886.886,0,0,0-.821.539.852.852,0,0,0,.2.946l1.772,1.739a.9.9,0,0,0,1.253,0,.852.852,0,0,0,0-1.225l-1.773-1.736A.9.9,0,0,0,4.853,1031.01Z" transform="translate(1.519 4.016)" fill="#34485c" fill-rule="evenodd"/>
    <path id="Path_1571" data-name="Path 1571" d="M10.565,1044.15v3.432a2.13,2.13,0,0,1-2.151,2.128l-2.788-.017a2.144,2.144,0,0,1-2.151-2.141v-3.147" transform="translate(1.14 13.639)" fill="#2b4255"/>
    <path id="Path_1572" data-name="Path 1572" d="M7.979,1032.69a104.141,104.141,0,0,0,18.424,1.589,103.989,103.989,0,0,0,18.425-1.475l.174-.089,5.328,4.989v14.283a1.423,1.423,0,0,1-1.418,1.417l-9.039-.028H39.7a1.755,1.755,0,0,0-1.772-1.738l-23.041-.071a1.744,1.744,0,0,0-1.772,1.727h-.174l-9.04-.028a1.391,1.391,0,0,1-1.418-1.425v-14.283l5.449-5.01Z" transform="translate(0.367 5.143)" fill="#059762" fill-rule="evenodd"/>
    <path id="Path_1573" data-name="Path 1573" d="M42.691,1037.815l-2.977-10.048c-.34-1.147-1-2.154-2.233-2.158l-26.793-.083c-1.237,0-1.893,1-2.233,2.144L5.478,1037.7l.182.137a104.135,104.135,0,0,0,18.424,1.589,103.989,103.989,0,0,0,18.425-1.475Z" transform="translate(2.686 0)" fill="#34485c"/>
    <path id="Path_1574" data-name="Path 1574" d="M40.116,1037.526l-2.691-9.083c-.307-1.037-.9-1.947-2.018-1.951l-24.22-.074c-1.118,0-1.711.9-2.018,1.938l-2.691,9.066.165.125a94.155,94.155,0,0,0,16.655,1.436,94.027,94.027,0,0,0,16.655-1.333Z" transform="translate(3.459 0.653)" fill="#ddd"/>
    <path id="Path_1575" data-name="Path 1575" d="M9.865,1037.03a.893.893,0,0,0-.723.359.85.85,0,0,0-.121.784l2.306,6.936a.884.884,0,0,0,.838.6l18.434.057a.885.885,0,0,0,.845-.6l2.306-6.922a.85.85,0,0,0-.126-.776.892.892,0,0,0-.716-.358l-23.041-.071Zm1.219,1.736,20.6.064-1.727,5.19-17.146-.05-1.727-5.2Z" transform="translate(5.387 8.425)" fill="#fff"/>
    <path id="Path_1576" data-name="Path 1576" d="M9.978,1039.03l0,1.732,21.269.064,0-1.732-21.269-.064Z" transform="translate(6.16 9.89)" fill="#fff" fill-rule="evenodd"/>
    <path id="Path_1577" data-name="Path 1577" d="M26.473,1034.467v-3c0-.461,0-1.232.893-1.265l2.643-.1c1.781-.066,2.62,2.405,2.62,3.383,0,.754-.839.784-.845.785Z" transform="translate(18.903 3.349)" fill="#34485c" fill-rule="evenodd"/>
    <path id="Path_1578" data-name="Path 1578" d="M11.565,1044.475l-7.09-.022v-6.93c4.431-.25,7.09,2.621,7.09,6.952Zm26.586.087,7.09.022v-6.929c-4.431-.276-7.09,2.577-7.09,6.907Z" transform="translate(1.912 8.776)" fill="#8fd03d"/>
  </g>
</svg>
