<svg xmlns="http://www.w3.org/2000/svg" width="45.287" height="40.904" viewBox="0 0 45.287 40.904">
  <g id="city" transform="translate(-1 -4)">
    <path id="Path_2437" data-name="Path 2437" d="M1,56H46.287v2.922H1Z" transform="translate(0 -14.017)" fill="#8fd03d"/>
    <path id="Path_2438" data-name="Path 2438" d="M2.461,57.461H46.287V56H1v2.922H2.461Z" transform="translate(0 -14.017)" fill="#3a5"/>
    <path id="Path_2439" data-name="Path 2439" d="M17.609,8.383,3,4V41.983H17.609Z" transform="translate(-0.539)" fill="#059762"/>
    <path id="Path_2440" data-name="Path 2440" d="M18.148,42.791V10.944L5,7V42.791Z" transform="translate(-1.078 -0.809)" fill="#8fd03d"/>
    <path id="Path_2441" data-name="Path 2441" d="M47.609,12,33,14.191V44.139H47.609Z" transform="translate(-8.626 -2.157)" fill="#8fd03d"/>
    <path id="Path_2442" data-name="Path 2442" d="M48.148,44.22V12.3L35,14.272V44.22Z" transform="translate(-9.165 -2.237)" fill="#3a5"/>
    <path id="Path_2443" data-name="Path 2443" d="M48.152,10.708l-17.53,2.63a.73.73,0,0,0,.107,1.453.82.82,0,0,0,.11-.008l17.53-2.63a.731.731,0,0,0-.217-1.445Z" transform="translate(-7.817 -1.806)" fill="#f2eded"/>
    <path id="Path_2444" data-name="Path 2444" d="M6.73,14.422a.73.73,0,0,1-.73-.73V12.23a.73.73,0,1,1,1.461,0v1.461A.73.73,0,0,1,6.73,14.422Z" transform="translate(-1.348 -2.022)" fill="#059762"/>
    <path id="Path_2445" data-name="Path 2445" d="M11.73,14.422a.73.73,0,0,1-.73-.73V12.23a.73.73,0,1,1,1.461,0v1.461A.73.73,0,0,1,11.73,14.422Z" transform="translate(-2.696 -2.022)" fill="#059762"/>
    <path id="Path_2446" data-name="Path 2446" d="M16.73,14.422a.73.73,0,0,1-.73-.73V12.23a.73.73,0,0,1,1.461,0v1.461A.73.73,0,0,1,16.73,14.422Z" transform="translate(-4.043 -2.022)" fill="#059762"/>
    <path id="Path_2447" data-name="Path 2447" d="M21,20H32.687V46.3H21Z" transform="translate(-5.391 -4.313)" fill="#3a5"/>
    <path id="Path_2448" data-name="Path 2448" d="M23,22H33.226V46.835H23Z" transform="translate(-5.93 -4.852)" fill="#059762"/>
    <path id="Path_2449" data-name="Path 2449" d="M24.73,25.922a.73.73,0,0,1-.73-.73V23.73a.73.73,0,0,1,1.461,0v1.461A.73.73,0,0,1,24.73,25.922Z" transform="translate(-6.2 -5.122)" fill="#8fd03d"/>
    <path id="Path_2450" data-name="Path 2450" d="M28.73,25.922a.73.73,0,0,1-.73-.73V23.73a.73.73,0,1,1,1.461,0v1.461A.73.73,0,0,1,28.73,25.922Z" transform="translate(-7.278 -5.122)" fill="#8fd03d"/>
    <path id="Path_2451" data-name="Path 2451" d="M32.73,25.922a.73.73,0,0,1-.73-.73V23.73a.73.73,0,0,1,1.461,0v1.461A.73.73,0,0,1,32.73,25.922Z" transform="translate(-8.357 -5.122)" fill="#8fd03d"/>
    <path id="Path_2452" data-name="Path 2452" d="M24.73,31.922a.73.73,0,0,1-.73-.73V29.73a.73.73,0,0,1,1.461,0v1.461A.73.73,0,0,1,24.73,31.922Z" transform="translate(-6.2 -6.739)" fill="#8fd03d"/>
    <path id="Path_2453" data-name="Path 2453" d="M28.73,31.922a.73.73,0,0,1-.73-.73V29.73a.73.73,0,0,1,1.461,0v1.461A.73.73,0,0,1,28.73,31.922Z" transform="translate(-7.278 -6.739)" fill="#8fd03d"/>
    <path id="Path_2454" data-name="Path 2454" d="M32.73,31.922a.73.73,0,0,1-.73-.73V29.73a.73.73,0,0,1,1.461,0v1.461A.73.73,0,0,1,32.73,31.922Z" transform="translate(-8.357 -6.739)" fill="#8fd03d"/>
    <path id="Path_2455" data-name="Path 2455" d="M24.73,37.922a.73.73,0,0,1-.73-.73V35.73a.73.73,0,0,1,1.461,0v1.461A.73.73,0,0,1,24.73,37.922Z" transform="translate(-6.2 -8.357)" fill="#8fd03d"/>
    <path id="Path_2456" data-name="Path 2456" d="M28.73,37.922a.73.73,0,0,1-.73-.73V35.73a.73.73,0,1,1,1.461,0v1.461A.73.73,0,0,1,28.73,37.922Z" transform="translate(-7.278 -8.357)" fill="#8fd03d"/>
    <path id="Path_2457" data-name="Path 2457" d="M32.73,37.922a.73.73,0,0,1-.73-.73V35.73a.73.73,0,0,1,1.461,0v1.461A.73.73,0,0,1,32.73,37.922Z" transform="translate(-8.357 -8.357)" fill="#8fd03d"/>
    <path id="Path_2458" data-name="Path 2458" d="M24.73,43.922a.73.73,0,0,1-.73-.73V41.73a.73.73,0,0,1,1.461,0v1.461A.73.73,0,0,1,24.73,43.922Z" transform="translate(-6.2 -9.974)" fill="#8fd03d"/>
    <path id="Path_2459" data-name="Path 2459" d="M28.73,43.922a.73.73,0,0,1-.73-.73V41.73a.73.73,0,1,1,1.461,0v1.461A.73.73,0,0,1,28.73,43.922Z" transform="translate(-7.278 -9.974)" fill="#8fd03d"/>
    <path id="Path_2460" data-name="Path 2460" d="M32.73,43.922a.73.73,0,0,1-.73-.73V41.73a.73.73,0,0,1,1.461,0v1.461A.73.73,0,0,1,32.73,43.922Z" transform="translate(-8.357 -9.974)" fill="#8fd03d"/>
    <path id="Path_2461" data-name="Path 2461" d="M27,48h2.922v5.843H27Z" transform="translate(-7.009 -11.861)" fill="#197252"/>
    <path id="Path_2462" data-name="Path 2462" d="M40.73,25.922a.73.73,0,0,1-.73-.73V23.73a.73.73,0,0,1,1.461,0v1.461A.73.73,0,0,1,40.73,25.922Z" transform="translate(-10.513 -5.122)" fill="#8fd03d"/>
    <path id="Path_2463" data-name="Path 2463" d="M44.73,25.922a.73.73,0,0,1-.73-.73V23.73a.73.73,0,0,1,1.461,0v1.461A.73.73,0,0,1,44.73,25.922Z" transform="translate(-11.591 -5.122)" fill="#8fd03d"/>
    <path id="Path_2464" data-name="Path 2464" d="M40.73,19.922a.73.73,0,0,1-.73-.73V17.73a.73.73,0,0,1,1.461,0v1.461A.73.73,0,0,1,40.73,19.922Z" transform="translate(-10.513 -3.504)" fill="#8fd03d"/>
    <path id="Path_2465" data-name="Path 2465" d="M44.73,19.922a.73.73,0,0,1-.73-.73V17.73a.73.73,0,0,1,1.461,0v1.461A.73.73,0,0,1,44.73,19.922Z" transform="translate(-11.591 -3.504)" fill="#8fd03d"/>
    <path id="Path_2466" data-name="Path 2466" d="M40.73,31.922a.73.73,0,0,1-.73-.73V29.73a.73.73,0,0,1,1.461,0v1.461A.73.73,0,0,1,40.73,31.922Z" transform="translate(-10.513 -6.739)" fill="#8fd03d"/>
    <path id="Path_2467" data-name="Path 2467" d="M44.73,31.922a.73.73,0,0,1-.73-.73V29.73a.73.73,0,0,1,1.461,0v1.461A.73.73,0,0,1,44.73,31.922Z" transform="translate(-11.591 -6.739)" fill="#8fd03d"/>
    <path id="Path_2468" data-name="Path 2468" d="M40.73,37.922a.73.73,0,0,1-.73-.73V35.73a.73.73,0,0,1,1.461,0v1.461A.73.73,0,0,1,40.73,37.922Z" transform="translate(-10.513 -8.357)" fill="#8fd03d"/>
    <path id="Path_2469" data-name="Path 2469" d="M44.73,37.922a.73.73,0,0,1-.73-.73V35.73a.73.73,0,0,1,1.461,0v1.461A.73.73,0,0,1,44.73,37.922Z" transform="translate(-11.591 -8.357)" fill="#8fd03d"/>
    <path id="Path_2470" data-name="Path 2470" d="M40.73,43.922a.73.73,0,0,1-.73-.73V41.73a.73.73,0,0,1,1.461,0v1.461A.73.73,0,0,1,40.73,43.922Z" transform="translate(-10.513 -9.974)" fill="#8fd03d"/>
    <path id="Path_2471" data-name="Path 2471" d="M44.73,43.922a.73.73,0,0,1-.73-.73V41.73a.73.73,0,0,1,1.461,0v1.461A.73.73,0,0,1,44.73,43.922Z" transform="translate(-11.591 -9.974)" fill="#8fd03d"/>
    <path id="Path_2472" data-name="Path 2472" d="M41,48h2.922v5.843H41Z" transform="translate(-10.783 -11.861)" fill="#197252"/>
    <g id="Group_10155" data-name="Group 10155" transform="translate(4.652 14.591)">
      <path id="Path_2473" data-name="Path 2473" d="M6.73,21.422a.73.73,0,0,1-.73-.73V19.23a.73.73,0,1,1,1.461,0v1.461A.73.73,0,0,1,6.73,21.422Z" transform="translate(-6 -18.5)" fill="#059762"/>
      <path id="Path_2474" data-name="Path 2474" d="M11.73,21.422a.73.73,0,0,1-.73-.73V19.23a.73.73,0,1,1,1.461,0v1.461A.73.73,0,0,1,11.73,21.422Z" transform="translate(-7.348 -18.5)" fill="#059762"/>
      <path id="Path_2475" data-name="Path 2475" d="M16.73,21.422a.73.73,0,0,1-.73-.73V19.23a.73.73,0,0,1,1.461,0v1.461A.73.73,0,0,1,16.73,21.422Z" transform="translate(-8.696 -18.5)" fill="#059762"/>
      <path id="Path_2476" data-name="Path 2476" d="M6.73,28.422a.73.73,0,0,1-.73-.73V26.23a.73.73,0,0,1,1.461,0v1.461A.73.73,0,0,1,6.73,28.422Z" transform="translate(-6 -20.387)" fill="#059762"/>
      <path id="Path_2477" data-name="Path 2477" d="M11.73,28.422a.73.73,0,0,1-.73-.73V26.23a.73.73,0,0,1,1.461,0v1.461A.73.73,0,0,1,11.73,28.422Z" transform="translate(-7.348 -20.387)" fill="#059762"/>
      <path id="Path_2478" data-name="Path 2478" d="M16.73,28.422a.73.73,0,0,1-.73-.73V26.23a.73.73,0,0,1,1.461,0v1.461A.73.73,0,0,1,16.73,28.422Z" transform="translate(-8.696 -20.387)" fill="#059762"/>
      <path id="Path_2479" data-name="Path 2479" d="M6.73,35.422a.73.73,0,0,1-.73-.73V33.23a.73.73,0,1,1,1.461,0v1.461A.73.73,0,0,1,6.73,35.422Z" transform="translate(-6 -22.274)" fill="#059762"/>
      <path id="Path_2480" data-name="Path 2480" d="M11.73,35.422a.73.73,0,0,1-.73-.73V33.23a.73.73,0,0,1,1.461,0v1.461A.73.73,0,0,1,11.73,35.422Z" transform="translate(-7.348 -22.274)" fill="#059762"/>
      <path id="Path_2481" data-name="Path 2481" d="M16.73,35.422a.73.73,0,0,1-.73-.73V33.23a.73.73,0,0,1,1.461,0v1.461A.73.73,0,0,1,16.73,35.422Z" transform="translate(-8.696 -22.274)" fill="#059762"/>
      <path id="Path_2482" data-name="Path 2482" d="M6.73,42.422a.73.73,0,0,1-.73-.73V40.23a.73.73,0,1,1,1.461,0v1.461A.73.73,0,0,1,6.73,42.422Z" transform="translate(-6 -24.161)" fill="#059762"/>
      <path id="Path_2483" data-name="Path 2483" d="M11.73,42.422a.73.73,0,0,1-.73-.73V40.23a.73.73,0,0,1,1.461,0v1.461A.73.73,0,0,1,11.73,42.422Z" transform="translate(-7.348 -24.161)" fill="#059762"/>
      <path id="Path_2484" data-name="Path 2484" d="M16.73,42.422a.73.73,0,0,1-.73-.73V40.23a.73.73,0,0,1,1.461,0v1.461A.73.73,0,0,1,16.73,42.422Z" transform="translate(-8.696 -24.161)" fill="#059762"/>
      <path id="Path_2485" data-name="Path 2485" d="M6.73,49.422a.73.73,0,0,1-.73-.73V47.23a.73.73,0,1,1,1.461,0v1.461A.73.73,0,0,1,6.73,49.422Z" transform="translate(-6 -26.048)" fill="#059762"/>
    </g>
    <path id="Path_2486" data-name="Path 2486" d="M12,47.5h3.652v6.209H12Z" transform="translate(-2.965 -11.726)" fill="#197252"/>
    <path id="Path_2487" data-name="Path 2487" d="M57.765,46.565H49V21l8.765,1.461Z" transform="translate(-12.939 -4.583)" fill="#059762"/>
    <path id="Path_2488" data-name="Path 2488" d="M58.3,47.1V24.218L51,23V47.1Z" transform="translate(-13.478 -5.122)" fill="#8fd03d"/>
    <path id="Path_2489" data-name="Path 2489" d="M52.73,28.922a.73.73,0,0,1-.73-.73V26.73a.73.73,0,1,1,1.461,0v1.461A.73.73,0,0,1,52.73,28.922Z" transform="translate(-13.748 -5.93)" fill="#059762"/>
    <path id="Path_2490" data-name="Path 2490" d="M56.73,28.922a.73.73,0,0,1-.73-.73V26.73a.73.73,0,0,1,1.461,0v1.461A.73.73,0,0,1,56.73,28.922Z" transform="translate(-14.826 -5.93)" fill="#059762"/>
    <path id="Path_2491" data-name="Path 2491" d="M52.73,34.922a.73.73,0,0,1-.73-.73V32.73a.73.73,0,1,1,1.461,0v1.461A.73.73,0,0,1,52.73,34.922Z" transform="translate(-13.748 -7.548)" fill="#059762"/>
    <path id="Path_2492" data-name="Path 2492" d="M56.73,34.922a.73.73,0,0,1-.73-.73V32.73a.73.73,0,0,1,1.461,0v1.461A.73.73,0,0,1,56.73,34.922Z" transform="translate(-14.826 -7.548)" fill="#059762"/>
    <path id="Path_2493" data-name="Path 2493" d="M52.73,40.922a.73.73,0,0,1-.73-.73V38.73a.73.73,0,1,1,1.461,0v1.461A.73.73,0,0,1,52.73,40.922Z" transform="translate(-13.748 -9.165)" fill="#059762"/>
    <path id="Path_2494" data-name="Path 2494" d="M56.73,40.922a.73.73,0,0,1-.73-.73V38.73a.73.73,0,0,1,1.461,0v1.461A.73.73,0,0,1,56.73,40.922Z" transform="translate(-14.826 -9.165)" fill="#059762"/>
    <path id="Path_2495" data-name="Path 2495" d="M52.73,46.922a.73.73,0,0,1-.73-.73V44.73a.73.73,0,1,1,1.461,0v1.461A.73.73,0,0,1,52.73,46.922Z" transform="translate(-13.748 -10.783)" fill="#059762"/>
    <path id="Path_2496" data-name="Path 2496" d="M56.73,46.922a.73.73,0,0,1-.73-.73V44.73a.73.73,0,0,1,1.461,0v1.461A.73.73,0,0,1,56.73,46.922Z" transform="translate(-14.826 -10.783)" fill="#059762"/>
    <path id="Path_2497" data-name="Path 2497" d="M54,54.383V50.73a.73.73,0,0,1,1.461,0v3.652Z" transform="translate(-14.287 -12.4)" fill="#197252"/>
  </g>
</svg>
