<svg xmlns="http://www.w3.org/2000/svg" width="47.129" height="46.343" viewBox="0 0 47.129 46.343">
  <g id="office-building" transform="translate(0 -4.267)">
    <rect id="Rectangle_712" data-name="Rectangle 712" width="21.993" height="42.416" transform="translate(12.568 7.409)" fill="#0e714d"/>
    <path id="Path_1719" data-name="Path 1719" d="M136.533,130.156v11.782h21.994V105.719Z" transform="translate(-123.965 -92.114)" fill="#059762"/>
    <rect id="Rectangle_713" data-name="Rectangle 713" width="15.71" height="3.142" transform="translate(15.71 4.267)" fill="#3a5"/>
    <rect id="Rectangle_714" data-name="Rectangle 714" width="15.71" height="1.571" transform="translate(15.71 5.838)" fill="#8fd03d"/>
    <g id="Group_9781" data-name="Group 9781" transform="translate(15.71 11.336)">
      <rect id="Rectangle_715" data-name="Rectangle 715" width="3.142" height="3.142" fill="#fff"/>
      <rect id="Rectangle_716" data-name="Rectangle 716" width="3.142" height="3.142" transform="translate(6.284)" fill="#fff"/>
      <rect id="Rectangle_717" data-name="Rectangle 717" width="3.142" height="3.142" transform="translate(12.568)" fill="#fff"/>
      <rect id="Rectangle_718" data-name="Rectangle 718" width="3.142" height="3.142" transform="translate(0 6.284)" fill="#fff"/>
      <rect id="Rectangle_719" data-name="Rectangle 719" width="3.142" height="3.142" transform="translate(6.284 6.284)" fill="#fff"/>
      <rect id="Rectangle_720" data-name="Rectangle 720" width="3.142" height="3.142" transform="translate(12.568 6.284)" fill="#fff"/>
      <rect id="Rectangle_721" data-name="Rectangle 721" width="3.142" height="3.142" transform="translate(0 12.568)" fill="#fff"/>
      <rect id="Rectangle_722" data-name="Rectangle 722" width="3.142" height="3.142" transform="translate(6.284 12.568)" fill="#fff"/>
      <rect id="Rectangle_723" data-name="Rectangle 723" width="3.142" height="3.142" transform="translate(12.568 12.568)" fill="#fff"/>
      <rect id="Rectangle_724" data-name="Rectangle 724" width="3.142" height="3.142" transform="translate(0 18.852)" fill="#fff"/>
      <rect id="Rectangle_725" data-name="Rectangle 725" width="3.142" height="3.142" transform="translate(6.284 18.852)" fill="#fff"/>
      <rect id="Rectangle_726" data-name="Rectangle 726" width="3.142" height="3.142" transform="translate(12.568 18.852)" fill="#fff"/>
      <rect id="Rectangle_727" data-name="Rectangle 727" width="3.142" height="3.142" transform="translate(0 25.135)" fill="#fff"/>
      <rect id="Rectangle_728" data-name="Rectangle 728" width="3.142" height="3.142" transform="translate(6.284 25.135)" fill="#fff"/>
      <rect id="Rectangle_729" data-name="Rectangle 729" width="3.142" height="3.142" transform="translate(12.568 25.135)" fill="#fff"/>
      <rect id="Rectangle_730" data-name="Rectangle 730" width="9.426" height="6.284" transform="translate(3.142 32.205)" fill="#fff"/>
    </g>
    <rect id="Rectangle_731" data-name="Rectangle 731" width="1.571" height="6.284" transform="translate(22.779 43.541)" fill="#61acc9"/>
    <path id="Path_1720" data-name="Path 1720" d="M15.44,324.088a3.168,3.168,0,0,0,.06-1.775,3.113,3.113,0,0,0-2.289-2.26,3.144,3.144,0,0,0-3.788,3.876,4.539,4.539,0,0,1-.369,3.5,3.927,3.927,0,1,0,6.867.116A4.418,4.418,0,0,1,15.44,324.088Z" transform="translate(-7.742 -286.635)" fill="#8fd03d"/>
    <rect id="Rectangle_732" data-name="Rectangle 732" width="1.571" height="14.139" transform="translate(3.927 36.472)" fill="#3a5"/>
    <path id="Path_1721" data-name="Path 1721" d="M425.04,324.088a3.168,3.168,0,0,0,.06-1.775,3.113,3.113,0,0,0-2.289-2.26,3.144,3.144,0,0,0-3.788,3.876,4.54,4.54,0,0,1-.369,3.5,3.927,3.927,0,1,0,6.867.116A4.42,4.42,0,0,1,425.04,324.088Z" transform="translate(-379.639 -286.635)" fill="#8fd03d"/>
    <rect id="Rectangle_733" data-name="Rectangle 733" width="1.571" height="14.139" transform="translate(41.63 36.472)" fill="#3a5"/>
    <rect id="Rectangle_734" data-name="Rectangle 734" width="47.129" height="1.571" transform="translate(0 49.039)" fill="#e0d2c1"/>
  </g>
</svg>
