<svg xmlns="http://www.w3.org/2000/svg" width="33.322" height="47.665" viewBox="0 0 33.322 47.665">
  <g id="Group_9778" data-name="Group 9778" transform="translate(-4.87 -0.879)">
    <path id="Path_1605" data-name="Path 1605" d="M27.6,3.205V9.313A1.541,1.541,0,0,1,26.1,10.9H11.684a1.541,1.541,0,0,1-1.5-1.582V3.205a1.63,1.63,0,0,1,.584-1.71,1.431,1.431,0,0,1,1.72,0,1.63,1.63,0,0,1,.584,1.71V7.794H24.663V3.205a1.63,1.63,0,0,1,.584-1.71,1.431,1.431,0,0,1,1.72,0,1.63,1.63,0,0,1,.584,1.71Z" transform="translate(2.616 0.192)" fill="#2b4255"/>
    <path id="Path_1606" data-name="Path 1606" d="M26.364,11.831H11.9A2.266,2.266,0,0,1,9.7,9.5V3.4a2.369,2.369,0,0,1,1.041-2.173,2.1,2.1,0,0,1,2.3,0A2.369,2.369,0,0,1,14.089,3.4v3.8H24.178V3.4a2.369,2.369,0,0,1,1.041-2.173,2.1,2.1,0,0,1,2.3,0A2.369,2.369,0,0,1,28.564,3.4V9.5A2.266,2.266,0,0,1,26.364,11.831ZM11.9,2.653a.724.724,0,0,0-.7.744V9.5a.724.724,0,0,0,.7.744H26.364a.724.724,0,0,0,.7-.744V3.4a.761.761,0,0,0-.315-.733.672.672,0,0,0-.762,0,.761.761,0,0,0-.315.733V7.986a.786.786,0,0,1-.748.791H13.34a.786.786,0,0,1-.748-.791V3.4a.726.726,0,0,0-.689-.744Z" transform="translate(2.398 0)" fill="#576d7e"/>
    <path id="Path_1607" data-name="Path 1607" d="M37.215,37.975a1.541,1.541,0,0,1-1.5,1.582H6.827a1.541,1.541,0,0,1-1.5-1.582,36.176,36.176,0,0,1,6.212-20.3l1.347-1.994a1.474,1.474,0,0,1,1.183-.649H28.533a1.473,1.473,0,0,1,1.2.649l1.332,1.994a36.186,36.186,0,0,1,6.152,20.3Z" transform="translate(0.229 8.242)" fill="#3a5"/>
    <path id="Path_1608" data-name="Path 1608" d="M36.007,40.593H7.056A2.128,2.128,0,0,1,5.5,39.91a2.38,2.38,0,0,1-.635-1.644,36.891,36.891,0,0,1,6.3-20.761l1.347-1.994A2.168,2.168,0,0,1,14.3,14.53H28.761a2.209,2.209,0,0,1,1.8.965l1.347,1.994a37.009,37.009,0,0,1,6.287,20.777,2.38,2.38,0,0,1-.635,1.644,2.128,2.128,0,0,1-1.551.682ZM14.3,16.112a.708.708,0,0,0-.569.316l-1.347,2.01A35.367,35.367,0,0,0,6.4,38.282a.726.726,0,0,0,.689.744H36.007a.671.671,0,0,0,.492-.219.751.751,0,0,0,.2-.525,35.268,35.268,0,0,0-5.988-19.844L29.36,16.445a.722.722,0,0,0-.584-.316Z" transform="translate(0 7.951)" fill="#3a5"/>
    <path id="Path_1609" data-name="Path 1609" d="M29.53,7.047l-1.5,15.3a1.527,1.527,0,0,1-1.5,1.377H12.166a1.527,1.527,0,0,1-1.5-1.377l-1.5-15.3a1.642,1.642,0,0,1,.359-1.171,1.462,1.462,0,0,1,1.078-.506H28.078a1.46,1.46,0,0,1,1.092.5,1.637,1.637,0,0,1,.405,1.181Z" transform="translate(2.135 2.616)" fill="#8fd03d"/>
    <path id="Path_1610" data-name="Path 1610" d="M26.858,24.809H12.4a2.25,2.25,0,0,1-2.186-2.089l-1.5-15.3A2.331,2.331,0,0,1,9.254,5.63a2.148,2.148,0,0,1,1.632-.76H28.31a2.118,2.118,0,0,1,1.636.753A2.38,2.38,0,0,1,30.5,7.418L29,22.72a2.269,2.269,0,0,1-2.141,2.089ZM10.946,6.453a.625.625,0,0,0-.509.206.788.788,0,0,0-.18.57l1.5,15.3a.72.72,0,0,0,.689.665H26.9a.7.7,0,0,0,.7-.665l1.5-15.3h0a.775.775,0,0,0-.269-.57.657.657,0,0,0-.524-.237Z" transform="translate(1.903 2.324)" fill="#8fd03d"/>
  </g>
</svg>
