<svg xmlns="http://www.w3.org/2000/svg" width="51" height="38" viewBox="0 0 51 38">
  <g id="Group_9776" data-name="Group 9776" transform="translate(-3 -4.368)">
    <path id="Path_1579" data-name="Path 1579" d="M36.381,8H25.875A.81.81,0,0,0,25,8.722v3.213A2.875,2.875,0,0,0,28.108,14.5h6.041a2.875,2.875,0,0,0,3.108-2.563V8.722A.81.81,0,0,0,36.381,8Z" transform="translate(-2.739 -1.01)" fill="#576d7e"/>
    <path id="Path_1580" data-name="Path 1580" d="M40.952,6.189l-10.4-1.8a1.058,1.058,0,0,0-.368,0l-10.4,1.8a.82.82,0,0,0-.9.7.8.8,0,0,0,.854.74l10.41,2.245a1.12,1.12,0,0,0,.438,0L41,7.6a.759.759,0,0,0,.66-.718.778.778,0,0,0-.7-.69Z" transform="translate(-1.978 0)" fill="#2b4255"/>
    <rect id="Rectangle_694" data-name="Rectangle 694" width="51" height="25" rx="1" transform="translate(3 17.368)" fill="#059762"/>
    <path id="Path_1581" data-name="Path 1581" d="M56.514,23H32V47.548H56.514a.81.81,0,0,0,.875-.722v-23.1A.81.81,0,0,0,56.514,23Z" transform="translate(-3.611 -5.18)" fill="#059762"/>
    <path id="Path_1582" data-name="Path 1582" d="M50.023,19.722V40.66a.81.81,0,0,1-.875.722H38.4a19.586,19.586,0,0,0-7.442,1.444c-2.381.852-1.3,1.047-3.887,0a19.586,19.586,0,0,0-7.442-1.444H8.875A.81.81,0,0,1,8,40.66V19.722A.81.81,0,0,1,8.875,19H20.257a22.964,22.964,0,0,1,8.755,2.065A22.7,22.7,0,0,1,38.4,19H49.148A.81.81,0,0,1,50.023,19.722Z" transform="translate(-0.623 -4.068)" fill="#8fd03d"/>
    <path id="Path_1583" data-name="Path 1583" d="M21,19V31.274a.717.717,0,0,1-.462.633,1.037,1.037,0,0,1-.895-.034L17.5,30.7l-2.145,1.177a1.037,1.037,0,0,1-.895.034A.717.717,0,0,1,14,31.274V19Z" transform="translate(-1.37 -4.068)" fill="#576d7e"/>
    <path id="Path_1584" data-name="Path 1584" d="M52.136,19H41.385A22.693,22.693,0,0,0,32,21.079V43.548a10.005,10.005,0,0,0,1.944-.722,19.586,19.586,0,0,1,7.442-1.444H52.136a.81.81,0,0,0,.875-.722V19.722A.81.81,0,0,0,52.136,19Z" transform="translate(-3.611 -4.068)" fill="#3a5"/>
    <rect id="Rectangle_695" data-name="Rectangle 695" width="10" height="1" transform="translate(34 32.368)" fill="#fff"/>
    <rect id="Rectangle_696" data-name="Rectangle 696" width="7.118" height="1.444" transform="translate(33.642 29.372)" fill="#fff"/>
    <rect id="Rectangle_697" data-name="Rectangle 697" width="10" height="2" transform="translate(34 26.368)" fill="#fff"/>
    <rect id="Rectangle_698" data-name="Rectangle 698" width="7.118" height="1.444" transform="translate(33.642 23.596)" fill="#fff"/>
    <rect id="Rectangle_699" data-name="Rectangle 699" width="10" height="2" transform="translate(34 20.368)" fill="#fff"/>
    <path id="Path_1585" data-name="Path 1585" d="M59.626,23H57V47.548h2.626a.81.81,0,0,0,.875-.722v-23.1A.81.81,0,0,0,59.626,23Z" transform="translate(-6.724 -5.18)" fill="#8fd03d"/>
    <path id="Path_1586" data-name="Path 1586" d="M3.875,47.548H6.5V23H3.875A.81.81,0,0,0,3,23.722v23.1A.81.81,0,0,0,3.875,47.548Z" transform="translate(0 -5.18)" fill="#8fd03d"/>
    <path id="Path_1587" data-name="Path 1587" d="M54.626,19H52V41.382h2.626a.81.81,0,0,0,.875-.722V19.722A.81.81,0,0,0,54.626,19Z" transform="translate(-6.101 -4.068)" fill="#adadad"/>
    <path id="Path_1588" data-name="Path 1588" d="M8.875,41.382H11.5V19H8.875A.81.81,0,0,0,8,19.722V40.66A.81.81,0,0,0,8.875,41.382Z" transform="translate(-0.623 -4.068)" fill="#2b4255"/>
  </g>
</svg>
