<svg id="equipement" xmlns="http://www.w3.org/2000/svg" width="36.505" height="36.505" viewBox="0 0 36.505 36.505">
  <path id="Path_2498" data-name="Path 2498" d="M36.52,30.091a6.437,6.437,0,0,0-1.665.218l-14.7-14.7a6.43,6.43,0,0,0-8.263-7.758l3.719,3.719L14.7,14.7l-3.132.909L7.853,11.894a6.432,6.432,0,0,0,7.758,8.263l14.7,14.7a6.43,6.43,0,1,0,6.211-4.764Zm2.615,9.044-3.572.957-2.615-2.615.957-3.572,3.572-.957,2.615,2.615Zm0,0" transform="translate(-6.981 -6.98)" fill="#059762"/>
  <path id="Path_2499" data-name="Path 2499" d="M273.716,13.945a6.435,6.435,0,0,1-8.095,6.212l-5.076,5.076L256,20.686l5.076-5.076a6.435,6.435,0,0,1,6.212-8.095,6.409,6.409,0,0,1,2.052.336l-3.718,3.719.909,3.132,3.132.909,3.719-3.718a6.409,6.409,0,0,1,.336,2.052Zm0,0" transform="translate(-237.747 -6.98)" fill="#8fd03d"/>
  <path id="Path_2500" data-name="Path 2500" d="M172.448,172.448a1.071,1.071,0,0,1-1.515,0l-11.7-11.7a1.072,1.072,0,1,1,1.515-1.515l11.7,11.7A1.071,1.071,0,0,1,172.448,172.448Zm0,0" transform="translate(-147.587 -147.587)" fill="#e5f4ef"/>
  <path id="Path_2501" data-name="Path 2501" d="M20.687,256,8.458,268.229A3.215,3.215,0,0,0,13,272.775l12.229-12.229Zm-9.956,15.573A1.072,1.072,0,1,1,11.8,270.5,1.072,1.072,0,0,1,10.731,271.573Zm0,0" transform="translate(-6.981 -237.748)" fill="#8fd03d"/>
  <path id="Path_2502" data-name="Path 2502" d="M178.561,170.984l-1.515,1.515,4.546,4.546,1.515-1.515Zm-7.577,7.577,4.546,4.546,1.515-1.515-4.546-4.546Zm0,0" transform="translate(-158.793 -158.793)" fill="#1e6e35"/>
  <path id="Path_2503" data-name="Path 2503" d="M108,293.184l-.549.92a5.892,5.892,0,1,1-8.711,3.537l.08-.3-7.015-7.015-.758.758,1.341,1.341L80.648,304.172l.758.758L93.15,293.185l4.484,4.484A6.966,6.966,0,1,0,108,293.184Zm0,0" transform="translate(-74.898 -269.628)" fill="#3a5"/>
  <path id="Path_2504" data-name="Path 2504" d="M57.67,1.767l-.609-.609a5.9,5.9,0,0,1,6.7,7.333l-.08.3L78.818,23.926l.3-.08a5.922,5.922,0,0,1,3.663.2l.389-1a6.994,6.994,0,0,0-4.024-.31L74.66,18.252l4.484-4.484a6.966,6.966,0,0,0,8.1-9.026l-.276-.819L82.863,8.029l-2.545-.739-.739-2.545L83.685.64,82.866.364a6.965,6.965,0,0,0-6.969,1.5l.731.784a5.9,5.9,0,0,1,5.024-1.493L78.373,4.436l1.08,3.719,3.719,1.08L86.45,5.957a5.9,5.9,0,0,1-7.333,6.7l-.3-.08L73.9,17.495l-3.788-3.788L75.03,8.79l-.08-.3a5.9,5.9,0,0,1-.2-1.527,5.837,5.837,0,0,1,1.217-3.587l-.85-.653a6.9,6.9,0,0,0-1.439,4.241,6.994,6.994,0,0,0,.162,1.5l-4.484,4.484L64.872,8.464a6.966,6.966,0,0,0-9.026-8.1L55.027.64l1.885,1.885Zm0,0" transform="translate(-51.104 0)" fill="#35cb60"/>
  <path id="Path_2505" data-name="Path 2505" d="M363.05,363.05l1.117-4.17-3.052-3.052-4.17,1.117-1.117,4.17,3.052,3.052Zm-5.23-5.23,2.975-.8,2.177,2.177-.8,2.974-2.974.8-2.177-2.177Zm0,0" transform="translate(-330.458 -330.458)" fill="#8fd03d"/>
  <path id="Path_2506" data-name="Path 2506" d="M6.965,46.82a6.994,6.994,0,0,0,1.5-.162l4.484,4.484L7.49,56.6l.758.758L13.706,51.9l1.69,1.69.758-.758L8.791,45.468l-.3.08a5.9,5.9,0,0,1-7.333-6.7l3.278,3.278,3.719-1.08,1.08-3.719L7.324,35.415l-.758.758,1.463,1.463L7.291,40.18l-2.545.739L.64,36.813l-.275.819a6.964,6.964,0,0,0,6.6,9.188Zm0,0" transform="translate(0 -32.89)" fill="#35cb60"/>
  <path id="Path_2507" data-name="Path 2507" d="M3.75,354.156a2.679,2.679,0,0,1-1.894-4.573l5.633-5.633-.758-.758L1.1,348.825a3.751,3.751,0,0,0,4.446,5.947l-.513-.941a2.682,2.682,0,0,1-1.281.325Zm0,0" transform="translate(0 -318.723)" fill="#3a5"/>
  <path id="Path_2508" data-name="Path 2508" d="M154.156,151.882a1.607,1.607,0,1,0-2.273,2.273l11.7,11.7a1.607,1.607,0,1,0,2.273-2.273ZM165.1,165.1a.536.536,0,0,1-.758,0l-11.7-11.7a.536.536,0,0,1,.758-.758l11.7,11.7a.536.536,0,0,1,0,.758Zm0,0" transform="translate(-140.617 -140.617)" fill="#8fd03d"/>
  <path id="Path_2509" data-name="Path 2509" d="M30.059,438.459a1.607,1.607,0,1,0,1.607-1.608A1.609,1.609,0,0,0,30.059,438.459Zm2.143,0a.536.536,0,1,1-.536-.536A.536.536,0,0,1,32.2,438.459Zm0,0" transform="translate(-27.915 -405.704)" fill="#3a5"/>
  <g id="Group_10156" data-name="Group 10156" transform="translate(5.872 5.117)">
    <path id="Path_2510" data-name="Path 2510" d="M83.117,326.722l-.758-.758.758-.758.758.758Zm1.515-1.516-.758-.758.758-.758.758.758Zm1.516-1.515-.758-.758,4.113-4.113.758.758Zm0,0" transform="translate(-82.359 -301.206)" fill="#e5f4ef"/>
    <path id="Path_2511" data-name="Path 2511" d="M143.659,76.1l-.917-.555a3.73,3.73,0,0,0,.38-.854l1.026.309a4.811,4.811,0,0,1-.489,1.1Zm.688-2.285-1.071-.045c0-.054,0-.107,0-.162a3.732,3.732,0,0,0-.285-1.438l.99-.411a4.794,4.794,0,0,1,.367,1.849C144.352,73.68,144.35,73.749,144.347,73.818Zm0,0" transform="translate(-138.437 -71.762)" fill="#e5f4ef"/>
    <path id="Path_2512" data-name="Path 2512" d="M384.837,145.669a4.833,4.833,0,0,1-2.263-.563l.5-.946a3.769,3.769,0,0,0,2.385.385l.177,1.057A4.857,4.857,0,0,1,384.837,145.669Zm0,0" transform="translate(-361.17 -138.998)" fill="#e5f4ef"/>
  </g>
</svg>
