<svg xmlns="http://www.w3.org/2000/svg" width="40.631" height="41.862" viewBox="0 0 40.631 41.862">
  <g id="event" transform="translate(-7.307)">
    <g id="Group_10177" data-name="Group 10177" transform="translate(7.307)">
      <path id="Path_2627" data-name="Path 2627" d="M44.99,86.689H9.413a2.106,2.106,0,0,1-2.106-2.106V51.056A2.106,2.106,0,0,1,9.413,48.95H44.99A2.106,2.106,0,0,1,47.1,51.056V84.583a2.106,2.106,0,0,1-2.106,2.106Z" transform="translate(-7.307 -44.827)" fill="#f2fdff"/>
      <path id="Path_2628" data-name="Path 2628" d="M437.22,48.95h-2.527a2.106,2.106,0,0,1,2.106,2.106V84.583a2.106,2.106,0,0,1-2.106,2.106h2.527a2.106,2.106,0,0,0,2.106-2.106V51.056A2.106,2.106,0,0,0,437.22,48.95Z" transform="translate(-398.695 -44.827)" fill="rgba(5,151,98,0.29)"/>
      <path id="Path_2629" data-name="Path 2629" d="M44.99,48.95H43.823l-2,.842-2-.842H31.305l-2,.842-2-.842H18.788l-2,.842-2-.842H9.413a2.106,2.106,0,0,0-2.106,2.106V58.03H47.1V51.056A2.106,2.106,0,0,0,44.99,48.95Z" transform="translate(-7.307 -44.827)" fill="#059762"/>
      <path id="Path_2630" data-name="Path 2630" d="M437.22,48.95h-2.527a2.106,2.106,0,0,1,2.106,2.106V58.03h2.527V51.056A2.106,2.106,0,0,0,437.22,48.95Z" transform="translate(-398.695 -44.827)" fill="#3a5"/>
      <path id="Path_2631" data-name="Path 2631" d="M395.386,53.073a2,2,0,0,0,2-2V48.95h-4v2.125a2,2,0,0,0,2,2Z" transform="translate(-360.869 -44.827)" fill="#3a5"/>
      <path id="Path_2632" data-name="Path 2632" d="M246.772,53.073a2,2,0,0,0,2-2V48.95h-4v2.125A2,2,0,0,0,246.772,53.073Z" transform="translate(-224.772 -44.827)" fill="#3a5"/>
      <path id="Path_2633" data-name="Path 2633" d="M98.158,53.073a2,2,0,0,0,2-2V48.95h-4v2.125A2,2,0,0,0,98.158,53.073Z" transform="translate(-88.676 -44.827)" fill="#3a5"/>
      <path id="Path_2634" data-name="Path 2634" d="M226.772,8.246a2,2,0,0,1-2-2V2a2,2,0,0,1,2-2,1.928,1.928,0,0,1,1.914,2V6.248A1.928,1.928,0,0,1,226.772,8.246Z" transform="translate(-206.457 0)" fill="#8fd03d"/>
      <path id="Path_2635" data-name="Path 2635" d="M78.158,8.246a2,2,0,0,1-2-2V2a2,2,0,0,1,2-2,1.928,1.928,0,0,1,1.914,2V6.248A1.928,1.928,0,0,1,78.158,8.246Z" transform="translate(-70.361 0)" fill="#8fd03d"/>
      <path id="Path_2636" data-name="Path 2636" d="M375.386,8.246a2,2,0,0,1-2-2V2a2,2,0,0,1,2-2A1.928,1.928,0,0,1,377.3,2V6.248A1.928,1.928,0,0,1,375.386,8.246Z" transform="translate(-342.553 0)" fill="#8fd03d"/>
      <path id="Path_2637" data-name="Path 2637" d="M389.33,0a1.992,1.992,0,0,0-.716.133A2,2,0,0,1,389.9,2V6.248a2,2,0,0,1-1.282,1.866,2,2,0,0,0,2.714-1.866V2a2,2,0,0,0-2-2Z" transform="translate(-356.497)" fill="#84bf39"/>
      <path id="Path_2638" data-name="Path 2638" d="M240.716,0A1.992,1.992,0,0,0,240,.133,2,2,0,0,1,241.282,2V6.248A2,2,0,0,1,240,8.113a2,2,0,0,0,2.714-1.866V2a2,2,0,0,0-2-2Z" transform="translate(-220.4)" fill="#84bf39"/>
      <path id="Path_2639" data-name="Path 2639" d="M92.1,0a1.992,1.992,0,0,0-.716.133A2,2,0,0,1,92.669,2V6.248a2,2,0,0,1-1.282,1.866A2,2,0,0,0,94.1,6.248V2a2,2,0,0,0-2-2Z" transform="translate(-84.305)" fill="#84bf39"/>
      <g id="Group_10176" data-name="Group 10176" transform="translate(4.08 17.94)">
        <path id="Path_2640" data-name="Path 2640" d="M356.889,220.707h-6.831a.444.444,0,0,1-.444-.444v-6.831a.444.444,0,0,1,.444-.444h6.831a.444.444,0,0,1,.444.444v6.831A.444.444,0,0,1,356.889,220.707Z" transform="translate(-324.862 -212.989)" fill="#3a5"/>
        <path id="Path_2641" data-name="Path 2641" d="M209.957,358.154h-6.831a.444.444,0,0,1-.444-.444V350.88a.444.444,0,0,1,.444-.444h6.831a.444.444,0,0,1,.444.444v6.831A.444.444,0,0,1,209.957,358.154Z" transform="translate(-190.306 -338.859)" fill="#3a5"/>
        <path id="Path_2642" data-name="Path 2642" d="M63.026,358.154H56.195a.444.444,0,0,1-.444-.444V350.88a.444.444,0,0,1,.444-.444h6.831a.444.444,0,0,1,.444.444v6.831A.444.444,0,0,1,63.026,358.154Z" transform="translate(-55.751 -338.859)" fill="#3a5"/>
        <path id="Path_2643" data-name="Path 2643" d="M356.889,358.154h-6.831a.444.444,0,0,1-.444-.444V350.88a.444.444,0,0,1,.444-.444h6.831a.444.444,0,0,1,.444.444v6.831A.444.444,0,0,1,356.889,358.154Z" transform="translate(-324.862 -338.859)" fill="#3a5"/>
      </g>
      <path id="Path_2644" data-name="Path 2644" d="M209.957,220.707h-6.831a.444.444,0,0,1-.444-.444v-6.831a.444.444,0,0,1,.444-.444h6.831a.444.444,0,0,1,.444.444v6.831A.444.444,0,0,1,209.957,220.707Z" transform="translate(-186.226 -195.049)" fill="#8fd03d"/>
      <path id="Path_2645" data-name="Path 2645" d="M63.026,220.707H56.195a.444.444,0,0,1-.444-.444v-6.831a.444.444,0,0,1,.444-.444h6.831a.444.444,0,0,1,.444.444v6.831A.444.444,0,0,1,63.026,220.707Z" transform="translate(-51.671 -195.049)" fill="#8fd03d"/>
      <path id="Path_2646" data-name="Path 2646" d="M88.6,221.866l-3.823,3.849L83.4,224.356a.632.632,0,1,0-.885.9l1.832,1.8a.632.632,0,0,0,.891-.005l4.266-4.3a.632.632,0,1,0-.9-.89Z" transform="translate(-76.003 -203.007)" fill="#ddd"/>
      <path id="Path_2647" data-name="Path 2647" d="M243.174,221.862a.632.632,0,0,0-.893,0l-3.823,3.849-1.384-1.359a.632.632,0,0,0-.885.9l1.832,1.8a.632.632,0,0,0,.891-.006l4.266-4.3a.632.632,0,0,0,0-.893Z" transform="translate(-216.736 -203.007)" fill="#ddd"/>
    </g>
  </g>
</svg>
