<svg xmlns="http://www.w3.org/2000/svg" width="46.202" height="43.613" viewBox="0 0 46.202 43.613">
  <g id="Group_9772" data-name="Group 9772" transform="translate(-227.776 -1531.66)">
    <path id="Path_1664" data-name="Path 1664" d="M233.379,517.3a5.86,5.86,0,0,0-3.962,1.5,4.825,4.825,0,0,0,0,7.249,5.991,5.991,0,0,0,6.207,1.066l6.306,5.774,2.882-.977-.043-1.752-6.26-5.676a4.813,4.813,0,0,0-1.171-5.684,5.853,5.853,0,0,0-3.959-1.5Zm.852,2.321,2.212,2.022-.855,2.8-3.064.783-2.209-2.025.852-2.8Z" transform="translate(0 1022.801)" fill="#2b4255"/>
    <path id="Path_1665" data-name="Path 1665" d="M6.549,18.736l.5-9.013a5.944,5.944,0,0,0,3.608-5.109A4.79,4.79,0,0,0,7.959,0L7.728,5.226,5.222,7.269,2.888,5.44,3.119.22A5.929,5.929,0,0,0,0,5.085a4.776,4.776,0,0,0,3.169,4.8L2.7,18.435,3.936,19.5Z" transform="translate(266.441 1537.984) rotate(45)" fill="#2b4255"/>
    <path id="Path_1666" data-name="Path 1666" d="M243.071,1544.54v4.511l-9.087,4.748a5.725,5.725,0,0,0-3.207,5.032v11.206h35.345v-11.206a5.725,5.725,0,0,0-3.207-5.032l-9.087-4.748v-4.511" transform="translate(1.61 5.235)" fill="#576d7e" fill-rule="evenodd"/>
    <path id="Path_1667" data-name="Path 1667" d="M242.127,1555.66h8.379m4.806,0h2.515v9.845H234.777v-9.845h2.312" transform="translate(3.757 9.755)" fill="#059762"/>
    <path id="Path_1668" data-name="Path 1668" d="M248.7,535.3l-.483,1.772a1.309,1.309,0,0,0-.036.168c-.271,2.017,1.62,3.689,3.677,3.689a4.124,4.124,0,0,0,3.959-3.214l.66-2.415h-3.166l-.483,1.772-.012.036c-.161.669-.529,1.005-.957,1.005-.489,0-.663-.118-.615-.525l.624-2.288H248.7Zm-13.333,0,.66,2.415a4.124,4.124,0,0,0,3.959,3.214c2.056,0,3.948-1.672,3.677-3.689a1.29,1.29,0,0,0-.033-.167l-.483-1.772h-3.169l.624,2.291c.048.406-.126.525-.615.525-.428,0-.8-.336-.957-1.005l-.009-.038-.483-1.772h-3.169Z" transform="translate(4.076 1030.119)" fill="#8fd03d"/>
    <path id="Path_1669" data-name="Path 1669" d="M238.777,1544.54v4.511c.343,3.684,11.1,3.684,10.757,0v-4.511" transform="translate(5.904 5.235)" fill="#8fd03d" fill-rule="evenodd"/>
    <path id="Path_1670" data-name="Path 1670" d="M253.28,1548.41l-3.361,12.305a1.96,1.96,0,0,0,2.151,2.11,2.588,2.588,0,0,0,2.459-2.11l2.761-10.107m-18.3-2.2,3.361,12.305a1.96,1.96,0,0,1-2.151,2.11,2.588,2.588,0,0,1-2.459-2.11l-2.761-10.107" transform="translate(3.867 6.809)" fill="#059762"/>
    <path id="Path_1671" data-name="Path 1671" d="M238.777,524.174v1.492a7.8,7.8,0,0,0,10.757.121v-1.613Z" transform="translate(5.904 1025.596)" fill="#059762" fill-rule="evenodd"/>
    <path id="Path_1672" data-name="Path 1672" d="M241.607,1533.446a3.952,3.952,0,0,0-4.111,3.79v3.369c0,.017,0,.028,0,.042s0,.028,0,.042v4.547a7.426,7.426,0,0,0,14.8,0v-4.547c0-.017,0-.028,0-.042s0-.028,0-.042v-4.936c-.336-2.347-1.577-4.021-4.12-4.01-.079,1.1-1.345,1.718-2.473,1.786Z" transform="translate(5.216 0)" fill="#8fd03d"/>
    <ellipse id="Ellipse_242" data-name="Ellipse 242" cx="0.768" cy="0.703" rx="0.768" ry="0.703" transform="translate(242.991 1566.119)" fill="#2b4255"/>
    <ellipse id="Ellipse_243" data-name="Ellipse 243" cx="0.768" cy="0.703" rx="0.768" ry="0.703" transform="translate(257.013 1567.525) rotate(180)" fill="#2b4255"/>
    <path id="Path_1673" data-name="Path 1673" d="M237.5,1542.221c.92,0,3.5-2.191,3.723-2.935,2.608,4.113,8.919.042,11.055,3.41l.018-2s0-3.516,0-5.02c-.336-2.347-1.577-4.021-4.12-4.01-.079,1.1-1.345,1.718-2.473,1.786h-4.1a3.952,3.952,0,0,0-4.111,3.791v3.369c0,.017,0,.028,0,.042s0,1.246,0,1.26Z" transform="translate(5.217 0.001)" fill="#2b4255" fill-rule="evenodd"/>
  </g>
</svg>
