<svg xmlns="http://www.w3.org/2000/svg" width="40.773" height="40.773" viewBox="0 0 40.773 40.773">
  <g id="factory" transform="translate(-24 -24)">
    <g id="FLAT" transform="translate(24 24)">
      <path id="Path_2513" data-name="Path 2513" d="M24,280H64.773v18.278H24Z" transform="translate(-24 -257.504)" fill="#3a5"/>
      <rect id="Rectangle_927" data-name="Rectangle 927" width="10" height="23" rx="5" transform="translate(28 14)" fill="#8fd03d"/>
      <path id="Path_2514" data-name="Path 2514" d="M96,24h4.218v9.842H96Z" transform="translate(-89.673 -24)" fill="#8fd03d"/>
      <path id="Path_2515" data-name="Path 2515" d="M24,400H38.06v7.733H24Z" transform="translate(-24 -366.959)" fill="#00744a"/>
      <path id="Path_2516" data-name="Path 2516" d="M184,424h11.248v5.624H184Z" transform="translate(-169.94 -388.85)" fill="#00744a"/>
      <g id="Group_10157" data-name="Group 10157" transform="translate(27.153 4.921)">
        <path id="Path_2517" data-name="Path 2517" d="M362.591,114.642a4.218,4.218,0,0,0-5.965,0l-.994-.994a5.624,5.624,0,0,1,7.954,0Z" transform="translate(-353.643 -109.188)" fill="#3a5"/>
        <path id="Path_2518" data-name="Path 2518" d="M381.242,145.818a1.406,1.406,0,0,0-1.988,0l-.994-.994a2.812,2.812,0,0,1,3.977,0Z" transform="translate(-374.283 -138.376)" fill="#3a5"/>
        <path id="Path_2519" data-name="Path 2519" d="M343.94,83.465a7.03,7.03,0,0,0-9.942,0L333,82.47a8.436,8.436,0,0,1,11.93,0Z" transform="translate(-333.004 -80)" fill="#3a5"/>
      </g>
      <path id="Path_2520" data-name="Path 2520" d="M63.733,136H59.515L56,138.812v9.842H67.248v-9.842Z" transform="translate(-53.188 -126.158)" fill="#00744a"/>
      <path id="Path_2521" data-name="Path 2521" d="M96,24h4.218v3.515H96Z" transform="translate(-89.673 -24)" fill="#3a5"/>
      <path id="Path_2522" data-name="Path 2522" d="M256,26.812A2.812,2.812,0,0,1,258.812,24h8.436v.088a2.724,2.724,0,0,1-2.724,2.724Z" transform="translate(-235.613 -24)" fill="#059762"/>
      <path id="Path_2523" data-name="Path 2523" d="M378.812,248v2.812h-1.406V248H376v21.09h1.406v-6.327h1.406v6.327h1.406V248Zm0,4.218v2.109h-1.406v-2.109Zm0,3.515v2.109h-1.406v-2.109Zm-1.406,5.624v-2.109h1.406v2.109Z" transform="translate(-345.068 -228.316)" fill="#059762"/>
      <path id="Path_2524" data-name="Path 2524" d="M96.872,107.684a4.218,4.218,0,0,1-4.218,4.218H84.921a1.406,1.406,0,0,0-1.406,1.406v3.163a1.757,1.757,0,1,1-3.515,0V112.6a4.218,4.218,0,0,1,4.218-4.218h7.733a1.406,1.406,0,0,0,1.406-1.406V88h3.515Z" transform="translate(-75.079 -82.376)" fill="#8fd03d"/>
      <path id="Path_2525" data-name="Path 2525" d="M232,120h3.515v1.406H232Z" transform="translate(-213.722 -111.564)" fill="#059762"/>
      <path id="Path_2526" data-name="Path 2526" d="M232,152h3.515v1.406H232Z" transform="translate(-213.722 -140.752)" fill="#059762"/>
    </g>
  </g>
</svg>
