<svg xmlns="http://www.w3.org/2000/svg" width="41.716" height="47.665" viewBox="0 0 41.716 47.665">
  <g id="Group_9777" data-name="Group 9777" transform="translate(306 -1092.856)">
    <path id="Path_1600" data-name="Path 1600" d="M-306,1129.084c0-6.433,2.346-15.01,13.933-24.3h13.6c11.588,9.292,14.178,17.868,14.178,24.3v.715c0,5.94-8.614,10.721-19.313,10.721h-3.09c-10.7,0-19.313-4.781-19.313-10.721v-.715Zm14.17-27.2a8.725,8.725,0,0,1-3.041-6.515v.075a2.632,2.632,0,0,1,1.2-2.243,2.263,2.263,0,0,1,2.408,0,2.632,2.632,0,0,1,1.2,2.243h0a2.632,2.632,0,0,1,1.2-2.243,2.263,2.263,0,0,1,2.408,0,2.631,2.631,0,0,1,1.2,2.243h0a2.632,2.632,0,0,1,1.2-2.243,2.263,2.263,0,0,1,2.408,0,2.631,2.631,0,0,1,1.2,2.243h0a2.632,2.632,0,0,1,1.2-2.243,2.263,2.263,0,0,1,2.408,0,2.631,2.631,0,0,1,1.2,2.243v-.075a8.725,8.725,0,0,1-3.041,6.515" transform="translate(0 0)" fill="#059762"/>
    <path id="Path_1601" data-name="Path 1601" d="M-279.056,1115.72a10.049,10.049,0,0,1-10.214,9.861,10,10,0,0,1-10.155-9.861,10,10,0,0,1,10.155-9.859,10.049,10.049,0,0,1,10.215,9.859h0Z" transform="translate(4.587 8.368)" fill="#8fd03d"/>
    <path id="Path_1602" data-name="Path 1602" d="M-295.908,1108.4v1.643h1.744c2.05,0,2.812,1.212,2.812,2.452s-.762,2.45-2.812,2.45h-1.744v1.644h1.744a4.245,4.245,0,0,0,4.509-4.093,4.248,4.248,0,0,0-4.509-4.1Z" transform="translate(7.041 10.002)" fill="#2b4255" fill-rule="evenodd"/>
    <path id="Path_1603" data-name="Path 1603" d="M-295.849,1111.677v1.644h8.436v-1.644Zm0-3.287v1.643h8.436v-1.643Zm1.1,6.557-1.187,1.178,5.733,5.422,1.187-1.175Z" transform="translate(7.02 9.996)" fill="#2b4255" fill-rule="evenodd"/>
    <path id="Path_1604" data-name="Path 1604" d="M-297.939,1098.08v3.57h14.127v-3.57" transform="translate(5.624 3.361)" fill="#2b4255" fill-rule="evenodd"/>
  </g>
</svg>
