<svg xmlns="http://www.w3.org/2000/svg" width="45.188" height="39.493" viewBox="0 0 45.188 39.493">
  <g id="Component_107_1" data-name="Component 107 – 1" transform="translate(0.5 0.511)">
    <path id="Path_1540" data-name="Path 1540" d="M1.986,0A2.186,2.186,0,0,0,0,2.327,2.2,2.2,0,0,0,1.948,4.7" transform="translate(19.457 4.698) rotate(180)" fill="none" stroke="#8fd03d" stroke-linecap="round" stroke-linejoin="round" stroke-width="1"/>
    <path id="Path_1541" data-name="Path 1541" d="M-2304.285,974.015a2.187,2.187,0,0,1-1.986-2.327,2.2,2.2,0,0,1,1.948-2.37" transform="translate(2321.581 -964.642)" fill="none" stroke="#8fd03d" stroke-linecap="round" stroke-linejoin="round" stroke-width="1"/>
    <path id="Path_1542" data-name="Path 1542" d="M9.928,0A2.186,2.186,0,0,0,7.942,2.327,2.2,2.2,0,0,0,9.89,4.7m-7.9,4.676A2.186,2.186,0,0,0,0,11.7a2.2,2.2,0,0,0,1.948,2.371" transform="translate(27.399 14.071) rotate(180)" fill="none" stroke="#8fd03d" stroke-linecap="round" stroke-linejoin="round" stroke-width="1"/>
    <path id="Path_1543" data-name="Path 1543" d="M-2299.284,974.015a2.186,2.186,0,0,1-1.986-2.327,2.2,2.2,0,0,1,1.948-2.37" transform="translate(2324.523 -964.642)" fill="none" stroke="#8fd03d" stroke-linecap="round" stroke-linejoin="round" stroke-width="1"/>
    <path id="Path_1544" data-name="Path 1544" d="M1.986,0A2.186,2.186,0,0,0,0,2.327,2.2,2.2,0,0,0,1.948,4.7M17.266,9.374A2.186,2.186,0,0,0,15.281,11.7a2.2,2.2,0,0,0,1.948,2.371" transform="translate(27.399 14.071) rotate(180)" fill="none" stroke="#8fd03d" stroke-linecap="round" stroke-linejoin="round" stroke-width="1"/>
    <path id="Path_1545" data-name="Path 1545" d="M-2308.894,974.015a2.186,2.186,0,0,1-1.985-2.327,2.2,2.2,0,0,1,1.948-2.37" transform="translate(2318.868 -964.642)" fill="none" stroke="#8fd03d" stroke-linecap="round" stroke-linejoin="round" stroke-width="1"/>
    <path id="Path_1546" data-name="Path 1546" d="M1.985,0A2.186,2.186,0,0,0,0,2.327,2.2,2.2,0,0,0,1.948,4.7" transform="translate(12.118 14.071) rotate(180)" fill="none" stroke="#8fd03d" stroke-linecap="round" stroke-linejoin="round" stroke-width="1"/>
    <path id="Path_1547" data-name="Path 1547" d="M-2285.759,973.887c0,2.4-1.409,4.348-3.146,4.348s-3.146-1.947-3.146-4.348,1.409-6.193,3.146-6.193S-2285.759,971.485-2285.759,973.887Z" transform="translate(2329.947 -966.069)" fill="#059762" stroke="#059762" stroke-linecap="round" stroke-linejoin="round" stroke-width="1"/>
    <path id="Path_1548" data-name="Path 1548" d="M-2309.04,999.134h14.293v-5.592a14.293,14.293,0,0,1-7.288,1.9,20.706,20.706,0,0,1-7-1.1Zm30.1-25.279c-1.493,5.46-1.073,12.428-1.554,18.687,0,2.88,3.159,2.783,3.159,0-.486-6.215.273-12.331-1.6-18.687Z" transform="translate(2319.951 -960.652)" fill="none" stroke="#059762" stroke-linecap="round" stroke-linejoin="round" stroke-width="1"/>
    <path id="Path_1549" data-name="Path 1549" d="M-2279.822,976.533c-2.671,11.79-12.914,18.786-22.879,15.627-6.447-2.044-11.482-8-13.208-15.627Z" transform="translate(2315.909 -958.297)" fill="#059762" stroke="#059762" stroke-linecap="round" stroke-linejoin="round" stroke-width="1"/>
    <path id="Path_1550" data-name="Path 1550" d="M-2293.723,978.566a10.449,10.449,0,0,1-7.63,7.644" transform="translate(2324.474 -956.51)" fill="none" stroke="#fff" stroke-linecap="round" stroke-linejoin="round" stroke-width="1"/>
  </g>
</svg>
