<svg xmlns="http://www.w3.org/2000/svg" width="42.777" height="42.778" viewBox="0 0 42.777 42.778">
  <g id="govt" transform="translate(-0.53 -0.529)">
    <g id="layer1" transform="translate(0.53 0.529)">
      <path id="path7513" d="M3.544,286.131,2.117,304.667H10.67L9.244,286.131Z" transform="translate(2.161 -271.216)" fill="rgba(12,162,108,0.38)"/>
      <path id="path7529" d="M13.069,286.131l-1.426,18.536H20.2l-1.426-18.536Z" transform="translate(18.303 -271.216)" fill="rgba(12,162,108,0.38)"/>
      <path id="path7541" d="M8.305,286.131,6.879,304.667h8.552l-1.426-18.536Z" transform="translate(10.231 -271.216)" fill="rgba(12,162,108,0.38)"/>
      <g id="Group_10171" data-name="Group 10171" transform="translate(2.853 12.121)">
        <path id="path7501" d="M2.3,292.766a.713.713,0,0,0-.711.716v2.853h11.4v-2.853a.713.713,0,0,0-.71-.716Z" transform="translate(-1.588 -272.093)" fill="#8fd03d"/>
        <path id="path7509" d="M2.117,285.094v2.853a.713.713,0,0,0,.711.711H9.959a.713.713,0,0,0,.71-.711v-2.853Z" transform="translate(-0.691 -285.094)" fill="#8fd03d"/>
        <path id="path7521" d="M11.827,292.766a.713.713,0,0,0-.716.716v2.853h11.41v-2.853a.713.713,0,0,0-.716-.716Z" transform="translate(14.551 -272.093)" fill="#8fd03d"/>
        <path id="path7525" d="M11.641,285.094v2.853a.713.713,0,0,0,.716.711h7.131a.713.713,0,0,0,.71-.711v-2.853Z" transform="translate(15.448 -285.094)" fill="#8fd03d"/>
        <path id="path7533" d="M7.066,292.766a.713.713,0,0,0-.716.716v2.853H17.76v-2.853a.713.713,0,0,0-.716-.716Z" transform="translate(6.481 -272.093)" fill="#8fd03d"/>
        <path id="path7537" d="M6.879,285.094v2.853a.713.713,0,0,0,.711.711h7.131a.713.713,0,0,0,.716-.711v-2.853Z" transform="translate(7.378 -285.094)" fill="#8fd03d"/>
      </g>
      <path id="path7497" d="M1.769,293.824a.713.713,0,0,0-.71.716v2.853H40.984V294.54a.713.713,0,0,0-.716-.716Z" transform="translate(0.367 -258.179)" fill="#3a5"/>
      <path id="path7505" d="M21.892,280.6a.715.715,0,0,0-.226.047L.987,288.486a.713.713,0,0,0-.458.668v3.563a.713.713,0,0,0,.71.711H42.591a.713.713,0,0,0,.716-.711v-3.563a.713.713,0,0,0-.463-.668l-20.673-7.842a.71.71,0,0,0-.279-.047Z" transform="translate(-0.53 -280.596)" fill="#059762"/>
      <path id="path7517" d="M10.261,282.184a2.85,2.85,0,1,0,2.853,2.853A2.864,2.864,0,0,0,10.261,282.184Z" transform="translate(11.128 -277.905)" fill="#e5f4ef"/>
      <path id="path7493" d="M1.24,299.162a.713.713,0,0,1-.71-.716V295.6a.713.713,0,0,1,.71-.716H42.591a.713.713,0,0,1,.716.716v2.847a.713.713,0,0,1-.716.716Z" transform="translate(-0.53 -256.384)" fill="#104834"/>
    </g>
  </g>
</svg>
