<svg xmlns="http://www.w3.org/2000/svg" width="62.02" height="40.374" viewBox="0 0 62.02 40.374">
  <g id="Group_10002" data-name="Group 10002" transform="translate(-1588.063 -2127.9)">
    <g id="dumbbell" transform="translate(1588.063 2081.01)">
      <path id="Path_1770" data-name="Path 1770" d="M1.872,104.641H9.041v16.564H1.872A1.872,1.872,0,0,1,0,119.333v-12.82A1.872,1.872,0,0,1,1.872,104.641Z" transform="translate(0 -39.585)" fill="#3a5"/>
      <path id="Path_1771" data-name="Path 1771" d="M430.365,121.2h-5.921V104.633h5.921a1.872,1.872,0,0,1,1.872,1.872v12.82A1.872,1.872,0,0,1,430.365,121.2Z" transform="translate(-371.465 -39.578)" fill="#059762"/>
      <path id="Path_1772" data-name="Path 1772" d="M464.374,104.633h-2.5a1.872,1.872,0,0,1,1.872,1.872v12.82a1.872,1.872,0,0,1-1.872,1.872h2.5a1.872,1.872,0,0,0,1.872-1.872v-12.82A1.872,1.872,0,0,0,464.374,104.633Z" transform="translate(-404.227 -39.578)" fill="#8fd03d"/>
      <path id="Path_1775" data-name="Path 1775" d="M149.6,145.117l-1.2-.675-1.339.675H118.377v-8.608h28.677l1.284.667,1.259-.667Z" transform="translate(-103.601 -67.476)" fill="#adadad"/>
      <path id="Path_1776" data-name="Path 1776" d="M348.125,136.51h3.745v8.608h-3.745Z" transform="translate(-304.672 -67.476)" fill="#d7d0d6"/>
      <path id="Path_1787" data-name="Path 1787" d="M375.64,87.265h-5.268a1.872,1.872,0,0,1-1.872-1.872V61.282a1.872,1.872,0,0,1,1.872-1.872h5.268a1.872,1.872,0,0,1,1.872,1.872v24.11A1.872,1.872,0,0,1,375.64,87.265Z" transform="translate(-322.504 0)" fill="#059762"/>
      <path id="Path_1788" data-name="Path 1788" d="M418.2,59.41h-2.5a1.872,1.872,0,0,1,1.872,1.872v24.11a1.872,1.872,0,0,1-1.872,1.872h2.5a1.872,1.872,0,0,0,1.872-1.872V61.282A1.872,1.872,0,0,0,418.2,59.41Z" transform="translate(-363.816 0)" fill="#8fd03d"/>
      <path id="Path_1789" data-name="Path 1789" d="M53.064,87.265H48.046a1.872,1.872,0,0,1-1.872-1.872V61.282a1.872,1.872,0,0,1,1.872-1.872h5.018a1.872,1.872,0,0,1,1.872,1.872v24.11A1.872,1.872,0,0,1,53.064,87.265Z" transform="translate(-40.411 0)" fill="#059762"/>
      <path id="Path_1790" data-name="Path 1790" d="M95.873,59.41h-2.5a1.872,1.872,0,0,1,1.872,1.872v24.11a1.872,1.872,0,0,1-1.872,1.872h2.5a1.872,1.872,0,0,0,1.872-1.872V61.282A1.872,1.872,0,0,0,95.873,59.41Z" transform="translate(-81.722 0)" fill="#8fd03d"/>
    </g>
    <g id="dumbbell-2" data-name="dumbbell" transform="translate(1604.078 2068.49)">
      <path id="Path_1770-2" data-name="Path 1770" d="M.966,104.641h3.7v8.548H.966A.966.966,0,0,1,0,112.223v-6.616A.966.966,0,0,1,.966,104.641Z" transform="translate(0 -42.318)" fill="#3a5"/>
      <path id="Path_1771-2" data-name="Path 1771" d="M427.5,113.181h-3.055v-8.548H427.5a.966.966,0,0,1,.966.966v6.616A.966.966,0,0,1,427.5,113.181Z" transform="translate(-397.105 -42.31)" fill="#059762"/>
      <path id="Path_1772-2" data-name="Path 1772" d="M463.166,104.633h-1.288a.966.966,0,0,1,.966.966v6.616a.966.966,0,0,1-.966.966h1.288a.966.966,0,0,0,.966-.966V105.6A.966.966,0,0,0,463.166,104.633Z" transform="translate(-432.128 -42.31)" fill="#8fd03d"/>
      <path id="Path_1775-2" data-name="Path 1775" d="M134.488,140.951l-.621-.348-.691.348h-14.8v-4.442h14.8l.663.344.65-.344Z" transform="translate(-110.752 -72.133)" fill="#adadad"/>
      <path id="Path_1776-2" data-name="Path 1776" d="M348.125,136.51h1.932v4.442h-1.932Z" transform="translate(-325.702 -72.134)" fill="#d7d0d6"/>
      <path id="Path_1787-2" data-name="Path 1787" d="M372.185,73.784h-2.718a.966.966,0,0,1-.966-.966V60.376a.966.966,0,0,1,.966-.966h2.718a.966.966,0,0,1,.966.966V72.818A.966.966,0,0,1,372.185,73.784Z" transform="translate(-344.764 0)" fill="#059762"/>
      <path id="Path_1788-2" data-name="Path 1788" d="M416.992,59.41H415.7a.966.966,0,0,1,.966.966V72.818a.966.966,0,0,1-.966.966h1.288a.966.966,0,0,0,.966-.966V60.376A.966.966,0,0,0,416.992,59.41Z" transform="translate(-388.928 0)" fill="#8fd03d"/>
      <path id="Path_1789-2" data-name="Path 1789" d="M49.73,73.784H47.14a.966.966,0,0,1-.966-.966V60.376a.966.966,0,0,1,.966-.966h2.59a.966.966,0,0,1,.966.966V72.818A.966.966,0,0,1,49.73,73.784Z" transform="translate(-43.2 0)" fill="#059762"/>
      <path id="Path_1790-2" data-name="Path 1790" d="M94.665,59.41H93.377a.966.966,0,0,1,.966.966V72.818a.966.966,0,0,1-.966.966h1.288a.966.966,0,0,0,.966-.966V60.376A.966.966,0,0,0,94.665,59.41Z" transform="translate(-87.362 0)" fill="#8fd03d"/>
    </g>
  </g>
</svg>
