<svg xmlns="http://www.w3.org/2000/svg" width="53.094" height="47.936" viewBox="0 0 53.094 47.936">
  <g id="cardiogram" transform="translate(0 -24.859)">
    <path id="Path_1825" data-name="Path 1825" d="M50.5,48.932c-.01.01.034,0-.132,0a2.344,2.344,0,0,0-2.341,3.123c-.293.308.97-.954-20.382,20.287a1.556,1.556,0,0,1-2.2,0C4.1,51.107,5.363,52.367,5.068,52.055a2.355,2.355,0,0,0-2.47-3.12l0,0A15.656,15.656,0,0,1,0,40.1C.245,28.036,14.969,19.139,26.548,29.267,38.12,19.145,52.851,28.03,53.092,40.1A15.655,15.655,0,0,1,50.5,48.932Z" transform="translate(0 0)" fill="#8fd03d"/>
    <path id="Path_1826" data-name="Path 1826" d="M279.821,48.942c-.01.01.034,0-.132,0a2.344,2.344,0,0,0-2.341,3.123c-.293.308.97-.954-20.382,20.287a1.553,1.553,0,0,1-1.1.453V29.276c7.208-6.3,16.2-5.5,21.93.227A15.24,15.24,0,0,1,279.821,48.942Z" transform="translate(-229.321 -0.009)" fill="#059762"/>
    <path id="Path_1827" data-name="Path 1827" d="M72.915,163.68a20.464,20.464,0,0,1-2.462,3.113H58.923a1.557,1.557,0,0,1-1.371-.819l-4.35-8.08-6.153,12.989a1.557,1.557,0,0,1-2.719.169l-4.458-7.005-1.2,1.991a1.555,1.555,0,0,1-1.334.755h-9.87a20.463,20.463,0,0,1-2.462-3.113H36.461l2.037-3.395a1.555,1.555,0,0,1,2.647-.034l4.3,6.752,6.264-13.223a1.558,1.558,0,0,1,2.777-.072l5.369,9.972H72.915Z" transform="translate(-22.415 -114.748)" fill="#fff"/>
    <path id="Path_1828" data-name="Path 1828" d="M261.391,153.711a1.558,1.558,0,0,0-2.777.072l-2.743,5.791v7.272l4.239-8.95,4.35,8.08a1.557,1.557,0,0,0,1.371.819h11.53a20.461,20.461,0,0,0,2.462-3.113H266.76Z" transform="translate(-229.322 -114.751)" fill="#fff"/>
  </g>
</svg>
