<svg xmlns="http://www.w3.org/2000/svg" width="45.436" height="44.343" viewBox="0 0 45.436 44.343">
  <g id="Group_9780" data-name="Group 9780" transform="translate(-2 -3.337)">
    <path id="Path_1659" data-name="Path 1659" d="M32.69,52.868,27.532,43.74a.749.749,0,0,0-.918-.339l-5.493,2.07a.766.766,0,0,0-.45.463.788.788,0,0,0,.056.65l5.523,9.772a.749.749,0,0,0,1,.3l5.127-2.714a.77.77,0,0,0,.379-.47.788.788,0,0,0-.071-.6Z" transform="translate(-4.521 -9.063)" fill="#8fd03d"/>
    <path id="Path_1660" data-name="Path 1660" d="M44.217,19.5a7.617,7.617,0,0,0-10.361-3.359.769.769,0,0,0-.374.453.788.788,0,0,0,.05.59l6.377,12.57a.761.761,0,0,0,.443.381.742.742,0,0,0,.577-.051A7.932,7.932,0,0,0,44.217,19.5Z" transform="translate(-7.633 -2.702)" fill="#ddd"/>
    <path id="Path_1661" data-name="Path 1661" d="M7.266,32.1a.76.76,0,0,0-.488-.395.744.744,0,0,0-.613.113L2.328,34.51a.783.783,0,0,0-.243.993L6.868,44.93a.751.751,0,0,0,.935.37l4.368-1.648a.765.765,0,0,0,.444-.446.788.788,0,0,0-.034-.635Z" transform="translate(0 -6.419)" fill="#8fd03d"/>
    <path id="Path_1662" data-name="Path 1662" d="M36.369,31.87l-10.1-19.9a.76.76,0,0,0-.488-.395.744.744,0,0,0-.613.113L5.991,25.162a.783.783,0,0,0-.243.993l7.44,14.664a.751.751,0,0,0,.935.37l21.837-8.237a.765.765,0,0,0,.444-.446A.788.788,0,0,0,36.369,31.87Z" transform="translate(-0.889 -1.861)" fill="#059762"/>
    <path id="Path_1663" data-name="Path 1663" d="M48.652,16.3a.761.761,0,0,1-.736-.59.779.779,0,0,1,.387-.87l7.691-4.07a.749.749,0,0,1,1.021.331.782.782,0,0,1-.324,1.043L49,16.217A.741.741,0,0,1,48.652,16.3Zm6.733,10.06a.75.75,0,0,1-.229-.037L49.1,24.364a.777.777,0,0,1-.493-.971.754.754,0,0,1,.951-.5l6.054,1.963a.775.775,0,0,1,.52.856.762.762,0,0,1-.75.655ZM42.566,11.069a.753.753,0,0,1-.611-.317.788.788,0,0,1-.111-.691l1.922-6.185a.754.754,0,0,1,.951-.5.777.777,0,0,1,.492.972L43.288,10.53A.759.759,0,0,1,42.566,11.069Z" transform="translate(-9.663)" fill="#0a0a0a"/>
  </g>
</svg>
