<svg id="other" xmlns="http://www.w3.org/2000/svg" width="43.727" height="51.516" viewBox="0 0 43.727 51.516">
  <g id="Group_10169" data-name="Group 10169" transform="translate(0 0)">
    <g id="Group_10166" data-name="Group 10166" transform="translate(0 0)">
      <g id="Group_10165" data-name="Group 10165">
        <g id="Group_10159" data-name="Group 10159" transform="translate(11.615 30.717)">
          <path id="Path_2527" data-name="Path 2527" d="M143.7,325.284c-1.4-7.024-2.969-10.539-5.609-17.11l-1.255-2.944H122.212l-1.187,2.944c-2.641,6.571-4.207,10.085-5.609,17.11Z" transform="translate(-115.416 -305.23)" fill="#8fd03d"/>
        </g>
        <path id="Path_2528" data-name="Path 2528" d="M302.559,308.174,301.3,305.23h-3.019l1.255,2.944c2.641,6.571,4.207,10.085,5.609,17.11h3.019C306.766,318.26,305.2,314.746,302.559,308.174Z" transform="translate(-268.267 -274.513)" fill="#3a5"/>
        <g id="Group_10160" data-name="Group 10160" transform="translate(15.845 30.717)">
          <path id="Path_2529" data-name="Path 2529" d="M167.411,315.624c6.749,0,9.628-3.8,9.628-3.8l.231-.24c-.425-1.059-.882-2.182-1.376-3.413l-1.255-2.945H160.014l-1.187,2.945c-.5,1.233-.953,2.359-1.379,3.42l.22.233S160.662,315.624,167.411,315.624Z" transform="translate(-157.447 -305.231)" fill="#e5f4ef"/>
        </g>
        <path id="Path_2530" data-name="Path 2530" d="M190.274,308.174l-1.255-2.944H174.394l-.958,2.374h13.63l1.255,2.944c.422,1.049.816,2.02,1.186,2.94a8.334,8.334,0,0,0,1.912-1.661l.231-.24C191.225,310.528,190.768,309.4,190.274,308.174Z" transform="translate(-155.982 -274.513)" fill="#034b31"/>
        <g id="Group_10164" data-name="Group 10164">
          <g id="Group_10161" data-name="Group 10161">
            <path id="Path_2531" data-name="Path 2531" d="M229.643,333.635a2.152,2.152,0,0,1-2.154,2.15h-2.322a2.152,2.152,0,0,1-2.154-2.15v-2.962h6.63v2.962Z" transform="translate(-200.57 -297.396)" fill="#e09a6c"/>
            <path id="Path_2532" data-name="Path 2532" stroke="#000" stroke-linecap="round" stroke-linejoin="round" stroke-miterlimit="10" stroke-width="15"/>
          </g>
          <path id="Path_2533" data-name="Path 2533" d="M141.73,50.9v2.088a2.412,2.412,0,0,0,2.414,2.409,7.108,7.108,0,0,0,5.021-2.076l.132-.132a7.082,7.082,0,0,0,2.08-5.012,6.537,6.537,0,0,0-.156-1.421l.017,0,3.206-19.8c0,.144-6.991-4.166-6.991-4.166a11.606,11.606,0,0,0-11.445,0l-7.058,3.562c.023.268,3.273,20.4,3.273,20.4l.007.018a6.851,6.851,0,0,0-.146,1.407,7.082,7.082,0,0,0,2.08,5.012l.132.132a7.108,7.108,0,0,0,5.021,2.076,2.412,2.412,0,0,0,2.414-2.409V50.9" transform="translate(-115.972 -19.139)" fill="#8fd03d"/>
          <g id="Group_10162" data-name="Group 10162" transform="translate(24.248 2.142)">
            <path id="Path_2534" data-name="Path 2534" d="M251.97,46.762l3.206-19.8c0,.144-6.991-4.166-6.991-4.166a11.6,11.6,0,0,0-7.232-1.409,11.562,11.562,0,0,1,4.213,1.409s6.991,4.31,6.991,4.166l-3.206,19.8-.017,0a6.535,6.535,0,0,1,.156,1.421,7.082,7.082,0,0,1-2.08,5.012l-.132.132a7.1,7.1,0,0,1-3.1,1.811,2.406,2.406,0,0,0,1.1.266,7.108,7.108,0,0,0,5.021-2.076l.132-.132a7.082,7.082,0,0,0,2.08-5.012,6.538,6.538,0,0,0-.156-1.421Z" transform="translate(-240.953 -21.289)" fill="#3a5"/>
          </g>
          <g id="Group_10163" data-name="Group 10163" transform="translate(8.546 0.755)">
            <path id="Path_2535" data-name="Path 2535" d="M287.938,9.3l2.728-1.6a1.4,1.4,0,0,1,1.184-.108l9.159,3.312a1.4,1.4,0,0,1,.853,1.746l-3.057,9.335a.96.96,0,0,1-1.548.419,22.064,22.064,0,0,1-6.816-12Z" transform="translate(-267.507 -7.506)" fill="#8fd03d"/>
            <path id="Path_2536" data-name="Path 2536" d="M320.152,10.9l-9.159-3.312a1.4,1.4,0,0,0-1.184.108l-.586.343,7.91,2.86a1.4,1.4,0,0,1,.853,1.746l-2.806,8.57c.452.478.868.872,1.22,1.184a.96.96,0,0,0,1.548-.419L321,12.647A1.4,1.4,0,0,0,320.152,10.9Z" transform="translate(-286.65 -7.506)" fill="#3a5"/>
            <path id="Path_2537" data-name="Path 2537" d="M98.909,9.3,96.181,7.7A1.4,1.4,0,0,0,95,7.589L85.838,10.9a1.4,1.4,0,0,0-.853,1.746l3.057,9.335a.96.96,0,0,0,1.548.419,22.064,22.064,0,0,0,6.816-12Z" transform="translate(-84.916 -7.506)" fill="#8fd03d"/>
          </g>
        </g>
        <ellipse id="Ellipse_350" data-name="Ellipse 350" cx="2.893" cy="2.889" rx="2.893" ry="2.889" transform="translate(22.864 43.261)" fill="#1b532b"/>
        <path id="Path_2538" data-name="Path 2538" d="M242.461,429.876a2.883,2.883,0,0,0-1.51.424,2.886,2.886,0,0,1,0,4.929,2.89,2.89,0,1,0,1.51-5.353Z" transform="translate(-216.703 -386.615)" fill="#003320"/>
      </g>
      <path id="Path_2539" data-name="Path 2539" d="M227.353,256.562a1.186,1.186,0,0,1-2.053,0l-.868-1.5-1.262-2.181a1.182,1.182,0,0,1,.5-1.653,6.008,6.008,0,0,1,5.307,0,1.182,1.182,0,0,1,.5,1.653l-1.262,2.181Z" transform="translate(-200.569 -225.39)" fill="#0b5821"/>
    </g>
    <g id="Group_10168" data-name="Group 10168" transform="translate(7.789 0)">
      <g id="Group_10167" data-name="Group 10167">
        <path id="Path_2540" data-name="Path 2540" d="M283.021,143.185a3.3,3.3,0,0,1,3.385.559c.685.65-.323,1.775-1.039,1.095a1.807,1.807,0,0,0-1.813-.241,2.463,2.463,0,0,0-1.18,1.34.755.755,0,0,1-1.424-.5A3.973,3.973,0,0,1,283.021,143.185Z" transform="translate(-260.422 -128.563)" fill="#059762"/>
        <path id="Path_2541" data-name="Path 2541" d="M111.914,3.441,102.755.129A2.149,2.149,0,0,0,100.933.3L98.415,1.771l-.138-.036a12.4,12.4,0,0,0-5.818,0l-.138.036L89.8.3A2.149,2.149,0,0,0,87.98.129L84.594,1.353a.755.755,0,0,0,.513,1.42l3.385-1.224a.644.644,0,0,1,.546.05l1.394.816a12.262,12.262,0,0,0-1.16.58.753.753,0,0,0-.372.534,21.363,21.363,0,0,1-5.57,10.6q-.024.023-.047.047c-.343.35-.666.654-.954.909A.2.2,0,0,1,82,15L78.942,5.661a.638.638,0,0,1,.392-.8L81.41,4.11A.755.755,0,0,0,80.9,2.69l-2.076.751a2.14,2.14,0,0,0-1.313,2.69l3.057,9.335a1.734,1.734,0,0,0,2.733.776l1.8,11.4a7.821,7.821,0,0,0,1.1,5.618s-2.289,5.56-3.191,8.108a66.9,66.9,0,0,0-2.522,9.258.755.755,0,0,0,1.48.3A64.5,64.5,0,0,1,85.721,38.45a13.753,13.753,0,0,0,8.943,3.4v.726a3.649,3.649,0,1,0,1.51.022v-.748a13.366,13.366,0,0,0,8.842-3.4c.584,1.476,1.1,2.828,1.575,4.225a.755.755,0,0,0,1.429-.487c-.963-2.823-3.481-8.934-3.481-8.934a7.77,7.77,0,0,0,1.1-5.6l1.8-11.41a1.736,1.736,0,0,0,2.733-.776l3.057-9.335a2.14,2.14,0,0,0-1.313-2.69ZM97.506,46.149a2.139,2.139,0,1,1-2.842-2.013v.474a.755.755,0,0,0,1.51,0v-.436a2.136,2.136,0,0,1,1.333,1.975Zm-2.087-5.794c-5.821,0-8.626-2.906-9.087-3.433l.5-1.228.445-1.1.127.127a7.8,7.8,0,0,0,3.965,2.136,2.912,2.912,0,0,0,2.842,2.289h2.322a2.912,2.912,0,0,0,2.842-2.289,7.8,7.8,0,0,0,3.965-2.136l.127-.127.445,1.1.492,1.219c-.392.471-3.1,3.441-8.981,3.441ZM95.367,35.9a3.164,3.164,0,0,0,2.324,1.115,1.4,1.4,0,0,1-1.163.621H94.206a1.4,1.4,0,0,1-1.163-.621A3.164,3.164,0,0,0,95.367,35.9Zm.373-5.1a.433.433,0,0,1-.746,0l-2.129-3.681a.427.427,0,0,1,.182-.6,5.285,5.285,0,0,1,4.64,0,.428.428,0,0,1,.182.6Zm8.788-5.822a13.016,13.016,0,0,0-2.446-2.456c-.714-.618-1.735.5-.988,1.142,1.7,1.469,3.164,2.945,3.164,5.382a6.586,6.586,0,0,1-6.479,6.466,1.659,1.659,0,0,1-1.659-1.655V32.369a1.924,1.924,0,0,0,.925-.819l2.129-3.681a1.967,1.967,0,0,0-.822-2.708,6.8,6.8,0,0,0-5.974,0,1.967,1.967,0,0,0-.822,2.708l2.129,3.681a1.925,1.925,0,0,0,.925.819v1.483a1.659,1.659,0,0,1-1.659,1.655,6.586,6.586,0,0,1-6.479-6.466c0-2.339,1.342-3.907,2.95-5.4.692-.643-.3-1.778-1.027-1.106a12.966,12.966,0,0,0-2.2,2.366s-1.547-9.808-1.564-9.947A22.892,22.892,0,0,0,90.31,4.148a10.845,10.845,0,0,1,10.115,0,22.892,22.892,0,0,0,5.68,10.805C106.088,15.093,104.529,24.973,104.529,24.973Zm7.264-19.311L108.736,15a.2.2,0,0,1-.331.089c-.288-.256-.611-.559-.954-.909-.015-.017-.03-.032-.047-.047a21.363,21.363,0,0,1-5.57-10.6.753.753,0,0,0-.372-.534,12.272,12.272,0,0,0-1.16-.58L101.7,1.6a.644.644,0,0,1,.545-.05L111.4,4.86a.638.638,0,0,1,.392.8Z" transform="translate(-77.398 0)" fill="#059762"/>
        <path id="Path_2542" data-name="Path 2542" d="M177.688,143.185a3.3,3.3,0,0,0-3.385.559c-.685.65.323,1.775,1.039,1.095a1.807,1.807,0,0,1,1.813-.241,2.463,2.463,0,0,1,1.18,1.34.755.755,0,0,0,1.424-.5A3.974,3.974,0,0,0,177.688,143.185Z" transform="translate(-164.346 -128.563)" fill="#059762"/>
      </g>
      <path id="Path_2543" data-name="Path 2543" d="M379.784,451.888a.755.755,0,0,0-1.457.393c.383,1.419.73,2.915,1.06,4.573a.755.755,0,0,0,1.48-.3C380.529,454.867,380.175,453.339,379.784,451.888Z" transform="translate(-348.015 -405.935)" fill="#059762"/>
    </g>
  </g>
</svg>
