<svg xmlns="http://www.w3.org/2000/svg" width="34.71" height="52.259" viewBox="0 0 34.71 52.259">
  <g id="employee_1_" data-name="employee(1)" transform="translate(-85.965)">
    <path id="Path_1805" data-name="Path 1805" d="M176.124,0a8.985,8.985,0,0,0-8.985,8.985v3.633a2.864,2.864,0,0,1,2.289-.748v-.448a.612.612,0,0,1,.656-.61,16.086,16.086,0,0,0,9.682-2.6.612.612,0,0,1,.783.1c2.285,2.456,2.272,2.361,2.272,2.682v.879a2.718,2.718,0,0,1,2.288.669V8.985A8.985,8.985,0,0,0,176.124,0Z" transform="translate(-72.889)" fill="#2b4255"/>
    <path id="Path_1806" data-name="Path 1806" d="M169.243,8.985A8.985,8.985,0,0,1,177.177.063,8.973,8.973,0,0,0,167.14,8.985v3.633a2.882,2.882,0,0,1,2.1-.765Z" transform="translate(-72.89 0)" fill="#576d7e"/>
    <path id="Path_1807" data-name="Path 1807" d="M320.627,112.789v4.941c0,.054,0,.106,0,.16a2.6,2.6,0,1,0,0-5.1Z" transform="translate(-210.707 -101.246)" fill="#8fd03d"/>
    <path id="Path_1808" data-name="Path 1808" d="M322.746,113.31a2.752,2.752,0,0,0-2.119-.521v4.941c0,.054,0,.106,0,.16a2.749,2.749,0,0,0,2.123-.52Z" transform="translate(-210.707 -101.246)" fill="#059762"/>
    <path id="Path_1809" data-name="Path 1809" d="M162.295,117.8v-4.952a2.747,2.747,0,0,0-3.122,2.555,2.628,2.628,0,0,0,3.126,2.557C162.3,117.9,162.295,117.85,162.295,117.8Z" transform="translate(-65.736 -101.306)" fill="#3a5"/>
    <path id="Path_1810" data-name="Path 1810" d="M162.295,117.453a2.565,2.565,0,0,1-1.019-2.052,2.493,2.493,0,0,1,1.019-1.972v-.583a2.747,2.747,0,0,0-3.122,2.555,2.628,2.628,0,0,0,3.126,2.557c0-.053,0-.107,0-.16Z" transform="translate(-65.736 -101.306)" fill="#059762"/>
    <path id="Path_1811" data-name="Path 1811" d="M222.937,212.749a6.931,6.931,0,0,1-3.771-1.065v3.681L222.921,220l3.754-4.634v-3.78A6.562,6.562,0,0,1,222.937,212.749Z" transform="translate(-119.605 -189.988)" fill="#059762"/>
    <path id="Path_1812" data-name="Path 1812" d="M221.31,213.445a6.693,6.693,0,0,1-2.144-.887v3.681l2.144,2.646Z" transform="translate(-119.605 -190.863)" fill="#3a5"/>
    <path id="Path_1813" data-name="Path 1813" d="M117,249.38l-9.932-3.847-3.754,4.634-3.754-4.634-9.922,3.847a6.294,6.294,0,0,0-3.674,5.7v16.429a1.224,1.224,0,0,0,1.224,1.224h32.262a1.224,1.224,0,0,0,1.224-1.224V255.078A6.293,6.293,0,0,0,117,249.38Z" transform="translate(0 -220.472)" fill="#059762"/>
    <path id="Path_1814" data-name="Path 1814" d="M88.061,302.973V285.387a6.06,6.06,0,0,1,2.274-4.811l-.7.27a6.293,6.293,0,0,0-3.674,5.7v16.429a1.224,1.224,0,0,0,1.224,1.224h2.1A1.224,1.224,0,0,1,88.061,302.973Z" transform="translate(0 -251.938)" fill="#8fd03d"/>
    <path id="Path_1815" data-name="Path 1815" d="M200.685,76.581a.612.612,0,0,0-.783-.1,16.086,16.086,0,0,1-9.682,2.6.612.612,0,0,0-.656.61v5.368a6.7,6.7,0,0,0,13.393,0v-5.8C202.956,78.942,202.97,79.038,200.685,76.581Z" transform="translate(-93.024 -68.589)" fill="#8fd03d"/>
    <path id="Path_1816" data-name="Path 1816" d="M191.667,108.8v-5.951a13.912,13.912,0,0,1-1.447-.027.612.612,0,0,0-.656.61V108.8a6.778,6.778,0,0,0,7.748,6.531A6.611,6.611,0,0,1,191.667,108.8Z" transform="translate(-93.025 -92.33)" fill="#8fd03d"/>
    <g id="Group_9795" data-name="Group 9795" transform="translate(91.429 25.061)">
      <path id="Path_1817" data-name="Path 1817" d="M141.072,362.423V346.209a.789.789,0,0,0-1.577,0v16.214Z" transform="translate(-139.495 -335.225)" fill="#8fd03d"/>
      <path id="Path_1818" data-name="Path 1818" d="M358.632,362.423V346.209a.789.789,0,1,0-1.577,0v16.214Z" transform="translate(-334.849 -335.225)" fill="#8fd03d"/>
      <path id="Path_1819" data-name="Path 1819" d="M260.483,252.548l2.808-5.627-3.586-1.389-3.754,4.634,3.66,2.6A.592.592,0,0,0,260.483,252.548Z" transform="translate(-244.064 -245.532)" fill="#8fd03d"/>
      <path id="Path_1820" data-name="Path 1820" d="M186.888,252.548l-2.808-5.627,3.586-1.389,3.754,4.634-3.66,2.6A.592.592,0,0,1,186.888,252.548Z" transform="translate(-179.529 -245.532)" fill="#8fd03d"/>
    </g>
    <path id="Path_1821" data-name="Path 1821" d="M226.167,341.976l-2.41-14.263h-2.812l-2.41,14.263a.62.62,0,0,0,.144.5h0l3.327,3.667a.467.467,0,0,0,.691,0l3.327-3.667h0A.621.621,0,0,0,226.167,341.976Z" transform="translate(-119.033 -294.264)" fill="#576d7e"/>
    <g id="Group_9796" data-name="Group 9796" transform="translate(99.496 29.695)">
      <path id="Path_1822" data-name="Path 1822" d="M232.536,290.94v0l0,0,0,0v0l-2.662,1.891,1.259,1.894h2.812l1.259-1.894Z" transform="translate(-228.712 -290.937)" fill="#2b4255"/>
      <path id="Path_1823" data-name="Path 1823" d="M220.782,342.473a.62.62,0,0,1-.144-.5l2.41-14.263h-2.1l-2.41,14.263a.62.62,0,0,0,.144.5l3.327,3.667a.467.467,0,0,0,.691,0l.706-.778Z" transform="translate(-218.529 -323.959)" fill="#2b4255"/>
    </g>
    <path id="Path_1824" data-name="Path 1824" d="M233.586,291.685l-1.049-.745v0l0,0,0,0v0l-2.662,1.891,1.258,1.894h2.1l-1.09-1.641a.314.314,0,0,1,.08-.429Z" transform="translate(-129.217 -261.242)" fill="#576d7e"/>
  </g>
</svg>
