<svg xmlns="http://www.w3.org/2000/svg" width="42.586" height="44.795" viewBox="0 0 42.586 44.795">
  <g id="sunbed" transform="translate(-12.621 -0.001)">
    <g id="Group_9790" data-name="Group 9790" transform="translate(16.347 0.001)">
      <g id="Group_9783" data-name="Group 9783" transform="translate(26.354 0)">
        <path id="Path_1734" data-name="Path 1734" d="M357.095,3.732a.656.656,0,0,1-.618-.877L357.34.437a.656.656,0,1,1,1.236.441L357.712,3.3A.656.656,0,0,1,357.095,3.732Z" transform="translate(-356.438 -0.001)" fill="#adadad"/>
      </g>
      <g id="Group_9786" data-name="Group 9786" transform="translate(8.189 2.445)">
        <g id="Group_9784" data-name="Group 9784" transform="translate(6.864 15.577)">
          <path id="Path_1735" data-name="Path 1735" d="M227.924,232.766a.657.657,0,0,1-.634-.826l6.822-25.46a.656.656,0,1,1,1.268.34l-6.822,25.46A.657.657,0,0,1,227.924,232.766Z" transform="translate(-227.267 -205.993)" fill="#adadad"/>
        </g>
        <g id="Group_9785" data-name="Group 9785">
          <path id="Path_1736" data-name="Path 1736" d="M179.486,44.586a16.363,16.363,0,0,0-30.669-8.218Z" transform="translate(-148.817 -27.949)" fill="#059762"/>
          <path id="Path_1737" data-name="Path 1737" d="M303.177,28.461a16.194,16.194,0,0,0-5.34-.456,16.18,16.18,0,0,1,2.715.456,16.449,16.449,0,0,1,12.286,15.424l2.63.7A16.449,16.449,0,0,0,303.177,28.461Z" transform="translate(-284.799 -27.952)" fill="#8fd03d"/>
          <path id="Path_1738" data-name="Path 1738" d="M382.749,190.224l-.233-3.421,10.223,2.739-1.912,2.846a.875.875,0,0,1-.953.357l-6.48-1.736A.875.875,0,0,1,382.749,190.224Z" transform="translate(-362.07 -172.905)" fill="#8fd03d"/>
          <path id="Path_1739" data-name="Path 1739" d="M442.082,213.081a.874.874,0,0,1-.35.3l2.178.584a.875.875,0,0,0,.953-.357l1.912-2.846-2.63-.7Z" transform="translate(-416.105 -194.125)" fill="#059762"/>
          <path id="Path_1740" data-name="Path 1740" d="M265.9,158.914l-.233-3.421,10.223,2.739-1.912,2.846a.875.875,0,0,1-.953.357l-6.48-1.736a.875.875,0,0,1-.646-.786Z" transform="translate(-255.443 -144.334)" fill="#059762"/>
          <path id="Path_1741" data-name="Path 1741" d="M149.05,127.6l-.233-3.421,10.223,2.739-1.912,2.846a.875.875,0,0,1-.953.357l-6.48-1.736A.875.875,0,0,1,149.05,127.6Z" transform="translate(-148.817 -115.764)" fill="#8fd03d"/>
          <path id="Path_1742" data-name="Path 1742" d="M276.408,36.759a36.235,36.235,0,0,0-.563-5.208,16.186,16.186,0,0,0-2.023-.664q-.646-.166-1.295-.276a28.794,28.794,0,0,0-6.86,10.926l4.1,1.1,6.121,1.64a36.313,36.313,0,0,0,.518-7.516Z" transform="translate(-255.444 -30.377)" fill="#8fd03d"/>
          <path id="Path_1743" data-name="Path 1743" d="M338.846,30.609c-.164.164-.332.336-.5.513a16.192,16.192,0,0,1,4.061,1.93q-.109-.784-.241-1.5a16.356,16.356,0,0,0-1.56-.537A16.124,16.124,0,0,0,338.846,30.609Z" transform="translate(-321.763 -30.376)" fill="#059762"/>
        </g>
      </g>
      <g id="Group_9789" data-name="Group 9789" transform="translate(0 26.993)">
        <g id="Group_9787" data-name="Group 9787" transform="translate(0.963 8.752)">
          <path id="Path_1744" data-name="Path 1744" d="M67.529,416.966a1.313,1.313,0,0,1-1.194-1.856l2.625-5.767a1.312,1.312,0,0,1,2.389,1.087L68.724,416.2A1.313,1.313,0,0,1,67.529,416.966Z" transform="translate(-66.217 -408.573)" fill="#adadad"/>
        </g>
        <g id="Group_9788" data-name="Group 9788" transform="translate(25.356 8.752)">
          <path id="Path_1745" data-name="Path 1745" d="M348.974,416.966a1.313,1.313,0,0,0,1.194-1.856l-2.625-5.767a1.312,1.312,0,0,0-2.389,1.087l2.625,5.767A1.313,1.313,0,0,0,348.974,416.966Z" transform="translate(-345.036 -408.573)" fill="#adadad"/>
        </g>
        <path id="Path_1746" data-name="Path 1746" d="M55.476,319.914H81.27a2.625,2.625,0,0,0,1.862-.775l9.217-9.281a.262.262,0,0,0-.1-.434l-2.008-.669a4.247,4.247,0,0,0-4.376,1.056l-4.625,4.719a1.75,1.75,0,0,1-1.254.525L59.037,315a3.81,3.81,0,0,0-3.823,3.81v.843a.263.263,0,0,0,.262.263Z" transform="translate(-55.214 -308.537)" fill="#059762"/>
        <path id="Path_1747" data-name="Path 1747" d="M92.246,310.159l-2.008-.669a4.25,4.25,0,0,0-.574-.148l-9.156,9.219a2.625,2.625,0,0,1-1.862.775H55.22c0,.069-.006.137-.006.207v.843a.262.262,0,0,0,.262.262H81.27a2.624,2.624,0,0,0,1.862-.775l9.217-9.281A.262.262,0,0,0,92.246,310.159Z" transform="translate(-55.214 -309.272)" fill="#8fd03d"/>
      </g>
    </g>
    <g id="Group_9791" data-name="Group 9791" transform="translate(12.621 43.483)">
      <path id="Path_1748" data-name="Path 1748" d="M53.655,498.314H13.277a.656.656,0,1,1,0-1.312H53.655a.656.656,0,1,1,0,1.312Z" transform="translate(-12.621 -497.002)" fill="#655e67"/>
    </g>
  </g>
</svg>
