<svg xmlns="http://www.w3.org/2000/svg" width="48.029" height="43.678" viewBox="0 0 48.029 43.678">
  <g id="Group_9771" data-name="Group 9771" transform="translate(-2.999 -6.998)">
    <path id="Path_1551" data-name="Path 1551" d="M24.4,15.864a10.675,10.675,0,0,0-10.04-8.85A10.744,10.744,0,0,0,3.383,14.734,10.426,10.426,0,0,0,8.8,26.84V45.823l3.312,4.853,6.625-4.853L17.077,43.4l1.656-2.426-2.484-2.426,2.484-2.426-.828-2.426.828-2.426V26.84a10.487,10.487,0,0,0,5.8-9.326,9.865,9.865,0,0,0-.132-1.65ZM13.765,18.323a3.236,3.236,0,1,1,3.312-3.235A3.274,3.274,0,0,1,13.765,18.323Z" transform="translate(0 0)" fill="#059762"/>
    <path id="Path_1552" data-name="Path 1552" d="M52.791,11.316a11.771,11.771,0,0,0-15.8-.526A11.125,11.125,0,0,0,33,19.323V41.161a.819.819,0,0,0,.828.809h21.53a.819.819,0,0,0,.828-.809V19.323a11.187,11.187,0,0,0-3.4-8.007ZM41.339,14.689a3.293,3.293,0,0,1,3.709-2.59,3.241,3.241,0,0,1,2.82,3.5,3.3,3.3,0,0,1-6.586-.319,2.75,2.75,0,0,1,.058-.59Z" transform="translate(-5.158 -0.192)" fill="#3a5"/>
    <rect id="Rectangle_668" data-name="Rectangle 668" width="16.561" height="16.176" transform="translate(31.154 22.367)" fill="#fff"/>
    <rect id="Rectangle_669" data-name="Rectangle 669" width="1.656" height="16.985" transform="translate(11.281 28.029)" fill="#8fd03d"/>
    <path id="Path_1554" data-name="Path 1554" d="M37,40.407v1.769H53.561V26H48.238Z" transform="translate(-5.846 -3.633)" fill="#8fd03d"/>
    <path id="Path_1555" data-name="Path 1555" d="M40.666,12.645a3.146,3.146,0,0,0-.754.388,3.676,3.676,0,0,0-.6.534.161.161,0,0,1,.041.073A.841.841,0,0,1,39,14h-.008c-.969.623-3.768,1.415-7.966,1.61-.638.032-1.317.049-2.021.049-.836,0-1.631-.024-2.377-.065C22.606,15.37,19.94,14.6,19.012,14H19c-.2-.129-.323-.251-.348-.356a.334.334,0,0,1,.033-.081A3.181,3.181,0,0,0,17.6,12.75c-.083-.04-.166-.073-.248-.105A1.637,1.637,0,0,0,17,13.64c0,1.043.994,1.8,2.468,2.354A26.853,26.853,0,0,0,26.9,17.223c.745.04,1.457.057,2.1.057.472,0,.985-.008,1.515-.032a28.066,28.066,0,0,0,8.024-1.254c1.474-.55,2.468-1.31,2.468-2.354a1.637,1.637,0,0,0-.348-.995Zm-15.849-.809a37.982,37.982,0,0,1,4.19-.218,38.7,38.7,0,0,1,4.5.251,7.44,7.44,0,0,1,.737-.7,11.3,11.3,0,0,1,.936-.712A40.3,40.3,0,0,0,29.007,10a41.482,41.482,0,0,0-5.532.364c.232.21.455.437.671.663A8.987,8.987,0,0,1,24.817,11.836Z" transform="translate(-2.407 -0.574)" fill="#787680"/>
  </g>
</svg>
