<svg xmlns="http://www.w3.org/2000/svg" width="54.675" height="54.675" viewBox="0 0 54.675 54.675">
  <g id="ball" transform="translate(0 -0.001)">
    <circle id="Ellipse_246" data-name="Ellipse 246" cx="27.335" cy="27.335" r="27.335" transform="translate(0 0.001)" fill="#059762"/>
    <path id="Path_1728" data-name="Path 1728" d="M20.754,217.453a27.3,27.3,0,0,1-5-2.024c1.866-5.4,2.134-12.014-1.462-17.785a21.732,21.732,0,0,0-13.006-9.177A27.487,27.487,0,0,1,2.27,183.5c6.7.981,13.277,5.545,17.16,12.7C23.3,203.326,23.557,211.3,20.754,217.453Z" transform="translate(-1.151 -163.9)" fill="#e9eff4"/>
    <path id="Path_1729" data-name="Path 1729" d="M84.159,109.146a27.338,27.338,0,0,1-35.142-7.932A27.341,27.341,0,0,0,89.293,64.7a27.352,27.352,0,0,1-5.135,44.448Z" transform="translate(-43.782 -57.788)" fill="#8fd03d"/>
    <path id="Path_1730" data-name="Path 1730" d="M142.924,460.9a20.123,20.123,0,0,1-1.176,3.341l-.322-.1a27.9,27.9,0,0,1-2.644-.965c-.149-.063-2.047-.916-2.031-.962a25.145,25.145,0,0,0,.7-2.422A27.432,27.432,0,0,0,142.924,460.9Z" transform="translate(-122.146 -410.693)" fill="#d3dce2"/>
    <path id="Path_1731" data-name="Path 1731" d="M336.373,40.218a27.207,27.207,0,0,1-.922,4.877c-6.553-1.111-12.928-5.631-16.728-12.629-3.809-7.016-4.119-14.847-1.458-20.956a27.481,27.481,0,0,1,4.663,1.933,21.679,21.679,0,0,0,.516,15.753C325.252,35.349,330.871,38.777,336.373,40.218Z" transform="translate(-281.826 -10.28)" fill="#8fd03d"/>
    <g id="Group_9782" data-name="Group 9782" transform="translate(48.72 28.365)">
      <path id="Path_1732" data-name="Path 1732" d="M462.019,267.16c-.061.64-.144,1.252-.246,1.885-.039.238-.629,3-.676,2.993a20.807,20.807,0,0,1-4.9-1.485,27.53,27.53,0,0,0,1.5-4.964A24.726,24.726,0,0,0,462.019,267.16Z" transform="translate(-456.192 -265.588)" fill="#d3dce2"/>
      <path id="Path_1733" data-name="Path 1733" d="M462.018,267.162c-.02.207-.042.413-.066.618-.012.1-.025.206-.039.309s-.028.206-.043.308-.025.176-.038.264c-.019.129-.04.256-.061.385s-.044.254-.067.381l-.02.109q-.036.2-.076.393a0,0,0,0,1,0,0c-.027.139-.056.276-.087.414-.018.086-.037.172-.057.257s-.035.156-.054.234c-.023.1-.048.2-.074.3s-.051.2-.077.3q-.078.3-.163.6a20.809,20.809,0,0,1-4.9-1.485,27.531,27.531,0,0,0,1.5-4.964A24.746,24.746,0,0,0,462.018,267.162Z" transform="translate(-456.191 -265.59)" fill="#d3dce2"/>
    </g>
  </g>
</svg>
