<svg xmlns="http://www.w3.org/2000/svg" width="33.964" height="47.795" viewBox="0 0 33.964 47.795">
  <g id="antenna" transform="translate(-74.081 0)">
    <g id="Group_9754" data-name="Group 9754" transform="translate(76.425 9.308)">
      <path id="Path_1675" data-name="Path 1675" d="M128.424,133.9l-12.538-33.731a.7.7,0,0,0-.656-.456h-2.8a.7.7,0,0,0-.656.456L99.236,133.9a.7.7,0,0,0,.656.944h27.876a.7.7,0,0,0,.656-.944Zm-7.956-10.323-6.641,3.161-6.645-3.161Zm-14.485-1.4,7.844-6.674,7.838,6.674Zm8.925-7.593,3.679-3.13,3.405,9.162Zm-1.08-.919-3.161-2.691h6.324Zm-3.767-4.092,3.769-5.747,3.769,5.747Zm-.989,1.882,3.675,3.129-7.076,6.02Zm-4.6,12.383,7.727,3.675-11.047,5.257Zm9.357,4.45,10.839,5.156H102.993Zm1.629-.775,7.732-3.68,3.322,8.937Zm.619-22.817-1.408-2.147.389-.594Zm-2.245-3.424-.1-.158h.208Zm-1.226.683.389.594-1.408,2.147Z" transform="translate(-99.192 -99.716)" fill="#576d7e"/>
    </g>
    <path id="Path_1676" data-name="Path 1676" d="M108.045,463.171v1.945a.7.7,0,0,1-.7.7H74.781a.7.7,0,0,1-.7-.7v-1.945a2.112,2.112,0,0,1,2.111-2.11h29.743A2.112,2.112,0,0,1,108.045,463.171Z" transform="translate(0 -418.022)" fill="#059762"/>
    <path id="Path_1677" data-name="Path 1677" d="M381.156,463.171v1.945a.7.7,0,0,1-.7.7h-3.734a.7.7,0,0,0,.7-.7v-1.945a2.112,2.112,0,0,0-2.111-2.11h3.734A2.112,2.112,0,0,1,381.156,463.171Z" transform="translate(-273.111 -418.022)" fill="#8fd03d"/>
    <path id="Path_1678" data-name="Path 1678" d="M224.908,45.2a3.569,3.569,0,1,1-3.569-3.568A3.573,3.573,0,0,1,224.908,45.2Z" transform="translate(-130.277 -37.745)" fill="#059762"/>
    <path id="Path_1679" data-name="Path 1679" d="M248.237,45.2a3.569,3.569,0,0,1-4.736,3.372,3.568,3.568,0,0,0,0-6.744,3.569,3.569,0,0,1,4.736,3.372Z" transform="translate(-153.605 -37.745)" fill="#3a5"/>
    <g id="Group_9755" data-name="Group 9755" transform="translate(75.954 0)">
      <path id="Path_1680" data-name="Path 1680" d="M137.53,29.8a.7.7,0,1,0-.947-1.031,6.246,6.246,0,0,0,0,9.2.7.7,0,1,0,.947-1.031,4.846,4.846,0,0,1,0-7.14Z" transform="translate(-130.788 -25.914)" fill="#8fd03d"/>
      <path id="Path_1681" data-name="Path 1681" d="M177.305,58.857a.7.7,0,1,0-.847-1.115,2.428,2.428,0,0,0,0,3.869.7.7,0,0,0,.847-1.115,1.027,1.027,0,0,1,0-1.638Z" transform="translate(-167.904 -52.222)" fill="#8fd03d"/>
      <path id="Path_1682" data-name="Path 1682" d="M98.224,13.7a8.616,8.616,0,0,1,0-12.492A.7.7,0,0,0,97.259.192a9.928,9.928,0,0,0-3.117,7.261,9.928,9.928,0,0,0,3.117,7.261.7.7,0,1,0,.965-1.015Z" transform="translate(-94.142 0)" fill="#8fd03d"/>
      <path id="Path_1683" data-name="Path 1683" d="M344.382,28.767a.7.7,0,1,0-.947,1.031,4.846,4.846,0,0,1,0,7.14.7.7,0,1,0,.947,1.031,6.246,6.246,0,0,0,0-9.2Z" transform="translate(-319.958 -25.914)" fill="#8fd03d"/>
      <path id="Path_1684" data-name="Path 1684" d="M315.3,57.741a.7.7,0,0,0-.847,1.115,1.027,1.027,0,0,1,0,1.638.7.7,0,0,0,.847,1.115,2.428,2.428,0,0,0,0-3.869Z" transform="translate(-293.636 -52.222)" fill="#8fd03d"/>
      <path id="Path_1685" data-name="Path 1685" d="M372.986.194a.7.7,0,0,0-.965,1.015,8.616,8.616,0,0,1,0,12.492.7.7,0,0,0,.965,1.015A9.929,9.929,0,0,0,376.1,7.455,9.929,9.929,0,0,0,372.986.194Z" transform="translate(-345.884 -0.001)" fill="#8fd03d"/>
    </g>
  </g>
</svg>
