<svg xmlns="http://www.w3.org/2000/svg" width="41.622" height="50.543" viewBox="0 0 41.622 50.543">
  <g id="train" transform="translate(-45.184)">
    <path id="Path_2550" data-name="Path 2550" d="M328.989,416l8.126,8.49h-6.96L324.005,416Z" transform="translate(-251.296 -374.933)" fill="#3a5"/>
    <path id="Path_2551" data-name="Path 2551" d="M111.593,16.838V46.131a3.949,3.949,0,0,1-3.949,3.949H80a3.949,3.949,0,0,1-3.949-3.949V16.83a5.924,5.924,0,0,1,4.761-5.809A52.723,52.723,0,0,1,91.137,10h5.215a53.8,53.8,0,0,1,10.47,1.029,5.921,5.921,0,0,1,4.771,5.81Z" transform="translate(-27.823 -9.013)" fill="#059762"/>
    <circle id="Ellipse_353" data-name="Ellipse 353" cx="2.962" cy="2.962" r="2.962" transform="translate(73.899 30.208)" fill="#8fd03d"/>
    <path id="Path_2552" data-name="Path 2552" d="M116.055,90v16.387H143.7V90Z" transform="translate(-63.874 -81.115)" fill="#e5f4ef"/>
    <path id="Path_2553" data-name="Path 2553" d="M68.394,416l-6.151,8.49H55.185L63.41,416Z" transform="translate(-9.013 -374.933)" fill="#3a5"/>
    <circle id="Ellipse_354" data-name="Ellipse 354" cx="2.962" cy="2.962" r="2.962" transform="translate(52.181 30.208)" fill="#8fd03d"/>
    <path id="Path_2554" data-name="Path 2554" d="M327.042,41.974a.987.987,0,1,0-.987-.987A.988.988,0,0,0,327.042,41.974Z" transform="translate(-253.144 -36.051)" fill="#0d6526"/>
    <path id="Path_2555" data-name="Path 2555" d="M167.042,41.974a.987.987,0,1,0-.987-.987A.988.988,0,0,0,167.042,41.974Z" transform="translate(-108.939 -36.051)" fill="#0d6526"/>
    <path id="Path_2556" data-name="Path 2556" d="M80,42.049a4.941,4.941,0,0,0,4.757-4.931V7.825a6.908,6.908,0,0,0-5.566-6.778A54.909,54.909,0,0,0,68.529,0H63.314A53.739,53.739,0,0,0,52.8,1.041a6.929,6.929,0,0,0-5.555,6.777v29.3a4.941,4.941,0,0,0,4.824,4.933L45.463,48.87a.987.987,0,0,0,.709,1.674H53.23a.987.987,0,0,0,.8-.408L57.024,46H75.066l2.994,4.133a.987.987,0,0,0,.8.408h6.96a.987.987,0,0,0,.713-1.67ZM49.219,37.118V7.817a4.95,4.95,0,0,1,3.967-4.841,51.776,51.776,0,0,1,10.127-1h5.215a52.939,52.939,0,0,1,10.278,1.01,4.934,4.934,0,0,1,3.975,4.841V37.118a2.965,2.965,0,0,1-2.962,2.962H52.18A2.965,2.965,0,0,1,49.219,37.118Zm3.507,11.451H48.5l6.312-6.515h2.632Zm5.728-4.541,1.431-1.974h12.32l1.43,1.974Zm20.909,4.541-4.72-6.515h2.628l6.237,6.515Z" transform="translate(0 0)" fill="#8fd03d"/>
    <path id="Path_2557" data-name="Path 2557" d="M107.042,98.362h27.641a.987.987,0,0,0,.987-.987V80.987a.987.987,0,0,0-.987-.987H107.042a.987.987,0,0,0-.987.987V97.374A.987.987,0,0,0,107.042,98.362ZM133.7,96.387H121.85V81.974H133.7ZM108.029,81.974h11.846V96.387H108.029Z" transform="translate(-54.862 -72.103)" fill="#8fd03d"/>
    <path id="Path_2558" data-name="Path 2558" d="M207.042,41.974h7.9a.987.987,0,1,0,0-1.974h-7.9a.987.987,0,1,0,0,1.974Z" transform="translate(-144.99 -36.051)" fill="#0d6526"/>
    <path id="Path_2559" data-name="Path 2559" d="M330,296a3.949,3.949,0,1,0,3.949,3.949A3.953,3.953,0,0,0,330,296Zm0,5.923a1.974,1.974,0,1,1,1.974-1.974A1.977,1.977,0,0,1,330,301.923Z" transform="translate(-253.144 -266.78)" fill="#14612a"/>
    <path id="Path_2560" data-name="Path 2560" d="M110,303.9a3.949,3.949,0,1,0-3.949-3.949A3.953,3.953,0,0,0,110,303.9Zm0-5.923a1.974,1.974,0,1,1-1.974,1.974A1.977,1.977,0,0,1,110,297.974Z" transform="translate(-54.862 -266.78)" fill="#14612a"/>
    <path id="Path_2561" data-name="Path 2561" d="M214.94,306h-7.9a.987.987,0,1,0,0,1.974h7.9a.987.987,0,1,0,0-1.974Z" transform="translate(-144.99 -275.792)" fill="#14612a"/>
    <path id="Path_2562" data-name="Path 2562" d="M214.94,346h-7.9a.987.987,0,1,0,0,1.974h7.9a.987.987,0,1,0,0-1.974Z" transform="translate(-144.99 -311.844)" fill="#14612a"/>
  </g>
</svg>
