<svg xmlns="http://www.w3.org/2000/svg" width="45.851" height="45.619" viewBox="0 0 45.851 45.619">
  <g id="Group_9779" data-name="Group 9779" transform="translate(-2.791 -2.786)">
    <ellipse id="Ellipse_237" data-name="Ellipse 237" cx="18.182" cy="18.09" rx="18.182" ry="18.09" transform="translate(12.277 2.787)" fill="#3d9ae2"/>
    <path id="Path_1674" data-name="Path 1674" d="M18.182,0A18.091,18.091,0,1,1,0,18.09,18.137,18.137,0,0,1,18.182,0Z" transform="translate(12.277 2.787)" fill="#8fd03d"/>
    <path id="Path_1621" data-name="Path 1621" d="M47.965,10.566A18.049,18.049,0,0,1,37.412,38.677l-1.067-2.643-2.372-4.719-1.581-2.36L30.02,25.81l.791-3.933,1.581-3.933,6.324-1.573L44.25,14.8ZM43.807,6.414c-.411.724-.83,1.306-1.138,1.306-.791,0-3.162,2.36-3.953,2.36a33.075,33.075,0,0,0-4.743,1.573l-6.324-2.36L23.087,6.052a18.233,18.233,0,0,1,20.72.362ZM28.439,30.529l-.791,3.933-2.055,3.067A18.047,18.047,0,0,1,18.091,11l4.814,1.439,1.581,3.933,3.953,3.146s-1.581,1.573-1.581,2.36-.791,3.146,0,3.933S28.439,30.529,28.439,30.529Z" transform="translate(-2.723 -0.213)" fill="#059762"/>
    <path id="Path_1622" data-name="Path 1622" d="M50.486,19.719c0,2.607-4.743,7.865-4.743,7.865S41,22.326,41,19.719a4.743,4.743,0,0,1,9.486,0Z" transform="translate(-8.169 -2.775)" fill="#1fc14d"/>
    <ellipse id="Ellipse_239" data-name="Ellipse 239" cx="1.581" cy="1.573" rx="1.581" ry="1.573" transform="translate(35.993 15.371)" fill="#fff"/>
    <rect id="Rectangle_704" data-name="Rectangle 704" width="33.203" height="17.304" rx="2" transform="translate(2.791 31.102)" fill="#ddd"/>
    <path id="Path_1623" data-name="Path 1623" d="M3,45H36.2V56.012a1.577,1.577,0,0,1-1.581,1.573H4.581A1.577,1.577,0,0,1,3,56.012Z" transform="translate(-0.209 -9.179)" fill="#059762"/>
    <path id="Path_1625" data-name="Path 1625" d="M46.372,18a2.36,2.36,0,1,0,2.372,2.36A2.366,2.366,0,0,0,46.372,18Zm0,3.146a.787.787,0,1,1,.791-.787A.789.789,0,0,1,46.372,21.146Z" transform="translate(-8.797 -3.415)" fill="#025a3a"/>
    <rect id="Rectangle_705" data-name="Rectangle 705" width="1.581" height="2.36" transform="translate(26.507 38.967)" fill="#fff"/>
    <rect id="Rectangle_706" data-name="Rectangle 706" width="1.581" height="2.36" transform="translate(26.507 42.9)" fill="#fff"/>
    <rect id="Rectangle_707" data-name="Rectangle 707" width="3.953" height="1.573" transform="translate(29.669 41.327)" fill="#fff"/>
    <rect id="Rectangle_708" data-name="Rectangle 708" width="3.953" height="1.573" transform="translate(29.669 44.473)" fill="#fff"/>
    <path id="Path_1626" data-name="Path 1626" d="M18.059,51.546l-4.829-3.4-.912,1.284,4.092,2.878L12.3,54.22l-2.074-1.258L9.4,54.309l2.435,1.473a.794.794,0,0,0,.745.041L21.894,51.5l-.669-1.425Z" transform="translate(-1.55 -9.851)" fill="#fff"/>
  </g>
</svg>
