<svg xmlns="http://www.w3.org/2000/svg" width="56.906" height="48.3" viewBox="0 0 56.906 48.3">
  <g id="video-camera" transform="translate(0 -38.716)">
    <g id="Group_9792" data-name="Group 9792" transform="translate(0 38.716)">
      <path id="Path_1749" data-name="Path 1749" d="M407.765,223.654a.574.574,0,0,0-.85-.5l-11.151,6.139-1.033,4.073,1.033,4.08,6,4.336,6,2.271Z" transform="translate(-350.859 -202.589)" fill="#576d7e"/>
      <path id="Path_1750" data-name="Path 1750" d="M395.763,354.383l11.151,6.139a.574.574,0,0,0,.85-.5v-1.094l-12-6.607-1.033,1.128Z" transform="translate(-350.859 -317.463)" fill="#3c434c"/>
      <path id="Path_1751" data-name="Path 1751" d="M4.318,242.643l-3.5-1.657A.574.574,0,0,0,0,241.5v7.706l2.159.01,2.159-2.055,1.033-2.09Z" transform="translate(0 -218.455)" fill="#a6aec4"/>
      <path id="Path_1752" data-name="Path 1752" d="M.819,300.753l3.5-1.658,1.033-1.033L4.318,297.03,0,299.076v1.159A.574.574,0,0,0,.819,300.753Z" transform="translate(0 -268.32)" fill="#959db0"/>
      <path id="Path_1753" data-name="Path 1753" d="M43.408,260.867,41.129,261.9l-2.279-1.033v-4.522h4.558l1.033,2.432Z" transform="translate(-34.532 -232.157)" fill="#576d7e"/>
      <path id="Path_1754" data-name="Path 1754" d="M38.85,299.1h4.558l1.033-1.033-1.033-1.033H38.85Z" transform="translate(-34.532 -268.32)" fill="#3c434c"/>
      <path id="Path_1755" data-name="Path 1755" d="M223.273,57.778c5.2,0,9.995-5.028,9.995-10.047a10.048,10.048,0,0,0-19.99,0A10.449,10.449,0,0,0,223.273,57.778Z" transform="translate(-189.573 -38.716)" fill="#3a5"/>
      <path id="Path_1756" data-name="Path 1756" d="M96.161,105.85a6.94,6.94,0,0,0,6.966-7.042,7.042,7.042,0,0,0-13.931,0A6.841,6.841,0,0,0,96.161,105.85Z" transform="translate(-79.282 -86.788)" fill="#3a5"/>
      <path id="Path_1757" data-name="Path 1757" d="M82.95,246.687h29.842c2.588,0,3.094-2.418,3.094-4.126V222.609a3.094,3.094,0,0,0-3.094-3.094H82.95a3.094,3.094,0,0,0-3.094,3.094v19.953C79.856,244.27,80.643,246.687,82.95,246.687Z" transform="translate(-70.98 -199.42)" fill="#059762"/>
      <path id="Path_1758" data-name="Path 1758" d="M160.253,282.459h16.118c1.147,0,1.147-1.546,1.147-2.18v-7.322a1.147,1.147,0,0,0-1.147-1.147H160.253a1.147,1.147,0,0,0-1.147,1.147v7.322c0,.634,0,2.18,1.147,2.18Z" transform="translate(-141.422 -245.903)" fill="#3a5"/>
      <path id="Path_1759" data-name="Path 1759" d="M276.234,103.406a3.239,3.239,0,0,0,3.372-3.526,3.527,3.527,0,0,0-6.745,0A3.279,3.279,0,0,0,276.234,103.406Z" transform="translate(-242.535 -90.865)" fill="#fff"/>
      <path id="Path_1760" data-name="Path 1760" d="M134,137.212c0,.872.3,2.24,1.986,2.24,1.81,0,1.986-1.481,1.986-2.24a2.238,2.238,0,0,0-3.972,0Z" transform="translate(-119.104 -125.192)" fill="#fff"/>
      <path id="Path_1761" data-name="Path 1761" d="M112.791,429.963H82.95a3.094,3.094,0,0,1-3.094-3.094v2.065a3.094,3.094,0,0,0,3.094,3.094h29.842a3.094,3.094,0,0,0,3.094-3.094v-2.065A3.094,3.094,0,0,1,112.791,429.963Z" transform="translate(-70.98 -383.728)" fill="#959db0"/>
      <path id="Path_1762" data-name="Path 1762" d="M176.372,349.157H160.254a1.147,1.147,0,0,1-1.147-1.147v2.065a1.147,1.147,0,0,0,1.147,1.147h16.118a1.147,1.147,0,0,0,1.147-1.147V348.01A1.147,1.147,0,0,1,176.372,349.157Z" transform="translate(-141.423 -313.634)" fill="#8fd03d"/>
      <path id="Path_1763" data-name="Path 1763" d="M95.552,152.876a7.043,7.043,0,0,1-6.966-6.009,7.042,7.042,0,1,0,13.932,0A7.043,7.043,0,0,1,95.552,152.876Z" transform="translate(-78.673 -134.847)" fill="#8fd03d"/>
      <path id="Path_1764" data-name="Path 1764" d="M133.957,148.074a2.238,2.238,0,0,1-1.986-1.207,2.24,2.24,0,1,0,3.972,0A2.238,2.238,0,0,1,133.957,148.074Z" transform="translate(-117.077 -134.847)" fill="#fff"/>
      <path id="Path_1765" data-name="Path 1765" d="M222.853,128.84a10.049,10.049,0,0,1-9.995-9.015,10.155,10.155,0,0,0-.052,1.033,10.047,10.047,0,1,0,20.095,0,10.155,10.155,0,0,0-.052-1.033A10.049,10.049,0,0,1,222.853,128.84Z" transform="translate(-189.154 -110.81)" fill="#8fd03d"/>
      <path id="Path_1766" data-name="Path 1766" d="M275,122.318a3.528,3.528,0,0,1-3.372-2.494,3.526,3.526,0,1,0,6.745,0A3.528,3.528,0,0,1,275,122.318Z" transform="translate(-241.304 -110.809)" fill="#fff"/>
    </g>
    <g id="Group_9793" data-name="Group 9793" transform="translate(19.236 80.19)">
      <path id="Path_1767" data-name="Path 1767" d="M276.747,411.869a.862.862,0,0,0,0,1.724H278.9a.862.862,0,1,0,0-1.724Z" transform="translate(-264.458 -411.869)" fill="#b3e59f"/>
      <path id="Path_1768" data-name="Path 1768" d="M225.341,411.869a.862.862,0,1,0,0,1.724h2.151a.862.862,0,0,0,0-1.724Z" transform="translate(-218.766 -411.869)" fill="#2ee2a1"/>
      <path id="Path_1769" data-name="Path 1769" d="M173.935,411.869a.862.862,0,0,0,0,1.724h2.151a.862.862,0,1,0,0-1.724Z" transform="translate(-173.073 -411.869)" fill="#3a5"/>
    </g>
  </g>
</svg>
