<svg id="app_store" xmlns="http://www.w3.org/2000/svg" width="135" height="40" viewBox="0 0 135 40">
  <path id="Path_1485" data-name="Path 1485" d="M130.2,40H4.73A4.739,4.739,0,0,1,0,35.267V4.727A4.734,4.734,0,0,1,4.73,0H130.2A4.8,4.8,0,0,1,135,4.726v30.54A4.8,4.8,0,0,1,130.2,40Z" fill="#a6a6a6"/>
  <path id="Path_1486" data-name="Path 1486" d="M134.032,35.268A3.83,3.83,0,0,1,130.2,39.1H4.728A3.835,3.835,0,0,1,.89,35.268V4.725A3.84,3.84,0,0,1,4.73.89H130.2a3.835,3.835,0,0,1,3.834,3.835l0,30.543Z"/>
  <g id="Group_348" data-name="Group 348" transform="translate(12.792 6.216)">
    <path id="Path_1487" data-name="Path 1487" d="M30.128,19.784a5.8,5.8,0,0,1,2.76-4.864,5.935,5.935,0,0,0-4.675-2.528c-1.967-.207-3.875,1.177-4.877,1.177-1.022,0-2.565-1.158-4.228-1.124a6.225,6.225,0,0,0-5.24,3.2c-2.266,3.923-.576,9.688,1.6,12.86,1.086,1.552,2.355,3.286,4.016,3.225,1.624-.067,2.23-1.036,4.192-1.036,1.943,0,2.513,1.037,4.207,1,1.743-.028,2.84-1.56,3.89-3.127a12.847,12.847,0,0,0,1.778-3.622,5.6,5.6,0,0,1-3.42-5.154Zm-3.2-9.478a5.707,5.707,0,0,0,1.306-4.09,5.818,5.818,0,0,0-3.758,1.945,5.435,5.435,0,0,0-1.34,3.94,4.806,4.806,0,0,0,3.792-1.794Z" transform="translate(-12.792 -6.216)" fill="#fff"/>
  </g>
  <g id="Group_349" data-name="Group 349" transform="translate(42.411 18.003)">
    <path id="Path_1488" data-name="Path 1488" d="M53.645,31.5h-2.27l-1.245-3.91H45.806L44.621,31.5h-2.21L46.695,18.2h2.646L53.646,31.5Zm-3.89-5.55L48.63,22.48q-.18-.532-.67-2.507h-.04q-.2.849-.633,2.507l-1.1,3.475h3.573Zm14.907.634a5.453,5.453,0,0,1-1.323,3.87A3.873,3.873,0,0,1,60.4,31.721a2.942,2.942,0,0,1-2.725-1.36h-.04v5.054H55.5V25.067q0-1.539-.08-3.16H57.3l.12,1.522h.04a3.79,3.79,0,0,1,6.07-.377,5.287,5.287,0,0,1,1.136,3.535Zm-2.172.078a3.951,3.951,0,0,0-.632-2.31A2.182,2.182,0,0,0,60,23.408a2.213,2.213,0,0,0-1.43.523,2.414,2.414,0,0,0-.84,1.374,2.8,2.8,0,0,0-.1.65v1.6a2.565,2.565,0,0,0,.643,1.768,2.127,2.127,0,0,0,1.668.72,2.184,2.184,0,0,0,1.875-.927,4.087,4.087,0,0,0,.672-2.45Zm13.21-.078a5.454,5.454,0,0,1-1.325,3.87,3.868,3.868,0,0,1-2.94,1.263,2.94,2.94,0,0,1-2.725-1.36h-.04v5.054H66.538V25.067q0-1.539-.08-3.16h1.876l.12,1.522h.04a3.792,3.792,0,0,1,6.072-.377A5.3,5.3,0,0,1,75.7,26.587Zm-2.173.078a3.944,3.944,0,0,0-.633-2.31,2.179,2.179,0,0,0-1.855-.948,2.22,2.22,0,0,0-1.433.523,2.427,2.427,0,0,0-.838,1.374,2.8,2.8,0,0,0-.1.65v1.6a2.572,2.572,0,0,0,.64,1.768,2.132,2.132,0,0,0,1.67.72,2.184,2.184,0,0,0,1.875-.927,4.088,4.088,0,0,0,.672-2.45ZM88.04,27.772a3.548,3.548,0,0,1-1.183,2.764A5.239,5.239,0,0,1,83.232,31.7a6.352,6.352,0,0,1-3.45-.828l.5-1.777a5.844,5.844,0,0,0,3.082.85,2.913,2.913,0,0,0,1.876-.544,1.772,1.772,0,0,0,.67-1.453,1.854,1.854,0,0,0-.553-1.364,5.14,5.14,0,0,0-1.836-1.03q-3.5-1.3-3.494-3.815a3.381,3.381,0,0,1,1.225-2.69A4.834,4.834,0,0,1,84.505,18a6.462,6.462,0,0,1,3.02.633l-.533,1.738a5.25,5.25,0,0,0-2.547-.61,2.578,2.578,0,0,0-1.756.552,1.582,1.582,0,0,0-.533,1.2,1.63,1.63,0,0,0,.61,1.3A6.915,6.915,0,0,0,84.7,23.851a6.557,6.557,0,0,1,2.527,1.618,3.377,3.377,0,0,1,.81,2.307Zm7.048-4.264h-2.35v4.66q0,1.776,1.244,1.776a3.746,3.746,0,0,0,.947-.1l.058,1.62a4.83,4.83,0,0,1-1.658.236,2.558,2.558,0,0,1-1.975-.77,3.783,3.783,0,0,1-.71-2.587V23.506h-1.4v-1.6h1.4V20.15l2.093-.633v2.39h2.35v1.6Zm10.6,3.119a5.259,5.259,0,0,1-1.263,3.633,4.512,4.512,0,0,1-3.516,1.46,4.29,4.29,0,0,1-3.364-1.4,5.1,5.1,0,0,1-1.254-3.534,5.212,5.212,0,0,1,1.293-3.652,4.473,4.473,0,0,1,3.484-1.422,4.382,4.382,0,0,1,3.395,1.4,5.044,5.044,0,0,1,1.226,3.513Zm-2.21.07a4.318,4.318,0,0,0-.573-2.278,2.106,2.106,0,0,0-1.914-1.15,2.138,2.138,0,0,0-1.955,1.15,4.393,4.393,0,0,0-.572,2.316,4.319,4.319,0,0,0,.572,2.276,2.179,2.179,0,0,0,3.85-.02,4.331,4.331,0,0,0,.59-2.3Zm9.14-2.914a3.591,3.591,0,0,0-.67-.06,2.023,2.023,0,0,0-1.74.85,3.2,3.2,0,0,0-.532,1.9V31.5h-2.13l.02-6.574q0-1.659-.08-3.02h1.856l.078,1.835h.06a3.28,3.28,0,0,1,1.065-1.52,2.577,2.577,0,0,1,1.54-.514,3.419,3.419,0,0,1,.534.04v2.033Zm9.536,2.469a5,5,0,0,1-.078.967h-6.4a2.783,2.783,0,0,0,.928,2.172,3.17,3.17,0,0,0,2.092.67,7.078,7.078,0,0,0,2.588-.453l.334,1.48a8.019,8.019,0,0,1-3.217.592,4.66,4.66,0,0,1-3.506-1.313,4.855,4.855,0,0,1-1.272-3.525,5.5,5.5,0,0,1,1.186-3.613,4.087,4.087,0,0,1,3.355-1.54,3.575,3.575,0,0,1,3.14,1.54,5.19,5.19,0,0,1,.846,3.02Zm-2.033-.553a2.9,2.9,0,0,0-.414-1.64,1.866,1.866,0,0,0-1.7-.89,2.023,2.023,0,0,0-1.7.87,3.169,3.169,0,0,0-.63,1.658h4.44Z" transform="translate(-42.411 -18.003)" fill="#fff"/>
  </g>
  <g id="Group_350" data-name="Group 350" transform="translate(43.675 6.556)">
    <path id="Path_1489" data-name="Path 1489" d="M49.05,10.01a3.282,3.282,0,0,1-1.058,2.657,4.2,4.2,0,0,1-2.783.824,12.932,12.932,0,0,1-1.534-.077V6.984a11.308,11.308,0,0,1,1.805-.137,3.891,3.891,0,0,1,2.59.747A3.016,3.016,0,0,1,49.05,10.01Zm-1.1.028a2.39,2.39,0,0,0-.606-1.756,2.392,2.392,0,0,0-1.772-.61,4.37,4.37,0,0,0-.844.067v4.888a5.488,5.488,0,0,0,.708.03,2.481,2.481,0,0,0,1.857-.67,2.675,2.675,0,0,0,.655-1.95Zm6.965,1a2.585,2.585,0,0,1-.622,1.785,2.215,2.215,0,0,1-1.727.718,2.108,2.108,0,0,1-1.653-.69,2.505,2.505,0,0,1-.615-1.735,2.554,2.554,0,0,1,.635-1.794,2.207,2.207,0,0,1,1.712-.7,2.16,2.16,0,0,1,1.668.688,2.493,2.493,0,0,1,.6,1.727Zm-1.088.034a2.14,2.14,0,0,0-.28-1.118,1.036,1.036,0,0,0-.94-.564,1.052,1.052,0,0,0-.962.564,2.158,2.158,0,0,0-.28,1.138,2.138,2.138,0,0,0,.28,1.12,1.058,1.058,0,0,0,.95.563,1.043,1.043,0,0,0,.94-.574,2.117,2.117,0,0,0,.292-1.13ZM62.765,8.72,61.29,13.433h-.96l-.61-2.047a15.057,15.057,0,0,1-.38-1.523h-.02a11,11,0,0,1-.378,1.523l-.65,2.047h-.97L55.935,8.72h1.077l.533,2.24c.13.53.235,1.035.32,1.513h.02q.115-.591.388-1.5l.67-2.25H59.8l.64,2.2q.234.805.38,1.552h.028a14.576,14.576,0,0,1,.32-1.552l.572-2.2h1.03ZM68.2,13.433H67.15v-2.7q0-1.248-.95-1.248a.947.947,0,0,0-.757.343,1.22,1.22,0,0,0-.29.808v2.8H64.1V10.066c0-.414-.012-.863-.037-1.35h.92l.05.738h.03a1.5,1.5,0,0,1,.542-.57,1.779,1.779,0,0,1,.95-.264,1.5,1.5,0,0,1,1.1.427,2.076,2.076,0,0,1,.543,1.562v2.823Zm2.89,0H70.04V6.556h1.048v6.877Zm6.17-2.4a2.588,2.588,0,0,1-.62,1.785,2.217,2.217,0,0,1-1.728.718,2.1,2.1,0,0,1-1.654-.69,2.505,2.505,0,0,1-.615-1.735,2.559,2.559,0,0,1,.636-1.794,2.2,2.2,0,0,1,1.71-.7,2.157,2.157,0,0,1,1.67.688,2.494,2.494,0,0,1,.6,1.727Zm-1.088.034a2.14,2.14,0,0,0-.28-1.118,1.036,1.036,0,0,0-.94-.564,1.047,1.047,0,0,0-.96.564,2.14,2.14,0,0,0-.282,1.138,2.147,2.147,0,0,0,.28,1.12,1.061,1.061,0,0,0,.952.563,1.045,1.045,0,0,0,.94-.574,2.125,2.125,0,0,0,.29-1.13Zm6.16,2.362h-.94l-.08-.543h-.028a1.613,1.613,0,0,1-1.377.65,1.421,1.421,0,0,1-1.076-.427,1.337,1.337,0,0,1-.37-.96,1.467,1.467,0,0,1,.723-1.32,3.762,3.762,0,0,1,2.033-.445V10.3q0-.93-.98-.93a2.191,2.191,0,0,0-1.228.348l-.213-.688a3.035,3.035,0,0,1,1.617-.407q1.848,0,1.85,1.95v1.736a7.357,7.357,0,0,0,.068,1.123Zm-1.088-1.62v-.727q-1.734-.03-1.734.95a.713.713,0,0,0,.2.553.741.741,0,0,0,.513.183,1.061,1.061,0,0,0,.642-.218A.89.89,0,0,0,81.226,12a.953.953,0,0,0,.017-.184Zm7.043,1.62h-.93l-.05-.757h-.028a1.567,1.567,0,0,1-1.514.864,1.774,1.774,0,0,1-1.416-.67,2.6,2.6,0,0,1-.562-1.735,2.739,2.739,0,0,1,.61-1.853,1.882,1.882,0,0,1,1.456-.66,1.416,1.416,0,0,1,1.33.64h.02V6.556h1.048v5.607c0,.46.012.882.037,1.27ZM87.2,11.445v-.786a1.46,1.46,0,0,0-.03-.33,1.194,1.194,0,0,0-.38-.636,1.032,1.032,0,0,0-.7-.257,1.077,1.077,0,0,0-.922.466,2,2,0,0,0-.336,1.193,1.862,1.862,0,0,0,.322,1.135,1.08,1.08,0,0,0,.916.466,1.011,1.011,0,0,0,.828-.388,1.293,1.293,0,0,0,.3-.863Zm10.048-.408a2.588,2.588,0,0,1-.62,1.785,2.217,2.217,0,0,1-1.728.718,2.112,2.112,0,0,1-1.654-.69,2.505,2.505,0,0,1-.615-1.735,2.559,2.559,0,0,1,.636-1.794,2.206,2.206,0,0,1,1.713-.7,2.156,2.156,0,0,1,1.667.688,2.493,2.493,0,0,1,.6,1.727Zm-1.086.034a2.14,2.14,0,0,0-.28-1.118,1.039,1.039,0,0,0-.942-.564,1.051,1.051,0,0,0-.96.564,2.14,2.14,0,0,0-.282,1.138,2.147,2.147,0,0,0,.28,1.12,1.061,1.061,0,0,0,.952.563,1.043,1.043,0,0,0,.94-.574,2.126,2.126,0,0,0,.292-1.13Zm6.721,2.362h-1.047v-2.7q0-1.248-.95-1.248a.943.943,0,0,0-.757.343,1.215,1.215,0,0,0-.292.808v2.8h-1.05V10.066c0-.414-.01-.863-.036-1.35h.92l.05.738h.028a1.532,1.532,0,0,1,.543-.57,1.782,1.782,0,0,1,.95-.264,1.5,1.5,0,0,1,1.1.427,2.072,2.072,0,0,1,.543,1.562v2.823ZM109.936,9.5h-1.154v2.29c0,.582.205.873.61.873a1.794,1.794,0,0,0,.468-.05l.027.8a2.359,2.359,0,0,1-.814.117,1.257,1.257,0,0,1-.97-.378,1.853,1.853,0,0,1-.35-1.27V9.5h-.688V8.72h.69V7.855l1.026-.31V8.718h1.155V9.5Zm5.548,3.929h-1.05v-2.68q0-1.268-.948-1.268a1,1,0,0,0-1,.735,1.356,1.356,0,0,0-.05.377v2.835H111.39V6.556h1.047V9.4h.02a1.585,1.585,0,0,1,1.416-.774,1.461,1.461,0,0,1,1.078.427,2.139,2.139,0,0,1,.534,1.58v2.8Zm5.723-2.58a2.441,2.441,0,0,1-.04.475h-3.142a1.376,1.376,0,0,0,.455,1.067,1.564,1.564,0,0,0,1.03.33,3.47,3.47,0,0,0,1.27-.223l.164.728a3.947,3.947,0,0,1-1.582.29,2.28,2.28,0,0,1-1.72-.644,2.368,2.368,0,0,1-.626-1.73A2.7,2.7,0,0,1,117.6,9.37a2,2,0,0,1,1.648-.756,1.75,1.75,0,0,1,1.54.756,2.51,2.51,0,0,1,.42,1.483Zm-1-.27a1.4,1.4,0,0,0-.2-.806.918.918,0,0,0-.834-.437,1,1,0,0,0-.834.427,1.577,1.577,0,0,0-.31.815h2.18Z" transform="translate(-43.675 -6.556)" fill="#fff"/>
  </g>
</svg>
