<svg xmlns="http://www.w3.org/2000/svg" xmlns:xlink="http://www.w3.org/1999/xlink" width="1870.908" height="860.996" viewBox="0 0 1870.908 860.996">
  <defs>
    <clipPath id="clip-path">
      <rect width="203" height="199" fill="none"/>
    </clipPath>
    <clipPath id="clip-path-2">
      <rect width="104" height="102" fill="none"/>
    </clipPath>
    <clipPath id="clip-path-3">
      <rect x="643" width="557" height="398" fill="none"/>
    </clipPath>
    <linearGradient id="linear-gradient" x1="0.5" x2="0.5" y2="1" gradientUnits="objectBoundingBox">
      <stop offset="0" stop-color="#8fd03d"/>
      <stop offset="1" stop-color="#059762"/>
    </linearGradient>
  </defs>
  <g id="Group_10003" data-name="Group 10003" transform="translate(0 -175)">
    <g id="Group_293" data-name="Group 293" transform="translate(-104 -2140.881)" opacity="0.701">
      <g id="Repeat_Grid_19" data-name="Repeat Grid 19" transform="translate(1113 2315.881)" clip-path="url(#clip-path)">
        <g transform="translate(-1120 -2316)">
          <circle id="Ellipse_17" data-name="Ellipse 17" cx="5" cy="5" r="5" transform="translate(1120 2316)" fill="#8fd03d"/>
        </g>
        <g transform="translate(-1090 -2316)">
          <circle id="Ellipse_17-2" data-name="Ellipse 17" cx="5" cy="5" r="5" transform="translate(1120 2316)" fill="#8fd03d"/>
        </g>
        <g transform="translate(-1060 -2316)">
          <circle id="Ellipse_17-3" data-name="Ellipse 17" cx="5" cy="5" r="5" transform="translate(1120 2316)" fill="#8fd03d"/>
        </g>
        <g transform="translate(-1030 -2316)">
          <circle id="Ellipse_17-4" data-name="Ellipse 17" cx="5" cy="5" r="5" transform="translate(1120 2316)" fill="#8fd03d"/>
        </g>
        <g transform="translate(-1000 -2316)">
          <circle id="Ellipse_17-5" data-name="Ellipse 17" cx="5" cy="5" r="5" transform="translate(1120 2316)" fill="#8fd03d"/>
        </g>
        <g transform="translate(-970 -2316)">
          <circle id="Ellipse_17-6" data-name="Ellipse 17" cx="5" cy="5" r="5" transform="translate(1120 2316)" fill="#8fd03d"/>
        </g>
        <g transform="translate(-940 -2316)">
          <circle id="Ellipse_17-7" data-name="Ellipse 17" cx="5" cy="5" r="5" transform="translate(1120 2316)" fill="#8fd03d"/>
        </g>
        <g transform="translate(-1120 -2286)">
          <circle id="Ellipse_17-8" data-name="Ellipse 17" cx="5" cy="5" r="5" transform="translate(1120 2316)" fill="#8fd03d"/>
        </g>
        <g transform="translate(-1090 -2286)">
          <circle id="Ellipse_17-9" data-name="Ellipse 17" cx="5" cy="5" r="5" transform="translate(1120 2316)" fill="#8fd03d"/>
        </g>
        <g transform="translate(-1060 -2286)">
          <circle id="Ellipse_17-10" data-name="Ellipse 17" cx="5" cy="5" r="5" transform="translate(1120 2316)" fill="#8fd03d"/>
        </g>
        <g transform="translate(-1030 -2286)">
          <circle id="Ellipse_17-11" data-name="Ellipse 17" cx="5" cy="5" r="5" transform="translate(1120 2316)" fill="#8fd03d"/>
        </g>
        <g transform="translate(-1000 -2286)">
          <circle id="Ellipse_17-12" data-name="Ellipse 17" cx="5" cy="5" r="5" transform="translate(1120 2316)" fill="#8fd03d"/>
        </g>
        <g transform="translate(-970 -2286)">
          <circle id="Ellipse_17-13" data-name="Ellipse 17" cx="5" cy="5" r="5" transform="translate(1120 2316)" fill="#8fd03d"/>
        </g>
        <g transform="translate(-940 -2286)">
          <circle id="Ellipse_17-14" data-name="Ellipse 17" cx="5" cy="5" r="5" transform="translate(1120 2316)" fill="#8fd03d"/>
        </g>
        <g transform="translate(-1120 -2256)">
          <circle id="Ellipse_17-15" data-name="Ellipse 17" cx="5" cy="5" r="5" transform="translate(1120 2316)" fill="#8fd03d"/>
        </g>
        <g transform="translate(-1090 -2256)">
          <circle id="Ellipse_17-16" data-name="Ellipse 17" cx="5" cy="5" r="5" transform="translate(1120 2316)" fill="#8fd03d"/>
        </g>
        <g transform="translate(-1060 -2256)">
          <circle id="Ellipse_17-17" data-name="Ellipse 17" cx="5" cy="5" r="5" transform="translate(1120 2316)" fill="#8fd03d"/>
        </g>
        <g transform="translate(-1030 -2256)">
          <circle id="Ellipse_17-18" data-name="Ellipse 17" cx="5" cy="5" r="5" transform="translate(1120 2316)" fill="#8fd03d"/>
        </g>
        <g transform="translate(-1000 -2256)">
          <circle id="Ellipse_17-19" data-name="Ellipse 17" cx="5" cy="5" r="5" transform="translate(1120 2316)" fill="#8fd03d"/>
        </g>
        <g transform="translate(-970 -2256)">
          <circle id="Ellipse_17-20" data-name="Ellipse 17" cx="5" cy="5" r="5" transform="translate(1120 2316)" fill="#8fd03d"/>
        </g>
        <g transform="translate(-940 -2256)">
          <circle id="Ellipse_17-21" data-name="Ellipse 17" cx="5" cy="5" r="5" transform="translate(1120 2316)" fill="#8fd03d"/>
        </g>
        <g transform="translate(-1120 -2226)">
          <circle id="Ellipse_17-22" data-name="Ellipse 17" cx="5" cy="5" r="5" transform="translate(1120 2316)" fill="#8fd03d"/>
        </g>
        <g transform="translate(-1090 -2226)">
          <circle id="Ellipse_17-23" data-name="Ellipse 17" cx="5" cy="5" r="5" transform="translate(1120 2316)" fill="#8fd03d"/>
        </g>
        <g transform="translate(-1060 -2226)">
          <circle id="Ellipse_17-24" data-name="Ellipse 17" cx="5" cy="5" r="5" transform="translate(1120 2316)" fill="#8fd03d"/>
        </g>
        <g transform="translate(-1030 -2226)">
          <circle id="Ellipse_17-25" data-name="Ellipse 17" cx="5" cy="5" r="5" transform="translate(1120 2316)" fill="#8fd03d"/>
        </g>
        <g transform="translate(-1000 -2226)">
          <circle id="Ellipse_17-26" data-name="Ellipse 17" cx="5" cy="5" r="5" transform="translate(1120 2316)" fill="#8fd03d"/>
        </g>
        <g transform="translate(-970 -2226)">
          <circle id="Ellipse_17-27" data-name="Ellipse 17" cx="5" cy="5" r="5" transform="translate(1120 2316)" fill="#8fd03d"/>
        </g>
        <g transform="translate(-940 -2226)">
          <circle id="Ellipse_17-28" data-name="Ellipse 17" cx="5" cy="5" r="5" transform="translate(1120 2316)" fill="#8fd03d"/>
        </g>
        <g transform="translate(-1120 -2196)">
          <circle id="Ellipse_17-29" data-name="Ellipse 17" cx="5" cy="5" r="5" transform="translate(1120 2316)" fill="#8fd03d"/>
        </g>
        <g transform="translate(-1090 -2196)">
          <circle id="Ellipse_17-30" data-name="Ellipse 17" cx="5" cy="5" r="5" transform="translate(1120 2316)" fill="#8fd03d"/>
        </g>
        <g transform="translate(-1060 -2196)">
          <circle id="Ellipse_17-31" data-name="Ellipse 17" cx="5" cy="5" r="5" transform="translate(1120 2316)" fill="#8fd03d"/>
        </g>
        <g transform="translate(-1030 -2196)">
          <circle id="Ellipse_17-32" data-name="Ellipse 17" cx="5" cy="5" r="5" transform="translate(1120 2316)" fill="#8fd03d"/>
        </g>
        <g transform="translate(-1000 -2196)">
          <circle id="Ellipse_17-33" data-name="Ellipse 17" cx="5" cy="5" r="5" transform="translate(1120 2316)" fill="#8fd03d"/>
        </g>
        <g transform="translate(-970 -2196)">
          <circle id="Ellipse_17-34" data-name="Ellipse 17" cx="5" cy="5" r="5" transform="translate(1120 2316)" fill="#8fd03d"/>
        </g>
        <g transform="translate(-940 -2196)">
          <circle id="Ellipse_17-35" data-name="Ellipse 17" cx="5" cy="5" r="5" transform="translate(1120 2316)" fill="#8fd03d"/>
        </g>
        <g transform="translate(-1120 -2166)">
          <circle id="Ellipse_17-36" data-name="Ellipse 17" cx="5" cy="5" r="5" transform="translate(1120 2316)" fill="#8fd03d"/>
        </g>
        <g transform="translate(-1090 -2166)">
          <circle id="Ellipse_17-37" data-name="Ellipse 17" cx="5" cy="5" r="5" transform="translate(1120 2316)" fill="#8fd03d"/>
        </g>
        <g transform="translate(-1060 -2166)">
          <circle id="Ellipse_17-38" data-name="Ellipse 17" cx="5" cy="5" r="5" transform="translate(1120 2316)" fill="#8fd03d"/>
        </g>
        <g transform="translate(-1030 -2166)">
          <circle id="Ellipse_17-39" data-name="Ellipse 17" cx="5" cy="5" r="5" transform="translate(1120 2316)" fill="#8fd03d"/>
        </g>
        <g transform="translate(-1000 -2166)">
          <circle id="Ellipse_17-40" data-name="Ellipse 17" cx="5" cy="5" r="5" transform="translate(1120 2316)" fill="#8fd03d"/>
        </g>
        <g transform="translate(-970 -2166)">
          <circle id="Ellipse_17-41" data-name="Ellipse 17" cx="5" cy="5" r="5" transform="translate(1120 2316)" fill="#8fd03d"/>
        </g>
        <g transform="translate(-940 -2166)">
          <circle id="Ellipse_17-42" data-name="Ellipse 17" cx="5" cy="5" r="5" transform="translate(1120 2316)" fill="#8fd03d"/>
        </g>
        <g transform="translate(-1120 -2136)">
          <circle id="Ellipse_17-43" data-name="Ellipse 17" cx="5" cy="5" r="5" transform="translate(1120 2316)" fill="#8fd03d"/>
        </g>
        <g transform="translate(-1090 -2136)">
          <circle id="Ellipse_17-44" data-name="Ellipse 17" cx="5" cy="5" r="5" transform="translate(1120 2316)" fill="#8fd03d"/>
        </g>
        <g transform="translate(-1060 -2136)">
          <circle id="Ellipse_17-45" data-name="Ellipse 17" cx="5" cy="5" r="5" transform="translate(1120 2316)" fill="#8fd03d"/>
        </g>
        <g transform="translate(-1030 -2136)">
          <circle id="Ellipse_17-46" data-name="Ellipse 17" cx="5" cy="5" r="5" transform="translate(1120 2316)" fill="#8fd03d"/>
        </g>
        <g transform="translate(-1000 -2136)">
          <circle id="Ellipse_17-47" data-name="Ellipse 17" cx="5" cy="5" r="5" transform="translate(1120 2316)" fill="#8fd03d"/>
        </g>
        <g transform="translate(-970 -2136)">
          <circle id="Ellipse_17-48" data-name="Ellipse 17" cx="5" cy="5" r="5" transform="translate(1120 2316)" fill="#8fd03d"/>
        </g>
        <g transform="translate(-940 -2136)">
          <circle id="Ellipse_17-49" data-name="Ellipse 17" cx="5" cy="5" r="5" transform="translate(1120 2316)" fill="#8fd03d"/>
        </g>
      </g>
    </g>
    <g id="Group_9806" data-name="Group 9806" transform="translate(-695 -1596.881)" opacity="0.701">
      <g id="Repeat_Grid_19-2" data-name="Repeat Grid 19" transform="translate(1113 2315.881)" clip-path="url(#clip-path-2)">
        <g transform="translate(-1120 -2316)">
          <circle id="Ellipse_17-50" data-name="Ellipse 17" cx="5" cy="5" r="5" transform="translate(1120 2316)" fill="#8fd03d"/>
        </g>
        <g transform="translate(-1090 -2316)">
          <circle id="Ellipse_17-51" data-name="Ellipse 17" cx="5" cy="5" r="5" transform="translate(1120 2316)" fill="#8fd03d"/>
        </g>
        <g transform="translate(-1060 -2316)">
          <circle id="Ellipse_17-52" data-name="Ellipse 17" cx="5" cy="5" r="5" transform="translate(1120 2316)" fill="#8fd03d"/>
        </g>
        <g transform="translate(-1030 -2316)">
          <circle id="Ellipse_17-53" data-name="Ellipse 17" cx="5" cy="5" r="5" transform="translate(1120 2316)" fill="#8fd03d"/>
        </g>
        <g transform="translate(-1120 -2286)">
          <circle id="Ellipse_17-54" data-name="Ellipse 17" cx="5" cy="5" r="5" transform="translate(1120 2316)" fill="#8fd03d"/>
        </g>
        <g transform="translate(-1090 -2286)">
          <circle id="Ellipse_17-55" data-name="Ellipse 17" cx="5" cy="5" r="5" transform="translate(1120 2316)" fill="#8fd03d"/>
        </g>
        <g transform="translate(-1060 -2286)">
          <circle id="Ellipse_17-56" data-name="Ellipse 17" cx="5" cy="5" r="5" transform="translate(1120 2316)" fill="#8fd03d"/>
        </g>
        <g transform="translate(-1030 -2286)">
          <circle id="Ellipse_17-57" data-name="Ellipse 17" cx="5" cy="5" r="5" transform="translate(1120 2316)" fill="#8fd03d"/>
        </g>
        <g transform="translate(-1120 -2256)">
          <circle id="Ellipse_17-58" data-name="Ellipse 17" cx="5" cy="5" r="5" transform="translate(1120 2316)" fill="#8fd03d"/>
        </g>
        <g transform="translate(-1090 -2256)">
          <circle id="Ellipse_17-59" data-name="Ellipse 17" cx="5" cy="5" r="5" transform="translate(1120 2316)" fill="#8fd03d"/>
        </g>
        <g transform="translate(-1060 -2256)">
          <circle id="Ellipse_17-60" data-name="Ellipse 17" cx="5" cy="5" r="5" transform="translate(1120 2316)" fill="#8fd03d"/>
        </g>
        <g transform="translate(-1030 -2256)">
          <circle id="Ellipse_17-61" data-name="Ellipse 17" cx="5" cy="5" r="5" transform="translate(1120 2316)" fill="#8fd03d"/>
        </g>
        <g transform="translate(-1120 -2226)">
          <circle id="Ellipse_17-62" data-name="Ellipse 17" cx="5" cy="5" r="5" transform="translate(1120 2316)" fill="#8fd03d"/>
        </g>
        <g transform="translate(-1090 -2226)">
          <circle id="Ellipse_17-63" data-name="Ellipse 17" cx="5" cy="5" r="5" transform="translate(1120 2316)" fill="#8fd03d"/>
        </g>
        <g transform="translate(-1060 -2226)">
          <circle id="Ellipse_17-64" data-name="Ellipse 17" cx="5" cy="5" r="5" transform="translate(1120 2316)" fill="#8fd03d"/>
        </g>
        <g transform="translate(-1030 -2226)">
          <circle id="Ellipse_17-65" data-name="Ellipse 17" cx="5" cy="5" r="5" transform="translate(1120 2316)" fill="#8fd03d"/>
        </g>
      </g>
    </g>
    <g id="Scroll_Group_12" data-name="Scroll Group 12" transform="translate(-643 553)" clip-path="url(#clip-path-3)" style="isolation: isolate">
      <rect id="Rectangle_667" data-name="Rectangle 667" width="1019" height="398" rx="199" opacity="0.65" fill="url(#linear-gradient)"/>
    </g>
    <g id="Group_9799" data-name="Group 9799" transform="translate(1034.56 388.706)">
      <ellipse id="Ellipse_250" data-name="Ellipse 250" cx="44.533" cy="90.865" rx="44.533" ry="90.865" transform="translate(595.707 407.478)" fill="#8fd03d"/>
      <path id="Path_1850" data-name="Path 1850" d="M837.075,783.123c17.836-107.011.18-213.636,0-214.7l-3.469.588c.18,1.059,17.734,107.123,0,213.534Z" transform="translate(-200.947 -136.048)" fill="#059762"/>
      <rect id="Rectangle_735" data-name="Rectangle 735" width="3.519" height="45.668" transform="translate(599.369 481.91) rotate(-61.858)" fill="#059762"/>
      <rect id="Rectangle_736" data-name="Rectangle 736" width="45.67" height="3.519" transform="translate(641.876 511.149) rotate(-28.158)" fill="#059762"/>
      <ellipse id="Ellipse_251" data-name="Ellipse 251" cx="87.101" cy="177.72" rx="87.101" ry="177.72" transform="translate(660.138 176.817)" fill="#3a5"/>
      <path id="Path_1851" data-name="Path 1851" d="M947.525,762.792c34.838-209.026.351-417.291,0-419.369l-3.469.588c.351,2.074,34.737,209.778,0,418.2Z" transform="translate(-209.988 -117.631)" fill="#ddd"/>
      <rect id="Rectangle_737" data-name="Rectangle 737" width="3.519" height="89.324" transform="translate(668.097 320.91) rotate(-61.858)" fill="#ddd"/>
      <rect id="Rectangle_738" data-name="Rectangle 738" width="89.324" height="3.519" transform="translate(751.235 381.054) rotate(-28.158)" fill="#ddd"/>
      <path id="Path_1852" data-name="Path 1852" d="M696.2,773.543H232.906a6.435,6.435,0,0,1-6.427-6.427V474.369a6.434,6.434,0,0,1,6.427-6.427H696.2a6.435,6.435,0,0,1,6.427,6.427V767.117A6.435,6.435,0,0,1,696.2,773.543Z" transform="translate(-151.252 -127.823)" fill="#e4e4e4"/>
      <path id="Path_1853" data-name="Path 1853" d="M279.638,506.579a2.757,2.757,0,0,0-2.754,2.754V738.477a2.757,2.757,0,0,0,2.754,2.755H657.72a2.757,2.757,0,0,0,2.754-2.754V509.333a2.757,2.757,0,0,0-2.754-2.754Z" transform="translate(-155.378 -130.986)" fill="#fff"/>
      <path id="Path_1854" data-name="Path 1854" d="M660.92,565.516V551H607.453V505.579H592.932V551H497.743V505.579h-14.52V551H336.406V505.579H321.886V551H271.117v14.52h50.768v56.468H271.117V636.5h50.768v60.5H271.117v14.52H400.134v30.541h14.52V711.526h68.568v30.541h14.52V711.526H660.92V697.005H497.743V636.5H660.92v-14.52H607.453V565.516Zm-177.7,0v17.747H336.406V565.516ZM336.406,597.783H483.224v24.2H336.406Zm0,99.222V636.5h63.728v60.5Zm146.817,0H414.655V636.5h68.568Zm109.709-75.022h-95.19V565.516h95.189Z" transform="translate(-154.906 -130.904)" fill="#e6e6e6"/>
      <circle id="Ellipse_252" data-name="Ellipse 252" cx="18.554" cy="18.554" r="18.554" transform="translate(317.024 481.623)" fill="#059762"/>
      <path id="Path_1855" data-name="Path 1855" d="M835.985,704.817H0v-2H836.348Z" transform="translate(0 -57.527)" fill="#cacaca"/>
      <circle id="Ellipse_253" data-name="Ellipse 253" cx="114.452" cy="114.452" r="114.452" transform="translate(223.349 161.054)" fill="#059762"/>
      <path id="Path_1856" data-name="Path 1856" d="M362.688,491.617,326.529,429.85l-36.158-61.767,71.571-.431,71.571-.431-35.413,62.2Z" transform="translate(-23.768 -30.058)" fill="#059762"/>
      <circle id="Ellipse_254" data-name="Ellipse 254" cx="41.064" cy="41.064" r="41.064" transform="translate(297.657 233.722)" fill="#fff"/>
      <path id="Path_1857" data-name="Path 1857" d="M506.386,98.09s-24.49-6.9-31.734,26.56-2.643,29.243-2.643,29.243l54.672-6.381S543.121,108.265,506.386,98.09Z" transform="translate(-171.232 -97.502)" fill="#2f2e41"/>
      <path id="Path_1858" data-name="Path 1858" d="M468,258.012s-36.948,1.71-30.549,16.213q.678,1.538,1.263,2.882a259.4,259.4,0,0,0,15.759,30.5l22.708,37.625,8.263-4.591L462.188,280.2l20.9-1.706Z" transform="translate(-168.46 -110.64)" fill="#ffb6b6"/>
      <path id="Path_1859" data-name="Path 1859" d="M574.533,274.59l11.944,26.02s8.958,8.958,18.769,44.789,11.944,34.551,11.944,34.551l-9.7,3.23-39.784-72.332-19.622-24.74,5.972-13.223Z" transform="translate(-177.577 -111.857)" fill="#ffb6b6"/>
      <path id="Path_1860" data-name="Path 1860" d="M550.835,241.384,568,273.328s38.911,76.46,34.89,76.206c-4.521-.285-17.219,4.984-21.117,10.1-1.882,2.469-29.381-57.843-39.039-71.328l-20.9-16.21s-59.345,9.988-59.418,6.74c-.036-1.591,19.648,36.581,15.609,34.89-4.6-1.927-15.427,7.45-20.2,5.509-1.969-.8-15.882-34.533-21.514-48.355a7.481,7.481,0,0,1,3.461-9.467c4.233-2.2,63.042-15.63,63.042-15.63l-1.029-5.252L506.046,232Z" transform="translate(-168.382 -108.511)" fill="#2b4255"/>
      <circle id="Ellipse_255" data-name="Ellipse 255" cx="16.636" cy="16.636" r="16.636" transform="translate(311.754 49.798) rotate(-80.783)" fill="#ffb6b6"/>
      <path id="Path_1861" data-name="Path 1861" d="M555.988,237.634c.919,2.756-5.031,4.339-13.323,2.79-7.175-1.339-15.028-2.93-21.221-4.219-6.633-1.382-11.372-2.414-11.372-2.414s-1.706,10.664-7.252,9.384c-4.777-1.1-19.054-50.969-22.915-64.752a4.794,4.794,0,0,1,2.12-5.387l19.609-11.974s13.513-4.641,18.44-4.773,13.458-1.412,13.458-1.412,9.811.853,11.517,8.1,8.826,50.246,8.958,60.571C554.152,234.88,553.234,229.371,555.988,237.634Z" transform="translate(-171.981 -102.198)" fill="#cacaca"/>
      <path id="Path_1862" data-name="Path 1862" d="M509.286,113.485s-6.9,18.282-23.8,25.87l-2.759-16.212Z" transform="translate(-172.227 -98.81)" fill="#2f2e41"/>
      <ellipse id="Ellipse_256" data-name="Ellipse 256" cx="2.346" cy="4.479" rx="2.346" ry="4.479" transform="translate(344.703 25.167)" fill="#ffb6b6"/>
      <path id="Path_1863" data-name="Path 1863" d="M494.2,356.476l-32.977,15.161-.192-.417a14.128,14.128,0,0,1,6.934-18.737h0l20.141-9.26Z" transform="translate(-170.345 -117.615)" fill="#8fd03d"/>
      <path id="Path_1864" data-name="Path 1864" d="M607.433,389.728l20.228-9.068h0a14.128,14.128,0,0,1,18.669,7.113l.188.419L613.4,403.038Z" transform="translate(-182.435 -120.578)" fill="#8fd03d"/>
      <path id="Path_1865" data-name="Path 1865" d="M402.9,104.51l-3.862,42.474,6.865.324Z" transform="translate(-32.662 -8.554)" opacity="0.2"/>
      <path id="Path_1866" data-name="Path 1866" d="M515.463,280.618a8.388,8.388,0,0,0-1.836-12.73l-14.836-74.944-17.037,6.518,19.941,71.618a8.434,8.434,0,0,0,13.768,9.538Z" transform="translate(-172.147 -105.314)" fill="#ffb6b6"/>
      <path id="Path_1867" data-name="Path 1867" d="M502.277,203.895l-18.707,3.294a3.761,3.761,0,0,1-4.412-3.6l-.516-18.931a10.445,10.445,0,0,1,20.584-3.563L505.194,199a3.761,3.761,0,0,1-2.916,4.892Z" transform="translate(-171.88 -103.635)" fill="#cacaca"/>
      <path id="Path_1868" data-name="Path 1868" d="M532.964,279.118a8.388,8.388,0,0,0,2.343-12.647l9.979-75.745-18.228.711-4.077,74.231a8.434,8.434,0,0,0,9.983,13.45Z" transform="translate(-175.305 -105.133)" fill="#ffb6b6"/>
      <path id="Path_1869" data-name="Path 1869" d="M545.015,201.98,526.238,199.1a3.761,3.761,0,0,1-3.024-4.826l5.581-18.1a10.445,10.445,0,0,1,20.64,3.225l-.09,18.877a3.761,3.761,0,0,1-4.331,3.7Z" transform="translate(-175.527 -103.219)" fill="#cacaca"/>
    </g>
    <g id="Ellipse_257" data-name="Ellipse 257" transform="translate(1640 242)" fill="#fff" stroke="#8fd03d" stroke-width="5">
      <circle cx="35" cy="35" r="35" stroke="none"/>
      <circle cx="35" cy="35" r="32.5" fill="none"/>
    </g>
    <g id="Ellipse_261" data-name="Ellipse 261" transform="translate(746 881)" fill="#fff" stroke="#8fd03d" stroke-width="3">
      <circle cx="35" cy="35" r="35" stroke="none"/>
      <circle cx="35" cy="35" r="33.5" fill="none"/>
    </g>
    <g id="Ellipse_258" data-name="Ellipse 258" transform="translate(1640 362)" fill="#fff" stroke="#059762" stroke-width="5">
      <circle cx="20" cy="20" r="20" stroke="none"/>
      <circle cx="20" cy="20" r="17.5" fill="none"/>
    </g>
    <g id="Ellipse_262" data-name="Ellipse 262" transform="translate(816 931)" fill="#fff" stroke="#059762" stroke-width="3">
      <circle cx="20" cy="20" r="20" stroke="none"/>
      <circle cx="20" cy="20" r="18.5" fill="none"/>
    </g>
    <g id="Ellipse_260" data-name="Ellipse 260" transform="translate(1625 322)" fill="#fff" stroke="#059762" stroke-width="3">
      <circle cx="15" cy="15" r="15" stroke="none"/>
      <circle cx="15" cy="15" r="13.5" fill="none"/>
    </g>
    <g id="Ellipse_264" data-name="Ellipse 264" transform="translate(731 951)" fill="#fff" stroke="#059762" stroke-width="3">
      <circle cx="15" cy="15" r="15" stroke="none"/>
      <circle cx="15" cy="15" r="13.5" fill="none"/>
    </g>
    <g id="Ellipse_263" data-name="Ellipse 263" transform="translate(856 956)" fill="#fff" stroke="#059762" stroke-width="3">
      <circle cx="15" cy="15" r="15" stroke="none"/>
      <circle cx="15" cy="15" r="13.5" fill="none"/>
    </g>
    <g id="Ellipse_259" data-name="Ellipse 259" transform="translate(1559 322)" fill="#fff" stroke="#059762" stroke-width="5">
      <circle cx="20" cy="20" r="20" stroke="none"/>
      <circle cx="20" cy="20" r="17.5" fill="none"/>
    </g>
  </g>
</svg>
