<svg xmlns="http://www.w3.org/2000/svg" width="16.796" height="18.495" viewBox="0 0 16.796 18.495">
  <g id="Group_3" data-name="Group 3" transform="translate(0.75 0.75)">
    <line id="Line_1" data-name="Line 1" x2="15.146" transform="translate(0.079 6.292)" fill="none" stroke="#059762" stroke-linecap="round" stroke-linejoin="round" stroke-width="1.5"/>
    <line id="Line_2" data-name="Line 2" x2="0.008" transform="translate(11.423 9.611)" fill="none" stroke="#059762" stroke-linecap="round" stroke-linejoin="round" stroke-width="1.5"/>
    <line id="Line_3" data-name="Line 3" x2="0.008" transform="translate(7.652 9.611)" fill="none" stroke="#059762" stroke-linecap="round" stroke-linejoin="round" stroke-width="1.5"/>
    <line id="Line_4" data-name="Line 4" x2="0.008" transform="translate(3.873 9.611)" fill="none" stroke="#059762" stroke-linecap="round" stroke-linejoin="round" stroke-width="1.5"/>
    <line id="Line_5" data-name="Line 5" x2="0.008" transform="translate(11.423 12.913)" fill="none" stroke="#059762" stroke-linecap="round" stroke-linejoin="round" stroke-width="1.5"/>
    <line id="Line_6" data-name="Line 6" x2="0.008" transform="translate(7.652 12.913)" fill="none" stroke="#059762" stroke-linecap="round" stroke-linejoin="round" stroke-width="1.5"/>
    <line id="Line_7" data-name="Line 7" x2="0.008" transform="translate(3.873 12.913)" fill="none" stroke="#059762" stroke-linecap="round" stroke-linejoin="round" stroke-width="1.5"/>
    <line id="Line_8" data-name="Line 8" y2="2.797" transform="translate(11.084)" fill="none" stroke="#059762" stroke-linecap="round" stroke-linejoin="round" stroke-width="1.5"/>
    <line id="Line_9" data-name="Line 9" y2="2.797" transform="translate(4.22)" fill="none" stroke="#059762" stroke-linecap="round" stroke-linejoin="round" stroke-width="1.5"/>
    <path id="Path_7" data-name="Path 7" d="M11.249,1.579h-7.2C1.559,1.579,0,2.969,0,5.525v7.69a3.691,3.691,0,0,0,4.054,4.018h7.187c2.5,0,4.054-1.4,4.054-3.954V5.525C15.3,2.969,13.753,1.579,11.249,1.579Z" transform="translate(0 -0.237)" fill="none" stroke="#059762" stroke-linecap="round" stroke-linejoin="round" stroke-width="1.5" fill-rule="evenodd"/>
  </g>
</svg>
