<svg id="Group_336" data-name="Group 336" xmlns="http://www.w3.org/2000/svg" width="1137" height="518.057" viewBox="0 0 1137 518.057">
  <path id="Path_239" data-name="Path 239" d="M175.764,701.583l-1.951-.439c21.756-96.751,76.43-184.609,153.951-247.392a444.114,444.114,0,0,1,712.155,246.211l-1.949.443C991.916,498.2,814.7,356.972,607,356.972,402.026,356.972,220.666,501.9,175.764,701.583Z" transform="translate(-31.5 -190.972)" fill="#3f3d56"/>
  <circle id="Ellipse_40" data-name="Ellipse 40" cx="54.315" cy="54.315" r="54.315" transform="translate(845.318 165.588)" fill="#059762"/>
  <rect id="Rectangle_184" data-name="Rectangle 184" width="2" height="79" transform="translate(877 437.057)" fill="#3f3d56"/>
  <path id="Path_240" data-name="Path 240" d="M928.958,638.1c.127,27.624-19.308,50.108-19.308,50.108s-19.642-22.3-19.769-49.928,19.308-50.108,19.308-50.108S928.83,610.472,928.958,638.1Z" transform="translate(-31.5 -190.972)" fill="#8fd03d"/>
  <path id="Path_241" data-name="Path 241" d="M928.958,638.1c.127,27.624-19.308,50.108-19.308,50.108s-19.642-22.3-19.769-49.928,19.308-50.108,19.308-50.108S928.83,610.472,928.958,638.1Z" transform="translate(-31.5 -190.972)" fill="#8fd03d" opacity="0.1"/>
  <circle id="Ellipse_41" data-name="Ellipse 41" cx="31.248" cy="31.248" r="31.248" transform="translate(469.774 217.494)" fill="#8fd03d" opacity="0.4"/>
  <circle id="Ellipse_42" data-name="Ellipse 42" cx="21.92" cy="21.92" r="21.92" transform="translate(421.27 241.746)" fill="#8fd03d" opacity="0.4"/>
  <circle id="Ellipse_43" data-name="Ellipse 43" cx="21.92" cy="21.92" r="21.92" transform="translate(186.27 304.746)" fill="#8fd03d" opacity="0.4"/>
  <circle id="Ellipse_44" data-name="Ellipse 44" cx="31.248" cy="31.248" r="31.248" transform="translate(825.064 214.923)" fill="#8fd03d" opacity="0.4"/>
  <path id="Path_242" data-name="Path 242" d="M88.131,698.244c1.694,6.262,7.5,10.14,7.5,10.14s3.056-6.274,1.362-12.536-7.5-10.14-7.5-10.14S86.437,691.982,88.131,698.244Z" transform="translate(-31.5 -190.972)" fill="#3f3d56"/>
  <path id="Path_243" data-name="Path 243" d="M90.62,696.9c4.648,4.525,5.216,11.481,5.216,11.481s-6.968-.38-11.617-4.905S79,691.993,79,691.993,85.971,692.374,90.62,696.9Z" transform="translate(-31.5 -190.972)" fill="#009ca9"/>
  <path id="Path_244" data-name="Path 244" d="M700.131,698.244c1.694,6.262,7.5,10.14,7.5,10.14s3.056-6.274,1.362-12.536-7.5-10.14-7.5-10.14S698.437,691.982,700.131,698.244Z" transform="translate(-31.5 -190.972)" fill="#3f3d56"/>
  <path id="Path_245" data-name="Path 245" d="M702.62,696.9c4.648,4.525,5.216,11.481,5.216,11.481s-6.969-.38-11.617-4.905S691,691.993,691,691.993,697.971,692.374,702.62,696.9Z" transform="translate(-31.5 -190.972)" fill="#8fd03d"/>
  <path id="Path_246" data-name="Path 246" d="M68.137,460.2,64,453.308l38.614-33.1h99.294v9.653l-35.856,38.615-41.373,8.274Z" fill="#3f3d56"/>
  <path id="Path_247" data-name="Path 247" d="M219,439.633V418.056H206v6.8l-4.092-4.65-33.1,33.1-5.517,5.516-6.9,27.582,12.412,30.339h63.437V454.687Z" fill="#ccc"/>
  <rect id="Rectangle_185" data-name="Rectangle 185" width="104.81" height="63.438" transform="translate(64 453.308)" fill="#f2f2f2"/>
  <rect id="Rectangle_186" data-name="Rectangle 186" width="22.065" height="19.307" transform="translate(132.264 473.304)" fill="#3f3d56"/>
  <rect id="Rectangle_187" data-name="Rectangle 187" width="19.307" height="44.13" transform="translate(103.993 472.615)" fill="#ccc"/>
  <path id="Path_248" data-name="Path 248" d="M81.928,479.51v-6.9H73.654v6.9h8.274Z" fill="#3f3d56"/>
  <path id="Path_249" data-name="Path 249" d="M81.238,485.026H73.654v6.9h8.274v-6.9Z" fill="#3f3d56"/>
  <rect id="Rectangle_188" data-name="Rectangle 188" width="8.274" height="6.895" transform="translate(87.444 472.615)" fill="#3f3d56"/>
  <rect id="Rectangle_189" data-name="Rectangle 189" width="8.274" height="6.895" transform="translate(87.444 485.026)" fill="#3f3d56"/>
  <path id="Path_250" data-name="Path 250" d="M198.46,480.2v-6.9h-8.275v6.9h8.275Z" fill="#3f3d56"/>
  <path id="Path_251" data-name="Path 251" d="M197.77,485.716h-7.585v6.895h8.275v-6.895Z" fill="#3f3d56"/>
  <rect id="Rectangle_190" data-name="Rectangle 190" width="8.274" height="6.895" transform="translate(203.976 473.304)" fill="#3f3d56"/>
  <rect id="Rectangle_191" data-name="Rectangle 191" width="8.274" height="6.895" transform="translate(203.976 485.716)" fill="#3f3d56"/>
  <path id="Path_252" data-name="Path 252" d="M467.137,460.2,463,453.308l38.614-33.1h99.294v9.653l-35.856,38.615-41.373,8.274Z" fill="#2b4255"/>
  <path id="Path_253" data-name="Path 253" d="M618,439.633V418.056H605v6.8l-4.092-4.65-33.1,33.1-5.517,5.516-6.9,27.582,12.412,30.339h63.437V454.687Z" fill="#ccc"/>
  <rect id="Rectangle_192" data-name="Rectangle 192" width="104.81" height="63.438" transform="translate(463 453.308)" fill="#f2f2f2"/>
  <rect id="Rectangle_193" data-name="Rectangle 193" width="22.065" height="19.307" transform="translate(531.264 473.304)" fill="#576d7e"/>
  <rect id="Rectangle_194" data-name="Rectangle 194" width="19.307" height="44.13" transform="translate(502.993 472.615)" fill="#ccc"/>
  <path id="Path_254" data-name="Path 254" d="M480.928,479.51v-6.9h-8.274v6.9h8.274Z" fill="#576d7e"/>
  <path id="Path_255" data-name="Path 255" d="M480.238,485.026h-7.584v6.9h8.274v-6.9Z" fill="#576d7e"/>
  <rect id="Rectangle_195" data-name="Rectangle 195" width="8.274" height="6.895" transform="translate(486.444 472.615)" fill="#576d7e"/>
  <rect id="Rectangle_196" data-name="Rectangle 196" width="8.274" height="6.895" transform="translate(486.444 485.026)" fill="#576d7e"/>
  <path id="Path_256" data-name="Path 256" d="M597.46,480.2v-6.9h-8.275v6.9h8.275Z" fill="#576d7e"/>
  <path id="Path_257" data-name="Path 257" d="M596.77,485.716h-7.585v6.895h8.275v-6.895Z" fill="#576d7e"/>
  <rect id="Rectangle_197" data-name="Rectangle 197" width="8.274" height="6.895" transform="translate(602.976 473.304)" fill="#576d7e"/>
  <rect id="Rectangle_198" data-name="Rectangle 198" width="8.274" height="6.895" transform="translate(602.976 485.716)" fill="#576d7e"/>
  <path id="Path_258" data-name="Path 258" d="M280.515,344.361l-6.9-5.517,38.614-34.477h97.914v30.34l-63.437,42.752Z" fill="#2b4255"/>
  <path id="Path_259" data-name="Path 259" d="M428,323.707V305.056H415v4.568l-4.852-5.257-31.719,34.477-12.411,8.275-19.245,140.6L375.8,516.745h67.45V340.223Z" fill="#ccc"/>
  <rect id="Rectangle_199" data-name="Rectangle 199" width="104.81" height="177.901" transform="translate(273.62 338.844)" fill="#f2f2f2"/>
  <rect id="Rectangle_200" data-name="Rectangle 200" width="19.307" height="43.441" transform="translate(314.302 473.304)" fill="#ccc"/>
  <path id="Path_260" data-name="Path 260" d="M293.616,485.716v-6.895h-8.274v6.895h8.274Z" fill="#576d7e"/>
  <path id="Path_261" data-name="Path 261" d="M292.927,491.232h-7.585v6.9h8.274v-6.9Z" fill="#576d7e"/>
  <rect id="Rectangle_201" data-name="Rectangle 201" width="8.274" height="6.895" transform="translate(299.132 478.821)" fill="#576d7e"/>
  <rect id="Rectangle_202" data-name="Rectangle 202" width="8.274" height="6.895" transform="translate(299.132 491.232)" fill="#576d7e"/>
  <path id="Path_262" data-name="Path 262" d="M350.158,485.716v-6.895h-8.274v6.895h8.274Z" fill="#576d7e"/>
  <path id="Path_263" data-name="Path 263" d="M349.469,491.232h-7.585v6.9h8.274v-6.9Z" fill="#576d7e"/>
  <rect id="Rectangle_203" data-name="Rectangle 203" width="8.274" height="6.895" transform="translate(355.675 478.821)" fill="#576d7e"/>
  <rect id="Rectangle_204" data-name="Rectangle 204" width="8.274" height="6.895" transform="translate(355.675 491.232)" fill="#576d7e"/>
  <path id="Path_264" data-name="Path 264" d="M408.079,347.808v-6.9H399.8v6.9h8.274Z" fill="#576d7e"/>
  <path id="Path_265" data-name="Path 265" d="M407.39,353.325H399.8v6.895h8.274v-6.895Z" fill="#576d7e"/>
  <rect id="Rectangle_205" data-name="Rectangle 205" width="8.274" height="6.895" transform="translate(413.596 340.913)" fill="#576d7e"/>
  <rect id="Rectangle_206" data-name="Rectangle 206" width="8.274" height="6.895" transform="translate(413.596 353.325)" fill="#576d7e"/>
  <path id="Path_266" data-name="Path 266" d="M408.079,386.423v-6.9H399.8v6.9h8.274Z" fill="#576d7e"/>
  <path id="Path_267" data-name="Path 267" d="M407.39,391.939H399.8v6.9h8.274v-6.9Z" fill="#576d7e"/>
  <rect id="Rectangle_207" data-name="Rectangle 207" width="8.274" height="6.895" transform="translate(413.596 379.527)" fill="#576d7e"/>
  <rect id="Rectangle_208" data-name="Rectangle 208" width="8.274" height="6.895" transform="translate(413.596 391.939)" fill="#576d7e"/>
  <path id="Path_268" data-name="Path 268" d="M408.079,425.037v-6.9H399.8v6.9h8.274Z" fill="#576d7e"/>
  <path id="Path_269" data-name="Path 269" d="M407.39,430.553H399.8v6.895h8.274v-6.895Z" fill="#576d7e"/>
  <rect id="Rectangle_209" data-name="Rectangle 209" width="8.274" height="6.895" transform="translate(413.596 418.141)" fill="#576d7e"/>
  <rect id="Rectangle_210" data-name="Rectangle 210" width="8.274" height="6.895" transform="translate(413.596 430.553)" fill="#576d7e"/>
  <path id="Path_270" data-name="Path 270" d="M408.079,463.651v-6.9H399.8v6.9h8.274Z" fill="#576d7e"/>
  <path id="Path_271" data-name="Path 271" d="M407.39,469.167H399.8v6.9h8.274v-6.9Z" fill="#576d7e"/>
  <rect id="Rectangle_211" data-name="Rectangle 211" width="8.274" height="6.895" transform="translate(413.596 456.755)" fill="#576d7e"/>
  <rect id="Rectangle_212" data-name="Rectangle 212" width="8.274" height="6.895" transform="translate(413.596 469.167)" fill="#576d7e"/>
  <rect id="Rectangle_213" data-name="Rectangle 213" width="79.986" height="16.549" transform="translate(285.342 347.808)" fill="#576d7e"/>
  <rect id="Rectangle_214" data-name="Rectangle 214" width="79.986" height="16.549" transform="translate(285.342 380.906)" fill="#576d7e"/>
  <rect id="Rectangle_215" data-name="Rectangle 215" width="79.986" height="16.549" transform="translate(285.342 414.004)" fill="#576d7e"/>
  <rect id="Rectangle_216" data-name="Rectangle 216" width="79.986" height="16.549" transform="translate(285.342 447.102)" fill="#576d7e"/>
  <path id="Path_272" data-name="Path 272" d="M683.515,344.361l-6.9-5.517,38.614-34.477h97.914v30.34l-63.437,42.752Z" fill="#2b4255"/>
  <path id="Path_273" data-name="Path 273" d="M831,323.707V305.056H818v4.568l-4.852-5.257-31.719,34.477-12.411,8.275-19.245,140.6L778.8,516.745h67.45V340.223Z" fill="#ccc"/>
  <rect id="Rectangle_217" data-name="Rectangle 217" width="104.81" height="177.901" transform="translate(676.62 338.844)" fill="#f2f2f2"/>
  <rect id="Rectangle_218" data-name="Rectangle 218" width="19.307" height="43.441" transform="translate(717.302 473.304)" fill="#ccc"/>
  <path id="Path_274" data-name="Path 274" d="M696.616,485.716v-6.895h-8.274v6.895h8.274Z" fill="#576d7e"/>
  <path id="Path_275" data-name="Path 275" d="M695.927,491.232h-7.585v6.9h8.274v-6.9Z" fill="#576d7e"/>
  <rect id="Rectangle_219" data-name="Rectangle 219" width="8.274" height="6.895" transform="translate(702.132 478.821)" fill="#576d7e"/>
  <rect id="Rectangle_220" data-name="Rectangle 220" width="8.274" height="6.895" transform="translate(702.132 491.232)" fill="#576d7e"/>
  <path id="Path_276" data-name="Path 276" d="M753.158,485.716v-6.895h-8.274v6.895h8.274Z" fill="#576d7e"/>
  <path id="Path_277" data-name="Path 277" d="M752.469,491.232h-7.585v6.9h8.274v-6.9Z" fill="#576d7e"/>
  <rect id="Rectangle_221" data-name="Rectangle 221" width="8.274" height="6.895" transform="translate(758.675 478.821)" fill="#576d7e"/>
  <rect id="Rectangle_222" data-name="Rectangle 222" width="8.274" height="6.895" transform="translate(758.675 491.232)" fill="#576d7e"/>
  <path id="Path_278" data-name="Path 278" d="M811.079,347.808v-6.9H802.8v6.9h8.274Z" fill="#576d7e"/>
  <path id="Path_279" data-name="Path 279" d="M810.39,353.325H802.8v6.895h8.274v-6.895Z" fill="#576d7e"/>
  <rect id="Rectangle_223" data-name="Rectangle 223" width="8.274" height="6.895" transform="translate(816.596 340.913)" fill="#576d7e"/>
  <rect id="Rectangle_224" data-name="Rectangle 224" width="8.274" height="6.895" transform="translate(816.596 353.325)" fill="#576d7e"/>
  <path id="Path_280" data-name="Path 280" d="M811.079,386.423v-6.9H802.8v6.9h8.274Z" fill="#576d7e"/>
  <path id="Path_281" data-name="Path 281" d="M810.39,391.939H802.8v6.9h8.274v-6.9Z" fill="#576d7e"/>
  <rect id="Rectangle_225" data-name="Rectangle 225" width="8.274" height="6.895" transform="translate(816.596 379.527)" fill="#576d7e"/>
  <rect id="Rectangle_226" data-name="Rectangle 226" width="8.274" height="6.895" transform="translate(816.596 391.939)" fill="#576d7e"/>
  <path id="Path_282" data-name="Path 282" d="M811.079,425.037v-6.9H802.8v6.9h8.274Z" fill="#576d7e"/>
  <path id="Path_283" data-name="Path 283" d="M810.39,430.553H802.8v6.895h8.274v-6.895Z" fill="#576d7e"/>
  <rect id="Rectangle_227" data-name="Rectangle 227" width="8.274" height="6.895" transform="translate(816.596 418.141)" fill="#576d7e"/>
  <rect id="Rectangle_228" data-name="Rectangle 228" width="8.274" height="6.895" transform="translate(816.596 430.553)" fill="#576d7e"/>
  <path id="Path_284" data-name="Path 284" d="M811.079,463.651v-6.9H802.8v6.9h8.274Z" fill="#576d7e"/>
  <path id="Path_285" data-name="Path 285" d="M810.39,469.167H802.8v6.9h8.274v-6.9Z" fill="#576d7e"/>
  <rect id="Rectangle_229" data-name="Rectangle 229" width="8.274" height="6.895" transform="translate(816.596 456.755)" fill="#576d7e"/>
  <rect id="Rectangle_230" data-name="Rectangle 230" width="8.274" height="6.895" transform="translate(816.596 469.167)" fill="#576d7e"/>
  <rect id="Rectangle_231" data-name="Rectangle 231" width="79.986" height="16.549" transform="translate(688.342 347.808)" fill="#576d7e"/>
  <rect id="Rectangle_232" data-name="Rectangle 232" width="79.986" height="16.549" transform="translate(688.342 380.906)" fill="#576d7e"/>
  <rect id="Rectangle_233" data-name="Rectangle 233" width="79.986" height="16.549" transform="translate(688.342 414.004)" fill="#576d7e"/>
  <rect id="Rectangle_234" data-name="Rectangle 234" width="79.986" height="16.549" transform="translate(688.342 447.102)" fill="#576d7e"/>
  <path id="Path_286" data-name="Path 286" d="M904.515,344.361l-6.9-5.517,38.614-34.477h97.914v30.34l-63.437,42.752Z" fill="#2b4255"/>
  <path id="Path_287" data-name="Path 287" d="M1052,323.707V305.056h-13v4.568l-4.852-5.257-31.719,34.477-12.411,8.275-19.245,140.6L999.8,516.745h67.45V340.223Z" fill="#ccc"/>
  <rect id="Rectangle_235" data-name="Rectangle 235" width="104.81" height="177.901" transform="translate(897.62 338.844)" fill="#f2f2f2"/>
  <rect id="Rectangle_236" data-name="Rectangle 236" width="19.307" height="43.441" transform="translate(938.302 473.304)" fill="#ccc"/>
  <path id="Path_288" data-name="Path 288" d="M917.616,485.716v-6.895h-8.274v6.895h8.274Z" fill="#576d7e"/>
  <path id="Path_289" data-name="Path 289" d="M916.927,491.232h-7.585v6.9h8.274v-6.9Z" fill="#576d7e"/>
  <rect id="Rectangle_237" data-name="Rectangle 237" width="8.274" height="6.895" transform="translate(923.132 478.821)" fill="#576d7e"/>
  <rect id="Rectangle_238" data-name="Rectangle 238" width="8.274" height="6.895" transform="translate(923.132 491.232)" fill="#576d7e"/>
  <path id="Path_290" data-name="Path 290" d="M974.158,485.716v-6.895h-8.274v6.895h8.274Z" fill="#576d7e"/>
  <path id="Path_291" data-name="Path 291" d="M973.469,491.232h-7.585v6.9h8.274v-6.9Z" fill="#576d7e"/>
  <rect id="Rectangle_239" data-name="Rectangle 239" width="8.274" height="6.895" transform="translate(979.675 478.821)" fill="#576d7e"/>
  <rect id="Rectangle_240" data-name="Rectangle 240" width="8.274" height="6.895" transform="translate(979.675 491.232)" fill="#576d7e"/>
  <path id="Path_292" data-name="Path 292" d="M1032.079,347.808v-6.9H1023.8v6.9h8.274Z" fill="#576d7e"/>
  <path id="Path_293" data-name="Path 293" d="M1031.39,353.325H1023.8v6.895h8.274v-6.895Z" fill="#576d7e"/>
  <rect id="Rectangle_241" data-name="Rectangle 241" width="8.274" height="6.895" transform="translate(1037.596 340.913)" fill="#576d7e"/>
  <rect id="Rectangle_242" data-name="Rectangle 242" width="8.274" height="6.895" transform="translate(1037.596 353.325)" fill="#576d7e"/>
  <path id="Path_294" data-name="Path 294" d="M1032.079,386.423v-6.9H1023.8v6.9h8.274Z" fill="#576d7e"/>
  <path id="Path_295" data-name="Path 295" d="M1031.39,391.939H1023.8v6.9h8.274v-6.9Z" fill="#576d7e"/>
  <rect id="Rectangle_243" data-name="Rectangle 243" width="8.274" height="6.895" transform="translate(1037.596 379.527)" fill="#576d7e"/>
  <rect id="Rectangle_244" data-name="Rectangle 244" width="8.274" height="6.895" transform="translate(1037.596 391.939)" fill="#576d7e"/>
  <path id="Path_296" data-name="Path 296" d="M1032.079,425.037v-6.9H1023.8v6.9h8.274Z" fill="#576d7e"/>
  <path id="Path_297" data-name="Path 297" d="M1031.39,430.553H1023.8v6.895h8.274v-6.895Z" fill="#576d7e"/>
  <rect id="Rectangle_245" data-name="Rectangle 245" width="8.274" height="6.895" transform="translate(1037.596 418.141)" fill="#576d7e"/>
  <rect id="Rectangle_246" data-name="Rectangle 246" width="8.274" height="6.895" transform="translate(1037.596 430.553)" fill="#576d7e"/>
  <path id="Path_298" data-name="Path 298" d="M1032.079,463.651v-6.9H1023.8v6.9h8.274Z" fill="#576d7e"/>
  <path id="Path_299" data-name="Path 299" d="M1031.39,469.167H1023.8v6.9h8.274v-6.9Z" fill="#576d7e"/>
  <rect id="Rectangle_247" data-name="Rectangle 247" width="8.274" height="6.895" transform="translate(1037.596 456.755)" fill="#576d7e"/>
  <rect id="Rectangle_248" data-name="Rectangle 248" width="8.274" height="6.895" transform="translate(1037.596 469.167)" fill="#576d7e"/>
  <rect id="Rectangle_249" data-name="Rectangle 249" width="79.986" height="16.549" transform="translate(909.342 347.808)" fill="#576d7e"/>
  <rect id="Rectangle_250" data-name="Rectangle 250" width="79.986" height="16.549" transform="translate(909.342 380.906)" fill="#576d7e"/>
  <rect id="Rectangle_251" data-name="Rectangle 251" width="79.986" height="16.549" transform="translate(909.342 414.004)" fill="#576d7e"/>
  <rect id="Rectangle_252" data-name="Rectangle 252" width="79.986" height="16.549" transform="translate(909.342 447.102)" fill="#576d7e"/>
  <rect id="Rectangle_253" data-name="Rectangle 253" width="1137" height="2" transform="translate(0 516.057)" fill="#2b4255"/>
  <rect id="Rectangle_254" data-name="Rectangle 254" width="2" height="79" transform="translate(252 437.057)" fill="#3f3d56"/>
  <path id="Path_300" data-name="Path 300" d="M303.958,638.1c.127,27.624-19.308,50.108-19.308,50.108s-19.642-22.3-19.769-49.928,19.308-50.108,19.308-50.108S303.83,610.472,303.958,638.1Z" transform="translate(-31.5 -190.972)" fill="#059762"/>
  <rect id="Rectangle_255" data-name="Rectangle 255" width="2" height="79" transform="translate(452 437.057)" fill="#576d7e"/>
  <path id="Path_301" data-name="Path 301" d="M503.958,638.1c.127,27.624-19.308,50.108-19.308,50.108s-19.642-22.3-19.769-49.928,19.308-50.108,19.308-50.108S503.83,610.472,503.958,638.1Z" transform="translate(-31.5 -190.972)" fill="#059762"/>
  <rect id="Rectangle_256" data-name="Rectangle 256" width="2" height="79" transform="translate(851 437.057)" fill="#3f3d56"/>
  <path id="Path_302" data-name="Path 302" d="M902.958,638.1c.127,27.624-19.308,50.108-19.308,50.108s-19.642-22.3-19.769-49.928,19.308-50.108,19.308-50.108S902.83,610.472,902.958,638.1Z" transform="translate(-31.5 -190.972)" fill="#059762"/>
  <ellipse id="Ellipse_45" data-name="Ellipse 45" cx="38" cy="8.55" rx="38" ry="8.55" transform="translate(549.5 154.95)" fill="#08d4ed"/>
  <path id="Path_303" data-name="Path 303" d="M662,234.972c0,24.3-44,93-44,93s-44-68.7-44-93a44,44,0,0,1,88,0Z" transform="translate(-31.5 -190.972)" fill="#8fd03d"/>
  <circle id="Ellipse_46" data-name="Ellipse 46" cx="25" cy="25" r="25" transform="translate(561.5 19)" fill="#059762"/>
</svg>
