<svg xmlns="http://www.w3.org/2000/svg" width="21.54" height="22.051" viewBox="0 0 21.54 22.051">
  <path id="Path_4106" data-name="Path 4106" d="M26.033,26.106a2.909,2.909,0,0,1-3.889,0L16.07,19.682,10,26.1a2.909,2.909,0,0,1-3.889,0,2.412,2.412,0,0,1,0-3.6l6.32-6.679L6.1,9.144a2.412,2.412,0,0,1,0-3.6,2.909,2.909,0,0,1,3.889,0l6.077,6.427,6.075-6.427a2.909,2.909,0,0,1,3.889,0,2.412,2.412,0,0,1,0,3.6l-6.32,6.683,6.32,6.679a2.412,2.412,0,0,1,0,3.6Z" transform="translate(-5.299 -4.801)" fill="red"/>
</svg>
