<svg xmlns="http://www.w3.org/2000/svg" xmlns:xlink="http://www.w3.org/1999/xlink" width="618.648" height="479.13" viewBox="0 0 618.648 479.13">
  <defs>
    <linearGradient id="linear-gradient" x1="0.5" y1="1" x2="0.5" gradientUnits="objectBoundingBox">
      <stop offset="0" stop-color="gray" stop-opacity="0.251"/>
      <stop offset="0.54" stop-color="gray" stop-opacity="0.122"/>
      <stop offset="1" stop-color="gray" stop-opacity="0.102"/>
    </linearGradient>
  </defs>
  <g id="Group_9876" data-name="Group 9876" transform="translate(-0.003 -0.048)">
    <path id="Path_2107" data-name="Path 2107" d="M455.8,171.226c-39.361-1.522-76.849-15.654-112.652-31.118s-71.254-32.6-109.672-40.758c-24.71-5.27-52.966-6.014-72.878,8.72-19.158,14.206-25.349,38.661-28.682,61.371-2.5,17.095-3.977,35.076,2.889,51.075,4.762,11.108,13.222,20.443,19.072,31.085,20.35,37.017,5.966,82.667-16.092,118.812-10.339,16.953-22.344,33.148-30.33,51.183s-11.677,38.729-4.7,57.143c6.927,18.265,23.427,31.957,41.3,41.6,36.3,19.578,79.063,25.186,120.8,28.358,92.333,7.029,185.165,3.984,277.742.94,34.265-1.13,68.675-2.273,102.38-8.165,18.72-3.274,38.048-8.47,51.634-20.971,17.248-15.918,21.523-42.876,9.968-62.832-19.389-33.479-72.981-41.8-86.549-77.729-7.462-19.774.2-41.807,11.038-60.147,23.257-39.351,62.235-73.866,64.29-118.846,1.411-30.888-17.327-61.824-46.3-76.443-30.372-15.322-72.482-13.394-94.875,11.967C531.095,162.52,490.554,172.566,455.8,171.226Z" transform="translate(-94.399 -95.85)" fill="#fff" opacity="0.1"/>
    <g id="Group_9870" data-name="Group 9870" transform="translate(0.003 216.265)" opacity="0.15">
      <path id="Path_2108" data-name="Path 2108" d="M143.907,421.4s-45.455-21.269-51.433,17.081c0,0-3.108,5.98,1.216,10.919,0,0,.931-2.652,5.322.088a21.369,21.369,0,0,0,4.963,2.246,10.11,10.11,0,0,0,7.067-.419h0s14.955-.9,27.532-22.662c0,0,5.395-3.707,5.662-5.1l-9.013.676s.693,7.34-3.041,11.744c0,0,3.308-11.392,1.721-11.71-.322-.068-4.762.582-4.762.582s1.149,12.765-4.865,19.368c0,0,5.583-12.982,3.156-19.138l-6.653,1.427s1.825,13.428-4.756,21.235c0,0,5.413-13.8,3.321-20.809l-6.368,2.381s1.533,13.131-3.971,19.618c0,0,4.8-16.648,2.542-18.942,0,0-5.729,2.584-6.951,4.059,0,0,.906,9.471-2.591,12.887,0,0,2.147-11.5,1.083-11.974,0,0-6.653,5.574-8.685,10.384,0,0,2.53-7.347,7.852-11.5,0,0-4.47-.839-7.906,1.238,0,0,2.3-4.877,9.518-2.564,0,0,5.346-4.12,6.416-4.059,0,0-6.83-3.382-11.762-2.963,0,0,5.291-3.382,13.429,2.266l6.355-2.55s-8.819-5.026-13.234-5.006c0,0,5.875-2.53,14.882,4.505l6.507-1.475s-7.3-4.972-12.218-6.129c0,0,5.9-1.042,14.1,5.784l4.446-.413s-5.382-3.531-7.012-4.39-1.557-1.414-1.557-1.414a20.417,20.417,0,0,1,10.436,5.588S143.871,422.026,143.907,421.4Z" transform="translate(-91.393 -415.515)" fill="#fff"/>
    </g>
    <g id="Group_9871" data-name="Group 9871" transform="translate(6.679 156.593)" opacity="0.15">
      <path id="Path_2109" data-name="Path 2109" d="M146.542,354.734s-16.123-41.448-39.306-22.439a7.48,7.48,0,0,0-4.865,7.238s1.91-.988,3.12,3.43a21.534,21.534,0,0,0,1.825,4.472,9.48,9.48,0,0,0,4.409,4.228h0s9.348,8.943,27.976,3.984c0,0,5.109,1.211,5.978.561l-5.693-5.324s-3.351,4.8-7.839,5.033c0,0,7.8-4.668,7.024-5.865-.158-.244-3.132-2.665-3.132-2.665s-5.851,8.307-12.772,8.436c0,0,9.968-4.181,11.677-9.369l-4.683-3.382s-5.8,9.126-13.7,9.6c0,0,10.284-4.769,12.632-10.262l-5.005-2.618s-5.814,8.794-12.389,9.126c0,0,11.385-6.846,11.209-9.64,0,0-4.726-2.1-6.228-1.975,0,0-4.3,6.19-8.137,6.014,0,0,7.17-5.473,6.781-6.427,0,0-6.812-.906-10.479.676,0,0,5.267-2.76,10.552-1.854,0,0-2.226-3.335-5.322-4.262,0,0,3.868-1.441,6.97,4.5,0,0,5.279.947,5.9,1.651,0,0-2.317-6.352-5.474-9.214,0,0,4.865,1.353,6.812,9.856l5.084,2.51s-2.664-8.578-5.3-11.358c0,0,4.786,2.219,6.538,12.109l4.622,3.24s-1.788-7.577-4.117-11.385c0,0,4.038,3.125,5.407,12.373l2.858,2.571s-1.393-5.507-1.922-7.049-.2-1.827-.2-1.827a20.74,20.74,0,0,1,3.339,9.931S146.183,355.079,146.542,354.734Z" transform="translate(-102.37 -327.306)" fill="#fff"/>
    </g>
    <path id="Path_2110" data-name="Path 2110" d="M859.923,610.8a27.539,27.539,0,0,0-2.433-7.062,23.8,23.8,0,0,0-3.99-4.85c-4.409-4.458-9.828-8.984-15.673-7.854a19.385,19.385,0,0,0-5.206,2.111c-.851.44-1.709.879-2.585,1.251a11.686,11.686,0,0,1-7.8.758c-1.338-.4-2.585-1.116-3.9-1.563a11.513,11.513,0,0,0-1.922-.46,34.285,34.285,0,0,0,3.71-2.172c6.562-4.512,11.8-12.63,11.063-21.221a37.726,37.726,0,0,0-2.031-8.429q-1.168-3.592-2.341-7.191c-1.01-3.119-2.05-6.291-3.9-8.882a20.494,20.494,0,0,0-7.991-6.3c-6.483-3.132-13.568-4.235-20.562-5.3l-.487-.074V449.511a5.741,5.741,0,0,0-1.414-3.849,4.632,4.632,0,0,0-3.451-1.6h-9.2q-.608-4.14-1.216-8.273c-1.161-7.854-2.36-15.864-5.613-22.94-2.129-4.634-5.522-9.045-10.09-9.958a9.216,9.216,0,0,1-2.627-.676c-1.338-.731-2.068-2.354-3.1-3.558-2.652-3.092-6.964-3.139-10.521-4.735-3.138-1.387-5.7-4-8.563-6.014s-6.416-3.443-9.585-2.131c0,.257-.043.507-.067.764l-2.031-1.015a21.95,21.95,0,0,1-6.185-4.14c-2.262-2.374-3.467-5.507-4.4-8.848-.1-.352-.188-.676-.28-1.049a32.781,32.781,0,0,0,7.566-16.08c.164.589.335,1.184.5,1.779a10.049,10.049,0,0,0,.608,1.752,4.8,4.8,0,0,0,.286.534,3.319,3.319,0,0,0,.742.859,1.958,1.958,0,0,0,.979.426,1.642,1.642,0,0,0,.511,0,2.917,2.917,0,0,0,2.043-1.942,4.408,4.408,0,0,0,.213-.825,4.731,4.731,0,0,0,.042-.514q0-.081,0-.162v-1.055a2.169,2.169,0,0,0-.061-.4c-.024-.129,0-.074,0-.108-.03-.176-.067-.345-.1-.521a.753.753,0,0,1,0-.115l-.091-.426-.055-.257v-.068h0c-.061-.264-.116-.534-.17-.805a25.868,25.868,0,0,1-.334-7.15,85.3,85.3,0,0,1,1.739-10.391l.128-.616.146-.717c.1-.487.189-.974.28-1.461h0c.079-.413.152-.832.219-1.252s.116-.737.164-1.109v-.135a35.72,35.72,0,0,0,.3-7.631h0a17.068,17.068,0,0,0-3.436-9.559c-1.527-1.887-3.534-3.281-4.951-5.263-1.332-1.86-2.08-4.147-3.454-5.967-3.8-5.047-13.55-8.936-19.535-9.613-6.854-.771-17.929,1.177-23.451,5.682-2.043,1.664-3.442,4.059-4.865,6.339-2.615,4.235-5.589,8.456-9.779,10.824-1.587.893-3.4,1.569-4.452,3.125a9.106,9.106,0,0,0-1.216,3.511,76.64,76.64,0,0,0-1.253,13.394,18.254,18.254,0,0,0,.669,5.818c.085.257.189.521.3.771h0c.1.223.207.447.322.676l.073.142a28.97,28.97,0,0,1,1.952,3.687,5.809,5.809,0,0,1,.292,1.123,9.224,9.224,0,0,1-.17,2.97h0a2.081,2.081,0,0,1-.079.433l-.055.311a.612.612,0,0,1-.049.291q-.073.44-.128.873c0,.2-.036.413-.043.622a5.578,5.578,0,0,0,.42,2.435,3.174,3.174,0,0,0,.286.514,2.523,2.523,0,0,0,.821.778,8.443,8.443,0,0,0,2.25.6c2.275.568,3.7,2.5,4.622,4.878q.308.8.541,1.63a31.641,31.641,0,0,1,.851,4.242c1.034-.061,1.636-1.076,2-2.185a11.189,11.189,0,0,0,.286-1.116c.14-.71.28-1.421.426-2.131a30.51,30.51,0,0,0,11.105,13.611c.17.555.334,1.116.487,1.684.8,3.064,1.18,6.278-.2,8.957a8.74,8.74,0,0,1-4.494,3.89,3.086,3.086,0,0,0-1-.954c-1.606-.893-3.527.2-4.865,1.529-2.433,2.449-4.415,5.96-7.62,6.765-1.156.3-2.433.237-3.4,1.022a8.713,8.713,0,0,0-1.575,2.307,7.042,7.042,0,0,1-6.228,3.45c-1.113-.061-2.433-.345-3.193.561-.566.677-.608,1.752-1.216,2.395-.821.893-2.153.453-3.3.4a5.812,5.812,0,0,0-4.409,2.124A12.274,12.274,0,0,0,637.8,403.3c-1.642-1.881-3.923-2.848-5.869-4.323-4.865-3.68-7.3-10.147-9.834-16.073s-5.881-12.177-11.415-14.335c-1.271-.5-3.041-.541-3.613.832a3.316,3.316,0,0,0-.091,1.793c.535,3.152,2.554,5.683,4.3,8.219,2.938,4.275,5.4,9.5,4.689,14.849-.833,6.325-5.9,11.236-6.507,17.589-.268,2.8.371,5.615.365,8.429a26.982,26.982,0,0,0,.091,5.25,38.233,38.233,0,0,0,1.283,3.822,24.723,24.723,0,0,1,.839,6.3q.645,13.449,1.283,26.9c.322,6.69-.991,13.293-2.317,19.875a67.2,67.2,0,0,0-3.807,12.177,46.019,46.019,0,0,0,.608,22.263c1.149,3.876,2.913,7.509,3.856,11.453a1.135,1.135,0,0,0,.055.25c.091.839.195,1.678.334,2.51a26.307,26.307,0,0,0,.675,2.841,21.912,21.912,0,0,0,1.338,4.648,12.728,12.728,0,0,0,3.649,4.735c-.876,1.908-2.293,3.443-3.236,5.31-1.642,3.234-1.709,7.2-1.113,10.871a37.286,37.286,0,0,0,9.123,18.543,4.747,4.747,0,0,0-.608,0,8.943,8.943,0,0,0-4.16,1.657c-9.6,6.244-15.095,19.618-13.088,31.863a14.493,14.493,0,0,0,2.518,6.636,9.363,9.363,0,0,0,4.434,3.024,14,14,0,0,0,3.266.676c7.487.677,14.736-3.186,22.241-3.511a53.9,53.9,0,0,1,7.45.386q5.419.5,10.862.636c5.893.156,9.214-1.59,12.978-6.494a17.878,17.878,0,0,0,2.293-4.018c3.2-.2,6.733-.514,9.293-.751l.036.4c.14,1.353.353,2.909,1.326,3.768a4.484,4.484,0,0,0,1.825.825c6.149,1.685,12.37,3.383,18.7,3.383a71.1,71.1,0,0,0,8.879-.764l11.13-1.427a51.8,51.8,0,0,1,9.554,2.314c3.211,1.218,6.216,3.024,9.354,4.445,7.3,3.294,15.156,4.472,22.934,5.622,1.326.2,2.846.331,3.831-.676,1.265-1.353.839-3.619.487-5.513-.146-.771-.255-1.556-.347-2.341a98.549,98.549,0,0,1,15.363,5.933l.876.426c.249,1.475,1.478,2.659,2.652,4.248a10.628,10.628,0,0,0,1.344,1.847,4.138,4.138,0,0,0,1.928.778,81.135,81.135,0,0,0,24.935,1.252,22.989,22.989,0,0,1,5.139-.2,19.831,19.831,0,0,1,3.71.933l7.043,2.239c5.188,1.657,10.509,3.328,15.892,2.956a19.122,19.122,0,0,0,3.248-.521,15.381,15.381,0,0,0,10.272-8.01C862.818,624.255,861.486,617.132,859.923,610.8ZM653.35,504.99a26.823,26.823,0,0,1-2.031,8.463c-.754,1.7-1.727,3.261-2.433,4.965a29.439,29.439,0,0,0-1.466,7.658c-.365-.068-.736-.129-1.1-.176.541-2.111.949-4.275,1.49-6.393A88.091,88.091,0,0,1,653.35,504.99Z" transform="translate(-292.329 -159.465)" fill="url(#linear-gradient)"/>
    <path id="Path_2111" data-name="Path 2111" d="M699.275,752.413c-1.283-3.247-2.5-6.981-1.216-10.229a8.228,8.228,0,0,1,4.044-4.228,17.873,17.873,0,0,1,5.474-1.5,68.731,68.731,0,0,1,17.8-.271c.432,3.8-.48,7.658-1.265,11.331-.712,3.382-1.119,3.883-4.257,4.059C717.818,751.7,699.755,753.611,699.275,752.413Z" transform="translate(-328.883 -302.844)" fill="#fbbebe"/>
    <ellipse id="Ellipse_284" data-name="Ellipse 284" cx="86.969" cy="27.06" rx="86.969" ry="27.06" transform="translate(337.581 373.546)" fill="#464353"/>
    <ellipse id="Ellipse_285" data-name="Ellipse 285" cx="86.969" cy="27.06" rx="86.969" ry="27.06" transform="translate(337.581 373.546)" opacity="0.1"/>
    <path id="Path_2112" data-name="Path 2112" d="M777.059,450.5a28.342,28.342,0,0,1-13.952,14.1,31.919,31.919,0,0,1-11.044,2.341,28.573,28.573,0,0,1-12.224-1.657c-5.206-2.1-9.53-6.386-12.772-11.385a72.845,72.845,0,0,1-7.414-16.466c-1.022-3-1.995-6.19-1.514-9.356,3.132-.792,6.562-1.955,8.18-5.047,1.381-2.652,1-5.831.2-8.862-.225-.859-.487-1.712-.748-2.53-.608-1.962-2.706-5.689-1.247-7.367.93-1.062,4.829-1.6,6.173-2.293,4.142-2.124,7.961-5.2,12.51-6.2,3.935-.873,8-.054,11.926.852a3.677,3.677,0,0,1,1.472.589,3.99,3.99,0,0,1,1.095,1.827c1.119,3.031,1.776,6.379,2.676,9.539.937,3.308,2.141,6.413,4.4,8.761a22.1,22.1,0,0,0,6.185,4.1l5.388,2.747a7.055,7.055,0,0,1,2.548,1.833,7.689,7.689,0,0,1,1.216,3.68,37.786,37.786,0,0,1-3.053,20.8Z" transform="translate(-336.915 -192.742)" fill="#fbbebe"/>
    <path id="Path_2113" data-name="Path 2113" d="M764.221,408.578c-8.822,10.207-22.726,12.5-33.833,5.588-.225-.859-.487-1.712-.748-2.53-.608-1.962-2.706-5.689-1.247-7.367.931-1.062,4.829-1.6,6.173-2.293,4.142-2.124,7.961-5.2,12.51-6.2,3.935-.873,8-.054,11.926.852a3.677,3.677,0,0,1,1.472.589,3.991,3.991,0,0,1,1.095,1.827C762.664,402.07,763.321,405.419,764.221,408.578Z" transform="translate(-340.784 -192.742)" opacity="0.1"/>
    <ellipse id="Ellipse_286" data-name="Ellipse 286" cx="27.976" cy="31.118" rx="27.976" ry="31.118" transform="translate(375.288 161.805)" fill="#fbbebe"/>
    <path id="Path_2114" data-name="Path 2114" d="M801.928,499l-2.3-15.492c-1.162-7.773-2.36-15.695-5.607-22.7-2.135-4.587-5.522-8.957-10.09-9.863a8.943,8.943,0,0,1-2.627-.676c-1.338-.717-2.068-2.327-3.1-3.518-2.652-3.058-6.97-3.105-10.521-4.661-3.138-1.353-5.7-3.957-8.563-5.946s-6.416-3.382-9.579-2.111c-.511,6.055-1.052,12.244-3.363,17.758A24.666,24.666,0,0,1,730.3,466.352a22.008,22.008,0,0,1-20.162-4.573c-5.419-4.539-8.891-11.541-10.509-18.867-.4-1.786-.845-3.836-2.323-4.654-1.6-.893-3.521.189-4.865,1.5-2.463,2.429-4.422,5.906-7.62,6.724-1.156.3-2.433.237-3.394,1.015a8.544,8.544,0,0,0-1.581,2.28,7.077,7.077,0,0,1-6.222,3.423c-1.113-.061-2.433-.345-3.193.555-.566.677-.608,1.732-1.216,2.361-.821.886-2.153.453-3.3.406-2.165-.1-4.178,1.441-5.419,3.382a23.269,23.269,0,0,0-2.433,6.67c6.647,16.466,12.729,32.952,19.376,49.417a4.587,4.587,0,0,1,.48,2.029,5.224,5.224,0,0,1-.827,2.03c-3.26,5.825-3.156,13.151-2.8,20s.8,14.078-1.952,20.214c-.748,1.684-1.721,3.227-2.433,4.911-1.666,3.815-2.268,16.019-1.3,20.119H806.069c-2.621-8.016-1.624-24.1-1.076-32.614.383-5.953-.608-11.9-1.034-17.853C803.065,522.67,803.734,511.136,801.928,499Z" transform="translate(-313.428 -205.084)" fill="#059762"/>
    <path id="Path_2115" data-name="Path 2115" d="M835.547,650.594c2.025-.859,4.257-.548,6.428-.223,6.988,1.062,14.079,2.151,20.556,5.256a20.334,20.334,0,0,1,7.991,6.23,32.34,32.34,0,0,1,3.9,8.794l2.335,7.1a37.333,37.333,0,0,1,2.037,8.341c.73,8.517-4.507,16.547-11.093,20.971s-14.341,6-21.894,7.651-15.138,3.477-22.661,5.412a83.106,83.106,0,0,1-10.661,2.334c-8.052,1.015-16.469-.48-24.12,2.483-3.041,1.184-6.027,2.943-9.183,3.761a51.837,51.837,0,0,1-6.343,1.136l-14.481,1.84a71.174,71.174,0,0,1-8.879.758c-6.325,0-12.547-1.664-18.689-3.328a4.47,4.47,0,0,1-1.825-.819c-.973-.852-1.186-2.361-1.326-3.727q-.931-9.072-1.63-18.164c-.146-1.969-.255-4.1.712-5.757,1.216-2.029,3.588-2.665,5.753-3.058a135.289,135.289,0,0,1,27.781-2.144c3.533-3.93,9.36-3.951,13.988-6.089a40.48,40.48,0,0,0,4.932-2.983,59.975,59.975,0,0,1,27.07-9.518,22.838,22.838,0,0,0,5.541-.879c3.582-1.238,6.848-4.607,10.527-3.782.456-1.4.772-3.274,1.825-4.235.523-.494,1.168-.825,1.648-1.353,1.016-1.143,1.107-2.943.955-4.539a14.759,14.759,0,0,1-.122-4.79,7.01,7.01,0,0,1,.675-1.671C829.125,652.042,831.88,650.256,835.547,650.594Z" transform="translate(-340.011 -275.121)" fill="#464353"/>
    <path id="Path_2116" data-name="Path 2116" d="M835.547,650.594c2.025-.859,4.257-.548,6.428-.223,6.988,1.062,14.079,2.151,20.556,5.256a20.334,20.334,0,0,1,7.991,6.23,32.34,32.34,0,0,1,3.9,8.794l2.335,7.1a37.333,37.333,0,0,1,2.037,8.341c.73,8.517-4.507,16.547-11.093,20.971s-14.341,6-21.894,7.651-15.138,3.477-22.661,5.412a83.106,83.106,0,0,1-10.661,2.334c-8.052,1.015-16.469-.48-24.12,2.483-3.041,1.184-6.027,2.943-9.183,3.761a51.837,51.837,0,0,1-6.343,1.136l-14.481,1.84a71.174,71.174,0,0,1-8.879.758c-6.325,0-12.547-1.664-18.689-3.328a4.47,4.47,0,0,1-1.825-.819c-.973-.852-1.186-2.361-1.326-3.727q-.931-9.072-1.63-18.164c-.146-1.969-.255-4.1.712-5.757,1.216-2.029,3.588-2.665,5.753-3.058a135.289,135.289,0,0,1,27.781-2.144c3.533-3.93,9.36-3.951,13.988-6.089a40.48,40.48,0,0,0,4.932-2.983,59.975,59.975,0,0,1,27.07-9.518,22.838,22.838,0,0,0,5.541-.879c3.582-1.238,6.848-4.607,10.527-3.782.456-1.4.772-3.274,1.825-4.235.523-.494,1.168-.825,1.648-1.353,1.016-1.143,1.107-2.943.955-4.539a14.759,14.759,0,0,1-.122-4.79,7.01,7.01,0,0,1,.675-1.671C829.125,652.042,831.88,650.256,835.547,650.594Z" transform="translate(-340.011 -275.121)" opacity="0.05"/>
    <path id="Path_2117" data-name="Path 2117" d="M668.3,750.064c-3.765,4.85-7.079,6.582-12.972,6.427q-5.437-.142-10.862-.629a54.83,54.83,0,0,0-7.444-.386c-7.5.325-14.748,4.147-22.235,3.477a14.352,14.352,0,0,1-3.266-.677,9.4,9.4,0,0,1-4.409-2.983,14.29,14.29,0,0,1-2.518-6.569c-2-12.136,3.485-25.355,13.088-31.531a7.262,7.262,0,0,1,8.369-.616l.091.041a31.828,31.828,0,0,1,10.424,7.739,6.04,6.04,0,0,0,1.593,1.427,4.991,4.991,0,0,0,1.879.392l7.991.561a17.15,17.15,0,0,1,4.014.616,30.315,30.315,0,0,1,4.221,2.03c4.3,2.138,9.068,2.706,13.714,3.531a1.941,1.941,0,0,1,1.216.541,2.226,2.226,0,0,1,.377.879A18.721,18.721,0,0,1,668.3,750.064Z" transform="translate(-292.315 -296.314)" fill="#3f3d56"/>
    <path id="Path_2118" data-name="Path 2118" d="M626.12,716.619a52.817,52.817,0,0,0-8,11.121,60.065,60.065,0,0,0-6.532,22.013,45.427,45.427,0,0,0-.067,8.531,9.4,9.4,0,0,1-4.409-2.99,14.291,14.291,0,0,1-2.518-6.569c-2-12.136,3.485-25.355,13.088-31.531a7.262,7.262,0,0,1,8.369-.616Z" transform="translate(-292.315 -296.314)" opacity="0.1"/>
    <path id="Path_2119" data-name="Path 2119" d="M882.711,741.392c4.47-.135,9.488-.386,12.772,2.963,3.132,3.166,3.546,8.388,3.752,13.09l.237,5.459a12.062,12.062,0,0,1-.468,4.925,6.668,6.668,0,0,1-6.69,3.856c-2.682-.156-5.145-1.461-7.6-2.638A99.209,99.209,0,0,0,864.04,761.8q.347-5.662,1.156-11.27c.371-2.591.432-6.927,1.989-9.078,1.648-2.273,3.795-1.042,6.033-.622A43.609,43.609,0,0,0,882.711,741.392Z" transform="translate(-394.132 -304.263)" fill="#fbbebe"/>
    <path id="Path_2120" data-name="Path 2120" d="M668.442,653.773c0,.677-.955,0-1.04-.724a16.161,16.161,0,0,0-9.123-12.177c-4.549-2.192-9.731-2.307-14.657-1.786-7.45.785-15.782,3.957-18.537,11.7-.645,1.813-.937,3.775-1.727,5.513-.876,1.908-2.3,3.43-3.254,5.283-1.636,3.207-1.7,7.137-1.113,10.763,1.587,9.674,7.535,17.947,14.742,23.677s15.63,9.153,24.029,12.238a381.992,381.992,0,0,0,68.116,18.1A59.733,59.733,0,0,1,737,728.911c3.211,1.2,6.216,2.99,9.354,4.4,7.3,3.261,15.15,4.424,22.928,5.567,1.326.189,2.846.325,3.825-.676,1.265-1.306.845-3.579.487-5.453a32.17,32.17,0,0,1,3.1-20.8c1.3-2.435,2.992-4.932,2.749-7.753-.292-3.288-3.235-5.615-6.167-6.143s-5.911.25-8.855.676a4.409,4.409,0,0,1-3.041-.331,6.273,6.273,0,0,1-1.18-1.164,12.332,12.332,0,0,0-15.533-2.415c-1.089.677-2.737-.832-3.868-1.4l-12.778-6.447c-14.694-7.394-29.46-14.822-45.005-19.5a8.96,8.96,0,0,1-3.467-1.6c-.772-.676-1.326-1.6-2.037-2.347-1.551-1.63-3.71-2.28-5.571-3.437S668,656.093,668.442,653.773Z" transform="translate(-297.983 -271.494)" fill="#464353"/>
    <path id="Path_2121" data-name="Path 2121" d="M975.62,773.052a15.343,15.343,0,0,1-10.266,7.922,18.445,18.445,0,0,1-3.248.514c-5.382.372-10.7-1.285-15.886-2.922l-7.043-2.219a20.332,20.332,0,0,0-3.71-.92,22.907,22.907,0,0,0-5.133.2,81.941,81.941,0,0,1-24.935-1.245,4.121,4.121,0,0,1-1.928-.764,10.518,10.518,0,0,1-1.344-1.833c-1.916-2.564-3.977-4.059-1.709-7.441,1.308-1.962,3.734-2.943,4.75-5.2s.365-5.453-.237-7.78c-.821-3.213-3.521-4.6-4.488-7.55a5.566,5.566,0,0,1,2.323-6.021,8.793,8.793,0,0,1,6.2-.994c2.11.311,4.178.974,6.3,1.157,6.24.555,12.62-3.024,18.61-1.008,1.32.446,2.567,1.157,3.9,1.549a11.768,11.768,0,0,0,7.8-.751c.876-.365,1.733-.8,2.585-1.238a19.5,19.5,0,0,1,5.2-2.09c5.844-1.116,11.263,3.382,15.673,7.773a23.863,23.863,0,0,1,3.984,4.8,25.793,25.793,0,0,1,2.433,6.988C977.073,760.253,978.406,767.3,975.62,773.052Z" transform="translate(-407.997 -302.362)" fill="#3f3d56"/>
    <path id="Path_2122" data-name="Path 2122" d="M1007.043,773.039a15.343,15.343,0,0,1-10.266,7.922,24.228,24.228,0,0,0,2.159-11.609c-.365-6.433-2.907-12.495-6.149-17.839a62.3,62.3,0,0,0-6.775-9.18c-1.934-2.165-4.312-3.883-6.392-5.865a19.507,19.507,0,0,1,5.2-2.09c5.845-1.116,11.263,3.382,15.673,7.773a23.871,23.871,0,0,1,3.984,4.8,25.8,25.8,0,0,1,2.433,6.988C1008.5,760.24,1009.828,767.289,1007.043,773.039Z" transform="translate(-439.419 -302.349)" opacity="0.1"/>
    <path id="Path_2123" data-name="Path 2123" d="M708.805,303.6c-2.043,1.644-3.442,4-4.865,6.271-2.621,4.187-5.589,8.368-9.779,10.7-1.587.886-3.4,1.556-4.452,3.1a8.931,8.931,0,0,0-1.186,3.47A76.206,76.206,0,0,0,687.27,340.4a16.229,16.229,0,0,0,.967,6.521c.833,1.894,2.335,3.5,2.646,5.561.237,1.61-.3,3.213-.487,4.83s.14,3.531,1.484,4.3a8.247,8.247,0,0,0,2.25.589c4.044,1,5.4,6.278,6.015,10.641,1.375-.088,1.995-1.84,2.281-3.267l4.215-20.843c.456-2.259,1.216-4.877,3.242-5.669,1.356-.521,2.84-.034,4.257.1,5.565.507,10.272-4.275,15.715-5.595a18.09,18.09,0,0,1,5.3-.386c4.294.237,9.287,2.2,10.2,6.657.152.724.243,1.59.852,1.948s1.216.054,1.885,0c2.725-.3,4.33,3.105,5.115,5.892l2.858,10.147c.426,1.536,1.143,3.342,2.64,3.538,1.381.189,2.554-1.265,2.761-2.706a13.1,13.1,0,0,0-.541-4.384c-1.344-6.663.712-13.482,1.964-20.159s1.478-14.348-2.725-19.49c-1.526-1.86-3.533-3.247-4.957-5.209-1.326-1.84-2.074-4.1-3.448-5.906-3.8-4.986-13.55-8.835-19.529-9.471C725.421,297.218,714.328,299.146,708.805,303.6Z" transform="translate(-324.869 -161.187)" fill="#3f3d56"/>
    <g id="Group_9872" data-name="Group 9872" transform="translate(362.407 166.878)" opacity="0.1">
      <path id="Path_2124" data-name="Path 2124" d="M760.724,377.149c-1.5-.2-2.214-2.029-2.639-3.538q-1.429-5.08-2.858-10.147c-.785-2.794-2.39-6.2-5.115-5.892-.608.074-1.326.352-1.885,0s-.7-1.224-.852-1.948c-.912-4.465-5.905-6.42-10.2-6.657a18.325,18.325,0,0,0-5.3.386c-5.474,1.353-10.15,6.088-15.715,5.595-1.435-.129-2.919-.616-4.257-.095-2.05.785-2.786,3.382-3.242,5.669l-4.215,20.836c-.286,1.434-.906,3.186-2.281,3.267-.608-4.357-1.97-9.633-6.015-10.634a8.764,8.764,0,0,1-2.25-.589,2.852,2.852,0,0,1-1.174-1.454c-.109.629-.237,1.258-.31,1.887-.182,1.61.14,3.531,1.484,4.3a8.245,8.245,0,0,0,2.25.589c4.044,1,5.4,6.278,6.015,10.641,1.375-.088,1.995-1.84,2.281-3.267l4.215-20.843c.456-2.259,1.216-4.878,3.242-5.669,1.356-.521,2.84-.034,4.257.1,5.565.507,10.272-4.275,15.715-5.595a18.091,18.091,0,0,1,5.273-.386c4.294.237,9.287,2.2,10.2,6.657.152.724.243,1.59.852,1.948s1.216.054,1.885,0c2.725-.3,4.33,3.105,5.115,5.892q1.423,5.08,2.858,10.147c.426,1.536,1.143,3.342,2.64,3.538,1.381.189,2.554-1.265,2.761-2.706a10.163,10.163,0,0,0-.365-3.592A2.487,2.487,0,0,1,760.724,377.149Z" transform="translate(-689.276 -344.583)"/>
      <path id="Path_2125" data-name="Path 2125" d="M690.893,367.01c-.31-2.063-1.825-3.667-2.646-5.561a12.157,12.157,0,0,1-.9-4.059c0,.758-.061,1.515-.067,2.28a16.229,16.229,0,0,0,.967,6.521c.675,1.536,1.788,2.889,2.348,4.451a11.289,11.289,0,0,0,.3-3.633Z" transform="translate(-687.28 -347.324)"/>
      <path id="Path_2126" data-name="Path 2126" d="M810.094,347.8c-1.107,5.9-2.834,11.906-2.3,17.819.347-4.363,1.49-8.754,2.3-13.083a38.272,38.272,0,0,0,.705-10.026A45.726,45.726,0,0,1,810.094,347.8Z" transform="translate(-734.462 -342.51)"/>
    </g>
    <path id="Path_2127" data-name="Path 2127" d="M661.961,561.39c-.736,13.435-9.6,24.536-12.972,37.457-.839,3.234-1.344,6.589-2.548,9.667-2.433,6.19-7.438,10.682-12.772,13.848a17.988,17.988,0,0,1-6.289,2.544c-4.983.648-9.806-2.206-12.109-7.164-1.393-3.146-1.587-6.765-2.433-10.147-.943-3.9-2.706-7.5-3.856-11.338a45.83,45.83,0,0,1-.608-22.033,72.174,72.174,0,0,1,6.526-17.968q.639-1.248,1.3-2.476a56.835,56.835,0,0,1,4.215-6.765c3.649-4.891,8.338-8.652,12.979-12.359a2.935,2.935,0,0,1,1.216-.677h.073a2.7,2.7,0,0,1,1.5.392,115.694,115.694,0,0,1,18.458,11.122c2.092,1.549,5.395,3.281,6.489,5.919S662.119,558.522,661.961,561.39Z" transform="translate(-293.546 -237.573)" fill="#fbbebe"/>
    <path id="Path_2128" data-name="Path 2128" d="M649.725,481.046a7.16,7.16,0,0,0-1.35,2.4,124.091,124.091,0,0,0-8.575,38.979,4.258,4.258,0,0,1-.4,1.887,8,8,0,0,1-.894,1.076,4.027,4.027,0,0,0-.768,2.844,3.838,3.838,0,0,0,1.34,2.568c1-2.1,3.406-2.787,5.54-2.97,10.223-.9,20.21,4.39,30.464,3.991-.724-2.78-1.764-5.452-2.354-8.267-2.609-12.495,3.9-26.1-.091-38.134-.8-2.408-2.129-4.776-4.227-5.831a10.366,10.366,0,0,0-2.706-.8c-2.591-.521-7.748-2.747-10.254-1.854-.924.331-1.289,1.3-2.056,1.881C652.261,479.653,650.716,479.944,649.725,481.046Z" transform="translate(-305.454 -219.054)" fill="#059762"/>
    <path id="Path_2129" data-name="Path 2129" d="M644.762,611.666a17.7,17.7,0,0,1-15.2,9.816,10.922,10.922,0,0,1-4.865-.994c-3.886-1.908-6.082-6.63-6.9-11.27s-.56-9.43-1.137-14.118c-.462-3.734-1.448-7.36-1.958-11.088-1.253-9.221,1.216-18.326,2.974-27.506q.639-1.248,1.3-2.476a56.84,56.84,0,0,1,4.215-6.765c3.649-4.891,8.338-8.652,12.978-12.359H631.3a.764.764,0,0,1,.826-.1.923.923,0,0,1,.494.744c.48,4.735,6.483,9.471,7.791,14.071.809,2.828,1.782,5.6,2.433,8.483a74.943,74.943,0,0,1,1.168,7.441q1.3,10.506,2.579,20.971C647.669,595.031,648.594,604.238,644.762,611.666Z" transform="translate(-296.301 -237.816)" opacity="0.1"/>
    <path id="Path_2130" data-name="Path 2130" d="M634.462,482.019l5.869-20.477a38.976,38.976,0,0,0,1.867-9.4c.1-3.22-.657-6.6-2.682-8.9-1.642-1.86-3.917-2.821-5.863-4.275-4.865-3.646-7.3-10.032-9.834-15.911s-5.875-12.028-11.409-14.206c-1.277-.5-3.041-.541-3.613.819a3.18,3.18,0,0,0-.091,1.772c.535,3.125,2.548,5.622,4.3,8.118,2.938,4.228,5.395,9.4,4.689,14.693-.839,6.264-5.9,11.121-6.507,17.42-.268,2.774.371,5.554.365,8.348a25.909,25.909,0,0,0,.091,5.189,37.531,37.531,0,0,0,1.283,3.842,24.786,24.786,0,0,1,.839,6.23l1.283,26.627c.693,14.4-6.331,28.413-4.4,42.619.511,3.727,1.5,7.353,1.958,11.088.608,4.688.322,9.471,1.137,14.118s3.041,9.363,6.9,11.27a10.923,10.923,0,0,0,4.865.994,17.7,17.7,0,0,0,15.2-9.816c3.831-7.441,2.907-16.635,1.861-25.118L640,526.1a74.978,74.978,0,0,0-1.168-7.441c-.645-2.882-1.618-5.655-2.433-8.483C633.787,500.927,631.834,491.206,634.462,482.019Z" transform="translate(-294.053 -196.992)" fill="#fbbebe"/>
    <rect id="Rectangle_805" data-name="Rectangle 805" width="135.623" height="96.061" rx="7.97" transform="translate(365.861 286.617)" fill="#3f3d56"/>
    <rect id="Rectangle_806" data-name="Rectangle 806" width="135.623" height="96.061" rx="7.97" transform="translate(365.861 286.617)" opacity="0.2"/>
    <ellipse id="Ellipse_287" data-name="Ellipse 287" cx="3.649" cy="4.059" rx="3.649" ry="4.059" transform="translate(429.72 330.589)" fill="#fff"/>
    <path id="Path_2131" data-name="Path 2131" d="M439.644,611h7.365c8.4,0,15.2,7.572,15.2,16.912v25.1H424.44v-25.1c0-9.34,6.807-16.912,15.2-16.912Z" transform="translate(-166.305 -197.65)" fill="#3f3d56"/>
    <path id="Path_2132" data-name="Path 2132" d="M439.644,611h7.365c8.4,0,15.2,7.572,15.2,16.912v25.1H424.44v-25.1c0-9.34,6.807-16.912,15.2-16.912Z" transform="translate(-166.305 -197.65)" opacity="0.1"/>
    <ellipse id="Ellipse_288" data-name="Ellipse 288" cx="3.023" cy="3.362" rx="3.023" ry="3.362" transform="translate(272.494 415.873)" fill="#3f3d56"/>
    <ellipse id="Ellipse_289" data-name="Ellipse 289" cx="3.023" cy="3.362" rx="3.023" ry="3.362" transform="translate(272.494 411.672)" fill="#3f3d56"/>
    <ellipse id="Ellipse_290" data-name="Ellipse 290" cx="3.023" cy="3.362" rx="3.023" ry="3.362" transform="translate(272.494 407.471)" fill="#3f3d56"/>
    <ellipse id="Ellipse_291" data-name="Ellipse 291" cx="3.023" cy="3.362" rx="3.023" ry="3.362" transform="translate(272.494 403.27)" fill="#3f3d56"/>
    <ellipse id="Ellipse_292" data-name="Ellipse 292" cx="3.023" cy="3.362" rx="3.023" ry="3.362" transform="translate(272.494 399.069)" fill="#3f3d56"/>
    <ellipse id="Ellipse_293" data-name="Ellipse 293" cx="3.023" cy="3.362" rx="3.023" ry="3.362" transform="translate(272.494 394.868)" fill="#3f3d56"/>
    <ellipse id="Ellipse_294" data-name="Ellipse 294" cx="3.023" cy="3.362" rx="3.023" ry="3.362" transform="translate(272.494 390.667)" fill="#3f3d56"/>
    <ellipse id="Ellipse_295" data-name="Ellipse 295" cx="3.023" cy="3.362" rx="3.023" ry="3.362" transform="translate(277.025 392.345)" fill="#3f3d56"/>
    <ellipse id="Ellipse_296" data-name="Ellipse 296" cx="3.023" cy="3.362" rx="3.023" ry="3.362" transform="translate(280.048 390.667)" fill="#3f3d56"/>
    <ellipse id="Ellipse_297" data-name="Ellipse 297" cx="3.023" cy="3.362" rx="3.023" ry="3.362" transform="translate(283.07 388.983)" fill="#3f3d56"/>
    <ellipse id="Ellipse_298" data-name="Ellipse 298" cx="3.023" cy="3.362" rx="3.023" ry="3.362" transform="translate(272.494 386.46)" fill="#3f3d56"/>
    <ellipse id="Ellipse_299" data-name="Ellipse 299" cx="3.023" cy="3.362" rx="3.023" ry="3.362" transform="translate(272.494 382.259)" fill="#3f3d56"/>
    <ellipse id="Ellipse_300" data-name="Ellipse 300" cx="3.023" cy="3.362" rx="3.023" ry="3.362" transform="translate(272.494 378.058)" fill="#3f3d56"/>
    <ellipse id="Ellipse_301" data-name="Ellipse 301" cx="3.023" cy="3.362" rx="3.023" ry="3.362" transform="translate(272.494 373.857)" fill="#3f3d56"/>
    <path id="Path_2133" data-name="Path 2133" d="M548.668,631.758c-.748.122-1.5.21-2.256.264a18.562,18.562,0,0,0,1.946-2.219,15.006,15.006,0,0,0-1.825-3.944,5.779,5.779,0,0,1-2.433.852c-.748.122-1.5.216-2.256.271q1.52-1.609,2.889-3.382a11.851,11.851,0,0,0-16.133-.928,15.275,15.275,0,0,0-4.165,17.362c2.472,6.155,8.478,9.548,14.4,8.136s10.157-7.242,10.146-13.983a15.518,15.518,0,0,0-.195-2.456Z" transform="translate(-260.629 -265.383)" fill="#3a5"/>
    <path id="Path_2134" data-name="Path 2134" d="M573.855,661.312a5.58,5.58,0,0,1-2.542.947c-.748.122-1.5.21-2.256.264a23.685,23.685,0,0,0,2.238-2.584c-3.776-1.1-7.682,1.185-9.018,5.263a8.8,8.8,0,0,0,3.863,10.481,7.177,7.177,0,0,0,9.744-3.291,9.037,9.037,0,0,0-2.029-11.1Z" transform="translate(-275.715 -278.235)" fill="#059762"/>
    <ellipse id="Ellipse_302" data-name="Ellipse 302" cx="3.023" cy="3.362" rx="3.023" ry="3.362" transform="translate(267.957 392.345)" fill="#3f3d56"/>
    <ellipse id="Ellipse_303" data-name="Ellipse 303" cx="3.023" cy="3.362" rx="3.023" ry="3.362" transform="translate(264.935 390.667)" fill="#3f3d56"/>
    <ellipse id="Ellipse_304" data-name="Ellipse 304" cx="3.023" cy="3.362" rx="3.023" ry="3.362" transform="translate(261.912 388.983)" fill="#3f3d56"/>
    <path id="Path_2135" data-name="Path 2135" d="M505.2,661.312a5.553,5.553,0,0,0,2.542.947c.748.122,1.5.21,2.256.264a23.046,23.046,0,0,1-2.238-2.584c3.776-1.1,7.682,1.184,9.018,5.263a8.8,8.8,0,0,1-3.862,10.481,7.177,7.177,0,0,1-9.745-3.291,9.037,9.037,0,0,1,2.029-11.1Z" transform="translate(-252.318 -278.235)" fill="#059762"/>
    <path id="Path_2136" data-name="Path 2136" d="M439.644,614.73h7.365c8.4,0,15.2,7.572,15.2,16.912v22.236a2.735,2.735,0,0,1-2.579,2.868H427.019a2.735,2.735,0,0,1-2.579-2.868V631.642C424.44,622.3,431.247,614.73,439.644,614.73Z" transform="translate(-166.305 -198.857)" fill="#3f3d56"/>
    <g id="Group_9873" data-name="Group 9873" transform="translate(262.848 354.709)" opacity="0.1">
      <path id="Path_2137" data-name="Path 2137" d="M564.753,638.77a12.087,12.087,0,0,1-.973,1.028,8.887,8.887,0,0,0,1.034-.1C564.8,639.386,564.783,639.074,564.753,638.77Z" transform="translate(-539.331 -626.184)"/>
      <path id="Path_2138" data-name="Path 2138" d="M556.32,631.491c.76-.054,1.508-.142,2.262-.264a6.727,6.727,0,0,0,1.964-.6,15.241,15.241,0,0,0-1.058-1.942,4.341,4.341,0,0,1-1.216.575A18.7,18.7,0,0,1,556.32,631.491Z" transform="translate(-536.408 -622.923)"/>
      <path id="Path_2139" data-name="Path 2139" d="M524.912,635.951a14.578,14.578,0,0,1,6.673-12.542,11.723,11.723,0,0,1,13.093.527l.195-.23a11.951,11.951,0,0,0-18.109,1.322,15.415,15.415,0,0,0,1.189,20.143,15.192,15.192,0,0,1-3.041-9.221Z" transform="translate(-523.58 -620.165)"/>
    </g>
    <g id="Group_9874" data-name="Group 9874" transform="translate(286.093 381.42)" opacity="0.1">
      <path id="Path_2140" data-name="Path 2140" d="M573.72,664.979c.754-.054,1.508-.142,2.256-.264a5.51,5.51,0,0,0,2.542-.947,8.66,8.66,0,0,1,3.041,5.953,8.572,8.572,0,0,0,.043-.886,8.722,8.722,0,0,0-3.041-6.765,5.581,5.581,0,0,1-2.542.947l-.608.081A16.4,16.4,0,0,1,573.72,664.979Z" transform="translate(-566.471 -660.433)"/>
      <path id="Path_2141" data-name="Path 2141" d="M569.354,661.328a5.587,5.587,0,0,1,.754.061c.4-.467.785-.967,1.18-1.454a6.948,6.948,0,0,0-6.544,1.455,8.753,8.753,0,0,0-2.943,6.662,6.411,6.411,0,0,0,.036.839C562.224,664.6,565.473,661.327,569.354,661.328Z" transform="translate(-561.8 -659.65)"/>
    </g>
    <g id="Group_9875" data-name="Group 9875" transform="translate(249.803 381.42)" opacity="0.1">
      <path id="Path_2142" data-name="Path 2142" d="M510.012,664.979c-.754-.054-1.508-.142-2.256-.264a5.479,5.479,0,0,1-2.542-.947,8.66,8.66,0,0,0-3.041,5.953,8.555,8.555,0,0,1-.043-.886,8.723,8.723,0,0,1,3.041-6.765,5.554,5.554,0,0,0,2.542.947l.608.081A15.308,15.308,0,0,0,510.012,664.979Z" transform="translate(-502.13 -660.433)"/>
      <path id="Path_2143" data-name="Path 2143" d="M513.344,661.328a5.678,5.678,0,0,0-.76.061c-.389-.467-.778-.967-1.174-1.455a6.948,6.948,0,0,1,6.544,1.455,8.753,8.753,0,0,1,2.943,6.662,6.4,6.4,0,0,1-.036.839C520.474,664.6,517.224,661.327,513.344,661.328Z" transform="translate(-505.766 -659.65)"/>
    </g>
    <rect id="Rectangle_807" data-name="Rectangle 807" width="137.448" height="59.531" transform="translate(96.16 121.547)" fill="#059762"/>
    <rect id="Rectangle_808" data-name="Rectangle 808" width="225.633" height="59.531" rx="12" transform="translate(96.16 121.547)" fill="none" stroke="#3f3d56" stroke-miterlimit="10" stroke-width="9"/>
    <path id="Path_2144" data-name="Path 2144" d="M434.426,310.075c-.911-5.1-4.622-9.009-9.254-9.738s-9.172,1.877-11.321,6.5c-4.664.547-8.124,5.064-7.869,10.273s4.134,9.282,8.824,9.264h19.109c4.065-.011,7.354-3.684,7.347-8.206C441.278,313.877,438.276,310.323,434.426,310.075Zm-8.448,4.823v6.21h-4.707V314.9h-4.993l7.347-8.179,7.347,8.179Z" transform="translate(-214.649 -161.949)" fill="#fff"/>
  </g>
</svg>
