<svg xmlns="http://www.w3.org/2000/svg" width="16.007" height="18.51" viewBox="0 0 16.007 18.51">
  <g id="layer1" transform="translate(-1.804 -1037.263)">
    <g id="g6963" transform="translate(2.004 1037.363)">
      <path id="path7133" d="M9.8,1A7.779,7.779,0,0,0,4.161,14.155a.652.652,0,0,0,.122.155l4.5,4.485a1.45,1.45,0,0,0,2.038,0l4.488-4.472.015-.013,0-.005a.652.652,0,0,0,.066-.076l.015-.02A7.793,7.793,0,0,0,9.8,1Zm0,1.3a6.491,6.491,0,0,1,4.6,11.082q-.023.023-.043.048L9.909,17.873a.13.13,0,0,1-.2,0L5.32,13.5l0,0a.652.652,0,0,0-.109-.112A6.492,6.492,0,0,1,9.8,2.3Zm.02,2.617a3.908,3.908,0,1,0,3.918,3.908A3.915,3.915,0,0,0,9.823,4.918Zm0,1.3a2.612,2.612,0,1,1-2.6,2.612A2.6,2.6,0,0,1,9.823,6.214Z" transform="translate(-2.004 -1)" fill="#059762" stroke="#059762" stroke-width="0.2"/>
    </g>
  </g>
</svg>
