<svg id="google_play" xmlns="http://www.w3.org/2000/svg" xmlns:xlink="http://www.w3.org/1999/xlink" width="135" height="40" viewBox="0 0 135 40">
  <defs>
    <linearGradient id="linear-gradient" x1="0.915" y1="0.049" x2="-0.384" y2="0.719" gradientUnits="objectBoundingBox">
      <stop offset="0" stop-color="#00a0ff"/>
      <stop offset="0.01" stop-color="#00a1ff"/>
      <stop offset="0.26" stop-color="#00beff"/>
      <stop offset="0.51" stop-color="#00d2ff"/>
      <stop offset="0.76" stop-color="#00dfff"/>
      <stop offset="1" stop-color="#00e3ff"/>
    </linearGradient>
    <linearGradient id="linear-gradient-2" x1="1.077" y1="0.5" x2="-1.306" y2="0.5" gradientUnits="objectBoundingBox">
      <stop offset="0" stop-color="#ffe000"/>
      <stop offset="0.41" stop-color="#ffbd00"/>
      <stop offset="0.78" stop-color="orange"/>
      <stop offset="1" stop-color="#ff9c00"/>
    </linearGradient>
    <linearGradient id="linear-gradient-3" x1="0.862" y1="0.179" x2="-0.502" y2="1.947" gradientUnits="objectBoundingBox">
      <stop offset="0" stop-color="#ff3a44"/>
      <stop offset="1" stop-color="#c31162"/>
    </linearGradient>
    <linearGradient id="linear-gradient-4" x1="-0.188" y1="-0.541" x2="0.421" y2="0.249" gradientUnits="objectBoundingBox">
      <stop offset="0" stop-color="#32a071"/>
      <stop offset="0.07" stop-color="#2da771"/>
      <stop offset="0.48" stop-color="#15cf74"/>
      <stop offset="0.8" stop-color="#06e775"/>
      <stop offset="1" stop-color="#00f076"/>
    </linearGradient>
  </defs>
  <rect id="Rectangle_643" data-name="Rectangle 643" width="135" height="40" rx="5"/>
  <path id="Path_1490" data-name="Path 1490" d="M130,.8A4.2,4.2,0,0,1,134.2,5V35a4.2,4.2,0,0,1-4.2,4.2H5A4.2,4.2,0,0,1,.8,35V5A4.2,4.2,0,0,1,5,.8Zm0-.8H5A5,5,0,0,0,0,5V35a5,5,0,0,0,5,5H130a5,5,0,0,0,5-5V5A5,5,0,0,0,130,0Z" fill="#a6a6a6"/>
  <path id="Path_1491" data-name="Path 1491" d="M47.42,10.24a2.715,2.715,0,0,1-.75,2,2.909,2.909,0,0,1-2.2.89,3.15,3.15,0,0,1-2.21-5.37,3,3,0,0,1,2.21-.9,3.134,3.134,0,0,1,1.23.25,2.474,2.474,0,0,1,.94.67l-.53.53a2.005,2.005,0,0,0-1.64-.71A2.32,2.32,0,0,0,42.14,10a2.36,2.36,0,0,0,4,1.73,1.887,1.887,0,0,0,.5-1.22H44.47V9.79h2.91a2.535,2.535,0,0,1,.04.45ZM52,7.74H49.3v1.9h2.46v.72H49.3v1.9H52V13H48.5V7H52ZM55.28,13h-.77V7.74H52.83V7H57v.74H55.28Zm4.66,0V7h.77v6Zm4.19,0h-.77V7.74H61.68V7H65.8v.74H64.13Zm9.48-.78a3.12,3.12,0,0,1-4.4,0,3.239,3.239,0,0,1,0-4.45,3.1,3.1,0,0,1,4.4,0,3.23,3.23,0,0,1,0,4.45Zm-3.83-.5a2.309,2.309,0,0,0,3.26,0,2.56,2.56,0,0,0,0-3.44,2.309,2.309,0,0,0-3.26,0,2.56,2.56,0,0,0,0,3.44ZM75.58,13V7h.94l2.92,4.67V7h.77v6h-.8L76.36,8.11V13Z" fill="#fff" stroke="#fff" stroke-width="0.2"/>
  <path id="Path_1492" data-name="Path 1492" d="M68.14,21.75A4.25,4.25,0,1,0,72.41,26a4.191,4.191,0,0,0-4.27-4.25Zm0,6.83A2.58,2.58,0,1,1,70.54,26a2.461,2.461,0,0,1-2.4,2.58Zm-9.31-6.83A4.25,4.25,0,1,0,63.09,26a4.191,4.191,0,0,0-4.27-4.25h.01Zm0,6.83A2.579,2.579,0,1,1,61.22,26a2.461,2.461,0,0,1-2.4,2.58ZM47.74,23.06v1.8h4.32a3.77,3.77,0,0,1-1,2.27,4.419,4.419,0,0,1-3.33,1.32,4.8,4.8,0,0,1,0-9.6A4.6,4.6,0,0,1,51,20.14l1.27-1.27A6.291,6.291,0,0,0,47.74,17a6.61,6.61,0,1,0,0,13.21,5.838,5.838,0,0,0,6.17-6.07,5.863,5.863,0,0,0-.1-1.13l-6.07.05Zm45.31,1.4A3.93,3.93,0,0,0,85.41,26a4.159,4.159,0,0,0,4.22,4.25,4.235,4.235,0,0,0,3.54-1.88l-1.45-1a2.43,2.43,0,0,1-2.09,1.18,2.161,2.161,0,0,1-2.06-1.29l5.69-2.35-.21-.45Zm-5.8,1.42a2.332,2.332,0,0,1,2.22-2.48,1.65,1.65,0,0,1,1.58.9l-3.8,1.58ZM82.63,30H84.5V17.5H82.63Zm-3.06-7.3H79.5a3.005,3.005,0,0,0-2.24-1,4.26,4.26,0,0,0,0,8.51,2.9,2.9,0,0,0,2.24-1h.06v.61c0,1.63-.87,2.5-2.27,2.5a2.35,2.35,0,0,1-2.14-1.51l-1.63.68A4.051,4.051,0,0,0,77.29,34c2.19,0,4-1.29,4-4.43V22H79.57Zm-2.14,5.88a2.59,2.59,0,0,1,0-5.16A2.4,2.4,0,0,1,79.7,26a2.38,2.38,0,0,1-2.28,2.58ZM101.81,17.5H97.34V30h1.87V25.26h2.61a3.89,3.89,0,1,0,0-7.76h-.01Zm0,6H99.2V19.24h2.65a2.145,2.145,0,0,1,0,4.29Zm11.53-1.8a3.5,3.5,0,0,0-3.33,1.91l1.66.69a1.769,1.769,0,0,1,1.7-.92,1.8,1.8,0,0,1,2,1.61v.13a4.126,4.126,0,0,0-1.95-.48c-1.79,0-3.6,1-3.6,2.81a2.891,2.891,0,0,0,3.1,2.75,2.624,2.624,0,0,0,2.4-1.2h.06v1h1.8V25.19c0-2.19-1.66-3.46-3.79-3.46l-.05-.03Zm-.23,6.85c-.61,0-1.46-.31-1.46-1.06,0-1,1.06-1.33,2-1.33a3.316,3.316,0,0,1,1.7.42,2.259,2.259,0,0,1-2.19,2l-.05-.03ZM123.74,22l-2.14,5.42h-.06L119.32,22h-2l3.33,7.58-1.9,4.21h1.95L125.82,22Zm-16.81,8h1.87V17.5h-1.87Z" fill="#fff"/>
  <path id="Path_1493" data-name="Path 1493" d="M10.44,7.54a2,2,0,0,0-.46,1.4V31.06a2,2,0,0,0,.46,1.4l.07.07L22.9,20.15v-.29L10.51,7.47l-.07.07Z" fill="url(#linear-gradient)"/>
  <path id="Path_1494" data-name="Path 1494" d="M27,24.28l-4.1-4.13v-.29L27,15.72l.09.05L32,18.56c1.4.79,1.4,2.09,0,2.89l-4.89,2.78-.11.05Z" fill="url(#linear-gradient-2)"/>
  <path id="Path_1495" data-name="Path 1495" d="M27.12,24.22,22.9,20,10.44,32.46a1.629,1.629,0,0,0,2.08.06l14.61-8.3" fill="url(#linear-gradient-3)"/>
  <path id="Path_1496" data-name="Path 1496" d="M27.12,15.78,12.51,7.48a1.629,1.629,0,0,0-2.08.06L22.9,20l4.22-4.22Z" fill="url(#linear-gradient-4)"/>
  <path id="Path_1497" data-name="Path 1497" d="M27,24.13,12.51,32.38a1.671,1.671,0,0,1-2,0l-.07.07.07.07a1.659,1.659,0,0,0,2,0l14.61-8.3L27,24.13Z" opacity="0.2"/>
  <path id="Path_1498" data-name="Path 1498" d="M10.44,32.32a2,2,0,0,1-.46-1.4v.15a2,2,0,0,0,.46,1.4l.07-.07ZM32,21.3l-5,2.83.09.09L32,21.44A1.751,1.751,0,0,0,33,20,1.859,1.859,0,0,1,32,21.3Z" opacity="0.12"/>
  <path id="Path_1499" data-name="Path 1499" d="M12.51,7.62,32,18.7A1.859,1.859,0,0,1,33,20a1.751,1.751,0,0,0-1-1.44L12.51,7.48c-1.4-.79-2.54-.13-2.54,1.47V9.1c.03-1.61,1.15-2.27,2.54-1.48Z" fill="#fff" opacity="0.25"/>
</svg>
