<svg id="Image_Upload" data-name="Image Upload" xmlns="http://www.w3.org/2000/svg" width="50" height="50" viewBox="0 0 50 50">
  <g id="Rectangle_44" data-name="Rectangle 44" fill="#059762" stroke="#8fd03d" stroke-width="2">
    <rect width="50" height="50" rx="10" stroke="none"/>
    <rect x="1" y="1" width="48" height="48" rx="9" fill="none"/>
  </g>
  <path id="Path_57" data-name="Path 57" d="M29.006,14.709A1.589,1.589,0,0,0,27.418,16.3v5.369l-2.351-2.351a4.432,4.432,0,0,0-6.243,0l-1.112,1.128-3.94-3.956a4.432,4.432,0,0,0-6.243,0L5.177,18.855V9.943A1.589,1.589,0,0,1,6.766,8.354H19.475a1.589,1.589,0,1,0,0-3.177H6.766A4.766,4.766,0,0,0,2,9.943V29.356a4.432,4.432,0,0,0,4.416,4.416H26.178a4.575,4.575,0,0,0,1.271-.191h0a4.353,4.353,0,0,0,3.177-4.21V16.3a1.589,1.589,0,0,0-1.62-1.589ZM6.766,30.595a1.589,1.589,0,0,1-1.589-1.589V23.335l4.591-4.591a1.239,1.239,0,0,1,1.747,0L23.383,30.595Zm20.652-1.589a1.589,1.589,0,0,1-.286.858l-7.18-7.212,1.128-1.112a1.223,1.223,0,0,1,1.747,0l4.591,4.623ZM32.183,5.177H30.595V3.589a1.589,1.589,0,0,0-3.177,0V5.177H25.829a1.589,1.589,0,0,0,0,3.177h1.589V9.943a1.589,1.589,0,1,0,3.177,0V8.354h1.589a1.589,1.589,0,0,0,0-3.177Z" transform="translate(7.114 7.114)" fill="#fff"/>
</svg>
