<svg xmlns="http://www.w3.org/2000/svg" width="775.157" height="530.157" viewBox="0 0 775.157 530.157">
  <g id="Group_9869" data-name="Group 9869" transform="translate(0 -0.01)">
    <path id="Path_1953" data-name="Path 1953" d="M387.693,91.093c-31.509-11.713-64.806-21.5-98.8-20.268-49.977,1.8-97.953,29.291-121.448,69.652-19.934,34.2-22.393,74.279-30.98,112.229C125.9,299.454,105.624,343.9,83.974,387.347c-11.626,23.343-23.895,47.189-25.8,72.776-2.645,35.525,15.923,70.924,45.044,94.553s67.795,36.1,106.612,38.817c20.656,1.447,42.241.1,60.588-8.687,19.412-9.3,33.561-26.111,53.052-35.28,18.061-8.5,39.188-9.687,59.465-8.582a287.867,287.867,0,0,1,77.633,15.1c28.342,9.729,54.7,23.825,82.938,33.694s59.873,15.376,88.773,7.143c27.169-7.737,48.619-26.523,67.959-45.547a812.275,812.275,0,0,0,86.671-100.214c17.453-23.909,33.7-49.132,41.412-77,14.757-53.277-5.548-113.382-50.585-149.766-37.315-30.143-87.393-43.227-136.412-51.166-44.7-7.241-96.387-7.688-137.535-26.558C464.547,128.61,428.841,106.4,387.693,91.093Z" transform="translate(-57.92 -70.71)" fill="#059762" opacity="0.1"/>
    <path id="Path_1954" data-name="Path 1954" d="M632.58,618.2v25.391h7.386l-1.43-27.257Z" transform="translate(-180.294 -185.577)" fill="#aaabb0"/>
    <path id="Path_1955" data-name="Path 1955" d="M477.41,610.866v25.391H484.8L483.373,609Z" transform="translate(-136.068 -183.37)" fill="#aaabb0"/>
    <rect id="Rectangle_794" data-name="Rectangle 794" width="9.531" height="45.198" rx="4.765" transform="translate(460.866 385.562)" fill="#aaabb0"/>
    <rect id="Rectangle_795" data-name="Rectangle 795" width="9.531" height="55.213" rx="4.765" transform="translate(338.603 375.54)" fill="#aaabb0"/>
    <path id="Path_1956" data-name="Path 1956" d="M732.84,234.621s9.531-3.963,10.961,0,2.145,38.209,2.145,38.209h-9.059Z" transform="translate(-250.281 -119.531)" fill="#aaabb0"/>
    <path id="Path_1957" data-name="Path 1957" d="M581.613,234.621s-9.538-3.963-10.968,0S568.5,272.83,568.5,272.83h9.059Z" transform="translate(-203.442 -119.531)" fill="#aaabb0"/>
    <path id="Path_1958" data-name="Path 1958" d="M530.34,115.7l-1.43,28.424h6.435V115Z" transform="translate(-150.747 -34.624)" fill="#aaabb0"/>
    <path id="Path_1959" data-name="Path 1959" d="M581.17,269.444l1.909-41s-.715-9.086,21.922-6.29,88.9,8.387,88.9,8.387v38.907Z" transform="translate(-207.053 -116.145)" fill="#33323d"/>
    <path id="Path_1960" data-name="Path 1960" d="M660.146,598.246l-3.575,62.663s-52.437,28.424-116.071,1.4l5.72-65.927Z" transform="translate(-195.462 -228.989)" fill="#33323d"/>
    <path id="Path_1961" data-name="Path 1961" d="M580.25,169.711l1.187,40.536h73.887l-4.29-53.577Z" transform="translate(-165.379 -47.171)" fill="#444053"/>
    <rect id="Rectangle_796" data-name="Rectangle 796" width="69.597" height="86.195" transform="translate(352.781 342.461)" fill="#8fd03d"/>
    <path id="Path_1962" data-name="Path 1962" d="M612.829,608.552s10.01-7.688,11.676-5.361-5.949,12.349-9.052,11.182S612.829,608.552,612.829,608.552Z" transform="translate(-216.069 -230.908)" fill="#ffb9b9"/>
    <rect id="Rectangle_797" data-name="Rectangle 797" width="456.855" height="223.646" transform="translate(217.721 150.964)" fill="#504f60"/>
    <path id="Path_1963" data-name="Path 1963" d="M580.867,160.584s-3.575-32.617,0-36.573,63.634-41.472,119.167,2.558c0,0,5.241.238,4.29,11.881a136.646,136.646,0,0,0,.114,22.134S584.921,168.97,580.867,160.584Z" transform="translate(-206.514 -81.137)" fill="#33323d"/>
    <path id="Path_1964" data-name="Path 1964" d="M580.867,160.584s-3.575-32.617,0-36.573,63.634-41.472,119.167,2.558c0,0,5.241.238,4.29,11.881a136.646,136.646,0,0,0,.114,22.134S584.921,168.97,580.867,160.584Z" transform="translate(-206.514 -81.137)" opacity="0.1"/>
    <path id="Path_1965" data-name="Path 1965" d="M580.867,166.583s-3.575-32.617,0-36.573,63.634-41.472,119.167,2.558c0,0,5.241.238,4.29,11.881a136.646,136.646,0,0,0,.114,22.134S584.921,174.97,580.867,166.583Z" transform="translate(-206.514 -82.944)" fill="#33323d"/>
    <path id="Path_1966" data-name="Path 1966" d="M744.071,169.05s3.811,13.978,2.624,16.305-.972,8.855-.972,8.855.257,4.193-1.652,4.655-3.575.7-2.031,2.1,0,3.494,0,3.494-.836,3.264,0,5.361-4.891,2.97-4.4,5.591,2.088,10.015,0,10.253.715,9.316-1.165,9.316-3.217,16.305-3.217,16.305-13.227-10.945-22.043-7.918c0,0,.715-9.086,3.575-12.349s1.995-11.644,1.995-11.644l14.185-41.7Z" transform="translate(-244.117 -100.318)" fill="#059762"/>
    <path id="Path_1967" data-name="Path 1967" d="M649.055,423.524c-3.1,3.348-6.435-14.53-6.435-14.53s-8.816,11.881-14.536,3.963c-3.961-5.486-.836-21.03,1.43-30.052,1.015-4.012,1.873-6.737,1.873-6.737l12.87-2.1s.043,2.74.329,6.066c.386,4.494,1.223,10.071,3,11.406C650.728,393.856,652.158,420.148,649.055,423.524Z" transform="translate(-219.884 -162.05)" fill="#ae6e79"/>
    <path id="Path_1968" data-name="Path 1968" d="M634.538,142.571s-22.408-.231-27.885,11.413-5.72,15.613-7.865,17.472,23.351,11.651,23.351,11.651l1.194,40.068a13.83,13.83,0,0,1,13.106-2.712c8.1,2.243,18.354,0,18.354,0s-.479-.846,6.2,0,27.884-10.1,27.884-10.1.35-17.528-.122-21.26,15.129-31.157,15.129-31.157,12.155-11.413-.472-15.376c0,0-4.469-6.584-15.966-6.521S634.538,142.571,634.538,142.571Z" transform="translate(-212.039 -90.381)" opacity="0.1"/>
    <path id="Path_1969" data-name="Path 1969" d="M634.538,141.571s-22.408-.231-27.885,11.413-5.72,15.613-7.865,17.472,23.351,11.651,23.351,11.651l1.194,40.068a13.83,13.83,0,0,1,13.106-2.712c8.1,2.243,18.354,0,18.354,0s-.479-.846,6.2,0,27.884-10.1,27.884-10.1,8.337-13.279,7.865-17,16.681-31.919,16.681-31.919,2.624-14.907-10.01-18.87c0,0-4.469-6.584-15.966-6.521S634.538,141.571,634.538,141.571Z" transform="translate(-212.039 -90.08)" fill="#059762"/>
    <path id="Path_1970" data-name="Path 1970" d="M645.992,380.118c-4.912-1.5-12.62,1.8-15.072,2.8,1.015-4.012,1.873-6.737,1.873-6.737l12.87-2.1S645.684,376.82,645.992,380.118Z" transform="translate(-221.233 -162.053)" opacity="0.1"/>
    <path id="Path_1971" data-name="Path 1971" d="M605.493,185.71h-6.907s-1.43,14.215,0,18.409,2.145,3.585,1.666,6.688,3.339,7.856,3.339,7.856.472,11.713,2.86,16.075-2.624,23.916-2.624,23.916a28.07,28.07,0,0,0,5.956,9.086c4.054,3.956,6.2,18.633,5,24.224a6.681,6.681,0,0,0,3.339,7.688s1.909,26.1,2.624,26.1,14.536-6.989,18.826-.937l-3.339-23.993.243-46.358s-4.533-5.829-2.145-10.952-1.909-17.242-1.909-17.242l-6.2-27.019Z" transform="translate(-211.836 -105.334)" fill="#059762"/>
    <path id="Path_1972" data-name="Path 1972" d="M542.558,712.309s-10.01-2.1-10.246,0-11.919,23.532,2.624,29.822,53.381,19.8,116.543,2.327c0,0,4.047,1.4,3.1-7.22s-.951-18.171-.951-18.171-9.538-2.565-16.688-1.628S567.582,730.717,542.558,712.309Z" transform="translate(-191.8 -263.615)" fill="#33323d"/>
    <path id="Path_1973" data-name="Path 1973" d="M542.558,712.309s-10.01-2.1-10.246,0-11.919,23.532,2.624,29.822,53.381,19.8,116.543,2.327c0,0,4.047,1.4,3.1-7.22s-.951-18.171-.951-18.171-9.538-2.565-16.688-1.628S567.582,730.717,542.558,712.309Z" transform="translate(-191.8 -263.615)" opacity="0.1"/>
    <path id="Path_1974" data-name="Path 1974" d="M542.558,708.309s-10.01-2.1-10.246,0-11.919,23.532,2.624,29.822,53.381,19.8,116.543,2.327c0,0,4.047,1.4,3.1-7.22s-.951-18.171-.951-18.171-9.538-2.565-16.688-1.628S567.582,726.717,542.558,708.309Z" transform="translate(-191.8 -262.411)" fill="#33323d"/>
    <path id="Path_1975" data-name="Path 1975" d="M629.245,197.088c-.615,3.418-2.009,6.7-2.224,10.162s1.151,7.394,4.419,8.75a15.089,15.089,0,0,1,2.638,1.048,5.631,5.631,0,0,1,2.038,3.865,20.637,20.637,0,0,1,.25,5.745c-.179,1.929-.6,4,.372,5.689,1.709,2.984,6.163,2.544,9.552,1.705l-1.165,8.827a2.18,2.18,0,0,0,.372,1.964,2.293,2.293,0,0,0,1.716.363c2.946-.182,5.977-.58,8.5-2.1s4.4-4.34,3.925-7.185c-.558-3.3-4.047-5.92-3.575-9.232.365-2.565,2.931-4.193,4.619-6.164a11.636,11.636,0,0,0,.822-13.167,15.375,15.375,0,0,0-11.783-7.073c-2.638-.259-5.384.056-7.865-.839a5.887,5.887,0,0,1-3.646-3.76" transform="translate(-220.115 -108.339)" fill="#444053"/>
    <path id="Path_1976" data-name="Path 1976" d="M513.84,631.649l2.5-5.312s13.47-12.266,16.566-13.125,15.73-4.606,17.639-4.606,36.707-1.866,36.707-1.866l4.047,9.323-43.671,9.372L532.9,635.919Z" transform="translate(-187.863 -232.108)" fill="#059762"/>
    <path id="Path_1977" data-name="Path 1977" d="M650.16,429.668l-2.281,17.158-.879,6.6-10.246,1.4s-1.108-2.32-2.674-5.885c-4.755-10.819-13.706-33.128-8.516-36.978,6.9-5.13,8.58,11.881,8.58,11.881l7.865-3.732Z" transform="translate(-219.259 -173.17)" fill="#ffb9b9"/>
    <rect id="Rectangle_798" data-name="Rectangle 798" width="51.744" height="76.41" transform="translate(377.448 288.416)" fill="#fff"/>
    <rect id="Rectangle_799" data-name="Rectangle 799" width="51.744" height="76.41" transform="translate(377.448 288.416)" opacity="0.1"/>
    <path id="Path_2097" data-name="Path 2097" d="M1.987,1.566,53.706,1.4l-.255,76.448-51.719.168Z" transform="translate(399.524 283.318) rotate(8.41)" fill="#fff"/>
    <path id="Path_2098" data-name="Path 2098" d="M1.023.806,27.643.72l-.131,39.346-26.62.087Z" transform="translate(405.186 291.42) rotate(8.41)" fill="#059762"/>
    <path id="Path_2099" data-name="Path 2099" d="M.239.951,32.491.846,32.463,9.39.211,9.5Z" transform="translate(397.273 341.367) rotate(8.41)" fill="#8fd03d"/>
    <ellipse id="Ellipse_278" data-name="Ellipse 278" cx="29.908" cy="29.235" rx="29.908" ry="29.235" transform="translate(412.847 37.163)" opacity="0.1"/>
    <ellipse id="Ellipse_279" data-name="Ellipse 279" cx="29.908" cy="29.235" rx="29.908" ry="29.235" transform="translate(412.847 36.464)" fill="#ae6e79"/>
    <path id="Path_1978" data-name="Path 1978" d="M635.9,164.636a3.259,3.259,0,0,1,.207-2.257c1.137-2.313,4.376-2.516,7-2.4,6.17.28,12.941.314,17.767-3.494,2-1.566,4.24-5.5,7.15-4.752,2.588.664,3.668,4.1,6.363,4.857,1.952.552,3.975-.328,5.963-.7,2.86-.552,5.791-.091,8.694-.07s6.056-.517,8.036-2.593c2.674-2.8,2.238-7.164,2-10.994a57.882,57.882,0,0,1,1.023-14.775c.972-4.836,2.467-10.246-.265-14.39-2.6-3.949-7.994-5.032-11.676-8.058-3.446-2.8-5.269-7.275-8.909-9.868-4.583-3.264-10.811-2.8-16.445-2.229l-12.226,1.272c-3.153.328-6.435.7-9.03,2.537-4.683,3.313-5.327,10.2-9.76,13.824-1.973,1.607-4.5,2.4-6.749,3.606s-4.426,3.1-4.683,5.591c-.214,2.1.944,4.033,1.509,6.052,1.337,4.822-.751,9.785-2.088,14.642s-1.594,10.756,2.288,13.978c.786.657,1.7,1.16,2.467,1.845,2.624,2.341,2.981,6.29,2.374,9.7" transform="translate(-217.805 -77.272)" fill="#444053"/>
    <ellipse id="Ellipse_280" data-name="Ellipse 280" cx="0.715" cy="1.747" rx="0.715" ry="1.747" transform="translate(444.478 98.722)" fill="#444053"/>
    <ellipse id="Ellipse_281" data-name="Ellipse 281" cx="0.715" cy="1.747" rx="0.715" ry="1.747" transform="translate(444.478 106.004)" fill="#444053"/>
    <path id="Path_1979" data-name="Path 1979" d="M655.627,437.708c.765-.86,1.273-3.068,1.566-5.982L648.67,421.34S652.281,441.475,655.627,437.708Z" transform="translate(-226.292 -176.283)" fill="#ae6e79"/>
    <path id="Path_1980" data-name="Path 1980" d="M624.8,670.255s-13.985,21.135-57.678,18.87c-41.162-2.1-61.253-21.9-60.295-28.885s-2.624-24,6.192-28.892c5.112-2.83,11.84-1.153,16.588.762a9.531,9.531,0,0,0,9.845-1.726c4.34-3.823,12.434-8.128,25.21-4.739a9.281,9.281,0,0,0,5-.091c5.319-1.587,17.982-4.34,27.169,1.775a9.475,9.475,0,0,0,9.953.37l.129-.077c4.29-2.565,24.31,21.666,24.31,21.666S632.185,667.927,624.8,670.255Z" transform="translate(-185.855 -237.167)" opacity="0.1"/>
    <path id="Path_1981" data-name="Path 1981" d="M624.8,671.255s-13.985,21.135-57.678,18.87c-41.162-2.1-61.253-21.9-60.295-28.885s-2.624-24,6.192-28.892c5.112-2.831,11.84-1.153,16.588.762a9.531,9.531,0,0,0,9.845-1.726c4.34-3.823,12.434-8.128,25.21-4.739a9.283,9.283,0,0,0,5-.091c5.319-1.587,17.982-4.34,27.169,1.775a9.475,9.475,0,0,0,9.953.37l.129-.077c4.29-2.565,24.31,21.666,24.31,21.666S632.185,668.927,624.8,671.255Z" transform="translate(-185.855 -237.468)" fill="#059762"/>
    <ellipse id="Ellipse_282" data-name="Ellipse 282" cx="28.485" cy="27.844" rx="28.485" ry="27.844" transform="translate(352.781 386.373)" opacity="0.1"/>
    <ellipse id="Ellipse_283" data-name="Ellipse 283" cx="28.485" cy="27.844" rx="28.485" ry="27.844" transform="translate(352.781 387.072)" fill="#ffb9b9"/>
    <path id="Path_1982" data-name="Path 1982" d="M570.385,629.656c-2.989.79-5.934,2.3-7.393,4.78-.879,1.5-1.187,3.292-2.46,4.536-1.8,1.768-4.84,1.8-7.279,2.8s-4.047,4.487-1.659,5.591a5.264,5.264,0,0,0-4.64,4.6c-.307,2.229.558,4.452,1.394,6.577,2.731,6.877,5.67,14.055,11.69,18.947,9.81,7.981,24.6,7.611,37.773,6.765a6.293,6.293,0,0,0,3.1-.7c1.43-.923,1.609-2.691,1.845-4.242.994-6.625,4.669-12.643,7.071-18.968s3.389-13.754-.658-19.352C603.21,632.682,580.409,627,570.385,629.656Z" transform="translate(-197.283 -238.81)" fill="#b96b6b"/>
    <path id="Path_1983" data-name="Path 1983" d="M651.9,462.094l-.879,6.6-10.246,1.4s-1.108-2.32-2.674-5.885l13.635-2.5Z" transform="translate(-223.279 -188.439)" opacity="0.1"/>
    <path id="Path_1984" data-name="Path 1984" d="M661.974,608.318l5.963-6.758-1.194-37.272a59.175,59.175,0,0,0,1.194-8.156c.236-3.963-2.981-12.811-2.981-12.811a27.381,27.381,0,0,1,2.023-5.13c1.43-2.8-2.016-9.086-2.016-9.086s-5.134-16.305-2.989-24.461-.522-12.811-.522-12.811-2.095-9.086-1.859-12.811-4.769-7.227-4.769-7.227l-3.811-9.086-15.251,2.8v31.45s.951,30.052,0,35.881,1.9,11.413,1.9,11.413-1.666,8.617-.236,11.881,4.29,11.182,4.29,11.182a17.778,17.778,0,0,0,.479,8.5c1.43,4.082,0,6.409,0,6.409Z" transform="translate(-222.558 -188.74)" fill="#059762"/>
    <g id="Group_9864" data-name="Group 9864" transform="translate(401.117 40.455)" opacity="0.1">
      <path id="Path_1985" data-name="Path 1985" d="M732.074,136.026a57.884,57.884,0,0,0-1.08,12.419A58.161,58.161,0,0,1,732.1,138.13c.629-3.1,1.43-6.444,1.258-9.54a56.819,56.819,0,0,1-1.287,7.436Z" transform="translate(-650.869 -128.59)"/>
      <path id="Path_1986" data-name="Path 1986" d="M624.572,176.7c-.765-.7-1.68-1.188-2.467-1.852a9.5,9.5,0,0,1-3.139-6.989c-.207,3.494.522,6.877,3.139,9.086.786.664,1.7,1.167,2.467,1.852a8.45,8.45,0,0,1,2.588,5.836C627.368,181.7,626.76,178.644,624.572,176.7Z" transform="translate(-618.934 -140.414)"/>
      <path id="Path_1987" data-name="Path 1987" d="M622.865,139.355a12.889,12.889,0,0,0-.386-4.4c-.415-1.5-1.158-2.956-1.43-4.459a4.548,4.548,0,0,1-.079.5c-.207,2.1.951,4.033,1.509,6.052A11.634,11.634,0,0,1,622.865,139.355Z" transform="translate(-619.507 -129.165)"/>
      <path id="Path_1988" data-name="Path 1988" d="M700.32,173.45c-1.981,2.1-5.134,2.614-8.036,2.593s-5.841-.482-8.694.077c-1.988.391-4.011,1.265-5.963.7-2.7-.762-3.775-4.193-6.356-4.857-2.939-.755-5.177,3.18-7.15,4.745-4.826,3.774-11.6,3.739-17.767,3.494-2.624-.119-5.863.084-6.993,2.4a3.176,3.176,0,0,0-.207,2.257l-8.737,1.342a16.219,16.219,0,0,1-.236,2.1l8.973-1.4a3.176,3.176,0,0,1,.207-2.257c1.13-2.32,4.369-2.523,6.993-2.4,6.17.28,12.941.314,17.767-3.495,2-1.566,4.24-5.5,7.15-4.745,2.581.657,3.661,4.1,6.356,4.857,1.952.545,3.975-.328,5.963-.7,2.86-.559,5.791-.1,8.694-.077s6.056-.517,8.036-2.593,2.266-5.172,2.145-8.191A8.991,8.991,0,0,1,700.32,173.45Z" transform="translate(-622.139 -140.246)"/>
    </g>
    <g id="Group_9865" data-name="Group 9865" transform="translate(407.02 100.847)" opacity="0.1">
      <path id="Path_1989" data-name="Path 1989" d="M633.282,222.191a14.653,14.653,0,0,0-2.638-1.048,6.748,6.748,0,0,1-3.453-3.453,7.5,7.5,0,0,0,4.168,5.549A14.654,14.654,0,0,1,634,224.288a3.9,3.9,0,0,1,1.266,1.447A5.362,5.362,0,0,0,633.282,222.191Z" transform="translate(-627.19 -215.81)"/>
      <path id="Path_1990" data-name="Path 1990" d="M649.039,247.819c-3.3.818-7.6,1.244-9.409-1.489a4.723,4.723,0,0,0,.572,1.88c1.544,2.691,5.32,2.6,8.53,1.936Z" transform="translate(-630.736 -224.434)"/>
      <path id="Path_1991" data-name="Path 1991" d="M665.9,251.2c.458,2.837-1.43,5.668-3.932,7.157s-5.555,1.9-8.5,2.1a2.98,2.98,0,0,1-1.387-.154,1.634,1.634,0,0,0,.3,1.8,1.728,1.728,0,0,0,1.8.454c2.946-.182,5.977-.58,8.5-2.1s4.411-4.34,3.925-7.185A7.806,7.806,0,0,0,665.9,251.2Z" transform="translate(-634.243 -225.9)"/>
      <path id="Path_1992" data-name="Path 1992" d="M673.2,215a11.3,11.3,0,0,1-2.145,9.889c-1.687,2-4.254,3.6-4.619,6.164a5.712,5.712,0,0,0,.715,3.4,4.441,4.441,0,0,1,0-1.307c.365-2.565,2.931-4.193,4.619-6.164A11.541,11.541,0,0,0,673.2,215Z" transform="translate(-638.368 -215)"/>
    </g>
    <g id="Group_9866" data-name="Group 9866" transform="translate(349.606 389.878)" opacity="0.1">
      <path id="Path_1993" data-name="Path 1993" d="M554.676,642.711c2.431-.985,5.47-1.02,7.279-2.8,1.273-1.244,1.58-3.04,2.46-4.529,1.43-2.488,4.4-3.991,7.386-4.78,10.01-2.656,32.832,3.019,38.781,11.245a15.035,15.035,0,0,1,2.731,8.443,15.516,15.516,0,0,0-2.724-9.833c-5.949-8.226-28.75-13.9-38.781-11.245-2.989.79-5.934,2.292-7.386,4.78-.879,1.489-1.187,3.285-2.46,4.529-1.809,1.768-4.848,1.8-7.279,2.8-1.852.748-3.225,2.956-2.724,4.438A4.844,4.844,0,0,1,554.676,642.711Z" transform="translate(-548.304 -628.555)"/>
      <path id="Path_1994" data-name="Path 1994" d="M546.968,660.844a5.244,5.244,0,0,1,4.64-4.6,1.874,1.874,0,0,1-1.094-1.2,5.456,5.456,0,0,0-3.575,4.4,7.215,7.215,0,0,0,0,1.712A1.17,1.17,0,0,0,546.968,660.844Z" transform="translate(-546.889 -636.533)"/>
    </g>
    <rect id="Rectangle_803" data-name="Rectangle 803" width="65.064" height="82.938" transform="translate(436.077 160.917)" fill="#fff"/>
    <rect id="Rectangle_804" data-name="Rectangle 804" width="65.064" height="82.938" transform="translate(436.077 160.917)" opacity="0.1"/>
    <path id="Path_2100" data-name="Path 2100" d="M0,0,65.022.245l.319,82.993L.319,82.993Z" transform="translate(461.879 176.565) rotate(-9.76)" fill="#fff"/>
    <path id="Path_2101" data-name="Path 2101" d="M0,0,15.277.057l.075,19.5L.075,19.5Z" transform="translate(477.42 232.286) rotate(-9.76)" fill="#3a5"/>
    <path id="Path_2102" data-name="Path 2102" d="M0,0,15.277.057l.075,19.5L.075,19.5Z" transform="translate(498.267 228.777) rotate(-9.76)" fill="#8fd03d"/>
    <path id="Path_2103" data-name="Path 2103" d="M0,0,53.572.2l.075,19.586-53.572-.2Z" transform="translate(475.23 206.976) rotate(-9.744)" fill="#059762"/>
    <path id="Path_2104" data-name="Path 2104" d="M0,0,53.572.2l.017,4.37L.017,4.37Z" transform="translate(470.826 183.953) rotate(-9.744)" fill="#059762"/>
    <path id="Path_2105" data-name="Path 2105" d="M0,0,53.572.2l.017,4.37L.017,4.37Z" transform="translate(472.559 191.87) rotate(-9.744)" fill="#8fd03d"/>
    <path id="Path_1995" data-name="Path 1995" d="M711.382,268.71s-29.908,29.354-14.893,36.811,24.789-24.811,24.789-24.811l2.374-7.338Z" transform="translate(-238.719 -130.326)" fill="#ae6e79"/>
    <path id="Path_1996" data-name="Path 1996" d="M713.867,263.181l-3.7,7.981s18.232,2.5,22.043,7.89l-2.259-14.083-2.681-6.01Z" transform="translate(-243.82 -127.39)" opacity="0.1"/>
    <path id="Path_1997" data-name="Path 1997" d="M714.866,262.181l-3.7,7.981s18.232,2.5,22.043,7.89l-2.259-14.083-2.681-6.011Z" transform="translate(-244.105 -127.089)" fill="#059762"/>
    <path id="Path_1998" data-name="Path 1998" d="M812.623,403.26l-.393.266.543.238.586-.049.071-.4Z" transform="translate(-231.497 -121.421)" fill="#464a5f"/>
    <path id="Path_1999" data-name="Path 1999" d="M812.623,403.26l-.393.266.543.238.586-.049.071-.4Z" transform="translate(-231.497 -121.421)" opacity="0.1"/>
    <path id="Path_2000" data-name="Path 2000" d="M812.495,403.049l-.4.252-.315-.377.193-.307.179-.056Z" transform="translate(-231.368 -121.21)" fill="#9c9ca1"/>
    <path id="Path_2001" data-name="Path 2001" d="M812.495,403.049l-.4.252-.315-.377.193-.307.179-.056Z" transform="translate(-231.368 -121.21)" opacity="0.1"/>
    <path id="Path_2002" data-name="Path 2002" d="M928.914,386.42l-29.272-41.326a3.489,3.489,0,0,0-2.238-1.42,3.546,3.546,0,0,0-2.609.546L829.545,388a3.37,3.37,0,0,0-.908,4.745l29.193,41.85Z" transform="translate(-277.411 -152.881)" fill="#9c9ca1"/>
    <path id="Path_2003" data-name="Path 2003" d="M928.914,386.42l-29.272-41.326a3.489,3.489,0,0,0-2.238-1.42,3.546,3.546,0,0,0-2.609.546L829.545,388a3.37,3.37,0,0,0-.908,4.745l29.193,41.85Z" transform="translate(-277.411 -152.881)" opacity="0.1"/>
    <path id="Path_2004" data-name="Path 2004" d="M929.913,386.559l-29.271-41.326a3.54,3.54,0,0,0-4.855-.874l-65.242,43.807a3.377,3.377,0,0,0-.915,4.746l29.193,41.871Z" transform="translate(-277.695 -152.923)" fill="#9c9ca1"/>
    <path id="Path_2005" data-name="Path 2005" d="M966.318,413.4l-24.31-7.632-71.1,48.175,24.7,7.9a3.812,3.812,0,0,0,3.31-.489l67.6-46.658a.694.694,0,0,0,.357-.714A.706.706,0,0,0,966.318,413.4Z" transform="translate(-289.633 -171.595)" fill="#464a5f"/>
    <path id="Path_2006" data-name="Path 2006" d="M966.318,413.4l-24.31-7.632-71.1,48.175,24.7,7.9a3.812,3.812,0,0,0,3.31-.489l67.6-46.658a.694.694,0,0,0,.357-.714A.706.706,0,0,0,966.318,413.4Z" transform="translate(-289.633 -171.595)" opacity="0.1"/>
    <path id="Path_2007" data-name="Path 2007" d="M966.108,412.709,941.8,405.07l-71.1,48.175,24.7,7.884a3.782,3.782,0,0,0,3.31-.482l67.6-46.658a.694.694,0,0,0,.339-.705.705.705,0,0,0-.539-.574Z" transform="translate(-289.573 -171.385)" fill="#464a5f"/>
    <g id="Group_9867" data-name="Group 9867" transform="translate(570.27 214.48)" opacity="0.1">
      <path id="Path_2008" data-name="Path 2008" d="M951.783,401.151l-1.795-2.516a.726.726,0,0,0-.972-.175l-2.667,1.74a.689.689,0,0,0-.193.943l1.652,2.481a.725.725,0,0,0,.965.2l2.81-1.726A.689.689,0,0,0,951.783,401.151Z" transform="translate(-881.318 -383.84)"/>
      <path id="Path_2009" data-name="Path 2009" d="M945.081,405.794l-1.8-2.509a.726.726,0,0,0-.972-.175l-2.66,1.754a.689.689,0,0,0-.2.944l1.652,2.481a.725.725,0,0,0,.965.21l2.817-1.726a.7.7,0,0,0,.31-.448A.686.686,0,0,0,945.081,405.794Z" transform="translate(-879.407 -385.24)"/>
      <path id="Path_2010" data-name="Path 2010" d="M938.039,410.664l-1.8-2.509a.726.726,0,0,0-.972-.175l-2.667,1.754a.689.689,0,0,0-.193.95l1.652,2.481a.725.725,0,0,0,.965.2l2.81-1.726a.7.7,0,0,0,.314-.447A.686.686,0,0,0,938.039,410.664Z" transform="translate(-877.398 -386.706)"/>
      <path id="Path_2011" data-name="Path 2011" d="M930.913,415.6l-1.8-2.516a.726.726,0,0,0-.965-.175l-2.667,1.761a.689.689,0,0,0-.193.944l1.652,2.481a.725.725,0,0,0,.958.21l2.817-1.733a.7.7,0,0,0,.307-.445A.686.686,0,0,0,930.913,415.6Z" transform="translate(-875.37 -388.192)"/>
      <path id="Path_2012" data-name="Path 2012" d="M923.791,420.534l-1.8-2.509a.726.726,0,0,0-.972-.175l-2.66,1.754a.689.689,0,0,0-.2.943l1.652,2.481a.725.725,0,0,0,.965.21l2.817-1.733a.7.7,0,0,0,.307-.445A.686.686,0,0,0,923.791,420.534Z" transform="translate(-873.339 -389.678)"/>
      <path id="Path_2013" data-name="Path 2013" d="M916.834,425.717,914.6,422.6a.322.322,0,0,0-.207-.134.328.328,0,0,0-.243.05l-3.275,2.16a.315.315,0,0,0-.141.2.309.309,0,0,0,.048.239l2.052,3.082a.334.334,0,0,0,.451.1l3.461-2.1a.322.322,0,0,0,.161-.22.316.316,0,0,0-.068-.262Z" transform="translate(-871.251 -391.101)"/>
      <path id="Path_2014" data-name="Path 2014" d="M909.709,430.647l-2.252-3.117a.33.33,0,0,0-.211-.135.335.335,0,0,0-.247.051l-3.275,2.16a.317.317,0,0,0-.086.44l2.052,3.082a.314.314,0,0,0,.2.145.32.32,0,0,0,.247-.047l3.453-2.1a.316.316,0,0,0,.177-.214A.309.309,0,0,0,909.709,430.647Z" transform="translate(-869.216 -392.585)"/>
      <path id="Path_2015" data-name="Path 2015" d="M903.4,435.032l-2.238-3.089a.334.334,0,0,0-.45-.077l-3.275,2.153a.324.324,0,0,0-.093.447l2.052,3.082a.341.341,0,0,0,.45.1l3.461-2.1a.323.323,0,0,0,.184-.235.317.317,0,0,0-.091-.282Z" transform="translate(-867.424 -393.916)"/>
      <path id="Path_2016" data-name="Path 2016" d="M896.344,439.9l-2.238-3.117a.334.334,0,0,0-.45-.077l-3.275,2.153a.322.322,0,0,0-.142.2.316.316,0,0,0,.049.243l2.052,3.082a.341.341,0,0,0,.451.1l3.461-2.1a.329.329,0,0,0,.161-.224.323.323,0,0,0-.068-.265Z" transform="translate(-865.411 -395.373)"/>
      <path id="Path_2017" data-name="Path 2017" d="M889.5,444.6l-2.238-3.117a.322.322,0,0,0-.207-.134.328.328,0,0,0-.243.05l-3.275,2.16a.315.315,0,0,0-.141.2.309.309,0,0,0,.048.239l2.052,3.082a.333.333,0,0,0,.45.1l3.461-2.1a.322.322,0,0,0,.161-.22A.316.316,0,0,0,889.5,444.6Z" transform="translate(-863.462 -396.785)"/>
      <path id="Path_2018" data-name="Path 2018" d="M882.672,449.377l-2.216-3.124a.334.334,0,0,0-.45-.077l-3.275,2.153a.322.322,0,0,0-.142.2.316.316,0,0,0,.049.243l2.052,3.082a.341.341,0,0,0,.451.1l3.461-2.1a.321.321,0,0,0,.149-.225.317.317,0,0,0-.077-.257Z" transform="translate(-861.52 -398.225)"/>
      <path id="Path_2019" data-name="Path 2019" d="M875.824,454.107l-2.238-3.117a.322.322,0,0,0-.207-.134.327.327,0,0,0-.243.05l-3.275,2.146a.315.315,0,0,0-.141.2.309.309,0,0,0,.048.239l2.052,3.082a.333.333,0,0,0,.45.1l3.461-2.1a.322.322,0,0,0,.153-.214A.317.317,0,0,0,875.824,454.107Z" transform="translate(-859.563 -399.649)"/>
      <path id="Path_2020" data-name="Path 2020" d="M947.29,394.641l-1.8-2.516a.726.726,0,0,0-.972-.175l-2.638,1.761a.689.689,0,0,0-.2.944l1.652,2.481a.725.725,0,0,0,.965.2l2.817-1.726a.689.689,0,0,0,.179-.971Z" transform="translate(-880.042 -381.879)"/>
      <path id="Path_2021" data-name="Path 2021" d="M937.431,380.407l-1.8-2.53a.726.726,0,0,0-.965-.175L932,379.456a.689.689,0,0,0-.2.944l1.652,2.481a.725.725,0,0,0,.965.21l2.817-1.726A.689.689,0,0,0,937.431,380.407Z" transform="translate(-877.227 -377.59)"/>
      <path id="Path_2022" data-name="Path 2022" d="M940.573,399.286l-1.8-2.509a.726.726,0,0,0-.965-.175l-2.667,1.754a.689.689,0,0,0-.193.944l1.644,2.481a.725.725,0,0,0,.965.21l2.817-1.726a.7.7,0,0,0,.31-.448A.686.686,0,0,0,940.573,399.286Z" transform="translate(-878.123 -383.281)"/>
      <path id="Path_2023" data-name="Path 2023" d="M933.53,404.154l-1.8-2.509a.726.726,0,0,0-.972-.175L928.1,403.2a.689.689,0,0,0-.2.951l1.652,2.481a.725.725,0,0,0,.965.2l2.817-1.726A.689.689,0,0,0,933.53,404.154Z" transform="translate(-876.114 -384.746)"/>
      <path id="Path_2024" data-name="Path 2024" d="M926.4,409.091l-1.795-2.516a.726.726,0,0,0-.972-.175l-2.667,1.782a.689.689,0,0,0-.193.944l1.652,2.481a.725.725,0,0,0,.965.2l2.81-1.726a.7.7,0,0,0,.317-.454.687.687,0,0,0-.117-.538Z" transform="translate(-874.085 -386.23)"/>
      <path id="Path_2025" data-name="Path 2025" d="M930.881,385.286l-1.8-2.509a.726.726,0,0,0-.965-.175l-2.667,1.754a.689.689,0,0,0-.2.943l1.652,2.481a.725.725,0,0,0,.965.21l2.817-1.726a.7.7,0,0,0,.31-.448A.686.686,0,0,0,930.881,385.286Z" transform="translate(-875.36 -379.065)"/>
      <path id="Path_2026" data-name="Path 2026" d="M923.841,390.161l-1.8-2.516a.726.726,0,0,0-.972-.175l-2.66,1.733a.689.689,0,0,0-.2.944l1.652,2.481a.725.725,0,0,0,.965.2l2.817-1.726A.689.689,0,0,0,923.841,390.161Z" transform="translate(-873.353 -380.53)"/>
      <path id="Path_2027" data-name="Path 2027" d="M916.713,395.094l-1.8-2.509a.725.725,0,0,0-.965-.182l-2.667,1.782a.689.689,0,0,0-.193.944l1.652,2.481a.725.725,0,0,0,.965.21l2.81-1.733a.7.7,0,0,0,.317-.454A.686.686,0,0,0,916.713,395.094Z" transform="translate(-871.323 -382.017)"/>
      <path id="Path_2028" data-name="Path 2028" d="M919.292,414.023l-1.8-2.509a.726.726,0,0,0-.965-.182l-2.645,1.761a.689.689,0,0,0-.193.944l1.623,2.481a.725.725,0,0,0,.958.21l2.817-1.733a.7.7,0,0,0,.311-.444.686.686,0,0,0-.1-.528Z" transform="translate(-872.064 -387.717)"/>
      <path id="Path_2029" data-name="Path 2029" d="M912.161,418.954l-1.8-2.509a.726.726,0,0,0-.972-.175l-2.66,1.754a.689.689,0,0,0-.2.944l1.652,2.481a.725.725,0,0,0,.965.21l2.817-1.726a.7.7,0,0,0,.31-.448A.686.686,0,0,0,912.161,418.954Z" transform="translate(-870.024 -389.202)"/>
      <path id="Path_2030" data-name="Path 2030" d="M905.2,424.137l-2.238-3.117a.322.322,0,0,0-.207-.134.328.328,0,0,0-.243.05l-3.275,2.16a.315.315,0,0,0-.141.2.309.309,0,0,0,.048.239l2.052,3.082a.322.322,0,0,0,.2.142.328.328,0,0,0,.246-.044l3.461-2.1a.322.322,0,0,0,.161-.22.316.316,0,0,0-.068-.262Z" transform="translate(-867.936 -390.625)"/>
      <path id="Path_2031" data-name="Path 2031" d="M898.9,428.507l-2.238-3.124a.334.334,0,0,0-.45-.077l-3.268,2.153a.324.324,0,0,0-.093.447l2.052,3.082a.341.341,0,0,0,.45.1l3.461-2.1a.308.308,0,0,0,.165-.22.3.3,0,0,0-.079-.262Z" transform="translate(-866.142 -391.941)"/>
      <path id="Path_2032" data-name="Path 2032" d="M891.834,433.39l-2.238-3.117a.334.334,0,0,0-.45-.077l-3.275,2.153a.315.315,0,0,0-.141.2.309.309,0,0,0,.048.239l2.052,3.089a.341.341,0,0,0,.45.1l3.461-2.1a.329.329,0,0,0,.161-.224.323.323,0,0,0-.068-.265Z" transform="translate(-864.126 -393.413)"/>
      <path id="Path_2033" data-name="Path 2033" d="M884.994,438.127l-2.238-3.117a.322.322,0,0,0-.207-.134.328.328,0,0,0-.243.05l-3.275,2.132a.315.315,0,0,0-.141.2.309.309,0,0,0,.048.239l2.052,3.082a.334.334,0,0,0,.451.1l3.461-2.1a.322.322,0,0,0,.145-.208A.315.315,0,0,0,884.994,438.127Z" transform="translate(-862.176 -394.837)"/>
      <path id="Path_2034" data-name="Path 2034" d="M928.843,397.386l-1.8-2.509a.726.726,0,0,0-.965-.175l-2.667,1.761a.689.689,0,0,0-.193.944l1.652,2.481a.725.725,0,0,0,.958.2l2.817-1.726a.7.7,0,0,0,.31-.448A.686.686,0,0,0,928.843,397.386Z" transform="translate(-874.78 -382.709)"/>
      <path id="Path_2035" data-name="Path 2035" d="M921.711,402.321l-1.8-2.516a.726.726,0,0,0-.972-.175l-2.66,1.761a.689.689,0,0,0-.2.944l1.652,2.481a.725.725,0,0,0,.965.21l2.817-1.733a.7.7,0,0,0,.307-.445.686.686,0,0,0-.106-.526Z" transform="translate(-872.746 -384.192)"/>
      <path id="Path_2036" data-name="Path 2036" d="M914.6,407.254l-1.8-2.509a.726.726,0,0,0-.972-.175l-2.667,1.754a.689.689,0,0,0-.193.943l1.652,2.481a.725.725,0,0,0,.965.21l2.81-1.733a.7.7,0,0,0,.311-.444A.685.685,0,0,0,914.6,407.254Z" transform="translate(-870.719 -385.679)"/>
      <path id="Path_2037" data-name="Path 2037" d="M907.473,412.186l-1.8-2.509a.726.726,0,0,0-.965-.175l-2.667,1.754a.689.689,0,0,0-.193.944l1.652,2.509a.725.725,0,0,0,.958.21l2.817-1.726a.7.7,0,0,0,.325-.461A.687.687,0,0,0,907.473,412.186Z" transform="translate(-868.689 -387.165)"/>
      <path id="Path_2038" data-name="Path 2038" d="M900.565,417.367l-2.238-3.117a.322.322,0,0,0-.207-.134.327.327,0,0,0-.243.05l-3.275,2.16a.317.317,0,0,0-.093.44l2.052,3.089a.322.322,0,0,0,.206.138.328.328,0,0,0,.245-.047l3.461-2.1a.322.322,0,0,0,.161-.22A.316.316,0,0,0,900.565,417.367Z" transform="translate(-866.615 -388.586)"/>
      <path id="Path_2039" data-name="Path 2039" d="M894.215,421.737l-2.238-3.124a.341.341,0,0,0-.458-.077l-3.268,2.153a.324.324,0,0,0-.093.447l2.052,3.082a.334.334,0,0,0,.45.1l3.461-2.1a.322.322,0,0,0,.161-.22A.316.316,0,0,0,894.215,421.737Z" transform="translate(-864.805 -389.902)"/>
      <path id="Path_2040" data-name="Path 2040" d="M887.153,426.6l-2.238-3.124a.341.341,0,0,0-.458-.077l-3.275,2.153a.331.331,0,0,0-.093.447l2.059,3.082a.333.333,0,0,0,.45.1l3.453-2.1a.315.315,0,0,0,.169-.218A.309.309,0,0,0,887.153,426.6Z" transform="translate(-862.791 -391.365)"/>
      <path id="Path_2041" data-name="Path 2041" d="M880.314,431.357l-2.238-3.117a.33.33,0,0,0-.211-.135.335.335,0,0,0-.247.051l-3.275,2.16a.317.317,0,0,0-.086.44l2.052,3.082a.315.315,0,0,0,.2.145.321.321,0,0,0,.247-.047l3.453-2.1a.315.315,0,0,0,.169-.218A.31.31,0,0,0,880.314,431.357Z" transform="translate(-860.842 -392.799)"/>
      <path id="Path_2042" data-name="Path 2042" d="M878.154,442.86l-2.238-3.117a.334.334,0,0,0-.45-.077l-3.275,2.153a.315.315,0,0,0-.141.2.309.309,0,0,0,.048.239l2.052,3.089a.341.341,0,0,0,.45.1l3.461-2.1a.329.329,0,0,0,.161-.224A.323.323,0,0,0,878.154,442.86Z" transform="translate(-860.227 -396.265)"/>
      <path id="Path_2043" data-name="Path 2043" d="M871.314,447.6l-2.238-3.117a.322.322,0,0,0-.207-.134.328.328,0,0,0-.243.05l-3.275,2.16a.314.314,0,0,0-.141.2.309.309,0,0,0,.048.239l2.052,3.082a.334.334,0,0,0,.451.1l3.461-2.1a.322.322,0,0,0,.161-.22A.316.316,0,0,0,871.314,447.6Z" transform="translate(-858.277 -397.689)"/>
      <path id="Path_2044" data-name="Path 2044" d="M882.083,419.318l-2.145-2.935a.45.45,0,0,0-.608-.1l-3.089,2.034a.426.426,0,0,0-.187.272.418.418,0,0,0,.066.322l1.93,2.9a.428.428,0,0,0,.272.191.437.437,0,0,0,.329-.058l3.268-2.006a.435.435,0,0,0,.22-.272A.425.425,0,0,0,882.083,419.318Z" transform="translate(-861.367 -389.217)"/>
      <path id="Path_2045" data-name="Path 2045" d="M875.258,424.055l-2.109-2.935a.437.437,0,0,0-.28-.179.445.445,0,0,0-.328.068l-3.089,2.069a.419.419,0,0,0-.187.269.411.411,0,0,0,.065.318l1.93,2.907a.449.449,0,0,0,.6.133l3.268-2.006a.434.434,0,0,0,.215-.293.426.426,0,0,0-.086-.35Z" transform="translate(-859.432 -390.641)"/>
      <path id="Path_2046" data-name="Path 2046" d="M868.417,428.8l-2.109-2.942a.45.45,0,0,0-.608-.1l-3.089,2.034a.426.426,0,0,0-.187.272.418.418,0,0,0,.066.322l1.93,2.9a.429.429,0,0,0,.272.191.437.437,0,0,0,.329-.058l3.268-2.006a.426.426,0,0,0,.2-.277.419.419,0,0,0-.07-.331Z" transform="translate(-857.483 -392.068)"/>
      <path id="Path_2047" data-name="Path 2047" d="M861.625,433.6l-2.238-3.124a.334.334,0,0,0-.45-.077l-3.275,2.153a.324.324,0,0,0-.093.447l2.052,3.082a.341.341,0,0,0,.45.1l3.461-2.1a.309.309,0,0,0,.169-.219.3.3,0,0,0-.076-.264Z" transform="translate(-855.516 -393.473)"/>
      <path id="Path_2048" data-name="Path 2048" d="M940.707,387.568l-1.938-2.691a.726.726,0,0,0-.972-.168l-7.565,5.179a.689.689,0,0,0-.186.936l1.823,2.754a.716.716,0,0,0,.457.3.729.729,0,0,0,.537-.107l7.679-5.249A.688.688,0,0,0,940.707,387.568Z" transform="translate(-876.727 -379.698)"/>
      <path id="Path_2049" data-name="Path 2049" d="M871.451,435.878l-2.374-3.278a.322.322,0,0,0-.212-.134.327.327,0,0,0-.246.057l-8.165,5.591a.31.31,0,0,0-.086.433l2.231,3.376a.33.33,0,0,0,.213.142.335.335,0,0,0,.252-.051l8.3-5.682A.324.324,0,0,0,871.451,435.878Z" transform="translate(-856.884 -394.112)"/>
      <path id="Path_2050" data-name="Path 2050" d="M903.883,400.072l-2.188-3.131a.334.334,0,0,0-.451-.084l-18.132,11.965a.317.317,0,0,0-.093.44l2.238,3.355a.329.329,0,0,0,.213.142.335.335,0,0,0,.252-.051L903.8,400.519a.321.321,0,0,0,.138-.206.316.316,0,0,0-.052-.241Z" transform="translate(-863.34 -383.375)"/>
    </g>
    <path id="Path_2051" data-name="Path 2051" d="M952.451,401.271l-1.8-2.516a.726.726,0,0,0-.972-.175l-2.66,1.761a.689.689,0,0,0-.2.944l1.652,2.481a.725.725,0,0,0,.965.21l2.817-1.733a.7.7,0,0,0,.307-.445A.686.686,0,0,0,952.451,401.271Z" transform="translate(-311.237 -169.396)" fill="#464a5f"/>
    <path id="Path_2052" data-name="Path 2052" d="M945.711,405.916l-1.8-2.509a.726.726,0,0,0-.965-.175l-2.667,1.754a.689.689,0,0,0-.2.944l1.652,2.481a.725.725,0,0,0,.965.21l2.817-1.726a.7.7,0,0,0,.31-.448A.686.686,0,0,0,945.711,405.916Z" transform="translate(-309.316 -170.797)" fill="#464a5f"/>
    <path id="Path_2053" data-name="Path 2053" d="M938.711,410.794l-1.8-2.509a.726.726,0,0,0-.972-.175l-2.66,1.761a.689.689,0,0,0-.2.944l1.652,2.481a.725.725,0,0,0,.965.2l2.817-1.726a.7.7,0,0,0,.31-.448A.686.686,0,0,0,938.711,410.794Z" transform="translate(-307.321 -172.265)" fill="#464a5f"/>
    <path id="Path_2054" data-name="Path 2054" d="M931.569,415.723l-1.8-2.516a.726.726,0,0,0-.965-.175l-2.667,1.761a.7.7,0,0,0-.3.451.687.687,0,0,0,.116.527l1.652,2.481a.725.725,0,0,0,.965.21l2.81-1.733a.7.7,0,0,0,.321-.462A.686.686,0,0,0,931.569,415.723Z" transform="translate(-305.284 -173.748)" fill="#464a5f"/>
    <path id="Path_2055" data-name="Path 2055" d="M924.453,420.656l-1.8-2.509a.726.726,0,0,0-.965-.175l-2.667,1.754a.689.689,0,0,0-.193.944l1.644,2.481a.725.725,0,0,0,.965.21l2.817-1.733a.7.7,0,0,0,.307-.445A.686.686,0,0,0,924.453,420.656Z" transform="translate(-303.259 -175.236)" fill="#464a5f"/>
    <path id="Path_2056" data-name="Path 2056" d="M917.494,425.837l-2.238-3.117a.322.322,0,0,0-.207-.134.328.328,0,0,0-.243.05l-3.275,2.16a.315.315,0,0,0-.141.2.309.309,0,0,0,.048.239l2.052,3.082a.334.334,0,0,0,.451.1l3.46-2.1a.321.321,0,0,0,.161-.22A.316.316,0,0,0,917.494,425.837Z" transform="translate(-301.169 -176.657)" fill="#464a5f"/>
    <path id="Path_2057" data-name="Path 2057" d="M910.374,430.767l-2.238-3.117a.33.33,0,0,0-.211-.135.335.335,0,0,0-.247.051l-3.268,2.16a.315.315,0,0,0-.141.2.309.309,0,0,0,.048.239l2.052,3.089a.322.322,0,0,0,.206.138.328.328,0,0,0,.245-.047l3.461-2.1a.329.329,0,0,0,.157-.221A.323.323,0,0,0,910.374,430.767Z" transform="translate(-299.139 -178.141)" fill="#464a5f"/>
    <path id="Path_2058" data-name="Path 2058" d="M904.065,435.137l-2.238-3.124a.334.334,0,0,0-.45-.077l-3.275,2.125a.324.324,0,0,0-.093.447l2.052,3.082a.341.341,0,0,0,.45.1l3.461-2.1a.322.322,0,0,0,.145-.208A.316.316,0,0,0,904.065,435.137Z" transform="translate(-297.342 -179.457)" fill="#464a5f"/>
    <path id="Path_2059" data-name="Path 2059" d="M897,440.039l-2.238-3.1a.334.334,0,0,0-.45-.077l-3.275,2.153a.322.322,0,0,0-.142.2.316.316,0,0,0,.049.243L893,442.548a.341.341,0,0,0,.45.1l3.461-2.1a.322.322,0,0,0,.179-.232A.317.317,0,0,0,897,440.039Z" transform="translate(-295.329 -180.942)" fill="#464a5f"/>
    <path id="Path_2060" data-name="Path 2060" d="M890.164,444.757l-2.238-3.117a.322.322,0,0,0-.207-.134.327.327,0,0,0-.243.05l-3.275,2.16a.315.315,0,0,0-.141.2.309.309,0,0,0,.048.239l2.052,3.082a.322.322,0,0,0,.2.142.328.328,0,0,0,.246-.044l3.461-2.1a.322.322,0,0,0,.161-.22A.316.316,0,0,0,890.164,444.757Z" transform="translate(-293.379 -182.354)" fill="#464a5f"/>
    <path id="Path_2061" data-name="Path 2061" d="M883.325,449.5l-2.238-3.124a.334.334,0,0,0-.451-.077l-3.275,2.153a.324.324,0,0,0-.093.447l2.052,3.082a.341.341,0,0,0,.45.1l3.461-2.1a.322.322,0,0,0,.161-.22A.316.316,0,0,0,883.325,449.5Z" transform="translate(-291.431 -183.781)" fill="#464a5f"/>
    <path id="Path_2062" data-name="Path 2062" d="M876.484,454.227l-2.238-3.117a.322.322,0,0,0-.207-.134.328.328,0,0,0-.243.05l-3.275,2.16a.315.315,0,0,0-.141.2.309.309,0,0,0,.048.239l2.052,3.082a.322.322,0,0,0,.2.142.328.328,0,0,0,.246-.044l3.46-2.1a.322.322,0,0,0,.161-.22.316.316,0,0,0-.068-.262Z" transform="translate(-289.48 -185.205)" fill="#464a5f"/>
    <path id="Path_2063" data-name="Path 2063" d="M947.943,394.793l-1.8-2.516a.726.726,0,0,0-.965-.175l-2.667,1.761a.689.689,0,0,0-.193.944l1.644,2.481a.725.725,0,0,0,.965.21l2.817-1.733a.7.7,0,0,0,.307-.445A.686.686,0,0,0,947.943,394.793Z" transform="translate(-309.954 -167.446)" fill="#464a5f"/>
    <path id="Path_2064" data-name="Path 2064" d="M938.093,380.536l-1.8-2.509a.726.726,0,0,0-.965-.175l-2.667,1.754a.689.689,0,0,0-.193.944l1.652,2.481a.725.725,0,0,0,.958.21l2.817-1.726a.7.7,0,0,0,.31-.448.686.686,0,0,0-.11-.53Z" transform="translate(-307.146 -163.155)" fill="#464a5f"/>
    <path id="Path_2065" data-name="Path 2065" d="M941.233,399.4l-1.8-2.523a.726.726,0,0,0-.965-.175l-2.667,1.754a.689.689,0,0,0-.193.944l1.652,2.481a.725.725,0,0,0,.958.21l2.817-1.726a.689.689,0,0,0,.2-.965Z" transform="translate(-308.041 -168.831)" fill="#464a5f"/>
    <path id="Path_2066" data-name="Path 2066" d="M934.2,404.276l-1.773-2.509a.726.726,0,0,0-.965-.175l-2.667,1.754a.689.689,0,0,0-.193.95l1.644,2.481a.725.725,0,0,0,.965.2l2.817-1.726a.7.7,0,0,0,.294-.454.687.687,0,0,0-.123-.524Z" transform="translate(-306.045 -170.304)" fill="#464a5f"/>
    <path id="Path_2067" data-name="Path 2067" d="M927.071,409.211l-1.8-2.516a.726.726,0,0,0-.972-.175l-2.66,1.761a.689.689,0,0,0-.2.944l1.652,2.481a.725.725,0,0,0,.965.21l2.817-1.733a.7.7,0,0,0,.307-.445.686.686,0,0,0-.106-.526Z" transform="translate(-304.003 -171.787)" fill="#464a5f"/>
    <path id="Path_2068" data-name="Path 2068" d="M931.543,385.4l-1.8-2.523a.726.726,0,0,0-.965-.175l-2.667,1.754a.689.689,0,0,0-.193.944l1.652,2.481a.725.725,0,0,0,.958.21l2.817-1.726A.689.689,0,0,0,931.543,385.4Z" transform="translate(-305.28 -164.616)" fill="#464a5f"/>
    <path id="Path_2069" data-name="Path 2069" d="M924.5,390.283l-1.8-2.516a.726.726,0,0,0-.965-.175l-2.667,1.761a.689.689,0,0,0-.2.944l1.652,2.481a.725.725,0,0,0,.965.21l2.817-1.733a.7.7,0,0,0,.307-.445.686.686,0,0,0-.106-.526Z" transform="translate(-303.271 -166.088)" fill="#464a5f"/>
    <path id="Path_2070" data-name="Path 2070" d="M917.381,395.214l-1.8-2.509a.726.726,0,0,0-.972-.175l-2.66,1.754a.689.689,0,0,0-.2.944l1.652,2.488a.725.725,0,0,0,.965.21l2.81-1.733a.7.7,0,0,0,.314-.447A.686.686,0,0,0,917.381,395.214Z" transform="translate(-301.242 -167.574)" fill="#464a5f"/>
    <path id="Path_2071" data-name="Path 2071" d="M919.943,414.146l-1.8-2.509a.726.726,0,0,0-.965-.175l-2.667,1.74a.689.689,0,0,0-.193.944l1.652,2.481a.725.725,0,0,0,.958.21l2.817-1.733A.689.689,0,0,0,919.943,414.146Z" transform="translate(-301.973 -173.275)" fill="#464a5f"/>
    <path id="Path_2072" data-name="Path 2072" d="M912.821,419.076l-1.8-2.509a.726.726,0,0,0-.965-.175l-2.667,1.789a.689.689,0,0,0-.2.944l1.652,2.481a.725.725,0,0,0,.965.21l2.817-1.726a.7.7,0,0,0,.329-.464.687.687,0,0,0-.128-.55Z" transform="translate(-299.942 -174.76)" fill="#464a5f"/>
    <path id="Path_2073" data-name="Path 2073" d="M905.875,424.257l-2.238-3.117a.322.322,0,0,0-.207-.134.328.328,0,0,0-.243.05l-3.246,2.16a.315.315,0,0,0-.141.2.309.309,0,0,0,.048.239l2.052,3.082a.322.322,0,0,0,.2.142.328.328,0,0,0,.246-.044l3.461-2.1a.328.328,0,0,0,.141-.227.323.323,0,0,0-.077-.255Z" transform="translate(-297.865 -176.181)" fill="#464a5f"/>
    <path id="Path_2074" data-name="Path 2074" d="M899.563,428.6l-2.238-3.124a.341.341,0,0,0-.458-.077l-3.275,2.153a.331.331,0,0,0-.093.447l2.059,3.082a.333.333,0,0,0,.45.1l3.453-2.1a.316.316,0,0,0,.169-.218A.309.309,0,0,0,899.563,428.6Z" transform="translate(-296.057 -177.488)" fill="#464a5f"/>
    <path id="Path_2075" data-name="Path 2075" d="M892.495,433.517l-2.238-3.124a.334.334,0,0,0-.45-.077l-3.275,2.153a.324.324,0,0,0-.093.447L888.491,436a.341.341,0,0,0,.45.1L892.4,434a.308.308,0,0,0,.169-.219.3.3,0,0,0-.076-.264Z" transform="translate(-294.044 -178.97)" fill="#464a5f"/>
    <path id="Path_2076" data-name="Path 2076" d="M885.674,438.247l-2.216-3.117a.322.322,0,0,0-.207-.134.327.327,0,0,0-.243.05l-3.275,2.16a.317.317,0,0,0-.093.44l2.052,3.082a.333.333,0,0,0,.451.1l3.461-2.1a.314.314,0,0,0,.153-.225A.31.31,0,0,0,885.674,438.247Z" transform="translate(-292.106 -180.394)" fill="#464a5f"/>
    <path id="Path_2077" data-name="Path 2077" d="M929.5,397.511,927.708,395a.726.726,0,0,0-.972-.175l-2.667,1.761a.689.689,0,0,0-.193.944l1.652,2.481a.725.725,0,0,0,.965.2l2.81-1.726a.7.7,0,0,0,.307-.445A.686.686,0,0,0,929.5,397.511Z" transform="translate(-304.698 -168.264)" fill="#464a5f"/>
    <path id="Path_2078" data-name="Path 2078" d="M922.383,402.444l-1.8-2.509a.726.726,0,0,0-.965-.182l-2.667,1.761a.689.689,0,0,0-.193.944l1.652,2.481a.725.725,0,0,0,.958.21l2.817-1.733a.7.7,0,0,0,.307-.445A.686.686,0,0,0,922.383,402.444Z" transform="translate(-302.669 -169.75)" fill="#464a5f"/>
    <path id="Path_2079" data-name="Path 2079" d="M915.275,407.377l-1.823-2.5a.726.726,0,0,0-.972-.175l-2.6,1.747a.689.689,0,0,0-.2.944l1.652,2.481a.725.725,0,0,0,.965.21l2.817-1.726a.7.7,0,0,0,.29-.456A.687.687,0,0,0,915.275,407.377Z" transform="translate(-300.652 -171.239)" fill="#464a5f"/>
    <path id="Path_2080" data-name="Path 2080" d="M908.133,412.306l-1.8-2.509a.726.726,0,0,0-.965-.175l-2.667,1.754a.689.689,0,0,0-.193.944l1.652,2.481a.725.725,0,0,0,.958.21l2.817-1.726a.7.7,0,0,0,.31-.448A.686.686,0,0,0,908.133,412.306Z" transform="translate(-298.607 -172.721)" fill="#464a5f"/>
    <path id="Path_2081" data-name="Path 2081" d="M901.182,417.487l-2.238-3.117a.33.33,0,0,0-.211-.135.335.335,0,0,0-.247.051l-3.275,2.16a.317.317,0,0,0-.093.44l2.052,3.089a.329.329,0,0,0,.209.139.336.336,0,0,0,.248-.048l3.453-2.1a.322.322,0,0,0,.165-.218A.316.316,0,0,0,901.182,417.487Z" transform="translate(-296.518 -174.142)" fill="#464a5f"/>
    <path id="Path_2082" data-name="Path 2082" d="M894.883,421.857l-2.238-3.117a.322.322,0,0,0-.207-.134.327.327,0,0,0-.243.05l-3.253,2.153a.324.324,0,0,0-.093.447l2.052,3.082a.341.341,0,0,0,.45.1l3.461-2.1a.321.321,0,0,0,.149-.225A.317.317,0,0,0,894.883,421.857Z" transform="translate(-294.731 -175.458)" fill="#464a5f"/>
    <path id="Path_2083" data-name="Path 2083" d="M887.815,426.747l-2.238-3.124a.341.341,0,0,0-.458-.077l-3.268,2.153a.324.324,0,0,0-.093.447l2.052,3.082a.334.334,0,0,0,.451.1l3.461-2.1a.321.321,0,0,0,.161-.22A.316.316,0,0,0,887.815,426.747Z" transform="translate(-292.71 -176.931)" fill="#464a5f"/>
    <path id="Path_2084" data-name="Path 2084" d="M880.974,431.477l-2.238-3.117a.329.329,0,0,0-.211-.135.335.335,0,0,0-.247.051l-3.268,2.16a.315.315,0,0,0-.141.2.309.309,0,0,0,.048.239l2.052,3.089a.322.322,0,0,0,.206.138.328.328,0,0,0,.245-.047l3.461-2.1a.329.329,0,0,0,.157-.221A.323.323,0,0,0,880.974,431.477Z" transform="translate(-290.76 -178.355)" fill="#464a5f"/>
    <path id="Path_2085" data-name="Path 2085" d="M878.822,442.987l-2.238-3.124a.341.341,0,0,0-.458-.077l-3.275,2.153a.324.324,0,0,0-.093.447l2.052,3.082a.341.341,0,0,0,.45.1l3.461-2.1a.315.315,0,0,0,.169-.218A.309.309,0,0,0,878.822,442.987Z" transform="translate(-290.145 -181.821)" fill="#464a5f"/>
    <path id="Path_2086" data-name="Path 2086" d="M871.982,447.717l-2.238-3.117a.33.33,0,0,0-.211-.135.335.335,0,0,0-.247.051l-3.275,2.16a.317.317,0,0,0-.093.44l2.052,3.082a.329.329,0,0,0,.208.143.335.335,0,0,0,.25-.045l3.453-2.1a.315.315,0,0,0,.169-.218A.309.309,0,0,0,871.982,447.717Z" transform="translate(-288.196 -183.245)" fill="#464a5f"/>
    <path id="Path_2087" data-name="Path 2087" d="M882.75,419.445l-2.109-2.942a.45.45,0,0,0-.608-.1l-3.11,2.034a.427.427,0,0,0-.122.594l1.93,2.907a.45.45,0,0,0,.608.126l3.26-2.006a.427.427,0,0,0,.211-.272.418.418,0,0,0-.061-.336Z" transform="translate(-291.292 -174.773)" fill="#464a5f"/>
    <path id="Path_2088" data-name="Path 2088" d="M875.919,424.175l-2.109-2.935a.437.437,0,0,0-.28-.179.444.444,0,0,0-.328.068l-3.089,2.041a.42.42,0,0,0-.121.587l1.93,2.907a.457.457,0,0,0,.608.133l3.267-2.006a.441.441,0,0,0,.192-.283A.433.433,0,0,0,875.919,424.175Z" transform="translate(-289.351 -176.197)" fill="#464a5f"/>
    <path id="Path_2089" data-name="Path 2089" d="M869.064,428.915l-2.145-2.942a.443.443,0,0,0-.6-.1l-3.1,2.034a.427.427,0,0,0-.122.594l1.93,2.907a.45.45,0,0,0,.608.126l3.268-2.006a.429.429,0,0,0,.215-.27.418.418,0,0,0-.058-.338Z" transform="translate(-287.387 -177.625)" fill="#464a5f"/>
    <path id="Path_2090" data-name="Path 2090" d="M862.294,433.727l-2.238-3.124a.341.341,0,0,0-.458-.077l-3.275,2.153a.324.324,0,0,0-.086.447l2.052,3.082a.334.334,0,0,0,.451.1l3.461-2.1a.322.322,0,0,0,.161-.22.316.316,0,0,0-.068-.262Z" transform="translate(-285.436 -179.033)" fill="#464a5f"/>
    <path id="Path_2091" data-name="Path 2091" d="M941.371,387.715l-1.909-2.7a.726.726,0,0,0-.972-.168l-7.607,5.179a.689.689,0,0,0-.186.937l1.83,2.754a.716.716,0,0,0,.457.3.728.728,0,0,0,.537-.107l7.672-5.249A.689.689,0,0,0,941.371,387.715Z" transform="translate(-306.642 -165.261)" fill="#464a5f"/>
    <path id="Path_2092" data-name="Path 2092" d="M872.111,436l-2.374-3.278a.322.322,0,0,0-.212-.134.327.327,0,0,0-.245.057l-8.165,5.591a.317.317,0,0,0-.086.44l2.238,3.369a.329.329,0,0,0,.213.142.335.335,0,0,0,.252-.051l8.3-5.682A.324.324,0,0,0,872.111,436Z" transform="translate(-286.801 -179.669)" fill="#464a5f"/>
    <path id="Path_2093" data-name="Path 2093" d="M904.559,400.2l-2.145-3.11a.341.341,0,0,0-.458-.091l-18.125,11.951a.314.314,0,0,0-.141.2.309.309,0,0,0,.048.239l2.231,3.355a.329.329,0,0,0,.213.142.335.335,0,0,0,.252-.051l18.075-12.189A.317.317,0,0,0,904.559,400.2Z" transform="translate(-293.274 -168.938)" fill="#464a5f"/>
    <path id="Path_2094" data-name="Path 2094" d="M897.275,380.094,887.637,366.4a1.813,1.813,0,0,0-2.474-.461l-26.547,17.423a1.752,1.752,0,0,0-.757,1.122,1.722,1.722,0,0,0,.278,1.317l9.824,14.083a1.791,1.791,0,0,0,1.149.739,1.821,1.821,0,0,0,1.346-.278l26.362-17.829a1.738,1.738,0,0,0,.744-1.12A1.709,1.709,0,0,0,897.275,380.094Z" transform="translate(-285.904 -159.513)" opacity="0.1"/>
    <path id="Path_2095" data-name="Path 2095" d="M897.906,380.215l-9.638-13.691a1.821,1.821,0,0,0-2.474-.461L859.282,383.5a1.745,1.745,0,0,0-.764,1.12,1.716,1.716,0,0,0,.278,1.319l9.8,14.069a1.791,1.791,0,0,0,1.149.739,1.821,1.821,0,0,0,1.346-.278l26.376-17.829a1.737,1.737,0,0,0,.736-1.123A1.709,1.709,0,0,0,897.906,380.215Z" transform="translate(-286.092 -159.55)" fill="#939498"/>
    <path id="Path_2096" data-name="Path 2096" d="M962.914,415.227l-20.449-6.667L876.88,453.094l20.3,6.465a3.79,3.79,0,0,0,3.282-.475l62.64-42.577a.694.694,0,0,0,.345-.7A.7.7,0,0,0,962.914,415.227Z" transform="translate(-291.335 -172.435)" fill="#8fd03d"/>
  </g>
</svg>
