<svg xmlns="http://www.w3.org/2000/svg" width="16.84" height="17.55" viewBox="0 0 16.84 17.55">
  <g id="offer" transform="translate(-10.359 0.002)">
    <g id="Group_10139" data-name="Group 10139" transform="translate(10.359 -0.002)">
      <g id="Group_10138" data-name="Group 10138" transform="translate(0 0)">
        <path id="Path_2405" data-name="Path 2405" d="M26.387,9a.514.514,0,0,1,0-.455l.655-1.339a1.524,1.524,0,0,0-.657-2.023l-1.317-.7a.514.514,0,0,1-.267-.368l-.257-1.468A1.524,1.524,0,0,0,22.822,1.4l-1.476.209a.514.514,0,0,1-.432-.141L19.843.431a1.523,1.523,0,0,0-2.127,0L16.644,1.467a.514.514,0,0,1-.432.141L14.736,1.4a1.523,1.523,0,0,0-1.721,1.25l-.257,1.468a.514.514,0,0,1-.267.368l-1.317.7a1.524,1.524,0,0,0-.657,2.023l.655,1.339a.514.514,0,0,1,0,.455l-.655,1.339a1.524,1.524,0,0,0,.657,2.023l1.317.7a.514.514,0,0,1,.267.368l.257,1.468a1.523,1.523,0,0,0,1.5,1.266,1.565,1.565,0,0,0,.219-.015l1.476-.209a.514.514,0,0,1,.432.141l1.071,1.036a1.523,1.523,0,0,0,2.127,0l1.071-1.036a.515.515,0,0,1,.432-.141l1.476.209a1.523,1.523,0,0,0,1.721-1.25l.258-1.468a.514.514,0,0,1,.267-.368l1.317-.7a1.524,1.524,0,0,0,.657-2.023ZM16.754,4.218A1.856,1.856,0,1,1,14.9,6.074,1.858,1.858,0,0,1,16.754,4.218ZM15.8,12.471a.506.506,0,1,1-.716-.716l6.68-6.68a.506.506,0,0,1,.716.716Zm5.007.857a1.856,1.856,0,1,1,1.856-1.856A1.858,1.858,0,0,1,20.8,13.328Z" transform="translate(-10.359 0.002)" fill="#059762"/>
      </g>
    </g>
    <g id="Group_10141" data-name="Group 10141" transform="translate(19.96 10.629)">
      <g id="Group_10140" data-name="Group 10140" transform="translate(0)">
        <path id="Path_2406" data-name="Path 2406" d="M291.3,310.141a.843.843,0,1,0,.843.843A.844.844,0,0,0,291.3,310.141Z" transform="translate(-290.452 -310.141)" fill="#059762"/>
      </g>
    </g>
    <g id="Group_10143" data-name="Group 10143" transform="translate(15.911 5.23)">
      <g id="Group_10142" data-name="Group 10142" transform="translate(0)">
        <path id="Path_2407" data-name="Path 2407" d="M173.176,152.646a.843.843,0,1,0,.844.843A.844.844,0,0,0,173.176,152.646Z" transform="translate(-172.333 -152.646)" fill="#059762"/>
      </g>
    </g>
  </g>
</svg>
