<svg xmlns="http://www.w3.org/2000/svg" width="261.311" height="197.814" viewBox="0 0 261.311 197.814">
  <g id="qa" transform="translate(0 -62.206)">
    <g id="Group_9816" data-name="Group 9816" transform="translate(0 62.206)">
      <path id="Path_1896" data-name="Path 1896" d="M46.1,180.729C18.952,190.736,0,213.415,0,239.8c0,19.41,10.26,36.82,26.5,48.651l.009-.017-9.475,22.06C15.4,314.3,18.314,318.6,22.163,318c24.469-3.806,38.35-15.124,38.415-15.177a92.25,92.25,0,0,0,16.693,1.515,89.685,89.685,0,0,0,33.583-6.4Z" transform="translate(0 -120.238)" fill="#3a5"/>
      <path id="Path_1897" data-name="Path 1897" d="M93.983,174.927a86.948,86.948,0,0,0-9.781,2.964,78.573,78.573,0,0,0-6.393,30.981c0,39.377,29.551,72.984,71.138,86.21a82.01,82.01,0,0,0,10.505-5.125Z" transform="translate(-38.097 -117.397)" fill="#3a5"/>
      <path id="Path_1898" data-name="Path 1898" d="M272.105,217.553l.013.024c-.013-.024,4.592-9.2,4.592-9.2,17.309-15.765,31.779-34.5,31.779-57.581q0-2.294-.138-4.559C305.51,99.429,259.17,62.206,202.422,62.206c-56.678,0-102.974,37.131-105.919,83.858q-.148,2.35-.149,4.732c0,48.927,56.984,82.833,106.067,83.858a113.415,113.415,0,0,0,22.914-2.079c.087.071,19.143,15.608,52.73,20.832,5.284.822,6.234-7.462,6.234-7.462Z" transform="translate(-47.178 -62.206)" fill="#8fd03d"/>
      <g id="Group_9815" data-name="Group 9815" transform="translate(49.177 83.849)">
        <path id="Path_1899" data-name="Path 1899" d="M284.3,326.394a6.4,6.4,0,0,1-6.234,2.73c-29.448-4.581-47.724-17.088-51.842-20.15a2.632,2.632,0,0,0-2.027-.479,126.714,126.714,0,0,1-21.776,1.875c-56.678,0-102.971-37.131-105.916-83.858q-.149,2.351-.151,4.732c0,48.927,47.488,88.59,106.067,88.59a126.632,126.632,0,0,0,22.914-2.079c.087.071,19.143,15.608,52.73,20.832,5.284.822,9.29-5.079,7.046-10.3Z" transform="translate(-96.355 -226.504)" fill="#059762"/>
        <path id="Path_1900" data-name="Path 1900" d="M441.8,287.768a2.635,2.635,0,0,0-1.064,2.107v8.142c22.288-16.24,36.371-40.137,36.371-66.781q0-2.385-.152-4.74c-1.53,24.315-14.794,46.032-35.156,61.272Z" transform="translate(-264.974 -226.496)" fill="#8fd03d"/>
      </g>
    </g>
    <g id="Group_9817" data-name="Group 9817" transform="translate(89.739 123.375)">
      <path id="Path_1901" data-name="Path 1901" d="M366.533,237.746l3.754-13.474h19.392l3.754,13.474a3.943,3.943,0,0,0,7.6-2.117l-13.269-47.619a8.076,8.076,0,0,0-15.559,0l-13.269,47.618a3.944,3.944,0,0,0,7.6,2.117ZM379.8,190.128a.482.482,0,0,1,.041-.109.361.361,0,0,1,.277,0,.368.368,0,0,1,.045.112l7.316,26.257h-15Z" transform="translate(-265.415 -182.08)" fill="#f2fdff"/>
      <path id="Path_1902" data-name="Path 1902" d="M211.265,199.775a17.718,17.718,0,1,0-35.435,0v23.139a17.7,17.7,0,0,0,28.8,13.813l2.761,2.753a3.943,3.943,0,1,0,5.569-5.585l-3.4-3.392a17.609,17.609,0,0,0,1.711-7.589Zm-10.993,21.473a3.943,3.943,0,1,0-5.569,5.585l4.278,4.266a9.822,9.822,0,0,1-15.264-8.185V199.775a9.831,9.831,0,1,1,19.661,0v23.139a9.77,9.77,0,0,1-.1,1.33Z" transform="translate(-175.83 -182.057)" fill="#f2fdff"/>
      <path id="Path_1903" data-name="Path 1903" d="M270.184,231.145a11.981,11.981,0,0,0,10.42,9.484,13.5,13.5,0,0,0,1.575.092c5.443,0,10.7-3.32,14.891-9.279l4.514,7.3a3.944,3.944,0,0,0,6.708-4.149l-6.872-11.109c1.975-4.147,4.36-8.874,4.387-8.928A3.943,3.943,0,1,0,298.766,211c-.072.144-1.046,2.074-2.26,4.54l-4.672-7.553c.717-.822,1.549-1.816,2.384-2.9,3.413-4.427,5-7.833,5-10.72a12.309,12.309,0,1,0-24.617,0c0,2.887,1.59,6.293,5,10.72.634.822,1.265,1.59,1.846,2.274-4.67,4.87-13.036,15.03-11.27,23.784Zm16.729-41.2a4.427,4.427,0,0,1,4.422,4.421c-.018,1.178-1.912,4.2-4.422,7.252-2.509-3.052-4.4-6.073-4.422-7.251A4.427,4.427,0,0,1,286.912,189.945Zm-.722,23.909,6.244,10.095c-3.725,6.986-8,9.187-10.907,8.846a4.06,4.06,0,0,1-3.611-3.21C277.062,225.352,281.955,218.523,286.19,213.854Z" transform="translate(-221.91 -182.057)" fill="#f2fdff"/>
    </g>
  </g>
</svg>
