<svg xmlns="http://www.w3.org/2000/svg" width="1049" height="1049" viewBox="0 0 1049 1049">
  <g id="Group_10180" data-name="Group 10180" transform="translate(-7493 20349)">
    <rect id="Rectangle_937" data-name="Rectangle 937" width="1049" height="1049" transform="translate(7493 -20349)" fill="#028858"/>
    <g id="Group_10179" data-name="Group 10179" transform="translate(7563 -20051)">
      <circle id="Ellipse_375" data-name="Ellipse 375" cx="44.682" cy="44.682" r="44.682" transform="translate(203.505 281.137)" fill="#3a5"/>
      <path id="Path_2644" data-name="Path 2644" d="M360.7,519.474a44.686,44.686,0,0,0,74.454,47.29,44.686,44.686,0,1,1-74.454-47.29Z" transform="translate(-145.5 -223.5)" opacity="0.2"/>
      <path id="Path_2645" data-name="Path 2645" d="M248.31,325.819h.122l2.21,126.681h-4.665Z" fill="#8fd03d"/>
      <circle id="Ellipse_376" data-name="Ellipse 376" cx="90.087" cy="90.087" r="90.087" transform="translate(67.695 107)" fill="#3a5"/>
      <path id="Path_2646" data-name="Path 2646" d="M236.764,360.416a90.1,90.1,0,0,0,150.112,95.346,90.1,90.1,0,1,1-150.112-95.346Z" transform="translate(-145.5 -223.5)" opacity="0.2"/>
      <path id="Path_2647" data-name="Path 2647" d="M158.029,197.087h.248L162.732,452.5h-9.4Z" fill="#8fd03d"/>
      <rect id="Rectangle_929" data-name="Rectangle 929" width="412.922" height="122.408" transform="translate(338.809 320.3)" fill="#03754c"/>
      <rect id="Rectangle_930" data-name="Rectangle 930" width="48.147" height="97.11" transform="translate(521.196 345.597)" fill="#059762"/>
      <rect id="Rectangle_931" data-name="Rectangle 931" width="364.775" height="112.615" transform="translate(362.882 175.859)" fill="#03754c"/>
      <path id="Path_2648" data-name="Path 2648" d="M910.139,406.3H471.4a3.672,3.672,0,0,1-2.545-6.32L588.763,284.719v-50.2a3.676,3.676,0,0,1,3.672-3.672H616.1a3.676,3.676,0,0,1,3.672,3.672v20.4l9.057-8.706a81.373,81.373,0,0,1,110.8-1.842L912.594,399.892a3.673,3.673,0,0,1-2.455,6.4Z" transform="translate(-145.5 -223.5)" fill="#3a5"/>
      <path id="Path_2649" data-name="Path 2649" d="M459.176,204.421h0a23.257,23.257,0,0,1,23.257,23.257V259.1H435.919V227.678a23.257,23.257,0,0,1,23.257-23.257Z" fill="#059762"/>
      <path id="Path_2650" data-name="Path 2650" d="M545.27,204.829h0a23.257,23.257,0,0,1,23.257,23.257V259.5H522.012V228.086a23.258,23.258,0,0,1,23.257-23.257Z" fill="#fff"/>
      <path id="Path_2651" data-name="Path 2651" d="M631.363,205.237h0a23.257,23.257,0,0,1,23.257,23.257v31.418H608.106V228.494A23.257,23.257,0,0,1,631.363,205.237Z" fill="#fff"/>
      <path id="Path_2652" data-name="Path 2652" d="M665.637,344.373h0a23.257,23.257,0,0,1,23.257,23.257v31.418H642.38V367.63A23.257,23.257,0,0,1,665.637,344.373Z" fill="#059762"/>
      <path id="Path_2653" data-name="Path 2653" d="M435.511,344.373h0a23.257,23.257,0,0,1,23.257,23.257v31.418H412.254V367.63a23.257,23.257,0,0,1,23.257-23.257Z" fill="#059762"/>
      <path id="Path_2654" data-name="Path 2654" d="M957.557,545.711,880.1,511.437a3.264,3.264,0,0,0-1.321-.279H509.618a3.263,3.263,0,0,0-1.23.24l-84.314,34.274a3.264,3.264,0,0,0,1.229,6.288h21.876V664.575h-2.448V676H936.809V664.575h-4.08V551.96h23.507a3.264,3.264,0,0,0,1.321-6.249ZM926.2,664.575H453.707V551.96H926.2Z" transform="translate(-145.5 -223.5)" fill="#3a5"/>
      <rect id="Rectangle_932" data-name="Rectangle 932" width="59.572" height="9.793" transform="translate(428.575 254.608)" fill="#8fd03d"/>
      <rect id="Rectangle_933" data-name="Rectangle 933" width="59.572" height="9.793" transform="translate(515.892 254.608)" fill="#cacaca"/>
      <rect id="Rectangle_934" data-name="Rectangle 934" width="59.572" height="9.793" transform="translate(603.209 254.608)" fill="#8fd03d"/>
      <rect id="Rectangle_935" data-name="Rectangle 935" width="59.572" height="9.793" transform="translate(635.851 395.784)" fill="#8fd03d"/>
      <rect id="Rectangle_936" data-name="Rectangle 936" width="59.572" height="9.793" transform="translate(404.909 395.784)" fill="#8fd03d"/>
      <path id="Path_2655" data-name="Path 2655" d="M1053.5,676.5h-907a1,1,0,0,1,0-2h907a1,1,0,0,1,0,2Z" transform="translate(-145.5 -223.5)" fill="#3f3d56"/>
      <path id="Path_2656" data-name="Path 2656" d="M825.366,397.68c0,.64-.01,1.29-.02,1.93-.01.77-.03,1.53-.06,2.3-.03.67-.06,1.33-.1,1.99-.12,2.21-.31,4.41-.57,6.62-.06.56-.13,1.11-.21,1.67-.06.43-.12.87-.19,1.31-.07.49-.14.98-.22,1.47q-.24,1.56-.54,3.12c-.1.52-.2,1.04-.31,1.56-.21,1.03-.44,2.07-.68,3.1-.02.08-.04.17-.06.25-.12.51-.24,1.01-.37,1.52-.04.15-.07.29-.12.44-.09.38-.19.76-.29,1.14-.14.53-.28,1.05-.43,1.58-.24.82-.48,1.63-.73,2.45a2.628,2.628,0,0,0-.08.26c-.48,1.55-.99,3.08-1.55,4.6-.29.8-.6,1.61-.91,2.41s-.63,1.6-.96,2.39c-.32.77-.65,1.54-.98,2.3-.08.18-.16.36-.25.54-.35.79-.71,1.56-1.08,2.33-.01.01-.01.03-.02.04-.29.62-.6,1.24-.91,1.85a.074.074,0,0,1-.02.05c-.3.6-.61,1.2-.93,1.79l-.51.97-.06.11c-.64,1.19-1.3,2.37-2,3.54-.15.26-.3.52-.45.77s-.31.52-.47.77q-.15.27-.33.54c-.21.34-.42.69-.64,1.03-.04.07-.09.14-.13.21-.38.59-.76,1.17-1.14,1.76-.47.71-.95,1.41-1.44,2.11l-10.86,17.38-.47-.39-.13-.12h-.01l-.43-.36-1.18-1c-.36.35-.71.7-1.07,1.04-.14.14-.29.27-.43.41-.11.1-.21.2-.32.3a104.718,104.718,0,0,1-69.98,29.75h-.03a114.3,114.3,0,0,1-57.03-13.46c-.39-.2-.77-.4-1.15-.63-2.28-1.24-4.51-2.55-6.7-3.95-.01-.01-.02-.01-.03-.02q-3.81-2.7-7.44-5.76a109.927,109.927,0,0,1-38.93-89.79c.03-.67.07-1.33.12-2q.24-3.63.74-7.23c.09-.67.19-1.34.29-2h213.78q.63,4.59.87,9.23C825.316,393.83,825.366,395.75,825.366,397.68Z" transform="translate(-145.5 -223.5)" fill="#03754c"/>
      <path id="Path_2657" data-name="Path 2657" d="M824.346,382.67a108.092,108.092,0,0,0-213.78,0c-.1.66-.2,1.33-.29,2q-.5,3.6-.74,7.23H825.217Q824.976,387.265,824.346,382.67Z" transform="translate(-145.5 -223.5)" fill="#059762"/>
      <path id="Path_2658" data-name="Path 2658" d="M724.459,494.047H662.521V444.5c1.143-22.643,20.5-24.471,38.68-23.256A23.256,23.256,0,0,1,724.459,444.5Z" transform="translate(-145.5 -223.5)" fill="#8fd03d"/>
      <path id="Path_2659" data-name="Path 2659" d="M662.516,458.82v.01c0,.01.01.01.02.01Zm-24.91-76.15c-.04.25-.09.5-.13.75.04-.25.09-.5.14-.75Zm-1.24,9.23c-.03.38-.06.76-.08,1.14q.03-.57.09-1.14a1.463,1.463,0,0,1,.01-.21C636.376,391.76,636.376,391.83,636.366,391.9Zm26.15,66.93c0,.01.01.01.02.01l-.02-.02Zm-24.91-76.16c-.04.25-.09.5-.13.75.04-.25.09-.5.14-.75Zm-1.32,10.37q.03-.57.09-1.14a1.463,1.463,0,0,1,.01-.21c-.01.07-.01.14-.02.21C636.336,392.28,636.306,392.66,636.286,393.04ZM945.226,577a6.768,6.768,0,0,0-.62-.58l-.01-.01-49.52-41.79-1.28-1.08-4.87-4.11-1.22-1.03-6.94-5.86-1.9-1.6-3.929-3.32-2.01-1.7-18.96-15.99L843.1,490.76l-1.46-1.23L809.61,462.5c.49-.7.97-1.4,1.44-2.11.38-.59.76-1.17,1.14-1.76.04-.07.09-.14.13-.21.22-.34.43-.69.64-1.03q.18-.27.33-.54c.16-.25.32-.51.47-.77s.3-.51.45-.77c.7-1.17,1.36-2.35,2-3.54l.06-.11.51-.97c.32-.59.63-1.19.93-1.79a.075.075,0,0,0,.02-.05c.31-.61.62-1.23.91-1.85.01-.01.01-.03.02-.04.37-.77.73-1.54,1.08-2.33.09-.18.17-.36.25-.54.33-.76.66-1.53.98-2.3.33-.79.65-1.59.96-2.39s.62-1.61.91-2.41q.825-2.295,1.55-4.6a2.594,2.594,0,0,1,.08-.26c.25-.82.49-1.63.73-2.45.15-.53.29-1.05.43-1.58.1-.38.2-.76.29-1.14.05-.15.08-.29.12-.44.13-.51.25-1.01.37-1.52.02-.08.04-.17.06-.25.24-1.03.47-2.07.68-3.1.11-.52.21-1.04.31-1.56.19-1.04.38-2.08.54-3.12.08-.49.15-.98.22-1.47.07-.44.13-.88.19-1.31.08-.56.15-1.11.21-1.67.26-2.21.45-4.41.57-6.62.04-.66.07-1.32.1-1.99.03-.77.05-1.53.06-2.3.01-.64.02-1.29.02-1.93,0-1.93-.05-3.85-.15-5.78q-.24-4.635-.87-9.23a110.052,110.052,0,0,0-217.78-2c-.1.66-.2,1.33-.29,2q-.5,3.6-.74,7.23c-.05.67-.09,1.33-.12,2a109.927,109.927,0,0,0,38.93,89.79q3.63,3.06,7.44,5.76c.01.01.02.01.03.02.85.6,1.7,1.19,2.56,1.77,1.37.9,2.75,1.78,4.14,2.62.11.06.22.13.33.19,1.2.72,2.41,1.41,3.62,2.08h.01a108.158,108.158,0,0,0,13.99,6.44,110.384,110.384,0,0,0,44.23,6.94h.03a109.761,109.761,0,0,0,49.91-14.77c2.21-1.28,4.39-2.65,6.52-4.11.53-.36,1.07-.73,1.59-1.1.64-.45,1.28-.92,1.92-1.39.01,0,.01-.01.02-.01a1.437,1.437,0,0,1,.15-.11c.43-.33.87-.66,1.29-.98.11-.08.22-.16.33-.25a.475.475,0,0,0,.08-.07c.25-.18.49-.38.74-.57s.49-.39.74-.59a.951.951,0,0,0,.12-.09c.28-.23.56-.45.84-.68s.57-.47.84-.7.55-.46.83-.7c.24-.2.49-.41.73-.63.08-.06.15-.13.23-.2a.718.718,0,0,1,.1-.08c.33-.28.65-.57.97-.86.08-.07.15-.14.23-.21.49-.44.98-.88,1.46-1.34l.34-.31c.11-.1.21-.2.32-.3.14-.14.29-.27.43-.41.36-.34.71-.69,1.07-1.04l1.18,1,.43.36h.01l.13.12.47.39,6.98,5.9.15.13.12.09.79.67,1.58,1.34,1.58,1.33.23.19,7.35,6.2,1.02.86,7.09,5.98,36.7,30.97,1.28,1.08L913.846,577l12.88,10.87,4.79,4.04a10.133,10.133,0,0,0,14.29-1.2,9.844,9.844,0,0,0,1.69-2.84A10.091,10.091,0,0,0,945.226,577ZM655.556,345.19a82.447,82.447,0,0,1,143.95,37.48c.13.67.25,1.33.36,2,.41,2.39.71,4.81.89,7.23.05.67.1,1.33.13,2,.09,1.5.13,3.01.13,4.51a82.08,82.08,0,0,1-4.46,26.74v.01a82.008,82.008,0,0,1-14.97,26.38c-.14.16-.28.33-.43.49-1.32,1.56-2.71,3.06-4.14,4.49-.01.01-.02.03-.03.04-.49.49-.99.99-1.49,1.45-1.02.99-2.06,1.93-3.12,2.83q-2.385,2.085-4.89,3.91c-.56.41-1.12.81-1.69,1.21s-1.13.78-1.7,1.16c-1.14.76-2.3,1.49-3.47,2.18-.58.35-1.18.69-1.77,1.02s-1.19.66-1.79.97-1.2.63-1.81.93c-1.21.61-2.43,1.18-3.67,1.71q-.93.42-1.86.78c-.39.16-.77.32-1.16.46a3.776,3.776,0,0,1-.47.18q-.315.135-.63.24a1.812,1.812,0,0,1-.21.08c-.43.17-.85.32-1.29.47-.63.23-1.26.44-1.9.64s-1.27.41-1.91.59c-.64.2-1.29.38-1.93.55s-1.29.35-1.94.5c-.69.18-1.38.34-2.08.49-.61.14-1.21.26-1.82.37-.57.12-1.15.22-1.72.32-.8.14-1.6.27-2.41.38-.44.07-.87.13-1.31.17-.19.03-.37.05-.55.07-.56.08-1.12.14-1.67.19-.15.01-.29.03-.43.04-.61.06-1.23.11-1.84.16-1.31.09-2.61.15-3.92.18-.66.01-1.33.02-1.99.02s-1.32-.01-1.98-.03c0,0,0,.01-.01,0-.01.01-.01.01-.02,0a.014.014,0,0,1-.01,0,.014.014,0,0,1-.01,0,.17.17,0,0,1-.1,0c-.47,0-.94-.02-1.4-.05-.34-.01-.69-.02-1.04-.05q-.7-.03-1.41-.09c-.15,0-.3-.02-.45-.03a1.491,1.491,0,0,1-.21-.02c-.48-.04-.97-.08-1.45-.13-.24-.02-.49-.04-.73-.07-.73-.08-1.46-.17-2.18-.27-.82-.1-1.64-.22-2.45-.37-.38-.05-.75-.12-1.12-.19q-.735-.12-1.47-.27c-.51-.1-1.02-.2-1.53-.32-.41-.09-.83-.18-1.24-.28-.2-.04-.4-.09-.59-.14-1.05-.25-2.09-.52-3.12-.82-.65-.18-1.3-.37-1.94-.57-.88-.27-1.75-.56-2.62-.87-.34-.11-.67-.23-1.01-.36-.34-.11-.67-.24-1.01-.37-.31-.11-.62-.23-.92-.35-.5-.19-.99-.39-1.48-.59-1.01-.41-2-.84-2.99-1.3-.56-.27-1.12-.53-1.67-.8q-3.255-1.575-6.41-3.5c-.52-.31-1.04-.64-1.56-.97-.65-.4-1.28-.82-1.91-1.24-.35-.24-.69-.47-1.03-.71-.63-.44-1.25-.89-1.86-1.34-.32-.23-.64-.47-.95-.71-1.11-.84-2.2-1.72-3.27-2.62-.51-.43-1.02-.87-1.52-1.32-.21-.18-.42-.37-.63-.56-.24-.22-.48-.43-.71-.66l-.02-.02c-.35-.31-.7-.64-1.04-.97-.53-.5-1.05-1.01-1.55-1.53-.52-.51-1.02-1.04-1.51-1.56s-.98-1.05-1.45-1.59-.95-1.07-1.41-1.62c-.45-.52-.89-1.06-1.31-1.59q-1.53-1.89-2.92-3.85c-.43-.6-.84-1.2-1.24-1.81-.43-.62-.84-1.25-1.23-1.88-.41-.63-.8-1.27-1.18-1.92a.207.207,0,0,0-.04-.06c-.75-1.27-1.47-2.55-2.14-3.85q-1.035-1.98-1.95-4c-.31-.67-.61-1.35-.89-2.03-.58-1.37-1.12-2.74-1.62-4.13-.25-.67-.48-1.34-.71-2.02a.5.5,0,0,0-.04-.13c-.46-1.38-.88-2.77-1.25-4.17-.01-.02-.01-.04-.02-.06-.19-.69-.37-1.38-.53-2.08-.16-.61-.3-1.22-.43-1.84-.15-.69-.3-1.38-.43-2.08-.07-.36-.14-.72-.2-1.08-.06-.3-.11-.61-.16-.91s-.1-.61-.15-.92q-.15-.915-.27-1.83c-.1-.72-.18-1.44-.26-2.17-.09-.87-.17-1.74-.24-2.62-.05-.59-.08-1.19-.11-1.79-.03-.55-.06-1.1-.07-1.65a.138.138,0,0,1,0-.09.014.014,0,0,1,0-.01.014.014,0,0,1,0-.01c-.01-.01-.01-.01,0-.02a.014.014,0,0,1,0-.01.014.014,0,0,1,0-.01c-.01-.22-.02-.44-.02-.66q-.03-.975-.03-1.95c0-.59.01-1.17.02-1.76q.03-1.23.09-2.46c0-.18.02-.35.03-.53s.02-.35.03-.53q.03-.57.09-1.14a1.463,1.463,0,0,1,.01-.21c.03-.43.07-.86.11-1.29.08-.86.18-1.73.29-2.59.06-.43.11-.86.18-1.29.04-.3.09-.61.14-.92s.09-.62.15-.93c.07-.41.14-.83.22-1.25.04-.25.09-.5.14-.75q.285-1.5.63-3c.23-1.01.49-2.01.77-3.01s.57-2.02.89-3.03c.15-.51.31-1.01.49-1.51.33-1.01.68-2.01,1.07-3,.18-.49.37-.99.58-1.48.4-.99.82-1.98,1.25-2.95.22-.49.44-.98.68-1.47.45-.97.92-1.94,1.43-2.89.49-.97,1.02-1.92,1.56-2.86s1.1-1.88,1.69-2.81c.27-.46.57-.93.88-1.38.6-.92,1.23-1.84,1.87-2.74C652.7,348.72,654.086,346.93,655.556,345.19Zm-19.19,46.71c-.03.38-.06.76-.08,1.14q.03-.57.09-1.14a1.463,1.463,0,0,1,.01-.21C636.376,391.76,636.376,391.83,636.366,391.9Zm1.24-9.23c-.04.25-.09.5-.13.75.04-.25.09-.5.14-.75Zm24.91,76.15v.01c0,.01.01.01.02.01Z" transform="translate(-145.5 -223.5)" fill="#fff"/>
      <path id="Path_2660" data-name="Path 2660" d="M665.4,461.379a82.455,82.455,0,0,1-13.991-110.84q-2.365,2.381-4.572,4.988A82.45,82.45,0,1,0,772.864,461.87q2.2-2.61,4.148-5.346A82.455,82.455,0,0,1,665.4,461.379Z" transform="translate(-145.5 -223.5)" opacity="0.3"/>
    </g>
  </g>
</svg>
