<svg xmlns="http://www.w3.org/2000/svg" width="482.151" height="419.054" viewBox="0 0 482.151 419.054">
  <g id="Group_343" data-name="Group 343" transform="translate(-0.012)">
    <path id="Path_304" data-name="Path 304" d="M928.952,215.509c-.259.38-.524.753-.789,1.127l-.608-1.223-.1-.2-.6-1.205-15.34-30.915-.006-.006-26-52.383V130.7l-.6-1.2v-.006l-12.87-25.926-.608-1.229q.687.018,1.374.054l.615,1.235,12.834,25.866.006.006.6,1.2v.006L912.2,181.756v.006l.6,1.2v.006l15.34,30.891.2.416Z" transform="translate(-466.802 -102.308)" fill="#3f3d56"/>
    <path id="Path_305" data-name="Path 305" d="M887.534,148.624H772.73c.307-.4.62-.807.946-1.205H886.588C886.913,147.816,887.226,148.22,887.534,148.624Z" transform="translate(-427.57 -120.227)" fill="#3f3d56"/>
    <path id="Path_306" data-name="Path 306" d="M967.922,234.159c-.036.4-.078.807-.133,1.205H938.38v-1.205Z" transform="translate(-493.413 -154.705)" fill="#3f3d56"/>
    <path id="Path_307" data-name="Path 307" d="M779.185,140.828V238.99c-.416-.44-.813-.886-1.205-1.332v-95.5C778.372,141.714,778.769,141.268,779.185,140.828Z" transform="translate(-429.657 -117.608)" fill="#3f3d56"/>
    <rect id="Rectangle_257" data-name="Rectangle 257" width="112.106" height="1.205" transform="translate(348.926 111.7)" fill="#3f3d56"/>
    <path id="Path_308" data-name="Path 308" d="M865.256,180.456c0,10.27-15.1,39.232-20.777,49.748a2.407,2.407,0,0,1-4.238,0c-5.673-10.515-20.777-39.477-20.777-49.748a22.9,22.9,0,1,1,45.791,0Z" transform="translate(-446.146 -124.258)" fill="#059762"/>
    <circle id="Ellipse_47" data-name="Ellipse 47" cx="10.243" cy="10.243" r="10.243" transform="translate(385.971 45.955)" fill="#fff"/>
    <circle id="Ellipse_48" data-name="Ellipse 48" cx="4.218" cy="4.218" r="4.218" transform="translate(391.997 108.617)" fill="#8fd03d"/>
    <path id="Path_309" data-name="Path 309" d="M333.237,627.8c.181.084.367.169.554.241-.169-.054-.337-.108-.5-.163q-3.579-1.184-7.1-2.513-5.666-2.124-11.182-4.609-3.941-1.771-7.809-3.718a196.6,196.6,0,0,1-59.541-46.08q-2.278-2.6-4.465-5.3-1.861-2.287-3.645-4.639A191.918,191.918,0,0,1,221.591,532.5,196.2,196.2,0,0,1,199.9,440.377c.169-10.845,1.307-21.914,5.863-31.753,3.766-8.128,10.188-15.34,18.274-18.919.675-.3,1.362-.578,2.061-.819a26.294,26.294,0,0,1,3.284-.946c11.556-2.543,23.757,2.657,32.367,10.773s14.262,18.823,19.461,29.457a746.882,746.882,0,0,1,42.236,105.079c.127.41.253.813.38,1.217a54.582,54.582,0,0,0-11.239,10.908l-5.9,9.549a53.8,53.8,0,0,0-3.02,7.7q-.515,1.663-.91,3.374a54.239,54.239,0,0,0,30.475,61.8Z" transform="translate(-199.874 -215.572)" fill="#059762" opacity="0.52"/>
    <path id="Path_310" data-name="Path 310" d="M441.081,792.443l-.042.211-.012.048c0-.018-.006-.03-.006-.048-.012-.078-.018-.157-.03-.235C441.02,792.425,441.05,792.437,441.081,792.443Z" transform="translate(-295.709 -376.604)" fill="#f2f2f2"/>
    <path id="Path_311" data-name="Path 311" d="M318.835,561.734c.253.524.506,1.048.765,1.567q-.515,1.663-.91,3.374c-.271-.56-.548-1.127-.819-1.687q-6.615-13.566-12.87-27.294c-7.182-15.683-14.117-31.475-21.064-47.255L262,440.6q-10.963-24.926-21.932-49.84a1.428,1.428,0,0,1-.1-.374c-.127-1.157,1.512-1.994,2.061-.819a.13.13,0,0,1,.018.03q1.374,3.1,2.735,6.206,10.963,24.917,21.932,49.84,10.927,24.827,21.859,49.659c6.923,15.726,13.864,31.445,21.082,47.032Q314.163,552.075,318.835,561.734Z" transform="translate(-215.802 -216.251)" fill="#fff"/>
    <path id="Path_312" data-name="Path 312" d="M430.874,792.741c-.4-.633-.807-1.259-1.205-1.892-.343-.536-.681-1.073-1.018-1.609-.084-.133-.169-.259-.241-.392q1.663.515,3.338.988c.09.151.187.307.289.458.271.428.542.862.819,1.289.042.072.078.139.109.2C433.441,792.952,431.628,793.91,430.874,792.741Z" transform="translate(-290.708 -375.185)" fill="#fff"/>
    <path id="Path_313" data-name="Path 313" d="M336.97,725.468c.494.693.982,1.386,1.464,2.085-.838.187-1.669.368-2.512.542-.669.133-1.338.265-2.006.386A113.7,113.7,0,0,1,211.447,667.6c-2.838-5.676-5.236-11.731-5.525-18.07a22.242,22.242,0,0,1,4.38-14.762c.265-.337.548-.663.843-.982a16.492,16.492,0,0,1,1.452-1.374,18.936,18.936,0,0,1,11.382-4.127,26.251,26.251,0,0,1,8.333.982c6.664,1.892,12.484,5.923,18.057,10.044A433.192,433.192,0,0,1,303.7,685.546c.542.56,1.091,1.133,1.627,1.7a54.577,54.577,0,0,0,30.3,36.332.3.3,0,0,1,.054.078C336.12,724.257,336.548,724.86,336.97,725.468Z" transform="translate(-202.263 -311.353)" fill="#8fd03d" opacity="0.52"/>
    <path id="Path_314" data-name="Path 314" d="M425.96,793.183c-.03-.042-.06-.09-.09-.133.018-.006.03-.006.048-.012Z" transform="translate(-289.699 -376.85)" fill="#f2f2f2"/>
    <path id="Path_315" data-name="Path 315" d="M213.283,638.5l24.844,19.954,24.844,19.954c7.868,6.32,15.731,12.646,23.692,18.849,7.891,6.148,15.88,12.174,24.057,17.938s16.519,11.25,25.126,16.326q1.608.948,3.227,1.876c.747.429,1.469-.7.716-1.136-8.667-4.973-17.081-10.377-25.294-16.065s-16.247-11.671-24.162-17.784c-7.957-6.146-15.8-12.433-23.644-18.729q-12.378-9.94-24.754-19.882l-24.844-19.954L214,637.362c-.672-.54-1.384.6-.716,1.136Z" transform="translate(-205.093 -314.915)" fill="#fff"/>
    <path id="Path_316" data-name="Path 316" d="M778.424,627.8c-.181.084-.367.169-.554.241.169-.054.337-.108.5-.163q3.579-1.184,7.1-2.513,5.666-2.124,11.182-4.609,3.941-1.771,7.809-3.718a196.6,196.6,0,0,0,59.541-46.08q2.277-2.6,4.465-5.3,1.861-2.287,3.645-4.639A191.922,191.922,0,0,0,890.071,532.5a196.2,196.2,0,0,0,21.691-92.125c-.169-10.845-1.307-21.914-5.862-31.753-3.766-8.128-10.188-15.34-18.274-18.919-.675-.3-1.362-.578-2.061-.819a26.3,26.3,0,0,0-3.284-.946c-11.556-2.543-23.757,2.657-32.367,10.773s-14.261,18.823-19.461,29.457a746.889,746.889,0,0,0-42.236,105.079c-.127.41-.253.813-.38,1.217a54.58,54.58,0,0,1,11.239,10.908l5.9,9.549a53.808,53.808,0,0,1,3.02,7.7q.515,1.663.91,3.374a54.239,54.239,0,0,1-30.475,61.8Z" transform="translate(-429.613 -215.572)" fill="#3a5" opacity="0.52"/>
    <path id="Path_317" data-name="Path 317" d="M758.86,792.443l.042.211.012.048c0-.018.006-.03.006-.048.012-.078.018-.157.03-.235C758.92,792.425,758.89,792.437,758.86,792.443Z" transform="translate(-422.057 -376.604)" fill="#f2f2f2"/>
    <path id="Path_318" data-name="Path 318" d="M828.625,561.734c-.253.524-.506,1.048-.765,1.567q.515,1.663.91,3.374c.271-.56.548-1.127.819-1.687q6.616-13.566,12.87-27.294c7.182-15.683,14.117-31.475,21.064-47.255l21.938-49.84q10.963-24.926,21.932-49.84a1.428,1.428,0,0,0,.1-.374c.127-1.157-1.512-1.994-2.061-.819a.127.127,0,0,0-.018.03q-1.374,3.1-2.735,6.206-10.963,24.917-21.932,49.84Q869.822,470.467,858.89,495.3c-6.923,15.726-13.864,31.445-21.082,47.032Q833.3,552.075,828.625,561.734Z" transform="translate(-449.483 -216.251)" fill="#fff"/>
    <path id="Path_319" data-name="Path 319" d="M766.069,792.741c.4-.633.807-1.259,1.2-1.892.343-.536.681-1.073,1.018-1.609.084-.133.169-.259.241-.392q-1.663.515-3.338.988c-.09.151-.187.307-.289.458-.271.428-.542.862-.819,1.289-.042.072-.078.139-.109.2C763.5,792.952,765.316,793.91,766.069,792.741Z" transform="translate(-424.06 -375.185)" fill="#fff"/>
    <path id="Path_320" data-name="Path 320" d="M775.594,725.468c-.494.693-.982,1.386-1.464,2.085.838.187,1.669.368,2.512.542.669.133,1.338.265,2.006.386A113.7,113.7,0,0,0,901.116,667.6c2.838-5.676,5.236-11.731,5.525-18.07a22.242,22.242,0,0,0-4.38-14.762c-.265-.337-.548-.663-.843-.982a16.487,16.487,0,0,0-1.452-1.374,18.936,18.936,0,0,0-11.382-4.127,26.251,26.251,0,0,0-8.333.982c-6.664,1.892-12.484,5.923-18.057,10.044a433.184,433.184,0,0,0-53.329,46.237c-.542.56-1.091,1.133-1.627,1.7a54.577,54.577,0,0,1-30.3,36.332.3.3,0,0,0-.054.078C776.443,724.257,776.016,724.86,775.594,725.468Z" transform="translate(-428.126 -311.353)" fill="#8fd03d" opacity="0.52"/>
    <path id="Path_321" data-name="Path 321" d="M773.98,793.183c.03-.042.06-.09.09-.133-.018-.006-.03-.006-.048-.012Z" transform="translate(-428.067 -376.85)" fill="#f2f2f2"/>
    <path id="Path_322" data-name="Path 322" d="M902.874,638.5,878.03,658.453l-24.844,19.954c-7.868,6.32-15.731,12.646-23.692,18.849-7.891,6.148-15.88,12.174-24.057,17.938s-16.519,11.25-25.126,16.326q-1.608.948-3.227,1.876c-.747.429-1.469-.7-.716-1.136,8.667-4.973,17.081-10.377,25.294-16.065s16.247-11.671,24.162-17.784c7.957-6.146,15.8-12.433,23.644-18.729q12.378-9.94,24.754-19.882l24.844-19.954,3.092-2.483c.672-.54,1.384.6.716,1.136Z" transform="translate(-428.889 -314.915)" fill="#fff"/>
    <path id="Path_323" data-name="Path 323" d="M564.53,459.637a3.887,3.887,0,0,0-2.252,1.983l-3.094,6.294-.828,1.683a3.923,3.923,0,0,0,1.781,5.245l23.981,11.8,42.528,20.914a3.923,3.923,0,0,0,5.109-1.532c.05-.083.092-.164.136-.249l2.369-4.816,1.556-3.166a3.912,3.912,0,0,0-1.789-5.242l-5.07-2.495-37.505-18.447L567.52,459.831a3.915,3.915,0,0,0-2.99-.194Z" transform="translate(-342.199 -244.246)" fill="#059762"/>
    <path id="Path_324" data-name="Path 324" d="M555.18,460.582a10.9,10.9,0,0,0-1.135,1.989,11.16,11.16,0,0,0,5.7,14.7l18.741,8.273a3.933,3.933,0,0,0,3.706-.294,3.86,3.86,0,0,0,1.118-1.1,3.748,3.748,0,0,0,.34-.607l5.84-13.229a.559.559,0,0,0,.036-.1,3.914,3.914,0,0,0-2.037-5.068l-18.741-8.273A11.164,11.164,0,0,0,555.18,460.582Z" transform="translate(-340.27 -242.855)" fill="#2f2e41"/>
    <path id="Path_325" data-name="Path 325" d="M633.369,563.529h-8.893a3.92,3.92,0,0,0-3.916,3.916v55.438a3.92,3.92,0,0,0,3.916,3.916h8.893a3.916,3.916,0,0,0,3.916-3.917V567.445a3.916,3.916,0,0,0-3.917-3.916Z" transform="translate(-367.085 -285.624)" fill="#3a5"/>
    <path id="Path_326" data-name="Path 326" d="M596.567,569.827a5.188,5.188,0,0,1-1.894-.358l-49.538-19.381a5.375,5.375,0,0,1-2.97-6.987l4.239-10.835a5.448,5.448,0,0,1,2.843-3,5.218,5.218,0,0,1,4.08-.113l49.539,19.381a5.222,5.222,0,0,1,2.92,2.851,5.447,5.447,0,0,1,.05,4.136L601.6,566.352A5.432,5.432,0,0,1,596.567,569.827Z" transform="translate(-335.769 -271.815)" fill="#ccc"/>
    <path id="Path_327" data-name="Path 327" d="M633.706,669.916h-9.64a3.314,3.314,0,0,1,0-6.628h9.64a3.314,3.314,0,0,1,0,6.628Z" transform="translate(-367.161 -325.277)" fill="#2f2e41"/>
    <path id="Path_328" data-name="Path 328" d="M508.9,566.071a16.062,16.062,0,0,1-3.6-.381c-5.348-1.234-7.323-3.582-7.647-4.774a1.06,1.06,0,0,1,.2-1.091.923.923,0,0,1,.987-.137c1.661.555,25.214-4.1,33.578-6.033,3.478-.8,5.92-.67,7.256.393a2.34,2.34,0,0,1,.945,1.708v.21l-16.449,6.092C523.628,562.323,515.963,566.071,508.9,566.071Z" transform="translate(-318.2 -281.494)" fill="#2f2e41"/>
    <path id="Path_329" data-name="Path 329" d="M623.593,646.785a.6.6,0,0,1-.552-.36l-31.034-70.589a1.8,1.8,0,0,0-1.692-1.079L505.4,576.49a1.8,1.8,0,0,0-1.505.864l-40.753,66.64a.6.6,0,0,1-1.028-.628l40.753-66.641a3,3,0,0,1,2.508-1.441l84.914-1.733a3.014,3.014,0,0,1,2.819,1.8l31.034,70.589a.6.6,0,0,1-.551.845Z" transform="translate(-304.071 -289.608)" fill="#2f2e41"/>
    <path id="Path_330" data-name="Path 330" d="M553.644,653.411a.6.6,0,0,1-.579-.436l-19.642-68.338a.6.6,0,1,1,1.158-.333l19.642,68.338a.6.6,0,0,1-.579.769Z" transform="translate(-332.44 -293.708)" fill="#2f2e41"/>
    <path id="Path_331" data-name="Path 331" d="M552.337,547.914H533.057A13.572,13.572,0,0,1,519.5,534.358v-3.013a13.572,13.572,0,0,1,13.557-13.557h19.281a13.572,13.572,0,0,1,13.557,13.557v3.013a13.572,13.572,0,0,1-13.557,13.557Z" transform="translate(-326.915 -267.443)" fill="#ccc"/>
    <circle id="Ellipse_49" data-name="Ellipse 49" cx="3.615" cy="3.615" r="3.615" transform="translate(320.771 359.218)" fill="#2f2e41"/>
    <circle id="Ellipse_50" data-name="Ellipse 50" cx="3.615" cy="3.615" r="3.615" transform="translate(150.862 359.218)" fill="#2f2e41"/>
    <path id="Path_332" data-name="Path 332" d="M668.778,524.3a2.109,2.109,0,0,1-.705-4.1l18.178-6.426a2.109,2.109,0,0,1,1.406,3.976l-18.178,6.427A2.1,2.1,0,0,1,668.778,524.3Z" transform="translate(-385.411 -265.798)" fill="#2f2e41"/>
    <path id="Path_333" data-name="Path 333" d="M590.756,660.445a.6.6,0,0,1-.434-1.021l54.47-56.456a.6.6,0,0,1,.867.837L591.19,660.26a.6.6,0,0,1-.434.184Z" transform="translate(-354.999 -301.227)" fill="#2f2e41"/>
    <path id="Path_334" data-name="Path 334" d="M472.078,709.64a.6.6,0,1,1,0-1.205l50.324-.146h0a.6.6,0,1,1,0,1.2l-50.324.147Z" transform="translate(-307.826 -343.164)" fill="#2f2e41"/>
    <path id="Path_335" data-name="Path 335" d="M673.936,552.914a.6.6,0,0,1-.589-.476l-2.818-13.162a.6.6,0,0,1,.589-.729h9.56v-6.461a.6.6,0,1,1,1.205,0v7.063a.6.6,0,0,1-.6.6h-9.417l2.662,12.433a.6.6,0,0,1-.59.729Z" transform="translate(-386.941 -272.887)" fill="#2f2e41"/>
    <path id="Path_336" data-name="Path 336" d="M566.05,720.389a12.05,12.05,0,1,1,12.05-12.05,12.05,12.05,0,0,1-12.05,12.05Zm0-22.9A10.845,10.845,0,1,0,576.9,708.339,10.845,10.845,0,0,0,566.05,697.494Z" transform="translate(-340.628 -338.394)" fill="#2f2e41"/>
    <path id="Path_337" data-name="Path 337" d="M584.706,716.916h-9.64a3.314,3.314,0,1,1,0-6.628h9.64a3.314,3.314,0,0,1,0,6.628Z" transform="translate(-347.684 -343.958)" fill="#2f2e41"/>
    <path id="Path_338" data-name="Path 338" d="M681.34,796.336H236.506a.717.717,0,0,1,0-1.435H681.34a.717.717,0,1,1,0,1.435Z" transform="translate(-214.144 -377.59)" fill="#3f3d56"/>
    <path id="Path_339" data-name="Path 339" d="M576.9,432.608a3.886,3.886,0,0,0-2.644,1.419l-4.445,5.424-1.19,1.45a3.923,3.923,0,0,0,.541,5.513l20.668,16.945L626.484,493.4a3.923,3.923,0,0,0,5.323-.329c.068-.07.127-.138.19-.212l3.4-4.15,2.235-2.729a3.912,3.912,0,0,0-.549-5.512l-4.369-3.583-32.324-26.5-20.625-16.913a3.915,3.915,0,0,0-2.868-.869Z" transform="translate(-346.087 -233.578)" fill="#8fd03d"/>
    <circle id="Ellipse_51" data-name="Ellipse 51" cx="32.246" cy="32.246" r="32.246" transform="translate(185.381 112.302)" fill="#059762"/>
    <path id="Path_340" data-name="Path 340" d="M606.236,352.321l-.034-1.205c2.242-.062,4.218-.2,5.7-1.288a3.7,3.7,0,0,0,1.435-2.728,2.117,2.117,0,0,0-.695-1.744c-.986-.833-2.572-.563-3.728-.033l-1,.457,1.912-13.973,1.194.164L609.4,343.857a4.254,4.254,0,0,1,4.024.579,3.3,3.3,0,0,1,1.121,2.707,4.9,4.9,0,0,1-1.928,3.659C610.709,352.2,608.229,352.266,606.236,352.321Z" transform="translate(-361.378 -193.519)" fill="#2f2e41"/>
    <rect id="Rectangle_258" data-name="Rectangle 258" width="6.49" height="1.205" transform="translate(235.067 139.478)" fill="#2f2e41"/>
    <path id="Path_341" data-name="Path 341" d="M597.928,446.513l-14.377-14.59a11.147,11.147,0,0,0-15.884,15.644l14.377,14.59a3.914,3.914,0,0,0,4.924.535,3.248,3.248,0,0,0,.616-.491l10.3-10.147a3.875,3.875,0,0,0,.855-1.247A3.937,3.937,0,0,0,597.928,446.513Z" transform="translate(-344.787 -231.991)" fill="#2f2e41"/>
    <path id="Path_342" data-name="Path 342" d="M584.369,607.529h-8.893a3.92,3.92,0,0,0-3.916,3.916v55.438a3.92,3.92,0,0,0,3.916,3.916h8.893a3.916,3.916,0,0,0,3.916-3.917V611.445a3.916,3.916,0,0,0-3.917-3.916Z" transform="translate(-347.608 -303.113)" fill="#3a5"/>
    <path id="Path_343" data-name="Path 343" d="M560.8,596.076a5.576,5.576,0,0,1-5.739-4.3l-9.016-52.425a4.952,4.952,0,0,1,1.146-4.024,6.583,6.583,0,0,1,3.983-2.248l13.018-2.239c3.326-.572,6.434,1.312,6.93,4.2l9.016,52.425a4.953,4.953,0,0,1-1.143,4.023,6.584,6.584,0,0,1-3.987,2.249l-13.018,2.239a7.018,7.018,0,0,1-1.191.1Z" transform="translate(-337.44 -272.59)" fill="#ccc"/>
    <path id="Path_344" data-name="Path 344" d="M563.656,416.41a23.331,23.331,0,0,0-5.29-4.467,27.019,27.019,0,0,0-28.246.122,23.559,23.559,0,0,0-4.6,3.8,20.027,20.027,0,0,0-5.6,13.737v58a2.534,2.534,0,0,0,.048.527,4.081,4.081,0,0,0,4.169,3.2h40.411a4,4,0,0,0,4.218-3.727v-58a19.9,19.9,0,0,0-5.11-13.188Z" transform="translate(-327.082 -223.811)" fill="#2f2e41"/>
    <path id="Path_345" data-name="Path 345" d="M546.728,315.194a7.1,7.1,0,0,1-9.347-6.1,7.211,7.211,0,0,1,2.244-5.765,9.705,9.705,0,0,1,5.064-2.243c4.06-.7,8.232-.133,12.31-.74,4.113-.612,7.738-2.737,9.54-6.6a14.861,14.861,0,0,0,.1-12.092c-1.871-4.279-5.541-7.537-9.584-9.73-7.782-4.221-17.122-5.052-25.7-3.18A39.92,39.92,0,0,0,509.272,281.9q-1.025,1.235-1.943,2.554a.908.908,0,0,0,.78,1.36l5.286-.636-.78-1.36-5.745,10.329c-.353.635.246,1.62,1.021,1.328l8.426-3.175-.879-1.511-8.363,10.182c-.733.892.539,2.178,1.278,1.278l8.363-10.182c.508-.619.055-1.863-.879-1.511l-8.426,3.175,1.021,1.328,5.745-10.329c.3-.539-.065-1.446-.78-1.36l-5.286.636.78,1.36a37.55,37.55,0,0,1,20.783-14.341c8.3-2.3,17.542-1.928,25.351,1.883,4.127,2.014,7.9,5.039,9.884,9.271a12.831,12.831,0,0,1-.426,11.607c-4.535,7.742-15.107,3.763-22.182,6.018a9.248,9.248,0,0,0-6.732,9.185,8.851,8.851,0,0,0,8.492,8.38,8.593,8.593,0,0,0,3.15-.432c1.1-.365.628-2.111-.48-1.743Z" transform="translate(-321.854 -168.077)" fill="#2f2e41"/>
    <path id="Path_346" data-name="Path 346" d="M878.632,215.194h.139V215A1.97,1.97,0,0,1,878.632,215.194Zm-.928-84.509c-.307-.4-.62-.807-.946-1.205a72.171,72.171,0,0,0-53.016-27.107q-.687-.036-1.374-.054c-.687-.018-1.374-.03-2.067-.03a72.083,72.083,0,0,0-53.033,23.221c-.416.44-.814.886-1.205,1.332q-1.148,1.292-2.217,2.639c-.325.4-.638.8-.946,1.205a72.14,72.14,0,0,0,3.163,91.655c.392.446.789.892,1.205,1.332A72.206,72.206,0,0,0,879.1,216.616c.265-.374.53-.747.789-1.127a71.722,71.722,0,0,0,12.225-32.542c.054-.4.1-.8.133-1.205q.352-3.525.355-7.152a71.891,71.891,0,0,0-14.9-43.905Zm13.2,52.262a70.464,70.464,0,0,1-11.629,31.307q-.244.371-.506.741a1.98,1.98,0,0,1-.139.2c-.042.066-.09.133-.139.2a71.014,71.014,0,0,1-111.225,6.5c-.416-.458-.819-.916-1.205-1.386a70.954,70.954,0,0,1-1.645-89.817c.32-.4.639-.807.97-1.205.217-.271.44-.536.675-.8.386-.47.789-.928,1.205-1.386a70.9,70.9,0,0,1,53.034-23.8q1.347,0,2.675.054c.464.012.922.036,1.38.06a71.006,71.006,0,0,1,50.859,25.872c.331.4.651.8.97,1.205a71.107,71.107,0,0,1,14.858,51.057c-.042.4-.084.807-.139,1.205Zm-12.273,32.247h.139V215A1.98,1.98,0,0,1,878.632,215.194Z" transform="translate(-417.74 -102.289)" fill="#ccc"/>
    <path id="Path_347" data-name="Path 347" d="M421.829,722.658a54.829,54.829,0,1,1,54.829-54.829A54.829,54.829,0,0,1,421.829,722.658Zm0-108.453a53.624,53.624,0,1,0,53.624,53.624,53.624,53.624,0,0,0-53.624-53.624Z" transform="translate(-266.299 -305.288)" fill="#2f2e41"/>
    <path id="Path_348" data-name="Path 348" d="M703.829,722.658a54.829,54.829,0,1,1,54.829-54.829,54.829,54.829,0,0,1-54.829,54.829Zm0-108.453a53.624,53.624,0,1,0,53.624,53.624,53.624,53.624,0,0,0-53.624-53.624Z" transform="translate(-378.389 -305.288)" fill="#2f2e41"/>
  </g>
</svg>
