<svg id="Group_10178" data-name="Group 10178" xmlns="http://www.w3.org/2000/svg" width="511.563" height="532.448" viewBox="0 0 511.563 532.448">
  <path id="Path_2627" data-name="Path 2627" d="M454.491,405.208l-.01.24,12.01,127h-87.64l-11.36-78-5,76-90-1,9.56-99.78,8.13-46.25v-.01l1.22-6.96H452.1l.21,2.52Z" fill="#ddd"/>
  <path id="Path_2628" data-name="Path 2628" d="M222.883,478.831c9.282,1.691,18.96-8.762,21.618-23.348a37.106,37.106,0,0,0-.78-17.506l1.423-8.408L269.027,316.46s43.98-87.975,43.979-103.248-12.722-22.763-12.722-22.763l-17.214.161L229.087,322.457l-9.722,97.43-1.573,13.367a37.1,37.1,0,0,0-6.9,16.106c-2.657,14.586,2.713,27.78,11.995,29.471Z" fill="#ccc"/>
  <path id="Path_2629" data-name="Path 2629" d="M397.991,135.948l-16-37-52,9-3.5,43.532Z" fill="#ffb6b6"/>
  <path id="Path_2630" data-name="Path 2630" d="M397.991,135.948l-16-37-52,9-3.5,43.532Z" opacity="0.1"/>
  <path id="Path_2631" data-name="Path 2631" d="M510.991,212.948s-37-69-44-76c-3.116-3.116-8.015-3.16-12.493-2.251l-51.507-17.749-17.458-9.809-1.15,18.662-57.315,10.288c.318-11.381,1.924-15.71,1.924-15.71l-21,24.57-41,20,.022.18a16.312,16.312,0,0,0-8.022,5.82c-8,11-30,145-30,145l47,10,6.4-40.139,4.6,36.139,3.5,67.5s64,55,95,35,69-19,69-19l.948-31.288c.675-1.079,1.052-1.712,1.052-1.712l-1-110.984V231.932c7.618,10.613,16.811,19.741,27.5,24.016,35,14,28-43,28-43Z" fill="#f6f4f4"/>
  <circle id="Ellipse_370" data-name="Ellipse 370" cx="47.839" cy="47.839" r="47.839" transform="translate(302.717 18.781)" fill="#ccc"/>
  <path id="Path_2632" data-name="Path 2632" d="M384.875,80.14s4.16-14.56,13.52-13.52,11.44-7.28,9.36-11.44-6.24-24.959-6.24-24.959,2.08-14.559-10.4-16.639-16.639-4.16-18.719-8.32-33.279-8.32-43.679-2.08-18.719,18.212-26,21.586-13.52,9.614-9.36,20.013S303.551,75.52,303.551,75.52s10.607-3.7,12.686,2.54S310,75.98,320.4,59.34,330.8,26.061,347.436,32.3s35.359,4.16,33.279,16.639,4.16,31.2,4.16,31.2Z" fill="#576d7e"/>
  <g id="Group_10176" data-name="Group 10176">
    <path id="Path_2633" data-name="Path 2633" d="M381.949,459.384H18.633A18.655,18.655,0,0,1,0,440.751V247.758a18.655,18.655,0,0,1,18.633-18.633H381.949a18.655,18.655,0,0,1,18.633,18.633V440.751a18.655,18.655,0,0,1-18.633,18.633Z" fill="#fff"/>
    <path id="Path_2634" data-name="Path 2634" d="M381.949,459.384H18.633A18.655,18.655,0,0,1,0,440.751V247.758a18.655,18.655,0,0,1,18.633-18.633H381.949a18.655,18.655,0,0,1,18.633,18.633V440.751a18.655,18.655,0,0,1-18.633,18.633ZM18.633,232.236A15.539,15.539,0,0,0,3.112,247.758V440.751a15.539,15.539,0,0,0,15.522,15.522H381.949a15.539,15.539,0,0,0,15.522-15.522V247.758a15.539,15.539,0,0,0-15.522-15.522H18.633Z" fill="#3f3d56"/>
    <circle id="Ellipse_371" data-name="Ellipse 371" cx="4.667" cy="4.667" r="4.667" transform="translate(349.241 243.127)" fill="#3a5"/>
    <circle id="Ellipse_372" data-name="Ellipse 372" cx="4.667" cy="4.667" r="4.667" transform="translate(361.688 243.127)" fill="#8fd03d"/>
    <circle id="Ellipse_373" data-name="Ellipse 373" cx="4.667" cy="4.667" r="4.667" transform="translate(374.134 243.127)" fill="#059762"/>
    <path id="Path_2635" data-name="Path 2635" d="M26.449,323.251a2.336,2.336,0,0,0-2.334,2.334,2.355,2.355,0,0,0,2.334,2.334H375.69a2.336,2.336,0,0,0,2.334-2.334,2.355,2.355,0,0,0-2.334-2.334Z" fill="#e6e6e6"/>
    <path id="Path_2636" data-name="Path 2636" d="M332.127,322.473V328.7H26.449a3.134,3.134,0,0,1-3.112-3.112,3.121,3.121,0,0,1,3.112-3.112Z" fill="#8fd03d"/>
    <path id="Path_2637" data-name="Path 2637" d="M371.8,310.8H340.684a6.223,6.223,0,1,1,0-12.446H371.8a6.223,6.223,0,0,1,0,12.446Z" fill="#e6e6e6"/>
    <path id="Path_2638" data-name="Path 2638" d="M167.99,278.133H28.782a6.223,6.223,0,0,1,0-12.446H167.99a6.223,6.223,0,0,1,0,12.446Z" fill="#e6e6e6"/>
    <path id="Path_2639" data-name="Path 2639" d="M26.449,393.262a2.336,2.336,0,0,0-2.334,2.334,2.355,2.355,0,0,0,2.334,2.334H375.69a2.336,2.336,0,0,0,2.334-2.334,2.355,2.355,0,0,0-2.334-2.334Z" fill="#e6e6e6"/>
    <path id="Path_2640" data-name="Path 2640" d="M212.33,392.484v6.223H26.449a3.134,3.134,0,0,1-3.112-3.112,3.121,3.121,0,0,1,3.112-3.112Z" fill="#059762"/>
    <path id="Path_2641" data-name="Path 2641" d="M371.8,380.816H340.684a6.223,6.223,0,1,1,0-12.446H371.8a6.223,6.223,0,0,1,0,12.446Z" fill="#e6e6e6"/>
  </g>
  <g id="Group_10177" data-name="Group 10177">
    <ellipse id="Ellipse_374" data-name="Ellipse 374" cx="48.726" cy="47.7" rx="48.726" ry="47.7" transform="translate(377.548 22.741)" fill="#059762"/>
    <path id="Path_2642" data-name="Path 2642" d="M442.811,46.381,423.35,81.817q-6.2-10.957-12.391-21.922c-1.431-2.521-5.325-.254-3.89,2.274,4.8,8.461,9.559,16.951,14.364,25.413a2.272,2.272,0,0,0,3.89,0L446.7,48.654c1.4-2.543-2.492-4.818-3.89-2.274Z" fill="#fff"/>
  </g>
  <path id="Path_2643" data-name="Path 2643" d="M493.538,196.172l-48.547-23.223s-1.95-15.544-11.054-21.088c-1.548-3.693-3.329-7.749-4.946-10.963-4-7.949,2-22.949-3-22.949s-12.391,15.775-12,20c.3,3.243,2.981,8.9,3.534,13.861a42.772,42.772,0,0,0-14.25,9.379,10.526,10.526,0,0,0-2.745,10.511c3.169,10.847,11.091,33.249,22.46,33.249,15,0,19-3,19-3s31,39,54,42-2.453-47.777-2.453-47.777Z" fill="#ccc"/>
</svg>
