<svg xmlns="http://www.w3.org/2000/svg" width="850.775" height="628.92" viewBox="0 0 850.775 628.92">
  <g id="Group_10179" data-name="Group 10179" transform="translate(0.023)">
    <path id="Path_2644" data-name="Path 2644" d="M848.777,712.8H812.805c-.533-.967-1.029-1.958-1.488-2.963-4.14-8.863-5.888-18.755-7.561-28.448l-2.715-15.742q13.015,9.464,26.018,18.916c2.826,2.058,5.714,4.2,8.429,6.52,5.715,4.847,10.648,10.449,12.581,17.565.1.4.2.793.273,1.19a24.158,24.158,0,0,1,.434,2.962Z" transform="translate(-126.475 -83.881)" fill="#8fd03d"/>
    <path id="Path_2645" data-name="Path 2645" d="M847.379,707.517a.972.972,0,0,1-.012.186,12.994,12.994,0,0,1-.669,2.776H830.544a20.228,20.228,0,0,1-1.289-2.963,21.7,21.7,0,0,1-1.054-4.2,43.652,43.652,0,0,1,.842-14.552c.31-1.549.645-3.111.979-4.648l1.909-8.776L841.49,690.7C844.689,695.84,848.011,701.5,847.379,707.517Z" transform="translate(-120.032 -81.56)" fill="#059762"/>
    <path id="Path_2646" data-name="Path 2646" d="M1106.338,233.352H258.081a1.259,1.259,0,1,1,0-2.517h848.257a1.259,1.259,0,1,1,0,2.517Z" transform="translate(-256.845 -188.042)" fill="#cacaca"/>
    <ellipse id="Ellipse_375" data-name="Ellipse 375" cx="13.543" cy="13.844" rx="13.543" ry="13.844" transform="translate(15.404 0)" fill="#059762"/>
    <ellipse id="Ellipse_376" data-name="Ellipse 376" cx="13.543" cy="13.844" rx="13.543" ry="13.844" transform="translate(62.188 0)" fill="#8fd03d"/>
    <ellipse id="Ellipse_377" data-name="Ellipse 377" cx="13.543" cy="13.844" rx="13.543" ry="13.844" transform="translate(108.971 0)" fill="#3a5"/>
    <path id="Path_2647" data-name="Path 2647" d="M926.46,204.117H893.219a2.517,2.517,0,1,1,0-5.035H926.46a2.517,2.517,0,1,1,0,5.035Z" transform="translate(-104.997 -195.649)" fill="#ddd"/>
    <path id="Path_2648" data-name="Path 2648" d="M926.46,211.732H893.219a2.517,2.517,0,1,1,0-5.035H926.46a2.517,2.517,0,1,1,0,5.035Z" transform="translate(-104.997 -193.825)" fill="#ddd"/>
    <path id="Path_2649" data-name="Path 2649" d="M926.449,219.347H893.208a2.518,2.518,0,0,1,0-5.034h33.241a2.518,2.518,0,0,1,0,5.034Z" transform="translate(-104.986 -192)" fill="#ddd"/>
    <path id="Path_2650" data-name="Path 2650" d="M970.7,650.154H326.637a25.7,25.7,0,0,1-25.666-25.666V303.953a25.7,25.7,0,0,1,25.666-25.666H970.7a25.7,25.7,0,0,1,25.666,25.666V624.488A25.7,25.7,0,0,1,970.7,650.154Z" transform="translate(-246.269 -176.675)" fill="#f0f0f0"/>
    <path id="Path_2651" data-name="Path 2651" d="M1027.729,720.708H383.672a25.7,25.7,0,0,1-25.666-25.666V374.507a25.7,25.7,0,0,1,25.666-25.666h644.057a25.7,25.7,0,0,1,25.666,25.666V695.042A25.7,25.7,0,0,1,1027.729,720.708Z" transform="translate(-232.606 -159.773)" fill="#fff"/>
    <path id="Path_2652" data-name="Path 2652" d="M1027.729,720.708H383.672a25.7,25.7,0,0,1-25.666-25.666V374.507a25.7,25.7,0,0,1,25.666-25.666h644.057a25.7,25.7,0,0,1,25.666,25.666V695.042A25.7,25.7,0,0,1,1027.729,720.708ZM383.672,352.561a21.972,21.972,0,0,0-21.947,21.947V695.042a21.972,21.972,0,0,0,21.947,21.948h644.057a21.972,21.972,0,0,0,21.947-21.948V374.507a21.972,21.972,0,0,0-21.947-21.947Z" transform="translate(-232.606 -159.773)" fill="#e4e4e4"/>
    <path id="Path_2653" data-name="Path 2653" d="M418.612,636.225H933.623V547.954a69.894,69.894,0,0,0-21.438-49.785l-.14-.137c-9.2-9.229-39.939-32.653-71.745-30.667-16.8,1.046-31.186,9.143-42.753,24.067-36,46.471-83.3,30.784-108.289,17.3-22.022-11.888-44.511-17.467-66.849-16.579-31.284,1.223-75.317,12.748-107.429,60.707C502.714,571.16,476.041,596,418.613,610.6Z" transform="translate(-218.088 -131.409)" fill="#059762"/>
    <path id="Path_2654" data-name="Path 2654" d="M962.9,656.194H419.74a1.7,1.7,0,0,1-1.7-1.7V394.158a1.7,1.7,0,0,1,3.4,0V652.794H962.9a1.7,1.7,0,0,1,0,3.4Z" transform="translate(-218.225 -149.325)" fill="#ddd"/>
    <circle id="Ellipse_378" data-name="Ellipse 378" cx="10.199" cy="10.199" r="10.199" transform="translate(392.985 353.217)" fill="#3a5"/>
    <circle id="Ellipse_379" data-name="Ellipse 379" cx="10.199" cy="10.199" r="10.199" transform="translate(593.022 326.546)" fill="#3a5"/>
    <circle id="Ellipse_380" data-name="Ellipse 380" cx="10.199" cy="10.199" r="10.199" transform="translate(493.003 381.556)" fill="#8fd03d"/>
    <circle id="Ellipse_381" data-name="Ellipse 381" cx="10.199" cy="10.199" r="10.199" transform="translate(292.968 396.558)" fill="#8fd03d"/>
    <circle id="Ellipse_382" data-name="Ellipse 382" cx="10.199" cy="10.199" r="10.199" transform="translate(693.039 363.219)" fill="#8fd03d"/>
    <path id="Path_2655" data-name="Path 2655" d="M921.4,533.638a10.7,10.7,0,0,1,1.141-16.361l-11-36.383,18.93,5.638,7.54,33.686a10.754,10.754,0,0,1-16.615,13.42Z" transform="translate(-100.004 -128.14)" fill="#dcdcdc"/>
    <path id="Path_2656" data-name="Path 2656" d="M775.515,350.725a10.7,10.7,0,0,0,11.119,12.056L800.8,398.053l11.25-16.235-15.174-31.006a10.754,10.754,0,0,0-21.357-.088Z" transform="translate(-132.611 -161.584)" fill="#dcdcdc"/>
    <path id="Path_2657" data-name="Path 2657" d="M651.191,504.532h-13.04l-6.2-50.3h19.245Z" transform="translate(151.391 108.814)" fill="#dcdcdc"/>
    <path id="Path_2658" data-name="Path 2658" d="M915.126,704.588l-42.046,0v-.532a16.366,16.366,0,0,1,16.364-16.365h25.682Z" transform="translate(-109.218 -78.601)" fill="#adadad"/>
    <path id="Path_2659" data-name="Path 2659" d="M615.449,504.868l-12.432-3.936,9.266-49.825,18.348,5.81Z" transform="translate(144.461 108.065)" fill="#dcdcdc"/>
    <path id="Path_2660" data-name="Path 2660" d="M877.12,706.082l-40.085-12.691.16-.507a16.367,16.367,0,0,1,20.542-10.663h0l24.483,7.751Z" transform="translate(-117.853 -80.095)" fill="#adadad"/>
    <path id="Path_2661" data-name="Path 2661" d="M860.133,492.93s-19.348,30.38-12.511,57.494S861.9,629.657,861.9,629.657l37.07,88.222,27.633-1.127L899.166,612.736l1.085-69.547s19.073-33.238,15.359-43.585S860.133,492.93,860.133,492.93Z" transform="translate(-115.667 -125.408)" fill="#adadad"/>
    <path id="Path_2662" data-name="Path 2662" d="M919.888,501.882s2.38,30.138-5.065,42.9-15.378,61.344-15.378,61.344L886.79,703.286l-26.212-8.53L882.929,585.9,900.5,500.274Z" transform="translate(-112.213 -123.497)" fill="#adadad"/>
    <path id="Path_2663" data-name="Path 2663" d="M931.478,386.763l-20.451-14.058-31.122-.9-10.838,10.626-16.539,8.446-1.532,137.6s49.529,23.74,76.174,12.281l12.818-107.186C945.305,412.291,931.478,386.763,931.478,386.763Z" transform="translate(-114.509 -154.273)" fill="#ddd"/>
    <path id="Path_2664" data-name="Path 2664" d="M873.051,430.559H818.5l-35.841-61.693,23.3-9.231L825.7,394.743l28.566-2.585,17.836-.863a19.643,19.643,0,0,1,20.446,22.014h0a19.666,19.666,0,0,1-19.5,17.25Z" transform="translate(-130.879 -157.188)" fill="#adadad"/>
    <circle id="Ellipse_383" data-name="Ellipse 383" cx="26.984" cy="26.984" r="26.984" transform="translate(756.51 152.229)" fill="#adadad"/>
    <path id="Path_2665" data-name="Path 2665" d="M926.927,341.4c-.829-5.924-4.841-11.549-10.547-13.344-2.267-6.582-8.271-11.428-14.9-13.541a29.114,29.114,0,0,0-33.469,12.207c-.508.8-2.069,2.759-2.025,3.712.055,1.21,1.906,2.459,2.836,3.221a41.573,41.573,0,0,0,7.414,4.576c9.7,5.031,6.473,12.937,6.342,21.9-.064,4.354,1.39,8.071,5.1,10.558,5.358,3.589,13.025,2.161,18.855.721,6.615-1.635,12.114-7.445,15.886-13.048C925.757,353.4,927.757,347.325,926.927,341.4Z" transform="translate(-110.919 -168.326)" fill="#c9c9c9"/>
    <path id="Path_2666" data-name="Path 2666" d="M660.184,215.476l22.882,113.366-33.733,1.846Z" transform="translate(155.556 51.618)" fill="#adadad"/>
    <path id="Path_2667" data-name="Path 2667" d="M968.412,702.773a1.481,1.481,0,0,1-1.475,1.488H791.788a1.481,1.481,0,1,1,0-2.963H966.937a1.478,1.478,0,0,1,1.475,1.475Z" transform="translate(-129.047 -75.341)" fill="#cacaca"/>
  </g>
</svg>
