<svg id="Group_9845" data-name="Group 9845" xmlns="http://www.w3.org/2000/svg" width="41" height="41" viewBox="0 0 41 41">
  <g id="Ellipse_266" data-name="Ellipse 266" fill="#fff" stroke="#059762" stroke-width="1">
    <circle cx="20.5" cy="20.5" r="20.5" stroke="none"/>
    <circle cx="20.5" cy="20.5" r="20" fill="none"/>
  </g>
  <g id="Page-1" transform="translate(10.4 9)">
    <g id="Dribbble-Light-Preview">
      <g id="icons">
        <path id="profile_round-_1346_" data-name="profile_round-[#1346]" d="M338.083,1965a4.084,4.084,0,1,0-4.083,4,4.046,4.046,0,0,0,4.083-4m3.863,14h-1.821a1,1,0,1,1,0-2h.439a.994.994,0,0,0,.96-1.338,8.4,8.4,0,0,0-15.046,0,.994.994,0,0,0,.96,1.338h.438a1,1,0,1,1,0,2h-1.822a2,2,0,0,1-2.01-2.364,9.519,9.519,0,0,1,6.12-6.963,5.94,5.94,0,0,1-2.289-4.673,6.137,6.137,0,0,1,12.179-.93,5.935,5.935,0,0,1-2.218,5.6,9.519,9.519,0,0,1,6.12,6.963,2,2,0,0,1-2.01,2.364m-4.884-1a1.011,1.011,0,0,1-1.02,1h-4.084a1,1,0,1,1,0-2h4.084a1.011,1.011,0,0,1,1.02,1" transform="translate(-324 -1959)" fill="#059762" stroke="#fff" stroke-width="1" fill-rule="evenodd"/>
      </g>
    </g>
  </g>
</svg>
