<svg xmlns="http://www.w3.org/2000/svg" width="22.14" height="22.128" viewBox="0 0 22.14 22.128">
  <g id="whatsapp" transform="translate(-31.367 -31.6)">
    <g id="Path_2190" data-name="Path 2190" transform="translate(-112.61 -106.157)" fill="#fff" fill-rule="evenodd">
      <path d="M 158.1341400146484 153.7952117919922 C 157.7849884033203 153.7952117919922 157.1925964355469 153.6929168701172 155.4460754394531 152.9342498779297 C 153.8301239013672 152.2319946289062 152.2657623291016 150.7673492431641 151.0411529541016 148.8101196289062 C 151.0176849365234 148.7726287841797 151.0017547607422 148.746826171875 150.9931945800781 148.7345733642578 C 150.6728057861328 148.2769470214844 149.9338073730469 147.0823059082031 149.9798278808594 145.8585510253906 C 150.0286254882812 144.5696105957031 150.7055969238281 143.9053649902344 150.9946594238281 143.6217193603516 C 151.0135192871094 143.6032257080078 151.0308685302734 143.5861968994141 151.0464324951172 143.5705718994141 C 151.3359375 143.2790679931641 151.6717987060547 143.2133483886719 151.9025421142578 143.2095947265625 L 151.9433288574219 143.2089385986328 C 152.0479736328125 143.2071990966797 152.13427734375 143.2057952880859 152.2153625488281 143.2057952880859 C 152.2863006591797 143.2057952880859 152.3485565185547 143.2068634033203 152.4113159179688 143.2091827392578 C 152.4214630126953 143.2095642089844 152.4317321777344 143.209716796875 152.4423522949219 143.2098846435547 C 152.7028656005859 143.2141876220703 152.9722747802734 143.2935028076172 153.177734375 143.8399047851562 C 153.2439422607422 144.0160369873047 153.3405303955078 144.2767486572266 153.4424896240234 144.5519409179688 C 153.6357269287109 145.0734710693359 153.8761901855469 145.7225341796875 153.9141845703125 145.8052978515625 C 153.9536285400391 145.8913269042969 154.0735931396484 146.1528930664062 153.9124145507812 146.445556640625 C 153.8989715576172 146.4700012207031 153.886474609375 146.4930877685547 153.87451171875 146.5151672363281 C 153.8011932373047 146.650634765625 153.7378692626953 146.7676086425781 153.6030426025391 146.9130249023438 C 153.5567169189453 146.9627227783203 153.5091552734375 147.0159759521484 153.4616546630859 147.0691528320312 C 153.3655853271484 147.1766662597656 153.2662658691406 147.2878570556641 153.177490234375 147.3694763183594 C 153.0342559814453 147.5001678466797 153.0142364501953 147.5333404541016 153.0815734863281 147.6583251953125 C 153.2550354003906 147.9802398681641 153.7353057861328 148.8022766113281 154.4465789794922 149.4806365966797 C 155.2408142089844 150.2382354736328 155.9304962158203 150.5658569335938 156.301025390625 150.7418670654297 C 156.375732421875 150.7773590087891 156.4347534179688 150.8053894042969 156.4817047119141 150.8309020996094 C 156.5689544677734 150.87841796875 156.6371917724609 150.9024658203125 156.6846771240234 150.9024658203125 C 156.7053070068359 150.9024658203125 156.7437133789062 150.9024658203125 156.8172454833984 150.8250732421875 C 157.0256042480469 150.6048889160156 157.5102691650391 150.0758361816406 157.6768646240234 149.8475646972656 C 157.8090362548828 149.6659088134766 157.9619750976562 149.5774688720703 158.1442565917969 149.5774688720703 C 158.2723083496094 149.5774688720703 158.3919372558594 149.621337890625 158.5134124755859 149.6701965332031 C 158.798095703125 149.7852630615234 160.2943878173828 150.5930786132812 160.3091735839844 150.6010894775391 C 160.3578186035156 150.6274871826172 160.4034576416016 150.6514587402344 160.4458465576172 150.6737365722656 C 160.6541595458984 150.783203125 160.8046722412109 150.8623046875 160.8838043212891 151.0049285888672 C 161.0048828125 151.2236175537109 160.9193267822266 151.8577270507812 160.6931762695312 152.4186096191406 C 160.4072723388672 153.1275482177734 159.2032928466797 153.6977691650391 158.6853942871094 153.7248687744141 C 158.6168060302734 153.7284851074219 158.5583038330078 153.7402496337891 158.4905395507812 153.7538757324219 C 158.3941497802734 153.7732543945312 158.2848968505859 153.7952117919922 158.1341400146484 153.7952117919922 Z" stroke="none"/>
      <path d="M 152.2153625488281 143.4057922363281 C 152.1249389648438 143.4057922363281 152.0279693603516 143.4075775146484 151.9057922363281 143.4095764160156 C 151.7293090820312 143.4124450683594 151.4402008056641 143.4579010009766 151.1881408691406 143.7117156982422 C 150.9357299804688 143.9651184082031 150.2285919189453 144.5744934082031 150.1796875 145.8660736083984 C 150.1311187744141 147.1574096679688 151.0315246582031 148.4405975341797 151.1572723388672 148.6201934814453 C 151.2829437255859 148.8004608154297 152.876708984375 151.5995941162109 155.5257720947266 152.7508087158203 C 158.1751403808594 153.9016876220703 158.1889343261719 153.5508728027344 158.6749572753906 153.5251312255859 C 159.1614227294922 153.4996948242188 160.2639617919922 152.9481658935547 160.5076904296875 152.3438262939453 C 160.7513732910156 151.7394714355469 160.7709808349609 151.2140502929688 160.7089233398438 151.1019592285156 C 160.6469268798828 150.990234375 160.4733428955078 150.9176788330078 160.2137298583984 150.77685546875 C 159.953857421875 150.6357421875 158.6780090332031 149.9524383544922 158.4387664794922 149.8557434082031 C 158.1993713378906 149.7594299316406 158.0247650146484 149.7093200683594 157.8384246826172 149.9654693603516 C 157.6519775390625 150.2209320068359 157.1226959228516 150.7932586669922 156.9622497558594 150.9628143310547 C 156.8011322021484 151.1324157714844 156.6460723876953 151.1481475830078 156.38623046875 151.0066375732422 C 156.1271057128906 150.8658599853516 155.2850036621094 150.5567779541016 154.3085479736328 149.6253662109375 C 153.5487518310547 148.9007263183594 153.0500335693359 148.0214080810547 152.9054870605469 147.753173828125 C 152.7608947753906 147.4847564697266 152.904541015625 147.3477935791016 153.0421295166016 147.2222442626953 C 153.1654663085938 147.1088409423828 153.3180847167969 146.9253692626953 153.4563751220703 146.7770538330078 C 153.5938873291016 146.6287384033203 153.6424255371094 146.5212097167969 153.7372283935547 146.3490905761719 C 153.831787109375 146.1773681640625 153.7937622070312 146.0224914550781 153.732421875 145.8887329101562 C 153.6710357666016 145.7550201416016 153.1910552978516 144.4438018798828 152.9905395507812 143.9103088378906 C 152.7899322509766 143.3768310546875 152.5581970214844 143.4149017333984 152.4039459228516 143.4090423583984 C 152.3399810791016 143.4066772460938 152.2793121337891 143.4057922363281 152.2153625488281 143.4057922363281 M 152.2153625488281 143.0057983398438 C 152.2889709472656 143.0057983398438 152.3535766601562 143.0069122314453 152.418701171875 143.0093078613281 C 152.4276733398438 143.0096588134766 152.4365234375 143.009765625 152.4456634521484 143.0099182128906 C 152.7425079345703 143.0148162841797 153.1152801513672 143.1055908203125 153.3649444580078 143.7695159912109 C 153.4312286376953 143.9458770751953 153.5279541015625 144.2069091796875 153.6300354003906 144.4824676513672 C 153.8103942871094 144.9692687988281 154.0574035644531 145.635986328125 154.0961456298828 145.7222900390625 C 154.2296295166016 146.0133666992188 154.226806640625 146.2892761230469 154.0876159667969 146.5420379638672 C 154.0744018554688 146.5660400390625 154.0621337890625 146.5887145996094 154.0503997802734 146.6103820800781 C 153.9739379882812 146.7516326904297 153.9017181396484 146.8850555419922 153.7496948242188 147.0490112304688 C 153.7039031982422 147.0981292724609 153.6573333740234 147.1502990722656 153.6107940673828 147.2024078369141 C 153.5115203857422 147.3135223388672 153.4088592529297 147.4284362792969 153.3128662109375 147.5167083740234 C 153.299072265625 147.5292816162109 153.2772216796875 147.5492248535156 153.2595062255859 147.5669097900391 C 153.4299926757812 147.8828125 153.8965911865234 148.6797180175781 154.5846252441406 149.3359069824219 C 155.3556365966797 150.0713653564453 156.0264434814453 150.3900146484375 156.3868408203125 150.5612182617188 C 156.4642944335938 150.5980072021484 156.5254669189453 150.6270599365234 156.5771942138672 150.6551666259766 C 156.6182250976562 150.6775207519531 156.6463012695312 150.6894073486328 156.6640319824219 150.6956939697266 C 156.6665191650391 150.6932373046875 156.6692657470703 150.6904602050781 156.6722259521484 150.6873321533203 C 156.8692779541016 150.4791107177734 157.3559722900391 149.947998046875 157.5153198242188 149.7296600341797 C 157.6852111816406 149.4961242675781 157.8969421386719 149.3774719238281 158.1442565917969 149.3774719238281 C 158.3079223632812 149.3774719238281 158.4532318115234 149.4304046630859 158.5880432128906 149.4846343994141 C 158.8876342773438 149.6057281494141 160.3897247314453 150.4172515869141 160.4046173095703 150.4253387451172 C 160.4523468017578 150.4512329101562 160.4972229003906 150.4748077392578 160.5388793945312 150.4966888427734 C 160.7689056396484 150.6175689697266 160.9505767822266 150.7130432128906 161.0586853027344 150.9078979492188 C 161.2332153320312 151.2231140136719 161.1001739501953 151.9440155029297 160.8786773681641 152.493408203125 C 160.559814453125 153.2839965820312 159.27197265625 153.8944549560547 158.6958465576172 153.9245758056641 C 158.6419372558594 153.9274444580078 158.5925140380859 153.9373779296875 158.5299530029297 153.949951171875 C 158.4296264648438 153.9701080322266 158.3047943115234 153.9952087402344 158.1341400146484 153.9952087402344 C 157.7644348144531 153.9952087402344 157.1464996337891 153.8909454345703 155.3663940429688 153.1176910400391 C 153.7137145996094 152.3994750976562 152.1174468994141 150.9073638916016 150.8716125488281 148.9161987304688 C 150.8512268066406 148.8836364746094 150.8369140625 148.8604431152344 150.8285064697266 148.8480224609375 C 150.4974060058594 148.3751983642578 149.7316589355469 147.1355133056641 149.7799682617188 145.8510437011719 C 149.831787109375 144.4825592041016 150.5485229492188 143.7792816162109 150.8545837402344 143.4789733886719 C 150.8728485107422 143.4610443115234 150.8896636962891 143.4445648193359 150.9047393798828 143.4294281005859 C 151.1711273193359 143.1611785888672 151.5151824951172 143.015869140625 151.8992919921875 143.0096282958984 L 151.9398803710938 143.0089569091797 C 152.0458526611328 143.0072174072266 152.1332550048828 143.0057983398438 152.2153625488281 143.0057983398438 Z" stroke="none" fill="#fff"/>
    </g>
    <g id="Path_2191" data-name="Path 2191" fill="#fff">
      <path d="M 31.68360328674316 53.41802215576172 L 31.81059265136719 53.04345321655273 L 33.65093612670898 47.61507034301758 C 32.69049835205078 46.00486373901367 32.18323135375977 44.16291809082031 32.18323135375977 42.28207397460938 C 32.18323135375977 36.50224304199219 36.92131423950195 31.80000305175781 42.74521255493164 31.80000305175781 C 45.56636428833008 31.80000305175781 48.21865463256836 32.89010238647461 50.21352386474609 34.86949157714844 C 52.20881271362305 36.84930419921875 53.30766296386719 39.48180389404297 53.30766296386719 42.28207397460938 C 53.30766296386719 48.06190490722656 48.56936264038086 52.76414489746094 42.74521255493164 52.76414489746094 C 40.98933029174805 52.76414489746094 39.25244140625 52.32779693603516 37.71632766723633 51.50155258178711 L 32.06055450439453 53.29827117919922 L 31.68360328674316 53.41802215576172 Z M 37.91706466674805 49.43620300292969 L 37.99216461181641 49.47741317749023 L 38.55835342407227 49.78804397583008 C 39.83247375488281 50.48703384399414 41.2802619934082 50.85650253295898 42.74521255493164 50.85650253295898 C 45.05946350097656 50.85650253295898 47.23456192016602 49.96289443969727 48.86983489990234 48.34029388427734 C 50.50141143798828 46.72123336791992 51.39997482299805 44.5697135925293 51.39997482299805 42.28207397460938 C 51.39997482299805 39.99420166015625 50.50142288208008 37.84262466430664 48.86983489990234 36.22367477416992 C 47.23477172851562 34.60121154785156 45.05967330932617 33.70769119262695 42.74521255493164 33.70769119262695 C 40.43115234375 33.70769119262695 38.25624465942383 34.60120391845703 36.62111282348633 36.2236213684082 C 34.98949432373047 37.84261322021484 34.09092330932617 39.99421310424805 34.09092330932617 42.28207397460938 C 34.09092330932617 43.84431457519531 34.51897430419922 45.37316131591797 35.32878112792969 46.70336151123047 L 35.69491195678711 47.30468368530273 L 35.74348449707031 47.38446426391602 L 35.71349334716797 47.4729118347168 L 35.48743438720703 48.13964462280273 L 34.70156478881836 50.4576530456543 L 37.21995162963867 49.65762329101562 L 37.83542251586914 49.46213150024414 L 37.91706466674805 49.43620300292969 Z" stroke="none"/>
      <path d="M 42.74521255493164 32.00000381469727 C 37.02273178100586 32.00000381469727 32.38323211669922 36.60321426391602 32.38323211669922 42.28207397460938 C 32.38323211669922 44.22459411621094 32.92657470703125 46.04145431518555 33.87015151977539 47.59136199951172 L 32.00000381469727 53.10766220092773 L 37.73695373535156 51.28515243530273 C 39.22146224975586 52.09954452514648 40.92877197265625 52.56414413452148 42.74521255493164 52.56414413452148 C 48.46845245361328 52.56414413452148 53.10766220092773 47.96027374267578 53.10766220092773 42.28207397460938 C 53.10766220092773 36.60321426391602 48.46845245361328 32.00000381469727 42.74521255493164 32.00000381469727 M 42.74521255493164 51.05650329589844 C 41.24666213989258 51.05650329589844 39.76564407348633 50.67849349975586 38.46215438842773 49.96338272094727 L 37.89596176147461 49.65274429321289 L 34.38516235351562 50.76801300048828 L 35.52408218383789 47.40869140625 L 35.15795135498047 46.8073616027832 C 34.32904434204102 45.44582366943359 33.89092254638672 43.8809814453125 33.89092254638672 42.28207397460938 C 33.89092254638672 39.94049453735352 34.81052398681641 37.73845291137695 36.48024368286133 36.0816535949707 C 38.15307235717773 34.42182159423828 40.37800216674805 33.50769424438477 42.74521255493164 33.50769424438477 C 45.11271286010742 33.50769424438477 47.33792114257812 34.42182159423828 49.01070404052734 36.08170318603516 C 50.68037414550781 37.73845291137695 51.59997177124023 39.94049453735352 51.59997177124023 42.28207397460938 C 51.59997177124023 44.6234245300293 50.68037414550781 46.82540130615234 49.01070404052734 48.48226165771484 C 47.33778381347656 50.1422233581543 45.11262130737305 51.05650329589844 42.74521255493164 51.05650329589844 M 42.74521255493164 31.60000228881836 C 45.61948394775391 31.60000228881836 48.32181167602539 32.71071243286133 50.35439300537109 34.72752380371094 C 52.38781356811523 36.74516296386719 53.50766372680664 39.42809295654297 53.50766372680664 42.28207397460938 C 53.50766372680664 48.17218399047852 48.67965316772461 52.96414184570312 42.74521255493164 52.96414184570312 C 40.98486328125 52.96414184570312 39.24322128295898 52.53363800048828 37.69663619995117 51.71766662597656 L 31.36720275878906 53.7283935546875 L 33.43206405639648 47.63775253295898 C 32.48362350463867 46.01560974121094 31.98323440551758 44.16807556152344 31.98323440551758 42.28207397460938 C 31.98323440551758 39.42814254760742 33.10310363769531 36.74522399902344 35.13655471801758 34.72752380371094 C 37.16911315917969 32.71071243286133 39.87125396728516 31.60000228881836 42.74521255493164 31.60000228881836 Z M 42.74521255493164 50.65650177001953 C 45.00633239746094 50.65650177001953 47.13140487670898 49.78350448608398 48.72896194458008 48.19832229614258 C 50.32241439819336 46.61709213256836 51.19997406005859 44.5159912109375 51.19997406005859 42.28207397460938 C 51.19997406005859 40.04793167114258 50.32241439819336 37.94677352905273 48.72896194458008 36.36564254760742 C 47.13161468505859 34.78061294555664 45.00654220581055 33.90769195556641 42.74521255493164 33.90769195556641 C 40.48428344726562 33.90769195556641 38.35939407348633 34.78059387207031 36.76198196411133 36.36559295654297 C 35.16849136352539 37.94675445556641 34.29092407226562 40.04793167114258 34.29092407226562 42.28207397460938 C 34.29092407226562 43.80763244628906 34.70888137817383 45.30052185058594 35.49961471557617 46.5993537902832 L 35.96288299560547 47.36022186279297 L 35.01797103881836 50.14728164672852 L 37.93816375732422 49.21964263916016 L 38.6545524597168 49.61269378662109 C 39.89926147460938 50.29556274414062 41.31379318237305 50.65650177001953 42.74521255493164 50.65650177001953 Z" stroke="none" fill="#fff"/>
    </g>
  </g>
</svg>
